<?xml version="1.0" encoding="utf-8"?>
<!-- Generator: Adobe Illustrator 25.1.0, SVG Export Plug-In . SVG Version: 6.00 Build 0)  -->
<svg version="1.1" id="Layer_1" xmlns="http://www.w3.org/2000/svg" xmlns:xlink="http://www.w3.org/1999/xlink" x="0px" y="0px"
	 viewBox="0 0 460.99 445.27" style="enable-background:new 0 0 460.99 445.27;" xml:space="preserve">
<style type="text/css">
	.st0{fill:#5B669A;}
	.st1{fill:#989CE5;}
	.st2{fill:#1A65A8;}
	.st3{fill:#2377A3;}
	.st4{fill:#2B94C5;}
	.st5{fill:#E8E5DE;}
	.st6{fill:#AC2153;}
	.st7{fill:#DB3462;}
	.st8{fill:#FFEF9D;}
	.st9{fill-rule:evenodd;clip-rule:evenodd;}
	.st10{fill-rule:evenodd;clip-rule:evenodd;fill:#FBBD2D;}
	.st11{fill-rule:evenodd;clip-rule:evenodd;fill:#F22937;}
	.st12{fill-rule:evenodd;clip-rule:evenodd;fill:#F49934;}
	.st13{fill-rule:evenodd;clip-rule:evenodd;fill:#1A65A8;}
	.st14{fill-rule:evenodd;clip-rule:evenodd;fill:#20529F;}
	.st15{fill:#A38288;}
	.st16{fill:#F5DCC6;}
	.st17{fill:#896A6C;}
	.st18{fill:#CDCAC6;}
	.st19{fill:#2D5B9A;}
	.st20{fill:#577EDD;}
	.st21{fill:#73417C;}
	.st22{fill:#D5C2B3;}
	.st23{fill:#F0F5FA;}
	.st24{fill:#F9F9F9;}
	.st25{fill:#FFFFF8;}
	.st26{fill:#BEBBB9;}
	.st27{fill:#D0CDCB;}
	.st28{fill:#A48A88;}
	.st29{fill:#E1DFD8;}
	.st30{fill:#941A49;}
	.st31{fill:#AC69BA;}
	.st32{fill:#804989;}
	.st33{fill:#D2D0BA;}
	.st34{fill:#A17F84;}
	.st35{fill:#FFAC39;}
	.st36{fill:#C1792E;}
	.st37{fill:#422744;}
	.st38{fill:#100101;}
	.st39{fill:#FFC037;}
	.st40{fill:#FCBF69;}
	.st41{fill:#FFC23A;}
	.st42{fill:#9C5FA9;}
	.st43{fill-rule:evenodd;clip-rule:evenodd;fill:#9C5FA9;}
	.st44{fill:#8B644E;}
	.st45{fill:#C69062;}
</style>
<g>
	<path d="M43,268.88c6.56,6.79,14.83,11.33,22.92,16.01c11.28,6.53,12.83,6.39,11.03,18c-1.04,6.69,0.71,14.51-1.16,20.86
		c-1.48,5.01-6.53,8.05-8.93,12.49c-2.05,3.79-1.68,8.45-4.27,11.99c-3.68,5.04-7.56,10.87-6.41,17.01c0.38,2.01,1.29,3.88,2.23,5.7
		c5.78,11.17,13.18,21.5,21.89,30.56c10.94,11.39,25.14,21.18,40.93,21.11c9.25-0.04,18.5-3.8,25.29-10.06
		c4.53-4.17,8.59-13.99,8.39-20.21c-0.15-4.71-0.3-9.41-0.44-14.12c5.15,1.05,9.68,4.75,11.74,9.58c0.28,0.66,0.54,1.37,1.04,1.88
		c0.33,0.34,0.74,0.57,1.15,0.81c7.47,4.25,19.89,11.33,28.58,10.54c9.48-0.86,18.33-4.47,26.81-8.97
		c-2.01-2.06-2.42-5.78-0.47-8.01c3.93-4.51,8.07-6.16,13.57-8.35c9.1-3.61,13.71-9.93,20.24-16.89c3.19-3.4,7.97-2.38,9.97,1.64
		c1.63,3.27,3.59,5.82,5.81,7.75c2.36,1.55,4.59,2.86,6.97,3.79c4.76,1.36,10.25,0.92,16.23-1.05c8.01-2.64,10.96-8.74,16.84-13.95
		c1.68-1.48,3.87-1.46,5.71-0.57c0.61-0.43,1.23-0.85,1.88-1.23c18.32-10.7,34.41-25,51.33-38c1.72-1.32,3.51-2.74,4.36-4.74
		c0.97-2.29,0.53-4.94,1.26-7.31c1.72-5.58,9.54-9.1,8.26-14.8c-0.33-1.45-1.25-2.69-2.15-3.88c-7.58-10.06-15.17-20.12-22.75-30.18
		c-1.14-1.51-2.34-3.28-1.95-5.13c0.31-1.47,1.55-2.54,2.64-3.58c7.75-7.45,6.8-17.86,13.53-25.72c8.27-9.67,16.6-23.6,15.75-36.87
		c-0.92-14.35-34.53-48.94-46.38-28.94c-3.8,6.42-14.45,1.56-10.61-4.92c0.08-0.13,0.16-0.24,0.24-0.37
		c-7.74,5.96-12.43,14.72-11.95,23.01c-0.83-0.18-1.6-0.29-2.3-0.33c0.17-2.43-0.66-6.79-2.41-8.97l0.1-0.34
		c4.38-14.24,16.51-21.07,27.69-23.39c1.93-0.79,3.94-1.24,6.01-1.46c0.67-2.65,2.91-4.75,6.34-3.88
		c19.04,4.84,37.83,13.73,57.48,5.58c6.76-2.8,11.98-7.68,18.7-10.38c6.86-2.76,6.6,1.96,14.53-7.1c3.19-3.65,4.94-8.75,6.45-13.23
		c0.55-1.64,1.55-2.62,2.72-3.1c-4.77-13.3-15.9-17.09-29.93-11.63c-7.74,3.01-10.63,3.28-18.4,0.32
		c-10.54-4.02-32.34,5.03-34.42-12.12c-0.77-6.34,2.74-13.25,5.4-18.73c2.57-5.31,10.74-15.26,10.4-21.28
		c-0.36-6.3-17.38-8.45-23.15-11c-15.24-6.73-25.99,2.06-32.64,15.61c-1.12,2.29-3.74,3.82-6.32,3.3
		c-15.15-3.04-30.56,8.08-46.11,9.86c-5.31,0.61-12.14,2.85-11.98,8.19c0.04,1.36,0.58,2.79,0.02,4.03
		c-0.59,1.32-2.17,1.84-3.57,2.22c-5.05,1.36-10.34,2.72-15.46,1.65c-5.12-1.07-9.97-5.39-9.77-10.62c0.07-1.72,0.66-3.49,0.1-5.13
		c-0.65-1.9-2.62-2.96-4.46-3.77c-20.98-9.25-40.51-4.2-62.33-2.99c-7.38,0.41-12.37,0.11-14.75,8.6
		c-1.42,5.09,0.34,9.91-2.79,14.84c-5.76,9.07-18.33,8.8-27.72,7.69c-2.39-0.28-4.76-2.78-4.81-5.21
		c-0.39-23.07-24.56-24.48-42.22-19.44c-9.54,2.72-20.66,7.09-25.23,16.52c-2.6,5.36-4.1,11.74-4.97,18.34
		c-0.07,8.85-0.67,17.72-0.82,26.59c0.91,2.13,1.9,4.27,2.94,6.42c6.61,13.69,13.33,28.06,25.4,37.8c2.28,1.84,2.49,4.48,1.53,6.64
		c1.7-0.7,3.71-0.58,5.55,1c2.67,2.29,6.56,3.25,9.56,5.02c3.25,1.92,4.56,5.84,2.05,9.03c-6.15,7.8-15.37,7.86-24.61,7.98
		c-17.52,0.21-27.84,6.14-35.98,22.51C29.84,235.81,29.69,255.11,43,268.88z"/>
	<g>
		<g id="XMLID_1555_">
			<path id="XMLID_1559_" d="M371.54,23.1c19.18,13.12,23.04,40.79,15.52,61.42c-4.92,13.5-14.77,24.86-26.65,32.76
				c-8.51,5.66-18.96,10.05-30.2,12.69c-11.24,2.64-22.77,4.13-34.27,4.42c-0.34,0.01-0.65,0-0.97,0l-2.04-0.03
				c-4.22-12.77-4.61-26.31-1.86-39.45l0.5-2.41l2.43,0.42c21.92,3.78,53.5,1.23,65.02-21.3c-5.9,3.17-13.22,3.62-19.18,0.88
				c-7.08-3.25-12.07-9.39-14.04-17.28c-2.21-8.84-0.5-18.79,4.58-26.64c5.88-9.09,16.62-12.9,27.1-11.23
				C362.56,18.18,367.32,20.21,371.54,23.1z"/>
			<g id="XMLID_1556_">
				<path id="XMLID_1558_" class="st0" d="M348.92,19.32c7.49-0.92,15.09,1.4,21.14,5.81c12.54,9.14,18.88,22.08,17.66,44
					c-1.06,18.89-13.36,35.83-28.71,46.03c-8.73,5.8-19.22,9.94-29.38,12.33c-11.07,2.6-22.39,4.06-33.76,4.36
					c-0.38,0.01-0.73,0-1.09,0c-0.8-2.43-1.45-4.91-1.65-7.61c8.31,0.64,16.71,0.21,24.92-1.24c10.09-1.78,19.91-5.08,29.02-9.78
					c8.76-4.52,17.94-10.11,22.59-19.17c-0.65,1.26-2.4,2.53-3.4,3.54c-1.27,1.27-2.56,2.52-3.9,3.71
					c-7.25,6.46-16.75,11.09-25.82,14.41c-9.61,3.52-19.76,5.54-29.98,5.94c-4.55,0.18-9.1,0.03-13.63-0.44
					c-0.16-2.18-0.4-4.37-0.6-6.55c4.33,0.04,10.75-0.57,11.64-0.61c5.93-0.3,11.86-0.78,17.74-1.72
					c6.79-1.08,13.52-2.77,19.88-5.43c16.16-6.76,30.14-22.36,34.66-39.42c3.63-13.7,0.3-28.42-11.52-36.11
					c-6.46-4.2-15.66-3.94-22.4-0.53c-5.92,2.99-10.24,9.2-10.34,16.95c-0.09,6.64,3.3,14.56,10.1,17.38
					c3.5,1.45,7.51,0.8,11.13-0.33c2.62-0.82,4.87-3.23,6.37-5.43c1.31-1.92,1.81-3.81,2.05-5.84c1.5,4.92,0.97,10.79-0.23,13.33
					c-5.39,4.84-13.97,6.33-20.52,3.32c-15.39-7.07-16.78-27.26-8.39-40.22C336.23,24.22,342.04,20.17,348.92,19.32z"/>
				<path id="XMLID_1557_" class="st1" d="M352.06,30.4c4.17-0.29,8.48,0.69,11.92,3.13c10.74,7.63,13.82,20.28,10.45,33.01
					c-4.52,17.07-18.91,32.25-34.99,39.01c-3.56,1.5-7.27,2.61-11.03,3.47c-6.96,1.58-14.04,2.62-21.16,3.11
					c-4.78,0.33-10.04,0.75-15.07,0.51c-0.13-1.85-0.19-3.71-0.09-5.56c0.02-0.46,0.07-0.91,0.11-1.37
					c7.04,0.52,14.11,0.79,21.15,0.24c9.98-0.77,19.83-3.58,28.9-7.81c2.67-1.24,5.18-2.64,7.5-4.46c1.86-1.46,3.29-3.7,5.14-5.05
					c-7.7,5.63-16.3,10.11-25.51,12.69c-11.75,3.28-24.72,3.6-37.03,2.33c0.26-2.78,0.66-5.52,1.21-8.21
					c10.1,1.75,19.86,2.34,30.03,0.77c16.9-2.62,35.66-12.28,40.24-30.14c2.59-10.12-0.92-22.15-9.08-25.25
					c-5.13-1.96-11.38,0.98-11.69,6.79c-0.23,4.36,2.89,8.87,8.27,7.35c3.6-1.02,4.34-6.25,0.44-7.65
					c-1.21-0.43-1.92,0.62-0.87,1.22c1.8,1.04,1.25,3.92-0.75,4.42c-2.2,0.55-4.66-1.17-4.71-4.81c-0.06-4.62,4.04-7.06,8.17-5.94
					c5.02,1.37,7.45,8.71,6.17,13.71c-1.61,6.31-10.82,10.62-17.2,6.8c-6.29-3.77-9.35-11.95-7.51-18.98
					C337.07,36.08,344.38,30.94,352.06,30.4z"/>
			</g>
		</g>
	</g>
	<g>
		<g id="XMLID_1549_">
			<path id="XMLID_1554_" d="M111.26,288.4c-2.14,6.33-3.14,13.15-2.96,20.11c0.13,4.99,0.92,9.95,2.16,14.78
				c2.83,11.12,8.09,21.39,13.15,31.61c2.37,4.78,4.81,9.58,6.57,14.58c1.96,5.57,4.78,10.54,5.62,16.49
				c1.35,9.57-2.84,18.86-12.1,22.5c-8.4,3.3-18.18,1.46-26.33-1.68c-5.01-1.93-9.85-4.53-14.06-7.88c-4.22-3.36-7.9-7.4-10.73-12
				c-5.84-9.5-11.46-21.15-10.84-32.6c0.51-9.52,7.58-18.69,17.92-16.85c7.92,1.41,16.26,7.27,21.76,15.31
				c2.31,3.35,3.93,6.83,4.83,10.36c0.34,1.34,0.57,2.68,0.69,3.99c0.62,7.1-1.74,12.49-6.16,14.07
				c-4.65,1.66-10.32-1.19-14.45-7.25c-1.84-2.69-3.12-5.94-3.45-8.61c0.89,1.44,2.21,2.58,3.83,3.26c3.81,1.61,8.09,0.04,9.99-3.64
				c1.32-2.56,1.33-5.65,0.5-8.4c-1.97-6.47-8.1-11.04-15.14-9.7c-10.58,2.01-12.92,14.64-10.67,23.48c0.5,1.95,1.2,3.98,2.1,6.05
				c2.97,6.84,10.95,15.31,20.44,18.26c6.01,1.87,11.82,1.2,16.82-1.92c17.02-10.64,7.6-38.16-1.54-50.79
				c-10.21-14.13-31.76-26.49-48.18-14.9c-5.83,4.12-9.73,10.49-11.73,17.27c-1.49,5.04-2.08,10.67-1.77,16.74
				c1.15,22.13,11.95,43.47,28.47,58.12c3.32,2.94,6.9,5.58,10.68,7.91c10.77,6.6,23.43,9.9,36.03,7.97
				c10.43-1.59,21.51-6.17,28.02-14.82c5.34-7.11,7.36-16.12,7.29-24.88c-0.06-7.6-1.59-15.2-4.2-22.33
				c-5.46-14.88-15.09-27.77-20.17-42.81c-2.26-6.71-4.05-13.92-3.68-21.05c0.63-12.17,9.98-22.74,21.04-26.81l1.83-0.68
				c0.57-0.21-4.02-11.01-4.57-12.05c-2.17-4.1-5.1-7.46-8.61-10.46l-1.02-0.87l-1.22,0.57
				C124.45,264.87,115.57,275.65,111.26,288.4z"/>
			<g id="XMLID_1550_">
				<path id="XMLID_1551_" class="st2" d="M142.63,264.95c-1.37-1.51-2.83-2.9-4.35-4.21c-13.89,6.47-21.55,17.11-25.17,28.26
					c-0.74,2.28-1.32,4.59-1.75,6.88c-0.49,2.6-0.78,5.19-0.91,7.71c-0.17,3.19-0.07,6.29,0.23,9.2c0.03,0.29,0.06,0.57,0.09,0.86
					c2.41,20.55,14.33,37.29,21.84,56.04c2.52,6.31,5.68,12.61,5.81,19.58c0.1,5.72-1.74,11.59-5.67,15.76
					c-4.37,4.64-10.92,6.78-17.29,6.97c-17.54,0.52-35.47-9.02-44.67-24c-4.26-6.93-11.56-20.46-11.28-33.04
					c0.03-1.2,0.12-2.39,0.3-3.57c1.51-10.15,9.5-17.91,20.2-15.99c8.62,1.53,17.48,7.95,23.12,16.18
					c3.24,4.71,5.42,10.03,5.88,15.36c1.58,18.24-14.58,22.62-24.42,8.17c-3.74-5.48-6.7-14.89,0.51-19.36
					c1.27-0.78,2.18,0.44,0.94,1.01c-3.33,1.51-3.28,7.9,1.47,9.9c4.59,1.94,9.68-1.75,7.75-9.34c-0.11-0.44-0.25-0.89-0.4-1.35
					c-2.57-7.46-9.75-8.55-14.26-6.45c-6.32,2.94-11.48,11.62-5.21,26.02c4.35,10.01,20.62,23.9,34.23,15.4
					c7.7-4.81,8.81-14.26,7.86-22.51c-2.32-20.13-17.58-40.98-38.8-43.54c-0.93-0.11-1.87-0.18-2.81-0.21
					c-1.97-0.06-3.85,0.12-5.63,0.5c-9.43,2.05-16.09,9.96-18.96,19.7c-1.51,5.11-1.97,10.57-1.68,16.04
					c0.88,16.72,7.55,33.85,18.26,46.71c13.57,16.3,32.54,28.69,54.51,25.33c8.17-1.25,17.19-4.49,23.29-10.25
					c11.72-11.03,11.89-30,7.73-44.48c-3.27-11.39-9.74-21.44-15.01-31.95c-4.95-9.87-9.43-20.85-10.48-31.94
					c-0.38-4.02-0.28-8.27,1.24-12.07c3.73-9.34,8.19-17.14,21.11-21.92c-0.45-1.53-0.91-3.05-1.44-4.53
					c-8.46,3.07-16.72,9.95-22.14,22.85c2.82-12.6,11.65-20.57,21.58-24.37c-0.38-0.99-0.81-1.96-1.27-2.91
					c-20.7,5.73-27.95,29.4-25.22,46.3c4.4,27.23,20.79,46.47,25.95,70.67c1.36,6.38,1.58,12.12,0.82,17.12
					c-0.85,5.58-3.12,11.84-7.88,15.22c-5.63,4-12.29,6.55-19.15,7.32c-15.65,1.75-30.88-6.01-41.26-17.32
					c2.14,2.33,5.51,4.21,8.1,6.02c9.25,6.47,19.46,10.82,30.96,9.89c6.78-0.55,13.41-2.83,19.1-6.54c5.23-3.4,8.01-8.64,8.93-14.78
					c0.71-4.77,0.36-10.3-1-16.85c-4.28-20.65-21.87-43.89-26.27-71.12c-2.68-16.52,4.25-40.11,26.17-47.38
					c-0.71-1.27-1.51-2.5-2.44-3.68c-14.45,5.62-28.46,18.94-28.7,45.97C112.29,287.05,126.11,271.9,142.63,264.95z M134.57,410.26
					c2.26-1.96,4.05-4.47,5.22-7.65c1.03-2.81,2.74-8.77,1.47-11.7c2.61,6,1.24,13.33-2.73,18.53c-3.97,5.2-10.23,8.38-16.7,9.42
					c-18.49,2.98-37.36-6.34-49.55-19.84C60.53,386,53.07,363.49,57.72,346.76c-0.52,2.68-0.78,5.43-0.82,8.17
					c-0.31,16.31,6.97,33.09,15.76,42.83c12.72,14.1,33.1,22.42,51.87,17.47C128.39,414.21,131.83,412.63,134.57,410.26z"/>
			</g>
		</g>
	</g>
	<g>
		<g id="XMLID_1536_">
			<path id="XMLID_1546_" d="M330.48,212.44c-7.02-0.16-14.37,1.31-18.64,7.38c-0.86,1.22-1.51,2.63-1.67,4.11
				c0.48-0.15,0.95-0.29,1.43-0.43c15.4-4.69,32.82,2.04,42.13,14.88c-1.78-0.57-3.96-0.79-6.22-0.96
				c-20.07-1.52-42.86,3.16-54.67,20.98c-6.69,10.1-9.21,23.61-5.28,35.22c4.85,14.35,19.45,21.37,33.91,21.67
				c22.04,0.46,41.76-16.14,50.48-35.5c4.78,10.88,0.04,23.75-6.72,31.44c-20.94,23.81-58.49,22.82-86.8,30.01
				c-30.58,7.77-59.43,34.6-47.09,68.33c1.87,5.12,4.54,9.94,7.92,14.21c11.82,14.93,40.63,28.4,54.48,8.18
				c4.79-6.99,4.99-16.42,1.44-23.99c-2.83-6.03-7.8-9.45-13.99-9.63c-0.03,0-0.05,0-0.08,0c-9.34-0.21-19,12.79-7.94,19.56
				c-0.67-3.83,3.09-5.38,4.34-5.44c3.24-0.14,4.13,4.31,3.43,6.81c-1.41,5.07-6.04,6.36-10.78,5.06
				c-10.6-2.9-15.71-13.66-14.12-24.01c0.36-2.37,1.02-4.68,1.96-6.88c4.67-10.94,15.88-17.53,26.31-22.09
				c11.57-5.05,24.02-7.68,36.36-10.08c18.83-3.66,38.68-7.25,55.08-17.78c13.27-8.52,25.21-21.73,29.86-36.97
				c3.47-11.37,2.91-23.94-1.76-34.89c-4.94-11.56-14.48-19.62-25.24-25.7c-0.57-0.32-1.15-0.64-1.74-0.97l-1.54-0.84
				c-0.27-1.17-0.57-2.33-0.93-3.46C368.38,221.31,349.42,212.86,330.48,212.44z M346.96,266.8c-1.28,6.53-9.23,14.53-16.67,16.8
				c-6.95,2.12-11.9,0.14-13.18-2.9c-1.44-3.39,1.59-7.8,7.73-11.19C331.46,265.87,342.6,266.09,346.96,266.8z"/>
			<g id="XMLID_1537_">
				<path id="XMLID_1545_" class="st3" d="M231.4,401.87c-3.97-18.17,6.75-36.92,21.39-47.32c5.2-3.69,10.99-6.44,17-8.52
					c11.03-3.81,22.65-5.24,34.08-7.27c21.1-3.75,48.58-9.42,63.13-25.99c7.29-8.29,13.11-23.08,6.21-35.78
					c-0.07-0.12,2.31-7,2.69-12.08c14.91,11.17,10.49,43.23,0.23,54.75c-7.06,7.93-16.29,13.54-29.4,17.91
					c-10.19,3.39-22.74,6.05-38.42,8.44c-22.88,3.5-50.05,10.89-64.66,32.97c-1.24,1.87-2.39,3.86-3.43,5.94
					c-3.35,6.67-6.25,17.94-4.17,28.88C233.76,409.81,232.25,405.81,231.4,401.87z"/>
				<path id="XMLID_1542_" class="st4" d="M238.08,410.97c1.88,12.6,11.95,23.03,23.92,26.98c4.03,1.33,8.27,1.92,12.49,1.61
					c6.24-0.45,12.69-2.68,16.67-7.75c7.45-9.47,4.58-30.7-10.03-31.11c-6.81-0.19-13.83,6.42-9.1,13.65c1.1-3.24,3.4-4.5,5.66-4.35
					c6.33,0.43,7.3,9.18,3.85,13.24c-0.76,0.9-1.74,1.58-2.77,2.15c-7.94,4.41-16.08,0.13-20.94-6.64
					c-3.89-5.42-5.1-12.24-4.1-18.77c0.39-2.56,1.11-5.07,2.12-7.44c8.5-19.87,39.01-28.31,51.33-30.99
					c5.6-1.21,13.16-2.38,21.59-4.1c15.82-3.22,32.17-7.9,46.1-16.28c13.27-7.98,23.95-20.41,28.5-35.32
					c3.31-10.86,2.68-23.18-1.69-33.66c-4.47-10.7-14.31-18.6-24.22-24.19c-0.56-0.32-1.14-0.64-1.72-0.95
					c0.35,2.42,0.64,4.84,0.79,7.26c1.37,0.95,2.68,2.01,4.03,3.14c5.78,4.84,10.35,9.76,13.42,16.87
					c2.85,6.59,4.06,13.96,3.32,21.02c-1,9.54-4.29,20.75-11.61,27.48c2.48-2.28,4.24-7.2,5.55-10.24
					c2.25-5.21,4.41-11.51,4.47-17.2c0.08-6.57-1.29-13.15-4-19.13c-3.29-7.26-8.57-13.6-15.08-18.2c-0.02,1.42-0.14,2.85-0.33,4.29
					c0.14,0.09,0.27,0.18,0.4,0.28c2.92,2.2,5.11,5.38,6.67,8.65c7.39,15.44,6.28,36.9-5.44,50.07
					c-7.14,8.02-17.1,13.69-30.59,18.19c-10.22,3.42-22.48,6.17-37.09,8.77c-21.59,3.85-51.41,12.58-64.63,31.63
					c-1.12,1.62-2.13,3.31-3,5.08C238.75,392.9,236.77,402.18,238.08,410.97z M252.4,383.56c16.81-26.54,66.9-29.56,97.11-38.72
					c-34.37,13.26-77.27,12.55-95.3,38.93c-6.91,10.11-9.6,24.45-2.6,35.24c5.81,8.95,23.67,18.31,32.44,8.34
					c1.5-1.71,2.53-3.79,3.15-5.97c0.34-1.23,1.07-4.09,0.5-5.29c2.23,4.69,0.46,10.67-3.43,14.11c-3.89,3.44-9.45,4.56-14.6,3.89
					c-7.34-0.96-14.46-6.17-18.75-12.06C242.42,410.38,245.12,395.06,252.4,383.56z"/>
				<path id="XMLID_1541_" class="st3" d="M331.38,294.39c-18.28,4.89-39.19-8.33-25.63-27.8c11.69-16.71,35.26-17,53.01-10.93
					c0.26,0.86,0.4,2.21,0.43,3.66c-8.15-2.4-18.87-2.58-22.3-1.61c6.57,0.2,15.31,1.37,22.29,3.42c-0.06,1.96-0.31,3.79-0.72,4.5
					c-15.17-4.03-26.23-2.89-34.77,1.84c-16.95,9.41-8.41,23.15,7.27,18.39c8.26-2.51,16.85-11.22,18.3-18.59
					c0.99,0.22,2.18,0.48,3.4,0.78c-1.26,4.33-4.17,8.87-6.13,12.64c1.6-1.61,6.3-7.03,7.83-12.18c1.13,0.34,2.2,0.72,2.99,1.15
					C352.86,285.13,339.99,292.08,331.38,294.39z"/>
				<path id="XMLID_1538_" class="st4" d="M314.26,220.27c-0.03,0.04-0.06,0.07-0.09,0.11c11.36-2.34,23.77,0.2,32.78,7.5
					c9.09,7.37,16.31,18.52,15.91,30.63c-0.42,13.14-8.34,34.36-31.42,39.3c-7.41,1.59-15.78,0.8-22.3-3.26
					c-3.91-2.43-6.51-5.66-7.93-9.27c-2.66-6.78-1.13-14.88,3.83-21.44c4.53-6,10.89-8.6,17.68-11.16
					c11.37-4.29,24.47-3.31,36.01-0.06c-0.1-1.41-0.52-3.27-1.08-5.07c-5.02-1.26-10.47-1.87-15.69-2.27
					c3.64-0.58,9.19-0.64,15.08,0.48c-0.61-1.65-1.3-3.1-1.92-3.9c-1.48-1.9-6.85-1.96-9.08-2.2c-4.49-0.48-9.02-0.47-13.51-0.01
					c-10,1.02-21,4.21-29.11,10.36c-14.86,11.26-22.18,39.24-7.47,53.39c9.34,8.98,24.25,11.04,36.48,8.22
					c16.89-3.89,32.96-19.66,39.12-37.1c1.15-3.24,1.94-6.52,2.35-9.8c0.96-7.76,0.6-15.83-1.74-23.33
					c-1.17-3.74-2.85-7.34-5.13-10.54c-6.68-9.37-16.46-13.41-27.55-15.12C331.55,214.49,320.03,213.31,314.26,220.27z
					 M351.75,223.41c5.72,2.1,9.81,6.62,12.95,11.91c3.52,5.93,5.82,12.86,5.79,19.8c-1.72-7.35-4.45-14.63-8.69-20.92
					c-1.67-2.48-3.46-4.27-5.68-6.28c-1.93-1.74-4.53-4.56-7.09-5.29C349.98,222.83,350.88,223.09,351.75,223.41z"/>
			</g>
		</g>
	</g>
	<g>
		<g id="XMLID_1513_">
			<path id="XMLID_1533_" d="M232.73,30.48c-0.86,3.08-0.75,6.47,0.31,9.55c0.89,2.59,2.45,5.01,4.66,6.66
				c2.53,1.9,7.26,2.07,9.9,0.32c3.2-2.11,3.73-7.96-0.01-10.32c0.28,0.18-0.55,1.91-0.68,2.12c-0.39,0.67-0.94,1.25-1.57,1.7
				c-2.57,1.84-5.26,0.2-6.08-2.55c-1.68-5.65,3.29-10.33,8.89-9.42c6.29,1.02,14.6,7.73,18.31,18.58c0.52,1.53,0.95,3.14,1.27,4.77
				c1.16,5.89-0.26,12.09-3.9,17c-3.46,4.67-8.53,7.75-14.44,8.81c1.05-3.29-0.75-11.88-0.77-11.98c-0.24-0.93-0.52-1.86-0.82-2.75
				c-1.27-3.72-3.06-7.02-5.3-9.81c-4.05-5.02-10.08-7.73-15.73-7.07c-4.99,0.58-9.06,3.67-11.47,8.68c-2.02,4.22-2.22,9-0.57,13.82
				c1.46,4.28,4.34,8.43,8.09,11.68c4.04,3.5,9.14,5.76,14.62,6.65c-4.17,8.64-13.16,15.64-23.5,18.28
				c-9.81,2.51-21.11,0.51-30.24-5.36c-6.31-4.06-11.67-10.1-14.34-16.16c-0.33-0.75-0.63-1.5-0.88-2.25
				c-0.7-2.06-1.37-4.48-0.87-6.66c0.47-2.08,2.67-4.08,4.81-2.7c0.96,0.62,1.48,1.84,1.25,2.96c-0.22,1.12-1.18,2.05-2.3,2.25
				c1.29,1.21,3.1,1.84,4.86,1.72c3.8-0.27,5.84-3.47,5.29-7.07c-0.53-3.5-3.41-6.96-6.83-8.29c-5.87-2.28-11.49,0.01-13.97,5.7
				c-3.61,8.27,0.09,17.58,5.19,24.33c3.79,5.01,8.75,9.5,14.73,13.34c10.54,6.76,23.22,8.74,35.71,5.59
				c13.32-3.36,24.84-12.82,29.34-24.09l0.54-1.34c1.06-0.11,2.13-0.26,3.19-0.47c8.35-1.66,16.25-6.34,21.26-13.29
				c5.78-8,6.69-18.16,4.17-27.54c-2.41-8.96-8.45-18.24-16.88-22.58c-6-3.09-12.17-3.53-17.37-1.26
				C236.65,23.77,233.72,26.92,232.73,30.48z M234.29,75.87c-4.59-2.15-10.69-6.78-10.93-12.33c-0.11-2.59,1.29-5.31,3.69-6.3
				c1.74-0.72,3.78-0.47,5.48,0.35c2.59,1.25,4.37,3.49,5.6,6.02c0.37,0.77,0.71,1.58,1,2.42c1.13,3.31,1.53,6.95,1.19,10.83
				l-0.08,0.88C238.17,77.38,236.18,76.76,234.29,75.87z"/>
			<g id="XMLID_1530_">
				<path id="XMLID_1532_" class="st5" d="M214.43,107.17c-10.73,2.75-22.58,0.33-31.83-5.61c-6.25-4.02-12.08-10.18-15.1-17.04
					c-1.91-4.34-4.19-12.2,1.78-14.48c3.11-1.18,5.69,1.15,5.79,4.25c0.04,1.13-0.45,2.33-1.44,2.87c1.46,0.79,3.13,0.38,4.66-0.85
					c1.17-0.94,1.44-2.62,1.23-4.05c-0.44-2.92-2.84-5.66-5.56-6.72c-4.85-1.89-9.31-0.16-11.39,4.62
					c-0.96,2.19-1.31,4.67-1.26,7.05c0.1,5.19,3.16,11.22,6.21,15.26c3.86,5.11,8.83,9.41,14.21,12.86
					c10.16,6.52,22.46,8.28,34.13,5.33c12.71-3.21,23.67-12.14,27.97-22.89c-1.49,0.08-3,0.05-4.52-0.09
					C234.89,96.93,225.49,104.33,214.43,107.17z"/>
				<path id="XMLID_1531_" class="st5" d="M274.16,52.64c-0.99-11.24-8.59-23.15-17.12-27.55c-11.41-5.87-20.67-0.19-22.37,5.93
					c-1.69,6.07,1.06,12.76,5.73,14.97c3.57,1.69,10.43-0.22,7.72-6.53c-1.53,4.09-6.14,4.66-8.91,1.64
					c-6.23-6.84,0.73-15.92,9.25-14.54c7.41,1.2,18.27,9.81,21.23,24.95c2.6,13.22-6.65,26.91-22.06,28.48
					c-5.18,0.52-10.01-0.33-14.19-2.29c-4.2-1.95-7.76-5.01-10.42-8.89c-2.25-3.28-2.15-7.36-0.41-10.27
					c2.17-3.62,6.87-5.42,12.76-1.62c1.31,0.84,3.11,2.81,4.56,5.81c1.69,3.46,2.91,8.29,2.38,14.31c1.61,0.2,3.42,0.41,4.83,0.37
					c1.42-0.04-0.26-10.31-0.49-11.18c-1.09-4.24-2.99-8.38-5.74-11.8c-6.58-8.16-18.74-9.37-23.81,1.22
					c-3.97,8.28,0.6,17.55,7.02,23.1c6.74,5.83,16.3,7.69,24.9,5.98C263.34,81.9,275.68,70.07,274.16,52.64z"/>
			</g>
		</g>
	</g>
	<g>
		<g id="XMLID_1509_">
			<path id="XMLID_1512_" d="M4.54,318.03c3.11,5.6,8.32,14.96,9.04,20.98l0.76,6.39c2.57-6.79,10.2-11.2,17.49-14.77
				c6.1-2.99,12.27-6.36,16.45-11.55c2.71-3.36,3.74-7.95,2.76-12.28c-0.96-4.24-3.67-7.64-7.65-9.55c-2.17-1.04-5.21-1.45-8.14-1.1
				c-4.41,0.53-7.98,2.69-10.05,6.07l-0.13,0.22c-0.32-1.3-0.79-2.58-1.45-3.81c-2.5-4.64-6.91-7.46-11.52-7.36
				c-4.66,0.1-8.43,2.33-10.46,6.14c-2.48,4.66-2.13,11.03,0.95,17.04C3.07,315.38,3.75,316.61,4.54,318.03z"/>
			<path id="XMLID_1511_" class="st6" d="M38.84,301.55c6.28,3.01,6.94,10.53,2.61,16.67c-4.53,6.44-13.88,9.87-20.72,16.44
				c7.34-5.66,19.5-9.05,25.86-16.94c4.38-5.43,3.5-14.83-4.14-18.51c-3.54-1.7-11.76-1.81-15.39,4.15
				C29.57,302,34.12,299.29,38.84,301.55z"/>
			<path id="XMLID_1510_" class="st7" d="M40.24,317.28c3.82-5.42,2.83-12.41-3.48-14.57c-4.41-1.51-7.87,0.98-10.64,4.45
				c-1.46,1.82-1.3,4.99-4.76,5.28c5.28-7.62-0.82-19.19-9.22-19.01c-9.54,0.21-12.56,10.38-7.63,20.02
				c2.41,4.7,10.27,17.32,11.22,25.31C20.96,329.9,34.66,325.22,40.24,317.28z"/>
		</g>
	</g>
	<g>
		<g id="XMLID_1502_">
			<path id="XMLID_1508_" d="M317.33,412.15c3.29,0.84,6.73,0.69,9.96-0.43c5.84-2.04,10.26-6.73,11.83-12.58
				c3.23-12.65-4-19.11-8.59-21.83c-4.23-2.56-9.53-3-14.7-1.19c-9.39,3.27-14.47,13.9-11.34,23.7
				C306.47,405.99,311.27,410.6,317.33,412.15z"/>
			<g id="XMLID_1503_">
				<path id="XMLID_1505_" class="st7" d="M337.67,398.77c-1.43,5.33-5.46,9.64-10.87,11.53c-8.63,3.01-17.97-1.89-20.86-10.93
					c-2.89-9.04,1.77-18.82,10.4-21.83c4.76-1.66,9.51-1.32,13.43,1.06C335.58,382.05,340.28,388.51,337.67,398.77z M323.17,404.06
					c1.5-0.43,6.48-12.43,5.38-14.82c-0.68-1.5-10.93-6.95-13.2-6.37c-1.59,0.4,0.83,7.86,1.88,10.95
					C318.28,396.9,320.89,404.7,323.17,404.06z"/>
				<path id="XMLID_1504_" class="st8" d="M326.94,389.86c0.55,1.02-2.79,11.95-4.26,12.53c-1.02,0.4-3.5-6.68-4.38-9.27
					c-0.88-2.6-3.25-8.01-1.9-8.35C318.31,384.29,326.29,388.67,326.94,389.86z"/>
			</g>
		</g>
	</g>
	<g>
		<g id="XMLID_1492_">
			<polygon id="XMLID_1501_" class="st9" points="51.9,45.34 71.72,30.44 58.38,11.75 38.63,25.73 			"/>
			<path id="XMLID_1498_" class="st10" d="M52.03,43.05l17.27-12.75l-11.19-16L41.17,26.13L52.03,43.05z M53.32,37.54l10.72-7.74
				l-7.14-10.13L46.18,27.2L53.32,37.54z"/>
			<path id="XMLID_1495_" class="st11" d="M53.5,35.18l8.17-5.98L56.6,22l-8.17,5.83L53.5,35.18z M53.92,31.75l4.61-3.22l-2.47-3.5
				l-4.61,3.15L53.92,31.75z"/>
			<polygon id="XMLID_1494_" class="st12" points="54.23,30.03 56.68,28.31 55.57,26.7 53.11,28.39 			"/>
		</g>
	</g>
	<g>
		<path d="M265.73,266.41c2.13,0.55,4.35-0.02,5.94-1.52c0.98-0.92,1.64-2.13,1.91-3.47c0.74-3.57-1.48-7.2-4.96-8.1
			c-2.13-0.55-4.36,0.02-5.95,1.53c-0.98,0.93-1.64,2.13-1.91,3.47C260.03,261.87,262.26,265.51,265.73,266.41z"/>
		<path class="st1" d="M270.95,256.65c1.62,2.11,1.26,5.26-0.83,7.03c-2.08,1.78-5.08,1.5-6.7-0.62c-1.62-2.12-1.26-5.26,0.83-7.03
			C266.31,254.26,269.32,254.54,270.95,256.65z"/>
	</g>
	<g>
		<path d="M408.56,73.54c1.87,1.09,4.12,1.14,6.02,0.14c1.17-0.61,2.12-1.58,2.73-2.78c1.65-3.18,0.51-7.21-2.53-8.98
			c-1.87-1.09-4.12-1.14-6.03-0.13c-1.17,0.62-2.12,1.58-2.73,2.77C404.38,67.74,405.52,71.76,408.56,73.54z"/>
		<path class="st1" d="M416.09,65.7c0.97,2.43-0.21,5.31-2.65,6.43c-2.44,1.13-5.2,0.07-6.17-2.36c-0.97-2.43,0.21-5.31,2.65-6.43
			C412.34,62.2,415.11,63.27,416.09,65.7z"/>
	</g>
	<g>
		<path d="M187.13,362.39c-0.8-3.49-5.53-5.22-8.79-3.26c-3.6,2.35-3.3,7.15-0.32,8.95C181.75,370.35,188.19,367.2,187.13,362.39z"
			/>
		<path class="st7" d="M184.98,362.43c0.6,1.81-0.47,3.81-2.37,4.46c-1.91,0.65-3.94-0.3-4.53-2.11c-0.6-1.82,0.47-3.82,2.38-4.47
			C182.36,359.66,184.39,360.61,184.98,362.43z"/>
	</g>
	<g>
		<path d="M294.77,191.81c-0.8-3.49-5.53-5.22-8.79-3.26c-3.6,2.35-3.3,7.15-0.32,8.95C289.38,199.76,295.83,196.62,294.77,191.81z"
			/>
		<path class="st7" d="M292.61,191.85c0.6,1.81-0.47,3.81-2.37,4.46c-1.91,0.65-3.94-0.3-4.53-2.11c-0.6-1.82,0.47-3.82,2.38-4.47
			C289.99,189.08,292.03,190.03,292.61,191.85z"/>
	</g>
	<g>
		<g id="XMLID_1425_">
			<path id="XMLID_1475_" class="st9" d="M165.19,439.91c-3.49-5.49-1.98-12.87,3.38-16.48c5.36-3.61,12.54-2.1,16.03,3.39
				c3.49,5.49,1.98,12.87-3.38,16.48C175.86,446.92,168.69,445.4,165.19,439.91L165.19,439.91z"/>
			<path id="XMLID_1427_" class="st13" d="M166.81,438.82c-2.91-4.57-1.65-10.72,2.81-13.73c4.46-3.01,10.45-1.75,13.35,2.82
				c2.91,4.57,1.65,10.72-2.81,13.73C175.7,444.65,169.72,443.39,166.81,438.82L166.81,438.82z M171.07,434.48
				c-1.25-2.12-0.82-4.97,0.97-6.35c1.78-1.39,4.24-0.79,5.48,1.32c1.25,2.12,0.82,4.97-0.97,6.35
				C174.78,437.19,172.32,436.59,171.07,434.48L171.07,434.48z"/>
			<path id="XMLID_1426_" class="st14" d="M173.57,430.09c1.17-0.29,2.44,0.32,2.84,1.35c0.4,1.03-0.22,2.1-1.39,2.39
				c-1.17,0.29-2.44-0.32-2.84-1.35C171.78,431.45,172.4,430.38,173.57,430.09L173.57,430.09z"/>
		</g>
	</g>
	<g>
		<g id="XMLID_1328_">
			<path id="XMLID_1422_" d="M308.41,198.39c2.44,4,4.76,8.08,7.55,11.85c2.07,2.8,5.37,7.62,9.01,8.4c1.31,0.28,2.53-0.1,3.36-1.05
				c3.75-4.3-1.86-10.58-4.18-14c-3.65-5.37-5.95-12.15-7.15-18.48c-2.43-12.91,0.42-26.81,10.72-35.64
				c7.97-6.83,19.67-10.34,30.52-9.15c13.31,1.45,26.05,6.03,39.32,7.61c9.61,1.14,20.69-0.25,27.51-7.8l0.25-0.27
				c0.1,0.02,0.2,0.06,0.3,0.09c1.52,0.33,2.91,0.25,4.05-0.23c2.84-1.19,3.99-3.81,4.79-5.85c11.84,2.24,23.48-5.56,26.06-17.56
				c2.61-12.13-5.73-24.24-18.58-27.01c-8.87-1.91-17.72,1.05-23.28,7.57c-3.29-4.93-8.51-8.46-14.5-9.75
				c-10.3-2.21-21.32,3.27-25.49,13.13c-1.83,4.34-2.26,9.05-1.23,13.61l0.11,0.5c-1.17,1.06-2.11,3.79-2.14,5.52l-0.77,0.35
				c-23.98,11.36-57.95-7.53-73.77,17.33c-6.45,10.13-7.73,22.97-3.61,36.17C299.95,182.39,303.7,190.69,308.41,198.39z
				 M377.94,126.35l0.52-0.21c0.84,0.87,2.23,2.06,3.22,2.34c0.13,0.04,0.26,0.07,0.39,0.1c1.53,0.33,3.34-1.44,4.53-1.91l0.21,0.17
				c6.69,7.87,23.75,8.15,29.89-2.31c0.96,1.14,2.32,2.88,3.63,3.87c-0.49,0.69-0.97,1.52-1.34,2.64c-0.55,1.66-0.43,3.34,0.31,4.85
				c-10.54,10.23-42.4-0.56-61.33-2.98c-0.1-0.01-0.2-0.03-0.3-0.04c-8.36-1.06-17.12-0.68-25.17,1.95
				c-5.92,1.93-12.82,5.4-16.79,10.23c-7.27,8.84-9.56,17.26-10.25,24.61c-0.25-1.52-0.86-3.89-0.88-5.43
				c-0.26-15.94,11.66-33.62,27.98-33.72C356.12,130.35,368.72,130.07,377.94,126.35z"/>
			<g id="XMLID_1329_">
				<path id="XMLID_1421_" class="st15" d="M422.25,126.48c0.48-0.79,0.93-1.77,1.28-3.2c1.18-4.89-2.57-8.81,3.54-17.03
					c7.32-9.86,24.2-3.01,20.57,10.3c-2.47,9.09-10.75,11.01-13.1,15.05c11.41,2.36,21.55-5.33,23.79-15.77
					c2.35-10.93-5.19-21.84-16.86-24.35c-9.1-1.96-17.94,1.81-22.58,8.75c-1.29,1.95-2.26,4.14-2.8,6.52
					C414.17,115.04,415.34,121.67,422.25,126.48z"/>
				<path id="XMLID_1362_" class="st16" d="M427.99,106.86c-0.17,0.21-0.31,0.42-0.47,0.65c-5.18,8.01-0.76,11.55-2,16.38
					c-1.1,4.28-3.27,4.26-4.37,7.54c-0.6,1.8,0.1,3.36,1.33,4.49c1.79,1.65,4.68,2.4,6.3,1.72c3.59-1.51,3.48-6.48,5.56-8.23
					c4.08-3.43,9.54-6.58,11.8-12.54C450.6,105.2,434.07,99.1,427.99,106.86z M442.59,117.13c-0.97,2.23-3.75,5.39-6.57,7.05
					c1.61-1.54,3.04-3.48,3.95-5c1.89-3.12,1.32-7.85-2.21-9.39c-3.33-1.45-5.7,0.17-7.76,3.14c1.34-3.82,4.61-6.62,9.05-4.69
					C442.6,109.79,444.14,113.59,442.59,117.13z"/>
				<path id="XMLID_1361_" class="st17" d="M406.34,121.38c-3.96,2.58-7.54,1.83-11.3,2.14c-2.8,0.22-4.76,1-7.35,2.5
					c5.14,4.05,11.88,5.8,18.24,3.59c3.79-1.31,7.01-3.83,9.43-7.01c-1.8-2.86-2.61-6.2-2.62-9.6l-1.91,0.02
					C410.81,116.21,409.46,119.33,406.34,121.38z"/>
				<path id="XMLID_1360_" class="st17" d="M394.71,89.35c-0.68,0.16-1.37,0.35-2.05,0.59c-5.6,1.95-9.8,6.12-11.95,11.18
					c-1.59,3.77-2.06,8.05-1.11,12.25c1.59-0.37,3.25-0.66,5.29-2.32c3.04-2.46,4.13-7.92,11.65-9.93
					c8.17-2.19,14.29,5.02,14.28,11.87l1.91-0.02c-0.02-4.97,1.67-10.07,4.44-13.94c0.03-0.05,0.06-0.11,0.11-0.16
					C412.75,91.33,403.41,87.34,394.71,89.35z"/>
				<path id="XMLID_1357_" class="st16" d="M405.34,119.69c8.86-5.74,1.08-19.79-8.27-17.03c-8.23,2.42-7.75,7.08-10.5,9.29
					c-3.15,2.55-4.62,1.97-7.22,3.8c-3.5,2.46,0.23,9.24,2.81,9.95c3.05,0.85,5.28-2.1,7.93-2.86
					C395.51,121.3,400.43,122.86,405.34,119.69z M404.83,108.85c4.6,7.47-5.41,12.86-10.24,9.81c5.04,0.68,11.26-2.94,8.43-8.24
					c-1.71-3.19-5.36-3.45-8.35-2.38C396.94,105.39,402.29,104.73,404.83,108.85z"/>
				<path id="XMLID_1356_" class="st18" d="M421.51,136.89c-12.72,9.24-29.61,4.65-46.84,0.54c-5.69-1.35-11.41-2.66-17.04-3.4
					c-1.31-0.17-2.63-0.28-3.95-0.35c-18.61-0.97-37.78,7.31-44.27,25.89c-2.7,7.74-2.76,16.37-0.18,24.15
					c-4.14-2.75-5.79-12.15-6.22-16.77c-0.55-5.93,0.35-11.98,2.58-17.5c4.52-11.18,14.5-19.44,26.66-20.59
					c5.6-0.53,12-0.28,18.72-0.37c8.55-0.12,17.6-0.79,26.26-4.28l-1.39-3.18c-11.63,5.26-21.44,4.91-31.18,4.4
					c-5.83-0.31-11.63-0.67-17.78,0.09c-9.6,1.19-18.78,4.79-24.16,13.25c-6.59,10.36-6.95,22.8-3.36,34.3
					c2.64,8.46,6.31,16.59,10.93,24.16c2.58,4.23,5.33,8.38,8.3,12.34c1.54,2.05,3.19,4.53,5.26,6.09c3.08,2.31,3.85-0.52,2.71-3.71
					c-0.64-1.78-1.8-3.32-2.86-4.89c-11.9-17.43-15.07-44.2,2.53-59.28c8.56-7.33,21.04-10.9,32.22-9.68
					c5.86,0.64,13.23,2.59,20.99,4.39c16.23,3.76,34.22,6.9,43.93-3.86L421.51,136.89z"/>
			</g>
		</g>
	</g>
	<g>
		<g id="XMLID_1323_">
			<path id="XMLID_1327_" d="M99.41,47.63c-22.85-2.24-43.34,16.26-50.74,36.65c-4.84,13.34-4.6,28.2-0.62,41.72
				c2.85,9.69,7.98,19.64,14.82,28.78c6.83,9.13,14.62,17.58,23.14,25.11c0.25,0.22,0.49,0.42,0.73,0.61l1.56,1.27
				c11.3-6.98,20.19-17,26.45-28.69l1.15-2.14l-2.1-1.22c-19-11.05-41.29-33.03-35.71-57.4c2.45,6.14,7.71,11.13,13.96,12.84
				c7.43,2.03,15.1,0.55,21.6-4.17c7.28-5.29,12.31-13.91,13.44-23.07c1.32-10.61-4.39-20.32-13.39-25.71
				C109.33,49.61,104.43,48.12,99.41,47.63z"/>
			<g id="XMLID_1324_">
				<path id="XMLID_1326_" class="st19" d="M118.93,59.13c-5.08-5.45-12.31-8.52-19.69-9.02c-15.3-1.04-28.31,4.73-41.3,22.11
					c-11.19,14.98-12.63,35.61-7.48,53.07c2.93,9.94,8.24,19.73,14.42,27.98c6.73,8.99,14.38,17.29,22.79,24.73
					c0.28,0.25,0.55,0.46,0.83,0.69c2.15-1.33,4.22-2.79,6.08-4.72c-6.7-4.8-12.78-10.45-18.08-16.75
					c-6.51-7.75-11.85-16.49-15.76-25.82c-3.76-8.99-7.16-19.04-4.94-28.86c-0.31,1.37,0.21,3.43,0.33,4.84
					c0.15,1.77,0.34,3.53,0.6,5.28c1.39,9.5,5.64,19.03,10.4,27.3c5.04,8.76,11.45,16.74,18.93,23.53c3.33,3.02,6.87,5.8,10.6,8.32
					c1.51-1.55,3.08-3.05,4.61-4.58c-3.31-2.72-7.78-7.26-8.43-7.85c-4.3-4-8.48-8.13-12.34-12.56
					c-4.46-5.13-8.48-10.68-11.61-16.73c-7.94-15.37-8.63-36.06-1.22-51.86c5.95-12.68,17.81-21.71,31.64-20.03
					c7.56,0.92,14.36,6.96,17.3,13.82c2.58,6.03,1.91,13.47-2.93,19.39c-4.15,5.08-11.74,8.92-18.68,6.75
					c-3.57-1.12-6.2-4.16-8.21-7.32c-1.46-2.28-1.64-5.54-1.38-8.15c0.22-2.29,1.05-4.03,2.15-5.72c-4.26,2.77-7.58,7.56-8.29,10.24
					c1.01,7.09,6.56,13.66,13.43,15.54c16.14,4.42,30.01-9.98,31.89-25.12C125.43,70.89,123.6,64.14,118.93,59.13z"/>
				<path id="XMLID_1325_" class="st20" d="M109.52,65.53c-2.97-2.87-6.86-4.86-11.01-5.2c-12.97-1.05-23.33,6.58-28.87,18.36
					c-7.42,15.79-6.16,36.42,1.73,51.75c1.75,3.39,3.84,6.59,6.15,9.63c4.26,5.62,8.97,10.89,14.05,15.79
					c3.41,3.28,7.12,6.94,11.08,9.96c1.27-1.32,2.5-2.69,3.6-4.15c0.27-0.36,0.52-0.74,0.79-1.1c-5.66-4.08-11.18-8.36-16.17-13.24
					c-7.07-6.92-12.74-15.3-16.92-24.26c-1.23-2.64-2.25-5.28-2.85-8.14c-0.48-2.29-0.15-4.89-0.69-7.09
					c2.25,9.15,5.93,18.01,11.27,25.8c6.81,9.95,16.43,18.42,26.55,25.27c1.57-2.27,3.01-4.6,4.29-6.99
					c-8.75-5.09-16.52-10.83-23.22-18.48c-11.13-12.71-19.2-31.94-11.33-48.37c4.46-9.31,14.75-16.19,22.91-13.35
					c5.12,1.77,7.99,7.97,4.54,12.57c-2.59,3.44-7.82,4.88-10.93,0.31c-2.08-3.06,0.68-7.49,4.52-6.07
					c1.19,0.45,1.06,1.69-0.11,1.48c-2.02-0.35-3.43,2.17-2.24,3.82c1.32,1.82,4.28,2.07,6.62-0.65c2.98-3.46,1.42-7.91-2.42-9.69
					c-4.67-2.15-11.16,1.86-13.38,6.46c-2.79,5.8,1.45,14.91,8.71,16.07c7.15,1.14,14.67-3.11,17.74-9.6
					C117.27,79.34,114.99,70.81,109.52,65.53z"/>
			</g>
		</g>
	</g>
	<g>
		<g id="XMLID_1276_">
			<path id="XMLID_1322_" d="M159.58,276.34c1.53,5.01,4.94,9.34,9.46,11.99c4.45,2.61,9.84,3.31,14.92,2.78
				c11.12-1.17,21.73-9.18,23.74-20.57c0.21-1.18,0.32-2.38,0.32-3.58c0.01-2.18-0.31-4.37-0.94-6.46
				c-1.14-3.75-3.28-7.12-6.17-9.74c-2.18-1.97-4.71-3.48-7.52-4.48c-6.63-2.37-14.15-2.04-20.34,1.37
				c-7.34,4.05-13.36,11.42-14.28,19.99C158.45,270.6,158.73,273.53,159.58,276.34z"/>
			<g id="XMLID_1277_">
				<path id="XMLID_1281_" class="st1" d="M195.07,284.44c8.32-4.28,12.68-14.02,9.88-23.3c-1.06-3.49-3.01-6.45-5.54-8.73
					c-5.01-4.53-12.3-6.42-19.32-4.55c-0.83,0.22-1.63,0.49-2.39,0.78c-9.97,3.92-13.55,14.23-10.62,23.94
					c2.29,7.55,8.69,12.74,16.01,13.83c2.81,0.43,5.75,0.24,8.63-0.63C192.9,285.44,194.01,284.99,195.07,284.44z M181.33,278.96
					c-1.06,1.24-2.99,0.75-4.15-1.06c-1.84-2.86-3.86-8.73-4.57-13.95c-0.23-1.65,0.37-4.13,4.02-2.72c2.25,0.87,4.83,2.25,7.37,3.8
					c2.31,1.41,2.11,2.76,1.68,4.58C185,272.46,182.77,277.27,181.33,278.96z M191.18,272.08c-1.75-4.14-3.18-9.78-4.07-12.47
					c-1.45-4.38,5.33-5.5,6.84-1.95c1.37,3.19,2.85,7.91,3.9,12.2C198.95,274.4,192.59,275.42,191.18,272.08z"/>
				<path id="XMLID_1280_" class="st21" d="M192.38,258.4c-1.25-2.94-4.33-1.11-3.13,2.5c0.74,2.23,1.95,6.31,3.4,9.73
					c1.16,2.75,4.14,2.19,3.23-1.57C195.01,265.53,193.5,261.03,192.38,258.4z"/>
				<path id="XMLID_1279_" class="st0" d="M183.29,288.3c-0.15-0.01-0.31-0.04-0.46-0.07c-8.11-1.14-15.22-6.7-17.74-15.04
					c-1.73-5.73-1.29-11.69,1.19-16.66c-0.72,0.73-1.37,1.51-1.96,2.34c-1.86,2.64-3.01,5.76-3.36,8.99
					c-0.27,2.58-0.05,5.24,0.74,7.82C164.52,285.01,174.32,290.77,183.29,288.3z"/>
				<path id="XMLID_1278_" class="st21" d="M181.69,265.85c-1.91-1.14-3.78-2.17-5.46-2.95c-1.38-0.63-2.03,0.63-1.76,1.86
					c0.64,2.79,2.38,8.8,3.62,11.24c0.75,1.49,1.49,1.82,2.29,0.88c1.08-1.27,2.47-5.54,2.98-7.7
					C183.68,267.81,182.97,266.61,181.69,265.85z"/>
			</g>
		</g>
	</g>
	<g>
		<g id="XMLID_1270_">
			<path id="XMLID_1275_" d="M10.72,157.93c0.84,0.41,1.7,0.76,2.54,1.07c6.92,2.52,15.53,1.28,21.57-2.91
				c6.59-4.58,8.86-13.38,11.42-20.58c0.29-0.81,0.57-1.61,0.86-2.42c0.78-2.21,1.49-4.23,2.12-5.85
				c4.05,2.88,11.73,7.36,20.99,9.48c2.21,0.5,4.41,0.85,6.58,1.04c-1.44,3.68-3.16,8.4-4.72,12.68c-0.61,1.67-1.19,3.27-1.73,4.73
				c0.31-0.84-6.45-3.08-7.22-3.19c-3.07-0.46-6.25-0.7-9.35-0.51c-3.57,0.22-7.18,1.16-10.1,3.23c-3.76,2.68-6.69,7.91-4.12,12.35
				c1.24,2.13,3.34,3.64,5.57,4.68c6.75,3.15,15.85,2.74,22.57-0.37c4.96-2.3,7.94-7.09,9.99-11.96c2.35-5.61,4.45-11.34,6.54-17.05
				c2.15-5.88,4.12-11.88,6.68-17.59c0.01-0.03,1.35-3.01,1.35-3.01l-3.29-0.12c-13.97-0.52-28.09-5.46-39.01-14.27l-2.24-1.81
				c-5.17,11.52-9.55,23.67-13.37,35.7c0.21-0.67-4.4-2.23-4.83-2.36c-8.66-2.67-25.27-0.36-24.7,11.81
				C4.99,154.23,7.72,156.46,10.72,157.93z"/>
			<g id="XMLID_1271_">
				<path id="XMLID_1274_" class="st22" d="M86.86,128.97c0.81-2.14,1.5-3.92,2.04-5.11c-15.28-0.56-29.86-6.32-40.32-14.76
					c-0.27,0.6-0.88,2.11-1.67,4.18C57.75,123.56,73.19,127.9,86.86,128.97z"/>
				<path id="XMLID_1273_" class="st16" d="M7.04,150.59c0.1,2.12,1.65,4.16,4.54,5.53c2.24,1.06,5.29,1.72,9.09,1.71
					c5.54-0.01,12.83-1.54,16.22-6.46c4.51-6.54,9-22.68,11.43-27.65c3,2.65,16.17,11.77,31.72,11.98c-2.17,5.17-5.66,15.04-8,21.35
					c0.74,1.12,1.14,2.53,0.57,3.63l1.59,0.78c4.24-8.51,9.21-24.01,11.95-30.3c0.03-0.07,0.05-0.15,0.09-0.22
					c-14.37-0.83-30.86-7.32-40.04-15.56c-1.33,2.88-7.72,20.11-9.88,27.04c0.19,1.55,0.15,4.35-0.88,5.47
					c-0.03-5.73-7.36-8.32-15.35-7.82c-0.91,0.05-1.9,0.19-2.89,0.39C12.18,141.52,6.76,144.56,7.04,150.59z"/>
				<path id="XMLID_1272_" class="st16" d="M72.24,161.2c-1.16-4.55-8.25-8.16-16.96-7.7c-5.51,0.29-9.35,1.85-11.68,3.97
					c-2.18,1.98-3.03,4.46-2.68,6.8c0.67,4.43,7.01,7.34,14.83,7.3c5.69-0.03,13.17-1.69,16.48-6.62c0.63-0.94,1.29-2.12,1.97-3.49
					l-1.59-0.78C72.51,160.87,72.39,161.04,72.24,161.2z"/>
			</g>
		</g>
	</g>
	<g>
		<g id="XMLID_1159_">
			<path id="XMLID_1268_" d="M72.8,76.12c-0.5-0.11-0.89,0.43-0.64,0.87c2.45,4.26,4.74,9.77,6.43,14.14
				c1.9,4.93,3.45,9.99,4.86,15.08c2.47,8.91,4.16,18.05,4.72,27.29c0.51,8.33,0.12,16.72-1.18,24.96c-1.31,8.26-4,16-6.24,24.02
				c0.02-0.07,5.07-0.44,5.67-0.41c2.18,0.12,4.37,0.53,6.52,0.91c-4.11,7.33-9.09,14.07-15,19.7l-2.28,2.18l2.76,1.53
				c8.81,4.9,17.01,10.82,25.05,16.89c7.31,5.52,14.68,11.01,21.91,16.63c0.78,0.61,1.56,1.21,2.34,1.82
				c0.07,0.06,0.15,0.11,0.23,0.13c0.17,0.04,0.34-0.06,0.48-0.15c0.45-0.29,3.5-3.05,3.82-2.97c1.58-1.2,3.12-2.45,4.62-3.74
				c3.02-2.58,5.9-5.33,8.65-8.19c5.47-5.71,10.43-11.9,14.95-18.38c8.22-11.76,15.08-24.46,20.9-37.56
				c2.83-6.37,5.42-12.85,7.73-19.43l0.88-2.51c-3.52-0.73-7.02-1.53-10.49-2.46c0.4-0.95,0.73-3.09,1.4-9.34
				c1.02-9.54,1.3-19.15,0.87-28.74c-0.44-9.57-0.81-19.32-3.22-28.64c-5.81,1.6-11.73,1.99-17.4,4.28
				c0.27-0.11-2.63-7.08-2.94-7.89c-3.36,1.74-7.64,2.7-11.34,3.58c-4.07,0.96-8.09,1.37-11.14,1.61
				c-9.71,0.78-19.82,1.23-29.52,0.21C98.41,80.71,84.42,78.57,72.8,76.12z"/>
			<g id="XMLID_1160_">
				<path id="XMLID_1267_" class="st23" d="M179.58,112.62c-0.09-2.26-0.2-4.52-0.31-6.78c-0.33-7.03-0.64-14.1-1.96-21.04
					c-0.03-0.16-0.43-2.29-0.55-2.27c-2.73,0.37-9.06,1.33-14.88,3.69c3.86,7.97,9.35,25.26,11.31,45.94
					c0.4,4.25,0.59,8.43,0.48,12.72c1.27,0.26,2.49,0.48,3.62,0.67c0.54,0.09,2.24-18.06,2.32-19.77
					C179.84,121.38,179.75,117,179.58,112.62z"/>
				<path id="XMLID_1230_" class="st23" d="M167.59,110.34c-0.35-1.56-0.76-3.1-1.2-4.64c-2.64-9.14-6.64-17.94-9.55-26.98
					c0.19,0.61-8.69,3.06-9.46,3.24c-4.16,0.98-8.28,1.43-12.53,1.75c-9.62,0.71-19.28,0.76-28.9,0.09
					c-5.31-0.37-10.64-0.89-15.9-1.73c-2.38-0.38-4.74-0.89-7.1-1.42c-0.76-0.17-4.33-0.63-6.12-1.21c-0.34-0.11-0.64,0.23-0.5,0.56
					c7.58,16.82,13.02,34.86,14.15,53.34c0.49,7.92,0.05,16.27-1.05,24.16c-0.54,3.93-1.31,7.84-2.32,11.68
					c-0.28,1.06-2.54,10.43-3.44,10.44c2.76-0.03,6.4,0.47,10.39,1.19c3.06-5.71,5.53-11.75,7.5-17.84
					c-1.83,0.08-3.42,0.06-4.54-0.09c-0.28,0.07-0.28-0.67-0.12-0.8c1.41,0.14,3.11,0.16,4.92,0.1c0.16-0.51,0.32-1.04,0.47-1.55
					c-1.95,0.1-3.66,0.09-4.84-0.07c-0.29,0.06-0.28-0.67-0.12-0.81c1.49,0.15,3.27,0.17,5.19,0.1c0.17-0.59,0.34-1.17,0.5-1.75
					c-2.18,0.12-4.09,0.12-5.38-0.05c-0.28,0.06-0.28-0.68-0.12-0.81c1.62,0.16,3.6,0.16,5.71,0.06c0.17-0.58,0.31-1.16,0.47-1.74
					c-2.32,0.12-4.37,0.14-5.72-0.04c-0.29,0.07-0.28-0.67-0.12-0.81c1.7,0.17,3.8,0.16,6.03,0.06c0.15-0.58,0.29-1.16,0.43-1.75
					c-2.7,0.15-5.07,0.16-6.67-0.05c-0.36,0.07-0.35-0.82-0.15-0.98c1.99,0.2,4.44,0.16,7.06,0c0.52-2.3,0.96-4.58,1.35-6.82
					c-3.01,0.2-5.71,0.24-7.43,0.02c-0.33,0.08-0.32-0.76-0.13-0.92c2.15,0.22,4.86,0.14,7.73-0.08c0.08-0.5,0.15-0.99,0.23-1.49
					c-3.19,0.24-6.07,0.34-7.89,0.19c-0.33,0.07-0.41-0.75-0.22-0.91c2.28,0.1,5.2,0.01,8.24-0.18c0.09-0.61,0.16-1.2,0.24-1.79
					c-3.22,0.33-6.16,0.53-8.02,0.43c-0.33,0.08-0.43-0.75-0.25-0.9c2.33,0.04,5.3-0.14,8.39-0.43c0.07-0.57,0.13-1.12,0.19-1.68
					c-3.46,0.38-6.64,0.6-8.61,0.5c-0.33,0.08-0.44-0.75-0.25-0.9c2.48,0.05,5.66-0.16,8.96-0.49c0.06-0.62,0.11-1.24,0.17-1.85
					c-3.53,0.38-6.81,0.62-8.81,0.51c-0.33,0.09-0.43-0.74-0.25-0.9c2.52,0.05,5.78-0.17,9.13-0.5c0.21-2.93,0.3-5.73,0.26-8.33
					c-4.33,0.27-8.02,0.42-9.75,0.33c-0.34,0.08-0.44-0.74-0.26-0.91c2.18,0.05,5.86-0.1,10-0.34c-0.02-0.45-0.02-0.89-0.04-1.33
					c-4.45,0.21-8.26,0.31-10.04,0.23c-0.33,0.08-0.47-0.64-0.28-0.79c2.35,0.05,6.09-0.05,10.28-0.25
					c-0.04-0.65-0.08-1.28-0.13-1.88c-4.46,0.26-8.3,0.41-10.07,0.31c-0.11,0.02-0.18-0.03-0.22-0.13c-0.07-0.2,0-0.53,0.12-0.64
					c2.33,0.04,6-0.1,10.1-0.34c-0.05-0.49-0.1-0.97-0.15-1.44c-4.67,0.33-8.67,0.55-10.47,0.45c-0.33,0.09-0.29-0.62-0.11-0.77
					c2.36-0.02,6.17-0.24,10.45-0.55c-0.01-0.16-0.04-0.32-0.06-0.47c0.13,0.14,0.27,0.29,0.44,0.44c3.13-0.23,6.26-0.48,9.38-0.74
					c2.9-0.24,5.8-0.5,8.69-0.77c2.88-0.26,5.74-0.62,8.6-0.99c3.05-0.46,6.13-0.74,9.18-1.18c2.56-0.37,5.11-0.76,7.66-1.16
					c1.17-0.18,2.34-0.37,3.5-0.55l0.04,0.72c-1.28,0.26-2.57,0.47-3.85,0.68c-2.58,0.43-5.17,0.84-7.76,1.21
					c-3.11,0.45-6.25,0.76-9.37,1.14c-2.55,0.31-5.1,0.63-7.66,0.9c-2.72,0.28-5.45,0.54-8.17,0.79c-3.1,0.28-6.2,0.54-9.3,0.77
					c0.51,0.4,1.11,0.86,1.8,1.35c3.29-0.21,6.58-0.46,9.86-0.72c2.78-0.22,5.55-0.46,8.33-0.71c3.43-0.31,6.85-0.83,10.28-1.2
					c0.66-0.07,1.3-0.04,1.95-0.13c0.5-0.06,0.99-0.13,1.49-0.2c1.15-0.15,2.3-0.31,3.46-0.47c2.27-0.32,4.54-0.64,6.81-0.97
					c0.83-0.12,1.66-0.24,2.49-0.36l0.03,0.66c-0.99,0.18-1.98,0.32-2.97,0.48c-1.97,0.3-3.94,0.61-5.92,0.88
					c-2.31,0.32-4.63,0.71-6.94,0.98c-3.51,0.42-7.04,0.66-10.54,1.06c-2.46,0.28-4.94,0.48-7.41,0.69
					c-3.29,0.27-6.57,0.52-9.86,0.74c0.81,0.55,1.72,1.14,2.69,1.76c3.39-0.21,6.78-0.46,10.17-0.78c3.01-0.28,5.97-0.69,8.96-1.09
					c2.76-0.32,5.52-0.69,8.27-1.07c2.06-0.28,4.12-0.57,6.18-0.86c1.87-0.26,3.75-0.53,5.62-0.79c0.43-0.06,0.87-0.12,1.3-0.18
					l0.03,0.66c-0.41,0.07-0.82,0.13-1.23,0.19c-1.85,0.28-3.71,0.55-5.56,0.81c-2.06,0.3-4.12,0.59-6.18,0.89
					c-2.71,0.38-5.4,0.86-8.11,1.22c-2.8,0.37-5.6,0.69-8.42,0.97c-3.27,0.32-6.54,0.57-9.82,0.78c0.61,0.38,1.24,0.76,1.89,1.14
					c5.92-0.44,24.77-2.64,26.9-2.87l0.39,0.54c-1.9,0.33-20.4,2.59-26.01,3.07c2.7,1.56,5.7,3.17,8.8,4.68
					c2.98-0.43,25.02-2.53,26.69-2.8l0.05,0.62c-1.38,0.28-23.01,2.34-25.59,2.73c1.03,0.49,2.05,0.96,3.08,1.42
					c2.61-0.38,21.71-1.86,23.21-2.11l0.05,0.63c-1.2,0.24-19.88,1.67-22.04,2.01c6.19,2.64,12.38,5.04,18.86,7
					c5.34,1.62,17.42,4.9,20.66,5.51C171.69,133.03,170.12,121.44,167.59,110.34z M91.53,96.16c9.18,0.38,16.46,0.33,22.81-0.06
					c12.51-0.76,21.44-2.85,34.14-5.75l0.1,0.8c-7.21,2.06-13.61,3.51-19.57,4.47c-13.14,2.15-24.2,2.06-37.17,1.38
					C91.5,97.1,91.35,96.33,91.53,96.16z M92.21,99.52c15.32,0.45,26.31-0.47,37.06-2.29c6.47-1.09,12.86-2.51,20.05-4.15l0.13,0.69
					c-13.36,3.38-25.05,5.38-36.45,6.24c-6.84,0.52-13.57,0.62-20.48,0.36C92.18,100.46,92.03,99.67,92.21,99.52z M92.96,102.12
					c6.59,0.16,13.34-0.04,20.15-0.57c12.21-0.92,24.68-2.89,36.97-5.7l0.11,0.8c-0.31,0.08-0.61,0.16-0.92,0.23
					c-20.85,5.25-40.54,6.17-56.01,6.11C92.92,103.06,92.78,102.29,92.96,102.12z M94.56,105.21c13.47-0.01,27.52-0.54,43.22-3.07
					l0.11,0.66c-14.81,2.77-30.77,3.36-43.03,3.26C94.52,106.15,94.37,105.37,94.56,105.21z M95.54,108.76
					c-0.34,0.07-0.49-0.7-0.3-0.86c13.49-0.12,27.35-1.06,39.88-2.68l0.21,0.65C121.62,107.93,104.46,108.57,95.54,108.76z
					 M141.65,111.96c-0.71,0.07-3.57,0.47-5.12,0.75c-1.26,0.23-5.49,0.58-6.35,0.65c-1.91,0.16-28.48,2.85-33.44,2.6
					c-0.33,0.08-0.48-0.69-0.3-0.86c6.63-0.06,49.54-3.8,57.19-5.74l0.05,0.73C151.27,110.57,146.48,111.37,141.65,111.96z"/>
				<path id="XMLID_1161_" class="st24" d="M186.9,150.66c-9.22-1.91-26.61-7.36-29.47-8.14c-4.6-1.25-9.17-2.61-13.69-4.11
					c-8.92-2.97-17.65-6.52-25.85-10.89c-0.79-0.42-7.36-3.39-7.36-4.28c0.17,25.93-9.42,60.56-30.99,81.12
					c7.61,4.23,21.05,14.15,31.52,21.78c5.68,4.14,11.15,9,17.15,12.68C161.79,214.96,180.67,168.42,186.9,150.66z M156.54,188.56
					c-0.08,0.04-0.13,0.1-0.17,0.16c-10.2-2.53-38.79-14.97-43.44-16.97c-0.39-0.08,0-1,0.27-1.08c6.15,2.7,33.9,14.89,43.75,17.31
					c-0.01,0.15-0.03,0.31-0.07,0.46C156.76,188.47,156.65,188.51,156.54,188.56z M159.6,183.73c-7.59-2.28-40.73-15.54-45.54-17.75
					c-0.37-0.08,0.04-1,0.3-1.07c6.18,3.32,39.17,15.63,46.01,17.94C160.23,183.21,159.98,183.53,159.6,183.73z M118.17,151.26
					c-0.38-0.07,0.06-1.28,0.32-1.37c6.43,2.89,40.67,15.1,45.94,16.58l-0.32,0.8C158.8,166.05,123.41,153.59,118.17,151.26z
					 M161.01,169.06l-0.32,0.8c-5.31-1.23-38.18-12.69-43.42-15.01c-0.38-0.07,0.06-1.17,0.32-1.25
					C124.25,157.05,155.74,167.57,161.01,169.06z M116.78,156.4c6.61,3.55,35.55,13.58,40.72,15.43l-0.33,0.81
					c-5.29-1.32-35.52-12.6-40.72-14.99C116.06,157.56,116.52,156.47,116.78,156.4z M120.18,143.25
					c6.75,2.89,45.61,16.62,50.92,18.46l-0.32,0.81c-11.12-2.83-45.67-15.7-50.93-18.01C119.48,144.44,119.92,143.33,120.18,143.25z
					 M118.87,146.75c6.65,3.45,43.57,15.64,48.84,17.13l-0.32,0.8c-5.31-1.23-43.6-14.36-48.85-16.68
					C118.17,147.92,118.61,146.83,118.87,146.75z M113.57,167.16c6.27,3.19,36.45,15.52,44.93,18.24c0.11,0.45-0.11,0.67-0.41,0.94
					c-7.71-2.42-40.01-15.89-44.81-18.1C112.89,168.16,113.31,167.23,113.57,167.16z M111.63,173.31
					c6.26,2.76,34.12,15.38,44.05,17.84c0.03,0.23,0.05,0.47-0.1,0.67c-0.05,0.07-0.12,0.1-0.19,0.14
					c-10.07-2.43-39.25-15.51-44.03-17.57C110.97,174.33,111.36,173.39,111.63,173.31z M110.53,176.26
					c6.13,2.69,34.15,15.11,44.03,18.02c0.02,0.29,0.04,0.58-0.07,0.86c-0.02,0.04-0.04,0.06-0.06,0.09
					c-10.44-2.67-39.4-15.85-44.17-17.89C109.88,177.28,110.26,176.34,110.53,176.26z M108.81,182.17
					c8.81,3.8,26.57,13.38,34.65,17.14l-0.13,0.87c-7.98-3.84-29.04-14.43-34.89-16.96C108.06,183.12,108.53,182.22,108.81,182.17z
					 M107.72,184.98c8.09,3.81,29.74,14.77,36.59,18.14l-0.11,0.78c-7.99-3.83-30.39-14.86-36.87-17.87
					C106.97,185.93,107.44,185.04,107.72,184.98z M106.61,187.56c8.19,4.73,30.93,15.17,39.42,18.91l-0.14,0.9
					c-8.1-3.49-32.28-14.48-39.65-18.76C105.86,188.52,106.34,187.62,106.61,187.56z M105.41,189.55
					c10.35,6.11,31.87,16.1,40.36,19.85l-0.14,0.89c-8.15-3.29-32.91-15.15-40.6-19.65C104.65,190.54,105.13,189.61,105.41,189.55z
					 M104.47,191.82c10.35,6.11,34.39,18.6,42.89,22.35l-0.38,0.75c-8.06-3.61-30.75-14.69-42.63-21.98
					C103.97,192.84,104.19,191.88,104.47,191.82z M100.61,197.02c9.84,5.38,31.58,17.88,39.21,22.24l-0.41,0.79
					c-9.74-5.97-27.51-14.74-39.24-22.08C99.8,197.86,100.34,197.07,100.61,197.02z M98.95,199.09c8.05,5.36,29.17,16.21,36.69,21
					l-0.39,0.71c-9.74-5.97-25.02-13.4-36.76-20.74C98.12,199.95,98.67,199.14,98.95,199.09z M97.74,201.29
					c10.42,6.95,28.27,16.2,35.65,20.57l-0.61,0.52c-9.47-5.81-23.28-12.02-35.47-20.13C96.94,202.13,97.47,201.34,97.74,201.29z
					 M127.34,225.69c-9.47-5.81-20.14-11.28-32.33-19.4c-0.37-0.11,0.17-0.89,0.44-0.94c10.41,6.93,25.19,15.32,32.56,19.69
					L127.34,225.69z M96.36,204.45c-0.36-0.11,0.17-0.9,0.44-0.94c10.42,6.94,27.33,15.72,34.71,20.1l-0.61,0.51
					C121.43,218.31,108.55,212.57,96.36,204.45z"/>
			</g>
		</g>
	</g>
	<g>
		<g id="XMLID_1103_">
			<path id="XMLID_1157_" d="M245.58,227.9c8.26-10.48,15.51-21.77,21.55-33.41c0.18-0.35,2.21-4.12,2.03-4.25
				c-25.95-18.6-49.07-28.87-60.05-33.61l-0.89,1.5c-15.02,25.22-35.65,46.35-63.51,56.7c-8.94,3.32-18.24,5.6-27.65,7.09
				c-8.41,1.33-17.02,1.9-25.44,0.41c-8.49-1.49-22.82-6.07-21.08-17.37c1.02-6.63,7.44-9.24,13.31-6.87l0.87,0.35
				c0,0,3.45-2.23,3.46-2.22l0.18-0.13l6.21-4.84l-1.97-1.39c-2.66-1.86-5.94-3.32-9.57-4.24c-9.49-2.4-19.72-0.89-28.05,4.13
				c-15.72,9.46-25.86,29.07-26.02,47.19c-0.14,16.32,7.61,31.27,19.24,42.51c22.24,21.5,54.34,23.12,83.17,17.62
				c27.83-5.31,56.28-16.91,78.66-34.51C223.16,252.25,235.35,241.19,245.58,227.9z"/>
			<g id="XMLID_1104_">
				<path id="XMLID_1156_" class="st5" d="M257.07,185.04c-2.18-1.47-28.5-16.79-43.2-23.85c-0.87,1.48-1.83,3.13-2.91,4.96
					c7.66,3.83,30.44,15.35,34.33,17.25c-0.16,0.45-0.81,1.67-1.53,2.96c3.81,2.12,7.32,4.07,9.65,5.36
					c0.38-0.62,0.74-1.22,1.1-1.81C255.49,188.16,256.37,186.5,257.07,185.04z"/>
				<path id="XMLID_1155_" class="st25" d="M242.95,187.78c-0.67,1.14-1.29,2.12-1.55,2.42c-3.83-2.34-23.51-13.18-33.65-18.61
					c-0.94,1.55-1.87,3.02-2.79,4.45c12.71,7.23,37.44,21.26,42.95,24.38c1.71-2.61,3.24-5.02,4.62-7.25
					C249.9,191.67,246.51,189.77,242.95,187.78z"/>
				<path id="XMLID_1154_" class="st25" d="M144.06,267.83c-4.2-13.47-9.62-34.37-11.25-40.01c-1.74,0.47-3.47,0.91-5.18,1.31
					c0,0-0.01,0-0.01,0c1.58,6.23,9.54,38.21,13.6,53.23c3.97-1.13,7.71-2.35,11.19-3.58c-1.01-3.2-2.2-6.99-3.74-11.92
					L144.06,267.83z"/>
				<path id="XMLID_1153_" class="st25" d="M126.2,285.42c-0.76-6.59-2.44-13.51-2.39-13.66c-1.57,0.45-3.01,0.69-3.51,0.52
					c-0.68-3.75-4.6-30.47-5.83-40.43c-1.32,0.18-2.59,0.34-3.79,0.48c0.38,8.98,3.7,35.07,4.32,40.26
					c-0.81,0.36-2.22,0.61-3.73,0.76c0.44,4.72,0.97,9.52,1.58,14.22C116.82,287.1,122.13,286.37,126.2,285.42z"/>
				<path id="XMLID_1152_" class="st25" d="M100.48,288.36c2.48-0.08,8.26-0.35,10.81-0.61c-0.57-4.62-1.08-9.46-1.51-14.29
					c-1.38,0.07-2.71,0.07-3.59-0.02c-0.28-3.86-1.55-31.3-1.74-40.87c-1.11,0.08-2.24,0.14-3.38,0.16c0,0.03,0,0.05-0.01,0.08
					C100.44,245.05,100.48,277.24,100.48,288.36z"/>
				<path id="XMLID_1151_" class="st26" d="M37.53,218.81c6.31-5.49,15.52-11.64,24-15.35c0.18-0.09,0.38-0.17,0.57-0.25
					c0.37-1.41,0.94-2.75,1.73-3.99c4.64-7.33,13.72-10.63,24.21-5.15c1.21-0.87,2.39-1.77,3.52-2.7c-2.46-1.72-5.52-3.09-8.96-3.96
					C67.23,183.52,44.65,189.67,37.53,218.81z"/>
				<path id="XMLID_1150_" class="st27" d="M61.86,204.2c-7.44,3.37-17.35,10-24.8,16.83c-0.39,2.57-0.46,5.91-0.25,9.64
					c6.63-6.77,16.1-14.77,24.34-20.53c0.16-0.11,0.32-0.22,0.48-0.33c-0.13-1.19-0.15-2.38-0.06-3.54
					C61.62,205.58,61.72,204.89,61.86,204.2z"/>
				<path id="XMLID_1149_" class="st25" d="M54.73,256.71c4.87-8.4,13.95-24.01,17.8-30.31c-1.59-0.94-3.05-2-4.33-3.18
					c-5.69,6.71-23.21,30.93-24.4,32.94c0.01,0.01,0.01,0.03,0.02,0.04c2.41,4.27,5.45,8.59,9.24,12.63
					c1.34-2.45,5.16-10.17,5.16-10.17C57.33,258.2,55.67,257.26,54.73,256.71z"/>
				<path id="XMLID_1148_" class="st25" d="M64.05,217.77c-3.84,3.39-8.05,7.41-12.09,11.6c-2.21,2.29-9.29,10.01-13.07,14.25
					c0.91,3.59,2.2,7.29,4.02,10.87c5.96-8.77,22.23-29.53,24.44-32.1C66.06,221.06,64.94,219.5,64.05,217.77z"/>
				<path id="XMLID_1147_" class="st5" d="M63.51,216.67c-0.8-1.77-1.39-3.67-1.71-5.59c-6.56,4.61-17.42,14.12-24.74,21.28
					c0.21,2.64,0.58,5.58,1.23,8.66c0.18,0.22,0.34,0.45,0.54,0.67c5.45-6.18,17.92-19.13,24.44-24.81
					C63.35,216.8,63.43,216.74,63.51,216.67z"/>
				<path id="XMLID_1146_" class="st25" d="M125.73,229.87L125.73,229.87c-0.06,0.01-0.12,0.02-0.18,0.04
					c-1.53,0.34-3.08,0.64-4.6,0.91l0,0l0,0c1.24,8,9.3,39.51,9.3,39.51l-4.56,1.36l3.05,13.73c3.8-0.78,7.48-1.67,10.99-2.64
					C136.92,272.21,128.08,239.09,125.73,229.87z"/>
				<path id="XMLID_1145_" class="st25" d="M141.36,225.16c-0.83,0.29-1.65,0.58-2.47,0.85c2.64,6.29,10.81,24.23,16.12,37.6
					l-4.44,2.41l3.9,12.02c5.08-1.87,9.53-3.73,13.16-5.35c-1.45-3.05-3.61-7.78-6.06-13.2c-1.58,0.84-2.94,1.52-4.02,2.04
					L141.36,225.16z"/>
				<path id="XMLID_1144_" class="st25" d="M180.69,203.62c-1.42,1.09-2.84,2.12-4.28,3.11c8.63,8.5,21.41,21.12,24.93,24.75
					c-0.87,0.79-1.73,1.54-2.59,2.29L210,245.7c3.4-2.83,6.79-5.85,10.04-9.01l-12.26-11.33c-1.29,1.29-2.58,2.54-3.88,3.76
					L180.69,203.62z"/>
				<path id="XMLID_1143_" class="st25" d="M190.07,195.22c-1.18,1.22-2.36,2.37-3.54,3.46c8.63,7.55,21.06,18.45,25.37,22.42
					c-1.02,1.09-2.04,2.15-3.07,3.19l12.28,11.35c3.42-3.4,6.67-6.96,9.59-10.63l-13.29-10.08c-0.87,1.02-1.74,2.03-2.62,3.02
					L190.07,195.22z"/>
				<path id="XMLID_1142_" class="st25" d="M161.16,215.99c-0.1,0.06-0.2,0.12-0.3,0.17c-0.88,0.5-1.74,0.98-2.6,1.45
					c6.14,8.73,18.19,25.95,21.18,31.07c-1.31,0.89-2.59,1.74-3.84,2.54l8.37,13.06c3.72-2.26,8.19-5.16,13-8.58l-10.32-12.16
					c-1.52,1.13-3.01,2.21-4.48,3.24L161.16,215.99z"/>
				<path id="XMLID_1141_" class="st25" d="M170.23,210.7c-0.93,0.56-1.87,1.12-2.82,1.68c7.58,8.64,21.91,24.96,24.11,27.4
					c-0.02,0.02-0.04,0.05-0.06,0.07c-1.22,0.96-2.42,1.89-3.61,2.79l10.34,12.19c3.45-2.49,7.05-5.23,10.65-8.18l-11.21-11.9
					c-1.15,0.99-2.31,1.96-3.45,2.9L170.23,210.7z"/>
				<path id="XMLID_1140_" class="st25" d="M152.63,220.48c-1.56,0.75-3.1,1.45-4.62,2.09c5.79,9.8,16.64,28.24,19.57,33.59
					c-1.71,0.99-3.28,1.87-4.7,2.64c2.69,6.14,4.91,11.21,5.89,13.39c3.02-1.37,5.39-2.53,7.02-3.31c1.59-0.77,3.97-2.07,6.9-3.81
					l-8.35-13.02c-1.06,0.67-2.09,1.32-3.09,1.93L152.63,220.48z"/>
				<path id="XMLID_1139_" class="st25" d="M196.65,187.7c-0.69,0.87-1.38,1.71-2.06,2.52c8.94,6.64,22.38,16.72,26.47,20.28
					c-0.88,1.11-1.78,2.2-2.68,3.28l13.25,10.05c0.65-0.84,1.29-1.69,1.9-2.55c1.96-2.73,3.79-5.32,5.52-7.79l-13.47-8.98
					c-0.82,1.14-1.65,2.27-2.49,3.38L196.65,187.7z"/>
				<path id="XMLID_1138_" class="st25" d="M201.2,181.61c10.24,6.01,25.9,15.18,28.6,16.72c-1.09,1.69-2.21,3.34-3.35,4.95
					l13.45,8.97c2.61-3.77,4.96-7.23,7.05-10.4c-6.35-3.67-32.13-18.65-42.68-24.78C203.24,178.66,202.21,180.17,201.2,181.61z"/>
				<path id="XMLID_1137_" class="st28" d="M209.81,159.07c0,0-7.49,12.57-19.66,26.75c-19.45,22.65-40.96,31.73-66.54,36.8
					c-10.25,2.03-22.46,3.41-32.91,1.58c-7.9-1.38-18.68-5.01-21.26-13.63c-3.48-11.62,6.14-17.81,15.11-14.2
					c0.61-0.38,1.21-0.77,1.8-1.16c-8.57-4.7-16.81-2.1-21.2,4.82c-1.28,2.02-1.95,4.23-2.1,6.49c-0.35,5.19,2.02,10.59,5.86,14.37
					c2.94,2.9,7.02,5.17,11.57,6.83c2.73,1,5.64,1.77,8.58,2.32c9.32,1.75,18.51,0.49,27.74-1.07c10.62-1.79,21.29-4.29,31.24-8.46
					c19.38-8.13,32.33-18.61,38.67-24.42c6.33-5.82,20.78-25.42,25.78-35.61C209.81,159.07,209.81,159.07,209.81,159.07z"/>
				<path id="XMLID_1136_" class="st25" d="M53.92,269.77c0.17,0.41,8.55,7.24,12.72,9.52c1.31-4.1,4.84-15.07,4.84-15.07
					l-4.19-1.79c3.43-8.38,10.6-26.05,13.39-32.47c-0.3-0.09-0.58-0.19-0.86-0.29c-0.61-0.2-1.21-0.42-1.8-0.65
					c-4.61,9.35-13.54,27.98-15.2,31.51c-0.73-0.1-2.06-0.64-3.46-1.32c0,0.01,0,0.01-0.01,0.01c-0.53,1.01-1.58,3.06-1.58,3.06
					S54.67,268.39,53.92,269.77z"/>
				<g id="XMLID_1106_">
					<path id="XMLID_1135_" class="st25" d="M83.2,270.48c-1.27,6.75-2.3,12.37-2.67,14.7c3.81,1.2,7.72,2.11,11.68,2.74
						c3,0.34,5.61,0.53,6.66,0.38c-0.23-10.31,0.1-43.5,0.79-55.56c-0.22,0-2.1,0.32-5.36,0.13c-0.71,5.79-4.41,35.99-4.75,38.66
						C87.54,271.59,85.18,271.06,83.2,270.48z"/>
					<path id="XMLID_1107_" class="st25" d="M72.81,264.78c0,0-3.6,10.86-4.98,15.14c3.55,1.86,7.25,3.43,11.05,4.72l0.84-3.98l0,0
						c0.01-0.03,0.01-0.06,0.02-0.08l2.22-10.49c-1.74-0.57-2.95-1.1-2.95-1.1l9.11-37.25c-0.59-0.1-1.17-0.2-1.76-0.32
						c-2.1,5.61-10.65,34.06-10.65,34.06L72.81,264.78z"/>
				</g>
				<path id="XMLID_1105_" class="st29" d="M266.88,190.39c-1.09-0.49-6.38-3.74-7.34-4.23c0.28,0.14-9.71,16.69-10.55,18.06
					c-15.5,25.09-37.58,46.21-62.89,61.26c-14.34,8.53-29.8,15.14-45.87,19.61c-38.98,10.83-68.55,5.01-88.35-14.17
					c-19.8-19.17-16.28-50.01-16.28-50.01c-11.01,13.27-1.97,43.02,11.71,54.96c13.68,11.95,35.62,32.54,95.57,16.59
					c25.75-6.86,50.27-18.61,71.16-35.23c11.2-8.91,21.17-19.29,29.98-30.55c4.36-5.58,8.44-11.37,12.26-17.33
					c3.85-6.02,6.81-12.4,10.37-18.56C266.65,190.76,266.85,190.37,266.88,190.39z"/>
			</g>
		</g>
	</g>
	<g>
		<g id="XMLID_1084_">
			<path id="XMLID_1102_" d="M119.21,325.28c-3.66,0.76-8.67,0.86-12.87,0.09c-9.28-1.71-11.28-6.3-12.02-8.41
				c-1.35-3.84-0.2-8.79,2.16-12.37c3.87-5.86,14.21-8.01,18.68-4.52c-4.12-0.25-8.28,2-10.38,5.56c-2.1,3.56-2.06,8.25,0.03,11.81
				c4.04,6.86,13.4,6.51,20,3.54c6.17-2.77,11.94-9.99,11.41-21.03c-0.62-12.85-11.63-19.66-23.56-21.81
				c-12.39-2.24-23.98,2.23-32.45,11.32c-6.71,7.22-9.78,19.4-7.46,29.59c0.5,2.26,1.26,4.38,2.26,6.33
				c6.58,12.77,19.92,19.92,33.9,21.29c18.18,1.78,33.41-7.19,46.02-19.44c13.2-12.82,25.88-26.73,42.97-34.44
				c6.2-2.8,12.91-4.62,19.75-4.52c1.46,0.02,2.93,0.14,4.39,0.36c11.95,1.77,22.45,9.79,27.39,20.92c0.68,1.52,1.21,3.04,1.58,4.52
				c1.68,6.62-0.27,14.09-2.34,20.43c-2.78,8.48-7.47,15.88-12.71,23.02c-4.84,6.61-10.46,12.77-17.2,17.48
				c-3.05,2.13-6.32,3.95-9.79,5.33c-5.66,2.26-11.86,3.21-17.91,2.31c-6.26-0.93-12.06-3.74-16.33-7.92
				c-8.3-8.12-5.56-22.26-0.22-32.8c1.37-2.71,3-5.35,4.84-7.85c7.9-10.68,20.12-15.19,25.92-14.33c4.27,0.63,8.15,3.29,7.13,8.11
				c-0.17,0.82-0.49,1.59-0.89,2.28c-0.01-0.07-0.02-0.14-0.04-0.21c-0.59-2.97-2.92-5.03-6.25-5.53c-2.94-0.43-5.82,0.47-8.13,2.55
				c-3.62,3.26-5.03,8.76-3.41,13.35c1.89,5.37,8.25,8.75,13.71,9.11c12.5,0.82,20.84-11.24,21.78-22.57
				c0.77-9.34-3.9-18.18-13.13-21.18c-1.97-0.64-3.95-1.11-5.89-1.4c-16.65-2.46-33.43,8.75-43.49,21.16
				c-8.69,10.71-13.9,24.64-13.3,38.51c0.38,8.86,3.32,17.13,8.48,23.93c6.92,9.12,17.58,15.34,29.24,17.06
				c4.56,0.67,9.15,0.66,13.66-0.05c7.97-1.25,16.58-4.26,25.58-8.97c15.2-7.94,27.29-22.24,35.94-36.77
				c4.72-7.92,8.37-16.28,10.29-25.34c2.76-13.13,2.14-27.13-1.75-39.44c-2.99-9.47-8.19-17.56-15.04-23.39
				c-7.36-6.27-16.92-10.43-27.64-12.01c-4.4-0.65-8.93-0.86-13.46-0.63c-6.98,0.36-14.53,1.77-22.44,4.2
				c-8.4,2.58-16.34,6.45-23.61,11.49c-7.26,5.04-13.42,11.48-18.89,18.38c-5.58,7.03-10.26,14.92-16.55,21.39
				C131.59,319.49,126.28,323.82,119.21,325.28z"/>
			<g id="XMLID_1085_">
				<path id="XMLID_1086_" class="st7" d="M272.69,295c-2.71-8.57-7.49-16.52-14.36-22.38c-10.82-9.22-25.56-12.84-39.56-12.12
					c-7.34,0.38-14.89,1.95-21.9,4.11c-8.18,2.51-15.96,6.32-22.99,11.2c-8.27,5.74-14.73,13.01-20.73,21
					c-4.67,6.22-9.19,12.63-14.78,18.07c-5.31,5.17-11.3,10.37-18.77,11.92c-5.96,1.23-13.12,0.73-18.91-1.13
					c-9.16-2.93-10.59-14.31-5.73-21.66c3.55-5.37,10.65-8.64,17.02-7.14c3.8,0.9,7.22,3.27,9.45,6.47
					c2.12,3.05,0.84,7.67-1.81,10.13c2.24-0.34,4.29-1.78,5.39-3.76c1.74-3.16,1.12-7.15-0.57-10.21c-2.44-4.41-7.81-7.14-12.61-8.1
					c-8.66-1.73-17.42,2.75-22.08,10.05c-4.61,7.23-5.11,17.89,1.78,23.89c3.79,3.31,8.9,5,13.81,5.69
					c10.14,1.42,20.29-2.09,28.66-7.69c2.55-1.71,4.96-3.62,7.21-5.71c4.62-4.29,12.22-11.96,19.23-22.36
					c3.72-5.53,9.03-9.9,14.4-13.84c13.81-10.11,32.29-15.51,49.37-15.08c8.97,0.23,18.54,2.34,26.18,7.17
					c6.22,3.93,11.38,9.44,14.92,15.89c3.85,7,5.5,15.03,5.85,22.96c0.37,8.4-0.37,17.09-3,25.19c-2.61,8.02-7.03,15.39-11.94,22.19
					c-8.47,11.73-18.89,22.32-31.59,29.24c-12.71,6.92-27.87,9.94-41.92,6.49c16.94,2.69,34.6-2.58,48.59-12.49
					c6.94-4.92,13.06-10.95,18.33-17.63c5.18-6.57,10.16-14.02,13.4-21.77c5.29-12.67,7.69-26.84,5.24-40.46
					c-2.53-14.11-12.29-26.63-25.67-31.88c-3.38-1.33-6.85-2.22-10.37-2.74c-10.07-1.49-20.49,0.02-30.27,2.53
					c-7.99,2.05-15.65,5.39-22.62,9.81c-3.48,2.21-6.8,4.69-9.89,7.42c-2.66,2.34-4.66,4.9-6.84,7.66
					c-3.68,4.66-7.05,9.55-10.99,13.99c-5.31,5.99-11.49,11.11-18.09,15.61c-7.17,4.9-28.04,14.75-43.71,0.48
					c-9.29-8.46-7.89-20.48-0.06-28.93c4.32-4.65,11.39-7.47,17.77-7.96c2.82-0.22,5.49,0.02,7.73,0.75
					c11.43,3.71,14.58,16.01,9.96,21.76c-3.26,4.05-9.24,4.45-12.19,1.14c-1.11-1.24,0.13-1.95,1.14-0.7
					c2.19,2.73,5.78,0.18,6.51-2.81c0.85-3.45-1.02-6.75-4.73-7.42c-0.92-0.18-1.95-0.18-3.1,0.02c-6.6,1.13-9.78,8.3-6.75,13.83
					c3.66,6.7,12.34,6.57,17.94,4.06c5.9-2.65,11.19-9.04,10.73-18.56c-0.58-11.69-9.8-18.72-20.44-20.92
					c-6.3-1.3-12.47-0.99-18.25,1.05c-5.11,1.81-9.91,4.98-14.22,9.61c-6.3,6.78-9.08,18.11-6.92,27.6c0.45,2.04,1.14,3.99,2.07,5.8
					c10.83,21.03,36.39,20.81,41.23,20.2c4.08-0.51,7.77-1.42,11.18-2.63c14.73-5.28,23.91-16.42,34.44-26.75
					c21.08-20.68,38.29-29.36,53.85-29.13c14.5,0.21,27.91,9.38,33.77,22.6c0.7,1.57,1.28,3.2,1.7,4.87
					c1.81,7.15-0.69,15.07-2.32,22c-0.95,4.06-3.46,8.02-5.49,11.67c-4.06,7.29-8.93,14.17-14.67,20.24
					c-2.08,2.19-4.27,4.28-6.59,6.22c-21.16,17.65-41.16,12.19-50.9,2.66c-8.59-8.4-6.97-22.92-0.65-35.38
					c1.45-2.87,3.16-5.62,5.04-8.17c8.39-11.34,21.32-16.21,28.02-15.21c6.97,1.03,10.17,5.1,8.97,10.76
					c-1.12,5.29-6.98,9.02-8.33,8.11c4.5-2.68,4.28-9.01-1.34-9.84c-5.51-0.82-9.81,4.53-9.59,9.7c0.29,6.88,8.17,11.67,14.55,10.88
					c7.12-0.88,12.88-6.7,15.56-13.08c0.43-1.03,0.8-2.09,1.09-3.17c0.97-3.57,1.03-7.48,0.08-11.1
					c-1.4-5.33-5.01-10.04-11.24-12.06c-10.76-3.5-23.18-2.19-39.8,11.58c-0.47,0.39-0.95,0.81-1.43,1.25
					c-11.62,10.71-19.25,27.36-18.56,43.24c0.36,8.22,3.04,16.12,8.03,22.69c9.44,12.43,25.44,18.57,40.8,16.17
					c8.68-1.36,17.14-4.69,24.9-8.74c10.46-5.47,19.24-14.33,26.49-23.5c5.22-6.61,9.79-13.78,13.38-21.4
					c2.33-4.94,4.07-10.23,5.22-15.7C277.05,320.67,276.52,307.12,272.69,295z M221.76,331.68c-0.06,5.67-8.7,15.49-17.74,12.34
					C210.84,344.88,219.95,338.1,221.76,331.68z M207.03,388.03c9.4-2.96,17.78-8.64,24.95-15.3c9.36-8.69,17.59-19.49,22.58-31.31
					c5.81-13.76,7.49-31.67-0.7-44.81c-7.71-12.37-21.95-19.47-36.41-19.13c-4.98,0.12-9.94,1.04-14.71,2.46
					c-16.83,4.99-30.77,15.54-41.9,28.94c-16.68,20.06-33.63,34.62-60.66,27.93c21.07,3.29,40.43-2.27,60.03-29.86
					c4.77-6.72,10.73-12.56,17.41-17.38c3.35-2.41,6.87-4.57,10.53-6.47c13.21-6.85,30.05-9.32,44.5-5.2
					c12.51,3.56,22.44,12.47,26.99,24.71c6.29,16.91,0.23,36.04-8.9,50.82c-1.45,2.36-3.02,4.64-4.69,6.85
					c-1.45,1.92-2.98,3.78-4.57,5.58c-9.36,10.6-21.3,19.72-34.93,23.97c-10.9,3.4-24.32,3.04-30.89-3.71
					C188.35,392.77,197.38,391.07,207.03,388.03z"/>
			</g>
		</g>
	</g>
	<g>
		<g id="XMLID_1058_">
			<path d="M226.35,97.91l-0.18,1.74c-0.72,8.77-2.48,20.14-6.73,32.84c-4.45,13.3-10.2,23.82-15.11,31.42
				c22.63,10.3,45.26,20.61,67.9,30.91c5.33-10.96,12.47-27.64,17.25-47.69c4.61-19.32,4.38-14.92,5.44-39.38
				c0.02-0.39,0.27-4.67,0.05-4.71C263.59,97.13,238.3,97.58,226.35,97.91z"/>
			<g id="XMLID_1059_">
				<path id="XMLID_1083_" class="st5" d="M281.81,103.43c-2.6-0.41-32.92-3.19-49.23-3.4c-0.16,1.71-0.34,3.61-0.54,5.73
					c8.56,0.24,34.07,1.07,38.4,1.15c0.05,0.47-0.03,1.85-0.14,3.33c4.35,0.32,8.35,0.61,11.01,0.79c0.08-0.72,0.16-1.42,0.23-2.11
					C281.69,106.93,281.79,105.05,281.81,103.43z"/>
				<path id="XMLID_1082_" class="st25" d="M270.16,111.87c-0.13,1.32-0.27,2.46-0.39,2.85c-4.47-0.51-26.88-2.03-38.36-2.68
					c-0.2,1.8-0.42,3.53-0.65,5.21c14.57,1.19,42.91,3.47,49.23,3.98c0.45-3.09,0.82-5.92,1.13-8.52
					C278.1,112.47,274.23,112.17,270.16,111.87z"/>
				<path id="XMLID_1081_" class="st25" d="M220.4,152.5c-0.82,1.59-1.68,3.12-2.56,4.62c11.41,4.06,28.32,10.11,33.05,11.91
					c-0.45,1.08-0.92,2.12-1.38,3.17l15.23,6.07c1.89-4.01,3.69-8.17,5.3-12.41l-15.9-5.1c-0.63,1.71-1.27,3.39-1.93,5.04
					L220.4,152.5z"/>
				<path id="XMLID_1080_" class="st25" d="M225.36,140.93c-0.56,1.61-1.14,3.15-1.75,4.63c11.01,3.2,26.88,7.84,32.46,9.62
					c-0.47,1.42-0.95,2.81-1.44,4.19l15.92,5.11c1.67-4.53,3.11-9.12,4.21-13.68l-16.31-3.53c-0.36,1.29-0.72,2.58-1.1,3.84
					L225.36,140.93z"/>
				<path class="st25" d="M225.34,171.9c1.56,0.7,3.06,1.39,6.11,2.69c5.25,2.23,10.56,4.36,15.7,6.8
					c4.32,2.05,8.63,4.07,12.98,5.99c1.33-2.5,2.65-5.06,3.94-7.73l-15.18-6.05c-0.63,1.39-1.26,2.75-1.9,4.09l-33.09-14.34
					c-0.18,0.28-0.37,0.56-0.58,0.85c-0.4,0.55-0.8,1.05-1.18,1.49C215.15,167.17,219.68,169.36,225.34,171.9z"/>
				<path id="XMLID_1079_" class="st25" d="M228.15,131.34c-0.26,1.08-0.53,2.13-0.81,3.15c10.91,2.25,27.35,5.71,32.55,7.22
					c-0.33,1.38-0.68,2.74-1.04,4.1l16.26,3.52c0.23-1.04,0.46-2.08,0.65-3.11c0.62-3.31,1.19-6.43,1.71-9.39l-16-2.46
					c-0.26,1.38-0.54,2.76-0.83,4.11L228.15,131.34z"/>
				<path id="XMLID_1078_" class="st25" d="M229.71,123.89c11.82,1.12,29.89,2.84,32.99,3.09c-0.28,1.99-0.59,3.96-0.94,5.9
					l15.98,2.46c0.78-4.52,1.45-8.65,2.01-12.41c-7.3-0.65-37-3.35-49.15-4.45C230.31,120.37,230.02,122.16,229.71,123.89z"/>
				<path class="st28" d="M210.46,164.97c4.06-5.63,8.5-12.9,12.21-21.83c7.18-17.27,8.43-32.95,8.35-43.16
					C228,99.83,228,99.83,228,99.83c-0.73,8.79-2.48,20.02-6.54,32.55c-4.22,13.03-9.64,23.48-14.37,31.18
					C208.21,164.03,209.34,164.5,210.46,164.97z"/>
				<path class="st29" d="M284.52,103.4c0.31,0.01-1.76,19.23-1.94,20.83c-2.64,22.33-9.75,44.17-20.32,64.07
					c2.8,1.21,5.62,2.37,8.48,3.45c0.84-1.57,1.72-3.11,2.52-4.71c6.39-12.8,11.06-26.43,14.29-40.35c1.6-6.9,2.85-13.87,3.8-20.89
					c0.95-7.08,0.94-14.11,1.56-21.2c0-0.03,0.02-0.46,0.05-0.46C291.77,104.15,285.6,103.44,284.52,103.4z"/>
			</g>
		</g>
	</g>
	<g>
		<g id="XMLID_1010_">
			<path id="XMLID_1057_" d="M293.46,123.91c6.8,1.54,13.63,2.63,20.69,1.8c9.06-1.06,20-5.12,22.76-14.73
				c0.44-1.55,0.66-3.15,0.88-4.75c0.78-5.7,1.57-11.4,2.35-17.1c0.43-3.14,0.63-6.27,0.9-9.42c0.34,0.08,0.68,0.16,1.05,0.24
				c6.49,1.37,16.34,1.92,25.09,1.41c5.45-0.33,12.94-1.24,17.7-3.65l0.6-0.3c1.27-2.19,1.91-4.79,2.76-7.19
				c1.17-3.26,2.13-6.59,2.88-9.97c1.5-6.76,2.15-13.7,1.92-20.62c-0.19-5.68-5.41-8.01-10.39-9.06c-5.27-1.11-11.39-1.24-16.59,0.1
				c5.86,4.31,9.68,12.4,11.15,17.14l0.1,0.31c-5.15,0.85-10.56,0.9-15.06,0.94c-12.04,0.09-24.09-1.89-35.75-3.81
				c-15.13-2.49-31.92-7.04-46.48,0.18c-5.2,2.58-5.8,8.88-5.31,14.04c0.68,7.24,2.74,14.07,4.73,21.01
				c-1.22-0.34-2.45-0.68-3.66-1.01c-6.26-1.75-12.17-3.4-18.27-4.69c-8.15-1.72-15.08-2.44-21.79-2.27
				c-4.57,0.13-8.87,0.65-13.17,1.59c-4.68,1.03-9.23,2.51-13.52,4.42c-8.73,3.86-22.22,12.21-32.65,22.17l-1.15,1.1l0.64,1.45
				c0.81,1.83,1.51,4.01,2.53,5.69c4.86,8,10.14,15.75,15.8,23.19c3.12,4.1,7.36,9.74,12.71,10.98c2.14,0.5,5.28-0.22,7.36-0.83
				c4.15-1.21,8.59-3.94,12.34-6.18c3.11-1.86,6.05-3.62,9.24-4.72l2.2-0.76c-0.8-2.11-1.79-4.1-2.97-6.03
				c-1.21-1.97-1.75-3.88-2.36-6.11c3.34-1.71,7.91-2.08,11.64-2.47c4.18-0.44,8.36-0.39,12.53,0.07
				c10.14,1.21,20.04,3.82,29.93,6.25C289.04,122.87,291.25,123.41,293.46,123.91z"/>
			<g id="XMLID_1011_">
				<path id="XMLID_1056_" class="st7" d="M377.89,74.3c-11.88,2.04-30.04,1.63-38.24,0.6c0.18,0.68,0.32,1.42,0.38,2.21
					c5.81,1.74,16.97,2.59,27.01,1.99c6.77-0.42,13.03-1.49,16.82-3.41c0.57-0.98,1.11-2.14,1.61-3.46
					C383.53,73.1,380.92,73.78,377.89,74.3z"/>
				<path id="XMLID_1055_" class="st30" d="M373.79,36.05c2.34,3.27,4.3,6.97,5.57,11.08c4.67-0.65,12.5-5.85,11.21-9.43
					c-1.27-3.54-9.23-6.47-19.74-5.37c0.51,0.58,1.01,1.18,1.51,1.78c8.02-0.55,16.06,2.03,15.67,4.92
					C386.14,36.52,380.36,35.12,373.79,36.05z"/>
				<path id="XMLID_1018_" class="st7" d="M335.31,107.39c-7.55,5.31-16.77,7.1-21.98,6.28c7.83-0.68,16.74-3.93,22.59-9.6
					c0.16-0.9,0.31-1.82,0.46-2.74c-7.22,4.19-16.09,5.48-21.26,5.25c8.09-1.88,15.86-3.39,21.79-8.77
					c0.13-0.91,0.25-1.82,0.37-2.71c-7.3,3.61-15.51,4.64-20.24,4.42c7.35-1.7,15.06-3.96,20.71-8.18c0.23-1.99,0.41-3.83,0.54-5.4
					c-15.09,9.42-32.5,9.16-60.77,2.27c-3.83-0.92-7.85-1.98-12.1-3.14c-30.57-8.39-62.9,0-84.61,23.09
					c0.59,1.08,1.21,2.15,1.85,3.21c5.57-4.87,14.94-11.28,17.75-12.83c-3.09,2.9-11.87,10.01-16.58,14.7
					c0.66,1.04,1.35,2.08,2.06,3.1c5.02-4.53,15.06-11.37,17.8-12.97c-2.97,2.94-12.23,10.62-16.32,15.08
					c0.69,0.94,1.4,1.86,2.12,2.77c4.3-3.72,13.8-10.31,16.23-11.45c-2.34,2.32-11.2,9.24-15.04,12.91c0.79,0.97,1.6,1.93,2.43,2.88
					c5.81-4.82,17.64-12.24,21.19-13.62c-4.31,3.09-14.66,10.82-19.45,15.58c1.13,1.23,2.29,2.44,3.47,3.63
					c15.14-14.42,38.83-27.65,69.7-20.75c19.45,4.35,40.12,14.53,61.26,3.57l2.12,1.85c1.36-1.32,2.31-2.66,2.91-3.86
					C334.66,110.56,334.99,109.02,335.31,107.39z"/>
				<path id="XMLID_1017_" class="st7" d="M338.6,81.77c-12.26,9.4-31.83,8.39-56.82,1.67c-0.33-0.08-0.67-0.17-1-0.26
					c-15.23-4.16-29.57-8.83-45.01-8.43c-4.15,0.12-8.39,0.58-12.75,1.54c-4.31,0.95-8.68,2.32-13.09,4.28
					c-7.99,3.53-21.29,11.51-32,21.74c0.61,1.38,1.26,2.74,1.96,4.08c22.06-23.14,54.2-31.62,87.24-22.09
					c3.66,1.05,7.2,1.99,10.63,2.83c28.41,6.88,48.93,6.03,60.6-2.85C338.47,83.35,338.54,82.5,338.6,81.77z"/>
				<path id="XMLID_1016_" class="st7" d="M331.4,115.82l-2.12-1.85c-14.86,9.89-29.92,6.75-50.09,1.27l-0.71,2.63
					c5.45,1.51,10.16,3.08,15.38,4.23c2.45,0.55,5,1,7.81,1.32C316.89,125.15,326.61,120.54,331.4,115.82z"/>
				<path id="XMLID_1015_" class="st30" d="M281.62,79.9c0.2,0.7,0.4,1.35,0.6,1.94c20.53,5.03,35.07,5.28,48.3,1.21
					c7.66-2.36,10.12-8.35,3.01-12.54c-8.84-5.21-29.19-1.77-43.79-3.79c-4.74-0.65-8.88-1.89-11.81-4.2
					c0.09,0.77,0.31,2.07,0.6,3.67c16.39,8.81,52.82-2.8,56.66,11.03c-7.93-12.17-38.02-1.03-56.37-9.54
					c0.2,1.04,0.43,2.16,0.67,3.31c4.33,1.97,9.45,2.98,15.27,3.95c-3.18,0.46-8.84,0.23-14.73-1.49c0.11,0.49,0.22,0.99,0.33,1.47
					c5.39,2.02,11.75,2.93,17.84,3.94c-3.49,0.29-10.47-0.14-17.43-2.26c0.17,0.67,0.33,1.33,0.5,1.96
					c4.79,1.51,10.16,2.41,15.22,3.35C293.43,82.12,287.64,81.54,281.62,79.9z"/>
				<path id="XMLID_1014_" class="st7" d="M388.48,61.36c0.2-1.01,0.38-2.02,0.56-3.03c-4.83,1.66-10.01,2.31-14.12,1.89
					c4.81-0.79,9.96-2.17,14.54-4.64c0.24-1.7,0.42-3.35,0.55-4.89c-0.07,0.93-6.92,2.74-7.85,3.01c-2.78,0.82-5.63,1.43-8.5,1.88
					c-5.98,0.95-12.06,1.21-18.12,1.06c-17.78-0.43-35.44-4.29-53.07-6.33c-7.55-0.87-17.28-2.37-23.08,4.04
					c0.5-0.55,0.67-1.5,1.3-2.12c0.96-0.94,2.18-1.64,3.38-2.22c3.38-1.64,7.21-2.41,10.95-2.42c6.82-0.01,13.98,1.81,20.74,2.82
					c18.54,2.76,37.69,6.89,56.47,4.24c6.17-0.87,12.28-2.52,17.86-5.33c0.09-1.33,0.11-2.55,0.07-3.59
					c-7.65,5.33-18.97,5.49-27.91,5.56c-20.23,0.16-39.67-5.32-59.67-7.13c-0.1-0.01-0.2-0.02-0.31-0.03
					c-6.03-0.53-11.72-0.22-17.59,1.47c-1.33,0.39-2.52,0.93-3.56,1.61c-5.52,3.57-6.41,10.6,0.8,15.14
					c2.11,1.33,4.87,2.12,8.04,2.58c7.33,1.06,16.87,0.34,25.65,0.36c10.93,0.02,20.71,1.19,23.6,8.31
					c7.51,1.12,26.21,1.65,38.47-0.41c3.36-0.57,6.24-1.34,8.27-2.33c0.29-0.82,0.56-1.7,0.83-2.59c-3.47,0.69-6.89,0.79-9.72,0.27
					c3.34-0.4,6.83-1,10.2-2.02c0.26-1,0.51-2.03,0.74-3.08c-5.2,1.27-10.68,1.44-14.61,0.74
					C378.36,63.91,383.65,63.23,388.48,61.36z"/>
				<path id="XMLID_1013_" class="st7" d="M267.7,112.08c-27.43-5.57-51.13,3.84-68.14,20.28c0.61,0.6,1.23,1.19,1.85,1.78
					c16.01-14.85,36.26-22.64,55.75-20.31c8.9,1.06,15.53,2.44,21.32,4.04l0.71-2.63C275.54,114.24,271.78,112.91,267.7,112.08z"/>
				<path id="XMLID_1012_" class="st30" d="M231.12,121.97c-0.37-0.87-0.64-1.71-0.72-2.49c0,0.05-10.31,4.77-11.02,5.16
					c-4.81,2.63-11.47,5.83-14.51,10.64c-2.01,3.18,1.33,5.21,4.23,5.39c4.33,0.27,8.48-2.1,12.16-4.1
					c4.56-2.48,8.92-5.64,13.86-7.34c-0.24-0.62-0.73-1.46-1.3-2.39c-2.42,0.61-5.03,1.54-7.82,2.88c1.23-1.66,3.89-3.05,7.16-3.97
					c-0.52-0.85-1.05-1.75-1.5-2.64c-3.03,0.86-6.3,2.27-9.85,4.43C223.14,125.3,226.78,123.23,231.12,121.97z"/>
			</g>
		</g>
	</g>
	<g>
		<g id="XMLID_891_">
			<path id="XMLID_1006_" d="M377.12,150.57c-0.14-0.08-0.27-0.16-0.41-0.24c-3.17-1.85-6.58-3.29-10.12-4.26
				c-10.22-2.79-21.96-1.9-30.88,4.01c-6.82,4.52-12.55,11.71-13.44,20.05c-0.84,7.76,2.87,16,9.25,20.49
				c9.55,6.72,24.64,4.48,30.27-6.33c0.85-1.62,1.37-3.35,1.61-5.09c-0.08,0.59,2,3.02,2.36,3.67c0.79,1.47,1.45,3.01,1.97,4.6
				c1.03,3.13,1.45,6.3,1.43,9.58c-0.11,22.86-17.94,40.76-37.57,49.55c-9.08,4.06-18.68,6.73-28.34,9l-0.04,0.01
				c-4.15-21.88-13.87-42.71-27.83-60.06c-14.66-18.22-35.45-34.37-58.1-41.07c-1.43-0.42-2.88-0.81-4.33-1.14l-0.76-0.18
				c-0.04-0.01-1.27-11.14-1.5-12.16c-1-4.49-2.47-8.89-4.38-13.07c-4.08-8.91-10.48-17.52-18.81-22.88
				c-9.36-6.03-20.32-10.23-31.61-9.49c-5.52,0.36-10.66,1.63-15.09,4.91c-4.47,3.31-8.34,8.01-9.59,13.53l-0.04,0.15
				c-1.39,6.16,1.93,11.79,7.72,13.1c5.46,1.23,9.01-1.02,12.53-4.82c-3.76,0.59-14.08-0.09-13.2-6.02
				c0.81-5.44,5.88-9.44,9.98-11.2c8.97-3.87,19.54-1.34,27.95,2.78c8.99,4.41,15.68,12.32,19.51,21.51
				c0.33,0.79,0.65,1.62,0.95,2.47c2.61,7.29,3.24,14.22,3.31,18.74c-19.52-2.53-42.01,6.2-50.21,19.52
				c-3.42,5.55-5.44,11.41-4.51,17.95c0.86,6.08,3.87,11.89,8.54,15.9c8.02,6.87,19.3,7.66,28.51,3.01
				c9.42-4.76,17.12-12.38,21.65-21.86c4.14-8.67,6.95-15.7,6.64-18.05c0,0,7.6,3.24,15.59,9.05c6.73,4.9,13.15,9.95,18.91,16
				c5.81,6.1,11,12.76,15.71,19.74c5.21,7.73,9.58,16.13,12.31,25.04c5.46,17.75,5.81,27.28,5.76,27.29
				c-6.82,1.58-14.2,4.43-20.38,7.79c-7.08,3.85-13.2,8.46-18.2,13.72c-11.35,11.94-19.58,32.96-6.6,46.7
				c9.38,9.92,25.31,9.37,37.16,4.76c14.73-5.73,26.66-19.8,31.91-37.64c1.94-6.61,2.87-13.72,2.8-21.73l0.6-0.18
				c21.95-6.66,45.47-14.61,62.84-30.17c18.04-16.15,29.8-39.57,27.73-64.13C395.56,169.89,388.97,157.63,377.12,150.57z
				 M178.78,190.35c-3.41,1.49-7.27,2.18-10.8,0.78c-4.14-1.64-5.87-6.59-4.83-10.73c0.96-3.82,3.79-6.92,6.99-9.2
				c8-5.7,18.38-7.04,28.19-6.44c-1.8,10.07-8.23,19.22-17.09,24.34C180.45,189.56,179.63,189.98,178.78,190.35z M269.83,309.5
				c-3.76,4.81-15.19,15.93-21.56,9.45c-3.38-3.44-1.13-8.65,1.08-12.07c3.43-5.31,8.51-9.43,13.91-12.6
				c2.71-1.59,5.55-2.98,8.48-4.13c0.91-0.35,7.05-1.88,7.17-2.64C277.57,296.02,274.46,303.58,269.83,309.5z"/>
			<g id="XMLID_997_">
				<path id="XMLID_1005_" class="st31" d="M379.15,196.58c1-12.52-2.03-24.44-12.91-31.59c-10.1-6.65-20.63-4.6-24.14-0.64
					c-4.77,5.4-3.29,10.23-0.84,11.71c-0.76-3.53,0.46-6.83,2.74-9.08c0.6-0.59,1.28-1.12,2.02-1.55
					c7.37-4.32,17.47,3.01,17.87,10.82c4.61,5.36,7.5,12.17,7.57,20.83c0.14,18.34-14.8,37.57-27.17,45.26
					c-2.88,1.79-5.77,3.38-8.67,4.8c-10.34,5.07-20.83,8.02-31.87,10.62c0.17,1.03,0.33,2.06,0.48,3.08
					c0.06,0.36,0.11,0.72,0.16,1.08c8.08-1.3,16.01-3.5,23.66-6.42c18.56-7.08,35.64-18.41,44.86-36.64
					C376.43,211.93,378.53,204.33,379.15,196.58z"/>
				<path id="XMLID_1001_" class="st32" d="M394.32,196.93c1.45-12.78,1.58-32.97-18.36-44.32c-8.92-5.07-19.58-7.53-29.48-4.99
					c-1.83,0.47-3.63,1.11-5.39,1.93c-11.33,5.3-17.77,16.13-16.58,25.23c1.27,9.81,11.22,19.89,22.37,17.32
					c13.25-3.06,16.19-13.05,13.56-19.55c-2.12-5.25-8.3-7.95-13.08-6.18c-0.84,0.31-1.52,0.77-2.05,1.33
					c-2.7,2.82-1.61,8.09,2.57,8.8c1.96,0.34,4.9-0.46,4.3-3.87c-0.25-1.43,1.07-1.77,1.43-0.23c1.13,4.73-2.77,11.53-9.74,10.48
					c-7.72-1.17-11.12-11.7-3.72-20.57c3.34-3.99,16.13-7.5,28.24,1.76c10.14,7.75,13.85,20.03,12.85,32.55
					c-0.35,4.4-1.21,8.75-2.56,12.94c-4.58,14.24-14.64,26.2-26.72,34.79c-13.97,9.93-30.38,16.53-47.37,19.13
					c0.19,1.56,0.36,3.12,0.49,4.67c7.04-1.89,13.17-3.24,16.41-3.61c-3.27,1.64-9.34,3.43-16.27,5.41c0.14,1.9,0.22,3.78,0.25,5.64
					c18.09-5.49,35.4-11.83,51.64-21.67c5.06-3.06,9.66-7.22,13.86-11.41C383.19,230.38,392.38,214.06,394.32,196.93z
					 M340.52,187.12c-7.05-0.28-15.37-12.65-9.62-21.54C329.81,172.35,329.74,180.33,340.52,187.12z M353.11,250.1
					c-5.06,2.93-10.47,5.31-16.13,7.06c3.43-1.5,6.78-3.21,10-5.13c2.56-1.52,5.23-2.94,7.7-4.54c4.03-2.62,7.77-5.69,11.24-9.01
					c11.45-10.97,20.42-25.47,21.7-41.56c0.81-10.16,0.6-19.29-10.39-33.03c9.65,8.27,12.54,20.8,11.9,32.66
					c-0.62,11.32-5,22.09-11.54,31.26C371.07,236.95,362.71,244.53,353.11,250.1z"/>
				<path id="XMLID_1000_" class="st32" d="M287.61,245.05c-3.59-12.28-9.21-23.94-16.16-34.66c-6.11-9.41-13.61-18.13-21.95-25.75
					c-7.69-7.03-16.29-14.25-25.82-18.54c-0.89-0.4-11.77-4.78-11.74-4.95c-0.23,1.45-0.47,2.84-0.74,4.2
					c0.57-0.71,8.75,4.4,9.53,4.84c17.25,9.82,30.86,24.18,41.89,40.55c10.44,15.48,16.8,34.85,18.71,53.43
					c0.76,7.35,0.86,14.32,0.16,20.76c-1,9.25-4.13,18.55-9.91,25.94c-4.58,5.85-16.06,15.81-24.02,10.55
					c-1-0.66-1.78-1.58-2.29-2.66c-0.97-2.05-1.01-4.44-0.54-6.66c1.57-7.4,8.13-13.12,14.01-17.33c3.12-2.24,6.45-4.17,9.91-5.83
					c1.05-0.5,10.7-3.74,10.75-4.17c0.38-3.91,0.36-7.87-0.08-11.78c0,0.02-8.82,3.16-9.62,3.52c-3.34,1.47-6.57,3.17-9.68,5.08
					c-6.09,3.74-11.85,8.12-15.97,14.02c-4.91,7.03-8.45,18.84-3.57,26.73c4.93,7.98,15.29,8.54,23.07,4.56
					c18.68-9.55,24.07-27.14,26.31-37.11C293.19,274.83,291.84,259.5,287.61,245.05z"/>
				<path id="XMLID_999_" class="st31" d="M209.26,162.19c2.93-14.5-2.51-44.29-27.2-57.9c-10.89-6-25.91-10.36-37.47-3.67
					c-4.97,2.88-9.9,8.09-11.21,13.86l-0.03,0.15c-1.48,6.57,3.56,13.25,13.45,9.7c-0.87-0.04-1.68-0.13-2.45-0.25
					c-6-0.88-8.95-3.68-8.31-7.99c0.88-5.93,6.05-10.65,11.3-12.92c9.78-4.22,21.18-1.23,30.35,3.1
					c9.17,4.33,16.21,13.2,20.04,22.38c0.36,0.85,0.69,1.71,1,2.58c2.86,7.98,3.59,15.98,3.42,21.97c-0.04,1.43-0.13,2.75-0.26,3.93
					c-2.4,21.98-12.4,30.43-22.18,35.15c-15.09,7.28-25.58-7.62-14.54-19.8c5.6-6.19,17.98-11.18,33.37-9.91
					c0.22-1.11,0.54-2.87,0.81-4.7c-19.53-1.05-38.01,6.41-43.51,21.12c-4.98,13.32,8.06,21.78,19.25,19.51
					c13.82-2.82,22.48-15.17,26.82-23.82c-3.55,12.77-16.28,23.13-26.02,25.12c-14.02,2.85-25.77-6.58-21.57-20.47
					c4.77-15.77,24.92-23.94,45.3-23.51c0.13-1.06,0.22-2.05,0.24-2.86c-19.06-2.56-40.67,6.16-48.24,18.45
					c-8.92,14.46-3.64,26.51,5.75,32.47c4.37,2.76,9.63,4.2,14.77,3.96c3.44-0.16,6.81-1.08,9.84-2.87c1.9-1.13,3.75-2.33,5.51-3.63
					c2.82-2.09,5.45-4.47,7.87-7.28c2.42-2.8,4.62-6.03,6.59-9.84C204.97,178.4,207.43,171.23,209.26,162.19z"/>
				<path id="XMLID_998_" class="st31" d="M301.91,261.2c-4.6-31.27-22.19-65.13-51.56-86.66c-11.41-8.37-23.91-15.79-37.9-19.04
					c-0.03,1.25-0.11,2.44-0.23,3.53c20.08,6.49,37.08,20.25,50.28,36.47c11.77,14.46,21.09,31.26,26.32,49.19
					c4.39,15.03,5.79,30.96,2.23,46.52c-1.07,4.67-3.02,11.3-6.75,17.98c-4.21,7.57-10.71,15.2-20.81,20.08
					c-9.28,4.48-22.6,2.74-26.44-8.37c-2.9-8.39-0.51-20.86,6.07-28.32c10.18-11.54,20.55-16.27,36.11-21.69
					c-0.06-3.38-0.08-1.01-0.39-4.38c0.02,0.26-12.28,3.71-19.33,7.54c-6.49,3.53-12.54,7.93-17.65,13.3
					c-11.76,12.38-20.84,37.45-1.33,47.49c9.05,4.66,20.19,3.99,29.47,0.38c15.32-5.96,26.06-20.81,30.59-36.2
					C304.22,286.74,303.76,273.73,301.91,261.2z"/>
			</g>
		</g>
	</g>
	<g>
		<g id="XMLID_620_">
			<path id="XMLID_890_" d="M201.5,236.76c1.05,3.1,2.39,5.91,3.77,7.9c0.72,1.06,2.33,1.93,4.21,2.27
				c1.93,0.36,4.03,0.14,6.07-0.61l0.63-0.23c1.41,1.72,2.94,3.18,4.57,4.31c3.54,2.46,8.41,4.35,13.71,5.33
				c1.86,0.34,3.75,0.57,5.61,0.67l2.12,0.11c0.87,1.1,1.96,2.37,3.44,2.56c1.23,0.16,2.85-0.21,4.11-0.32
				c2.47-0.21,5.56-0.53,7.37-2.44c1.81-1.92,2.19-6.26,2.38-8.77c0.56-7.31-0.51-14.82-1.75-22.02
				c-0.26-1.48-6.34-36.25-14.49-37.96l0.02-0.98c0.02-0.94,0.03-1.95-0.07-2.87c-0.18-1.79-0.78-3.2-1.87-4.44l-0.49-0.56
				l-0.05-0.01l0.01-0.12c0.28-4.98,2.76-12.89,8.82-18.78l1.01-0.99c0.12,0.03,0.24,0.08,0.36,0.11c1.43,0.34,2.28-0.72,3.41-1.49
				c1.31-0.89,2.65-1.74,4.03-2.52c3.23-1.83,6.7-3.29,10.34-4.07c3.93-0.85,7.83-0.9,11.91-0.14c1.71,0.31,3.46,0.78,5.21,1.37
				c1.27,0.43,1.39,0.41,2.32-0.57c0.02-0.02,0.03-0.04,0.05-0.05l0.91,0.34c2.16,0.81,4.61,2.32,6.92,4.25
				c3.27,2.74,6,6.09,7.68,9.43l0.05,0.1c-0.12-0.23-1.92,1.84-1.98,2.27c-0.15,0.97,0.5,2.59,0.74,3.56c0.42,1.74,1,3.48,1.54,5.19
				c-0.07-0.22-1.43,1.59-1.57,1.85c-1.46,2.8-1.57,6.19-1.67,9.29c-0.11,3.46,0.09,6.91,0.39,10.36
				c0.46,5.27,1.14,10.56,2.26,15.74c1.41,6.52,3.31,13.59,5.07,18.92c1.24,3.75,2.31,8.26,5.3,11.14c4.22,4.06,12.28,3,14.86-2.3
				l2.07-0.4c6.73-1.29,18.22-13.11,20.76-23.45c0.05-0.22,0.1-0.44,0.15-0.66l0.96-0.18c2.89-0.55,6.31-3.1,7.25-6.91
				c1.4-5.65,0.16-12.37-1.57-17.83c-1.49-4.66-5.29-8.27-10.39-8.05c-0.1,0-0.19,0.01-0.29,0.02c-0.67,0.05-1.23,0.28-1.67,0.67
				c-4.12-5.43-10.95-9.18-20.43-11.18c-0.17-0.04-0.37-0.07-0.58-0.11c-0.03-0.01-2.85-0.52-4.78-0.59
				c0.26-3.88-1.14-9.84-5.81-10.17c-0.13-0.01-0.27-0.01-0.4-0.02l-0.15-0.43c-2.51-7.35-12.11-17.88-21.2-20.97l-1.31-0.44
				l-0.23-0.55l-0.53-0.37c-9.38-6.59-23.35-5.55-33.61-1.84c-2.44,0.88-4.81,1.97-7.05,3.27c-3.66,2.12-8.04,4.63-6.99,9.54
				l-0.91,0.9c-5.46,5.41-12.89,18.16-12.01,27.05c0,0,0.02,0.18,0.02,0.19c-0.13,0.33-1.36,0.56-1.66,0.76
				c-0.48,0.33-0.53,0.38-0.77,0.95c-1.14,2.67-0.77,6.95-0.25,9.18l0.05,0.21c-3.73,1.56-7.25,3.75-10.27,6.43
				c-5.15,4.61-8.58,10.38-9.36,17.3l-0.8,0.19c-2.93,0.69-5.07,2.02-6.33,3.93c-0.79,1.18-1.24,2.58-1.33,4.18
				C199.04,228.06,200.35,233.35,201.5,236.76z"/>
			<g id="XMLID_621_">
				<path id="XMLID_889_" class="st33" d="M349.47,192.2c2.61,7.2,4.27,14.8,2.81,22.51c2.28-0.43,4.82-2.48,5.51-5.26
					c1.23-4.96-0.08-10.52-1.2-15.38c-1.01-4.35-3.7-8.08-8.74-7.73c-0.14,0.01-0.3,0.03-0.39,0.14c-0.15,0.16-0.07,0.42,0.01,0.62
					C348.16,188.77,348.84,190.47,349.47,192.2z"/>
				<path id="XMLID_888_" class="st34" d="M325.13,175.78c-1.4-0.3-4.73-0.77-5.76-0.65c9.21,9.1,14.22,47.07,11.03,63.88
					c5.6-1.07,16.59-11.89,19.02-21.8c2.23-9.08,0.62-15.93-1.94-24.66C344.42,182.09,334.3,177.72,325.13,175.78z"/>
				<path id="XMLID_887_" class="st35" d="M317.6,176.1c-4.59-1.46-7.32-1.98-10.25-0.81c8.04,8.67,17.54,55.63,11.16,68.54
					c3.32,0.7,5.77-0.45,7.34-1.59C334.64,229.28,325.24,184.71,317.6,176.1z"/>
				<path id="XMLID_886_" class="st36" d="M306.43,178.11c-5.18-0.48-3.44,22.72-0.74,35.24c2.4,11.11,7.65,29.98,11.09,29.74
					c1.06-2.71,1.57-6.44,1.66-10.77c-6-7.31-10.64-36.33-8.81-47.46C308.57,182.15,307.49,179.85,306.43,178.11z"/>
				<path id="XMLID_876_" class="st37" d="M311.38,189.78c-0.47,9.21,1.96,30.76,7.05,39.04
					C318.09,216.63,315.07,201.1,311.38,189.78z"/>
				<path id="XMLID_873_" class="st33" d="M315.56,165.27c-0.34-0.18-0.8-0.29-1.35-0.33c-2.76-0.24-7.63,1.13-10.02,3.06
					c0.11,0.94,0.3,1.93,0.52,2.88c0.23,0.95,0.5,1.86,0.79,2.64c2.81-1.08,8.74-2.16,12.46-0.5
					C318.29,171.36,317.05,166.24,315.56,165.27z M310.33,171.31c-1.22-0.23-2.04-1.4-1.82-2.63c0.23-1.23,1.41-2.04,2.63-1.82
					c1.23,0.23,2.04,1.4,1.81,2.63C312.73,170.73,311.56,171.54,310.33,171.31z"/>
				<path id="XMLID_872_" class="st34" d="M291.95,143.41c-0.12,0.82-0.34,1.72-0.6,2.62c-0.38,1.25-0.86,2.52-1.41,3.67
					c2.37,0.89,5.03,2.5,7.56,4.62c3.26,2.73,6.3,6.28,8.24,10.14c1.88-0.77,4.05-1.26,6.01-1.47
					C309.36,155.98,300.01,146.15,291.95,143.41z"/>
				<path id="XMLID_871_" class="st35" d="M245.24,147.8c-1.28,3.68,2.5,8.07,6.24,8.95c4.72-3.41,10.25-6.69,16.8-8.09
					c5.37-1.16,11.43-1.05,18.31,1.3c1.12-1.17,2.21-2.86,2.73-4.57c0.38-1.26,0.45-2.54-0.01-3.62c-2.64-1.85-5.91-3.04-9.49-3.68
					C267.77,135.95,252.2,140.26,245.24,147.8z"/>
				<path id="XMLID_866_" class="st36" d="M242.04,189.76c-0.62,2.94-0.83,7.26-0.82,9.75c6.95,10.05,11.86,30.22,9.19,46.67
					c1.44,3.43,3.02,6.22,4.72,8.07c3.31-2.29,2.49-16.27,0.4-28.35C252.66,209.24,246.45,188.33,242.04,189.76z"/>
				<path id="XMLID_717_" class="st35" d="M233.99,190.4c-8.03,17.39,3.38,60.21,11.54,66.38c2.53-0.19,5.13-0.67,7.78-1.4
					c-10.53-14.09-16.22-47.37-13.17-66.76C238.27,188.6,235.27,189.52,233.99,190.4z"/>
				<path id="XMLID_716_" class="st37" d="M241.41,205.04c0.79,12.4,3.87,26.77,7.45,37.06
					C249.88,232.48,247.39,214.45,241.41,205.04z"/>
				<path id="XMLID_715_" class="st34" d="M230.01,191.53c-4.33,1.52-8.21,3.89-11.39,6.72c-3.66,3.27-6.37,7.15-7.67,11.05
					c-0.27,0.81-0.48,1.63-0.62,2.45c-1.08,6.13-0.69,12.78,0.85,18.86c1.96,7.71,5.77,14.47,10.83,17.98
					c4.54,3.15,11.37,5.23,18.17,5.6c-7.44-12.67-15.38-47.26-9.16-62.98C230.68,191.3,230.35,191.41,230.01,191.53z"/>
				<path id="XMLID_709_" class="st33" d="M239.65,180.73c-3.52-0.72-7.38-0.5-9.99,0.9c-0.83,1.95-0.66,5.55-0.13,7.81
					c3.35-1.2,7.17-2.18,11.51-2.91c0.02-0.99,0.03-1.83-0.06-2.59C240.85,182.68,240.49,181.69,239.65,180.73z M234.64,186.46
					c-1.25-0.23-2.08-1.44-1.85-2.69c0.23-1.26,1.44-2.09,2.69-1.86c1.26,0.23,2.09,1.44,1.86,2.7
					C237.11,185.86,235.9,186.7,234.64,186.46z"/>
				<path id="XMLID_626_" class="st34" d="M243.6,153.39c-5.44,5.38-12.14,17.38-11.37,25.25c1.88-0.17,4.14-0.26,6.33-0.2
					c0.34-6.08,3.33-14.26,9.49-20.25C246.21,157.05,244.64,155.28,243.6,153.39z"/>
				<path id="XMLID_625_" class="st33" d="M207.5,216.23c-1.75,0.41-3.82,1.23-5,3.02c-0.54,0.79-0.88,1.8-0.95,3.05
					c-0.24,4.91,0.71,9.77,2.06,13.75c1.06,3.1,2.35,5.69,3.5,7.37c0.54,0.79,3.57,2.34,7.67,0.83c-2.51-3.62-4.47-8.2-5.73-13.09
					C207.79,226.28,207.23,221.08,207.5,216.23z"/>
			</g>
		</g>
	</g>
	<g>
		<g id="XMLID_569_">
			<g id="XMLID_586_">
				<path id="XMLID_587_" class="st38" d="M227.3,63.36c-2.78,2.79-5.01,5.4-7.6,7.55c-4.95,4.1-10.79,6.63-17.05,7.75
					c-5.26,0.94-10.63,0.5-15.93-0.33c-2.86-0.45-5.75-0.75-8.63-1.03c-2.75-0.27-5.39,0.43-8.01,1.12
					c-0.81,0.21-1.55,0.71-2.35,1.1c0.04,2.93,1.61,5.13,2.73,7.44c2.09,4.3,3.73,8.76,4.91,13.38c1.16,4.52-0.76,8-3.64,11.35
					c-3.11,3.61-7.11,5.68-11.34,7.41c-3.32,1.36-6.69,2.66-10.14,3.65c-7,2.03-14.03,1.42-20.9-0.63
					c-4.66-1.39-7.2-6.33-6.08-11.08c0.48-2.03,1.45-3.79,2.83-5.36c3.46-3.93,7.69-6.71,12.44-8.84c6.56-2.93,13.42-4.5,20.58-4.83
					c1.44-0.06,2.88-0.03,4.58-0.05c-3.71-11.34-8.95-21.91-13.98-32.22c2.03-4.9,5.31-7.69,9.57-9.9
					c5.14-2.67,10.46-2.59,15.86-2.19c5.02,0.37,10.02,1.02,15.02,1.64c5.18,0.64,10.08-0.57,14.78-2.44
					c3.36-1.34,6.12-3.69,7.79-7.1c0.57-1.17,1.03-2.53,2.68-3.19c0.66,1.33,1.28,2.58,1.91,3.83c1.74,3.46,3.53,6.9,5.23,10.38
					c1.45,2.97,2.88,5.95,4.15,9C227.13,60.85,227.1,62.15,227.3,63.36z"/>
			</g>
			<path id="XMLID_585_" class="st39" d="M222.38,55.2c0.95,1.87,1.8,3.55,2.7,5.34c-0.12,1.68-1.2,2.97-2.25,4.22
				c-3.4,4.04-7.2,7.67-12.23,9.53c-3.16,1.17-6.48,2.02-9.8,2.66c-6.8,1.3-13.47-0.22-20.17-1.25c-3.41-0.52-6.93-0.46-10.4-0.5
				c-1.32-0.01-2.64,0.44-3.95,0.69c-2.18-2.88-3.42-5.35-4.17-8.49c2.53-1.42,5.19-2.87,8.13-3.31c3.72-0.56,7.5-0.9,11.25-0.94
				c3.57-0.04,7.16,0.31,10.72,0.67c6.98,0.71,13.75-0.06,20.3-2.54c2.81-1.06,5.49-2.41,7.79-4.42
				C220.87,56.34,221.49,55.9,222.38,55.2z"/>
			<path id="XMLID_571_" class="st35" d="M220.52,51.25c-0.05,0.72-0.1,1.58-0.15,2.34c-2.18,2.8-4.99,4.57-8.06,5.74
				c-5.84,2.24-11.94,3.2-18.23,2.92c-5.71-0.26-11.42-0.34-17.12-0.65c-4.56-0.25-8.85,0.81-13.09,2.25
				c-0.89,0.3-1.69,0.88-2.95,1.56c-2.15-3.31-3.66-6.71-5.24-10.2c3.19-3.67,7.18-5.7,11.88-6.07c5.04-0.4,10.03,0.52,15.01,1.27
				c5,0.76,10.09,1.22,15.05,0.41c6.18-1.01,12.03-3.13,16.04-8.5c0.26-0.35,0.74-0.53,1.31-0.92
				C216.86,44.76,218.65,47.94,220.52,51.25z"/>
			<path id="XMLID_570_" class="st35" d="M171.07,93.78c1.03,2.67,1.62,5.55,2.09,8.39c0.42,2.48-0.96,4.51-2.47,6.33
				c-3.98,4.8-9.36,7.42-15.07,9.51c-0.82,0.3-1.68,0.51-2.5,0.81c-6.23,2.26-12.72,2.38-19.22,2.35c-2.95-0.02-4.99-0.95-7.42-2.9
				c-2.76-6.3-0.13-11.16,4.62-14.77c3.15-2.39,6.58-4.45,10.45-5.59c3.26-0.96,6.51-1.96,9.78-2.91c4.18-1.21,8.43-1.14,12.71-0.61
				c0.8,0.1,1.63-0.02,2.47-0.04c0.2-2.93-1.51-4.87-2.37-7.08c-0.99-2.53-2.18-4.98-3.3-7.45c-2.24-4.95-4.53-9.88-6.71-14.85
				c-0.73-1.67-1.58-3.4-1.05-5.33c0.12-0.42,0.38-0.81,0.82-1.71c4.35,7.22,7.7,14.31,10.94,21.45
				C167.01,84.13,169.19,88.9,171.07,93.78z"/>
		</g>
	</g>
	<g>
		<g id="XMLID_566_">
			<polygon id="XMLID_568_" points="153.69,331.47 152.67,309.03 137.89,323.64 115.91,319.96 126.38,337.45 113.17,355.42 
				136.54,349.83 151.32,369.84 153.19,347.89 171.89,343.33 			"/>
			<polygon id="XMLID_567_" class="st39" points="166.46,342.4 151.53,332.67 151.08,312.58 138.69,325.99 120.21,322.9 
				129.03,337.62 116.91,353.06 137.43,347.31 150.09,365.3 151.09,346.16 			"/>
		</g>
	</g>
	<g>
		<g id="XMLID_458_">
			<g id="XMLID_484_">
				<path id="XMLID_485_" d="M348.67,337.28c1.8-4.87,2.37-10.07,1.2-15.14c-1.01-4.36-3.5-10.38-6.59-13.67
					c-4-4.26-11.54-8.69-17.34-9.7c-1.6-0.28-4.03-0.05-5.42-0.81c-2.43-1.33-0.44-8.84,1.56-9.55c2.24-0.8,4.75-0.86,7.06-1.41
					c2.65-0.63,5.12-1.61,7.66-2.61c7.65-3.02,14.24-7.77,17.37-15.48c2.69-6.63,0.24-13.88-5.34-18.16
					c-4.69-3.6-13.14-4.72-18.76-2.78c-5.35,1.85-9.52,5.69-12.77,10.54c-4.28,6.38-6.82,13.38-8.16,20.85
					c-0.43,2.38-1.42,4.01-3.59,5.19c-17.46,9.49-32.77,33.04-22.61,52.59c3.45,6.63,7.89,13.07,14.36,17.08
					c2.85,1.77,5.97,3.81,9.15,4.91c-1.15,2.57-4.4,4.68-6.54,6.36c-2.03,1.59-5.06,2.24-7.56,2.52c-5.73,0.63-11.8-1.02-16.11-4.93
					c-2.23-2.02-4.85-8.16-0.23-9.22c1.67-0.38,4.81,0.04,5.43,1.89c1.74-3.39,2.07-8.38-1.15-11.06c-2.67-2.22-6.32-3.84-9.9-2.31
					c-9.41,4.02-11.71,13.57-6.52,21.78c10.28,16.26,35.34,18.36,48.07,4.21c1.72-1.91,4.11-4.26,4.77-6.81
					c-0.05,0.19,3.45-0.49,3.75-0.54c2.36-0.4,4.47-1.19,6.78-1.89c2.49-0.76,4.7-1.72,6.87-3.11
					C340.9,351.67,345.92,344.72,348.67,337.28z M332.43,259.23c0.76-0.43,1.6-0.82,2.45-0.95c2.05-0.31,4.32-0.7,5.69,1.33
					c1.35,2,1.05,4.19-0.13,6.29c-1.04,1.84-2.55,3.22-4.12,4.56c-3.72,3.16-9.02,5.91-13.92,6.5c1.57-4.63,2.42-9.13,5.49-13.05
					C328.88,261.87,330.46,260.34,332.43,259.23z M298.27,326.87c0.12,0.32,0.26,0.65,0.42,0.97c1.5,3.15,3.47,6.18,6.26,8.33
					c1.36,1.06,2.89,1.88,4.52,2.43c1.04,0.35,3.13,0.34,3.92,1.06c0.81,0.73,0.47,2.28,0.38,3.33c-0.17,1.97,0.07,4.47-0.94,6.22
					c-3.67-1.92-7.11-3.39-10.25-6.31c-3.42-3.17-6.05-7.09-7.75-11.43c-3.97-10.13-1.71-21.98,5.62-30.03
					c2.24-2.46,4.84-4.64,7.92-6.04c0.03,1.48,0.72,3.47,0.46,4.88c-0.29,1.54-2.31,2.69-3.41,3.61c-1.48,1.24-2.42,2.61-3.56,4.19
					c-2.3,3.17-3.95,6.89-4.36,10.81C297.2,321.63,297.27,324.27,298.27,326.87z M325.88,320.79c-0.52,1.38-0.42,2.93-1.36,4.19
					c-0.74,1-2.17,1.08-2.4-0.05c-0.68-3.27-1.01-6.31-1.06-9.59c-0.01-0.53-1.09-7.27-0.6-7.18c2.63,0.46,5.04,0.6,7.5,1.76
					c8.18,3.87,11.54,11.65,10.17,19.24c-0.69,3.79-1.74,7.47-4.05,10.33c-1.79,2.21-3.18,4.39-5.5,6.14
					c-1.86,1.4-3.93,3.54-6.47,3.27c0.25-3.57,0.32-7.15,0.47-10.73c0.05-1.13,1.03-1.32,1.7-1.85c2.9-2.29,4.49-5.33,5.06-8.92
					c0.4-2.53,0.43-5.05-1.56-7.02C327.14,319.74,326.41,319.37,325.88,320.79z M312.73,325.98c0.07,0.66,0.1,1.34,0.08,2.04
					c-2.25-0.2-3.49-3.59-3.72-5.45c-0.32-2.57,0.42-5.18,1.87-7.3c-0.72,1.05,0.56,4.91,0.85,6.09
					C312.21,322.94,312.57,324.42,312.73,325.98z"/>
			</g>
			<path id="XMLID_463_" class="st39" d="M345.46,317.66c3.56,11.17,1.38,21.29-6.21,30.18c-2.65,3.07-5.98,5.49-9.59,7.33
				c-8.28,4.22-16.93,5.03-25.39-0.09c-0.63-0.37-1.24-0.81-1.9-1.15c-11.15-5.68-17.05-14.85-18.55-27.18
				c-1.16-9.66,1.65-18.06,7.53-26.08c2.32-3.14,4.71-6.27,7.56-8.96c1.46-1.37,3.04-2.64,4.74-3.68c1.27-0.76,3.26-2.32,4.74-2.4
				c-0.21,1.7-0.26,3.42-0.17,5.12c0.14,2.49-1,2.41-3.06,3.65c-3.6,2.24-6.78,5.2-8.91,8.89c-3.94,6.83-6.89,14.13-5.64,22.24
				c1.29,8.3,5.25,15.33,11.74,20.69c2.83,2.31,5.88,4.33,9.48,5.61c1.3,0.48,2.54,0.77,3.76,0.96c5.3,0.78,10.02-1.04,14.52-4.25
				c7.84-5.57,10.87-13.64,11.28-22.84c0.3-6.7-2.73-12.18-7.77-16.21c-6.29-5.04-17.33-5.59-23.55,2.09
				c-3.39,4.22-5.07,9.28-2.15,14.83c2.59,4.94,8.21,6.82,13.02,4.17c3.13-1.75,4.99-4.02,5.95-7.49
				c1.78,5.16-1.56,10.63-6.43,12.41c-1.9,0.68-3.99,0.88-6.08,0.63c-7.76-0.91-15.58-7.84-14.77-16.5c0.33-3.6,1.79-6.88,3.92-9.73
				c3.49-4.66,8.22-7.42,13.67-8.76c0.78-0.18,1.57-0.34,2.38-0.49c2.79-0.48,5.7,0.12,8.34,0.96
				C336.17,304.24,342.71,308.97,345.46,317.66z"/>
			<path id="XMLID_462_" class="st39" d="M313.83,359.99c0.16,0.01-3.55,5.6-3.88,6.01c-2.93,3.79-6.97,6.79-11.56,8.27
				c-4.72,1.54-9.28,1.54-13.93,0.63c-6.18-1.23-11.63-4.16-16.03-8.58c-5.37-5.36-5.58-15.09,0.71-19.96
				c4.55-3.54,12.73-0.33,10.56,6.05c0.2-0.6-2.91-2.02-3.36-2.11c-1.11-0.21-2.1,0.03-2.99,0.74c-1.74,1.36-2.4,4.1-2.58,6.2
				c-0.25,2.97,1.09,5.75,3.36,7.66c1.14,0.93,2.44,1.66,3.67,2.48c8.92,5.97,19.4,4.5,27.5-2.48c1.49-1.28,2.44-2.62,3.81-4.23
				c0.9-1.06,0.7-1,2.24-0.9C312.19,359.84,313.01,359.83,313.83,359.99z"/>
			<path id="XMLID_461_" class="st40" d="M319.39,348.36c-0.4,1.18-1.84,1.58-2.96,0.83c-0.03-0.02-0.08-0.06-0.14-0.09
				c-0.11-0.2-0.51-0.59-0.51-0.95c0.06-2.36,0.15-4.72,0.32-7.05c0.06-0.74,0.43-1.48,1.29-1.56c0.35-0.01,0.69,0.02,1,0.15
				c0.39,0.19,0.71,0.48,0.82,0.86C319.91,343.13,320.22,345.76,319.39,348.36z"/>
			<path id="XMLID_460_" class="st40" d="M319.31,326.26c0.13,1.31-0.09,2.29-1.54,2.71c-1.61,0.46-2.74,0-2.96-1.61
				c-0.54-4.08-0.91-8.17-1.36-12.26c-0.13-1.16,0.73-1.89,1.06-2.57c0.72-0.94,1.38-1.55,2.39-1.24c0.84,0.24,1,1.03,1.07,1.77
				C318.43,317.45,318.84,321.86,319.31,326.26z"/>
			<path id="XMLID_459_" class="st39" d="M351.76,257.49c2.27,4.07,0.82,8.65-1.94,12.62c-2.55,3.7-6.27,6.88-9.22,8.61
				c-5.62,3.31-13.04,7.34-19.63,7.93c-0.12-0.84-0.26-3.26,0-4.6c0.07-0.32,0.14-0.57,0.25-0.74c1.13-1.79,4.09-2.06,5.98-2.53
				c6.3-1.51,12.62-5.06,15.43-11.3c1.3-2.9,1.95-5.84,0.3-8.93c-1.08-2.04-2.63-3.09-4.9-3.21c-4.7-0.29-8.32,1.79-11.18,5.26
				c-4.76,5.72-7.16,12.48-8.26,19.75c-0.06,0.45-0.13,0.89-0.17,1.35c-0.61,4.53-0.79,9.11-1.02,13.68
				c-0.12,2.59-0.79,3.44-2.73,3.97c-0.15,0.04-0.29,0.07-0.45,0.12c-1.21,0.27-2.1,0.04-2.3-1.32c-0.29-1.76-0.79-3.54-0.68-5.27
				c0.05-0.65,0.06-1.3,0.11-1.96c0.34-6.28,0.62-12.58,2.39-18.66c2.03-6.94,5.51-13.05,10.91-17.9c5.18-4.66,11.5-5.66,17.9-4.14
				C346.35,251.15,349.75,253.89,351.76,257.49z"/>
		</g>
	</g>
	<g>
		<g id="XMLID_433_">
			<polygon points="184.15,333.76 204.35,420.83 226.18,416.61 239.54,437.94 245.95,412.97 269.01,401.54 249.66,392.5 
				252.53,368.68 			"/>
			<g id="XMLID_434_">
				<polygon class="st41" points="265.19,401.43 247.71,393.81 250.34,371.39 232.68,386.19 215.31,382.26 219.39,401.66 
					207.73,417.45 227.57,413.61 238.83,433.74 243.61,411.09 				"/>
				<polygon class="st21" points="231.75,383.49 189.12,340.66 214.07,379.14 				"/>
				<path class="st42" d="M191.5,339.53l42.19,41.24l14.16-11.07C245.5,368.69,191.5,339.53,191.5,339.53z"/>
				<polygon class="st42" points="190.05,345.77 216.44,401.5 213.41,382.56 213.15,380.96 189.37,344.33 				"/>
				<polygon class="st21" points="188.55,346.48 198.61,386.76 205.87,415.89 214.54,403.23 				"/>
			</g>
		</g>
	</g>
	<g>
		<g id="XMLID_400_">
			<polygon id="XMLID_432_" class="st9" points="150.71,33.36 139.91,0 170.25,16.75 150.71,33.36 			"/>
			<path id="XMLID_402_" class="st43" d="M151.97,29.71l-8.72-25.29l22.96,12.98L151.97,29.71L151.97,29.71z M153.33,24.21
				l-4.1-13.4l12.08,6.73L153.33,24.21L153.33,24.21z"/>
			<polygon id="XMLID_401_" class="st12" points="154.22,20.67 152.44,14.87 157.67,17.79 154.22,20.67 			"/>
		</g>
	</g>
	<g>
		<g id="XMLID_343_">
			<path id="XMLID_352_" d="M91.31,35.84c-4.73,9.78-3.58,21.77,4.54,29.34c3.59,3.35,8.29,5.73,13.23,6.1
				c5.62,0.43,11.03-2.01,14.36-5.57c5.14-5.5,9.07-11.73,9.82-19.42c0.29-2.93,0.01-5.82-0.83-8.61
				c-2.56-8.44-9.82-14.44-18.49-15.29C104.06,21.44,95.43,27.33,91.31,35.84z"/>
			<g id="XMLID_344_">
				<path id="XMLID_351_" class="st44" d="M120.64,63.94c-6.29,2.49-13.24,1.48-18.86-1.91c-5.55-3.35-9.81-9.02-10.89-15.94
					c-0.41,1.96-0.4,4-0.03,6.01c1.19,6.47,6.07,12.71,12.37,15.42C110.08,70.46,116.43,70.2,120.64,63.94z"/>
				<path id="XMLID_347_" class="st45" d="M130.3,38.34c-2.21-7.3-8.53-12.93-16.58-13.72c-8.62-0.84-16.57,4.04-19.86,11.55
					c-0.82,1.86-1.34,3.89-1.52,6.02c-0.62,7.36,3.81,14.56,10.34,18.42c2.56,1.51,5.45,2.51,8.48,2.8
					c10.76,1.05,18.84-6.57,19.89-17.32C131.32,43.4,131.04,40.77,130.3,38.34z M104.2,39.63c-3.23-0.92-1.07-7.32,2.42-6.82
					c4.33,0.62,9.64,1.78,13.52,3.46c4.13,1.79,1.5,8.5-1.79,7.78C115.05,43.33,108.34,40.82,104.2,39.63z M116.55,46.71
					c4.38,1.2,1.69,9.73-1.29,9.12c-3.34-0.69-10.3-2.75-14.4-4.37c-3.63-1.45-1.43-8.44,2.08-7.78
					C107.29,44.49,113.85,45.98,116.55,46.71z"/>
				<path id="XMLID_346_" class="st7" d="M101.9,50.08c3.74,1.09,10.09,2.74,13.03,3.42c2.16,0.5,4.22-3.68,0.34-4.74
					c-2.38-0.66-8.57-2.47-12.41-3.2C99.77,44.98,99.06,49.25,101.9,50.08z"/>
				<path id="XMLID_345_" class="st7" d="M118.68,37.49c-2.38-0.66-7.28-2.07-11.12-2.79c-3.1-0.59-4.66,3.08-1.77,3.9
					c3.7,1.07,9.62,3.33,12.58,3.97C120.83,43.1,122.56,38.54,118.68,37.49z"/>
			</g>
		</g>
	</g>
</g>
</svg>
