<?xml version="1.0" encoding="utf-8"?>
<!-- Generator: Adobe Illustrator 25.1.0, SVG Export Plug-In . SVG Version: 6.00 Build 0)  -->
<svg version="1.1" id="Layer_1" xmlns="http://www.w3.org/2000/svg" xmlns:xlink="http://www.w3.org/1999/xlink" x="0px" y="0px"
	 viewBox="0 0 846.67 146.67" style="enable-background:new 0 0 846.67 146.67;" xml:space="preserve">
<style type="text/css">
	.st0{fill:#FA3250;}
	.st1{stroke:#000000;stroke-miterlimit:10;}
	.st2{fill:#FFFFFF;}
	.st3{fill:none;}
</style>
<g>
	<g>
		<path d="M36.35,65.32c0.68-0.68,1.23-2.05,1.23-3V26.98c0-0.96,0.82-1.64,1.77-1.64h11.74c0.96,0,1.77-0.82,1.77-1.78V10.05
			c0-0.91-0.74-1.57-1.65-1.62c-0.04-0.01-0.08-0.01-0.12-0.01h-18.7c-0.06,0-0.12,0-0.18,0.01c-0.93,0.04-2.17,0.44-2.82,1.08
			l-2.35,2.23l-0.07,0.06l-5.08,4.8c-0.68,0.55-1.23,1.92-1.23,2.87v40.67c0,0.95-0.55,2.31-1.23,3l-8.73,8.73
			c-0.68,0.68-0.68,1.77,0,2.46l8.73,8.87c0.68,0.54,1.23,1.91,1.23,2.86v40.39c0,0.96,0.55,2.32,1.23,3.01l5.08,4.9l2.42,2.33
			c0.69,0.68,2.05,1.23,3,1.23h18.7c0.96,0,1.77-0.82,1.77-1.78v-13.51c0-0.95-0.81-1.63-1.77-1.63H39.35
			c-0.95,0-1.77-0.82-1.77-1.78V83.88c0-0.96-0.55-2.32-1.23-3l-6.55-6.55c-0.68-0.69-0.68-1.78,0-2.46L36.35,65.32z"/>
	</g>
</g>
<g>
	<g>
		<path d="M161.39,72.01l-8.73-8.87c-0.68-0.55-1.23-1.91-1.23-2.87V19.88c0-0.96-0.55-2.32-1.23-3l-4.94-4.76l-0.07-0.07l-2.49-2.4
			c-0.64-0.65-1.88-1.16-2.81-1.22c-0.07-0.01-0.13-0.01-0.19-0.01H121c-0.03,0-0.06,0-0.09,0.01c-0.92,0.04-1.68,0.84-1.68,1.76
			V23.7c0,0.96,0.81,1.64,1.77,1.64h11.74c0.95,0,1.77,0.82,1.77,1.77v35.35c0,0.95,0.55,2.32,1.23,3l6.55,6.55
			c0.68,0.68,0.68,1.77,0,2.45l-6.55,6.55c-0.68,0.69-1.23,2.05-1.23,3.01v35.34c0,0.95-0.82,1.64-1.77,1.64H121
			c-0.96,0-1.77,0.82-1.77,1.77v13.51c0,0.96,0.81,1.64,1.77,1.64h18.7c0.95,0,2.32-0.41,3-1.09l2.49-2.36l5.01-4.74
			c0.68-0.55,1.23-1.91,1.23-2.87V86.2c0-0.96,0.55-2.32,1.23-3l8.73-8.74C162.07,73.78,162.07,72.69,161.39,72.01z"/>
	</g>
</g>
<g>
	<path class="st0" d="M118.88,58.61c-0.27-21.74-31.29-21.6-33.48-21.57c-2.19,0.02-33.21,0.64-32.94,22.38
		c0.25,20.64,14.19,40.52,24.17,50.29c3.37,3.3,6.93,4.94,8.67,5.58c0.69,0.26,1.45,0.25,2.13-0.03c1.71-0.68,5.23-2.41,8.53-5.79
		C105.69,99.47,119.13,79.26,118.88,58.61z"/>
</g>
<g>
	<path class="st1" d="M227.54,107.25l-14.23-24.83h-3.63v24.83h-15.9V41.49h27.16c5.21,0,9.61,0.9,13.21,2.7
		c3.59,1.8,6.29,4.26,8.09,7.39c1.8,3.13,2.7,6.71,2.7,10.74c0,4.77-1.32,8.83-3.95,12.18c-2.64,3.35-6.46,5.64-11.49,6.88
		l15.62,25.85H227.54z M209.68,71.53h9.86c3.16,0,5.49-0.7,6.98-2.09c1.49-1.4,2.23-3.46,2.23-6.18c0-2.6-0.76-4.65-2.28-6.14
		c-1.52-1.49-3.83-2.23-6.93-2.23h-9.86V71.53z"/>
	<path class="st1" d="M289.15,57.91c4.06,2.14,7.25,5.22,9.58,9.25c2.33,4.03,3.49,8.74,3.49,14.14c0,5.39-1.16,10.11-3.49,14.14
		c-2.32,4.03-5.52,7.11-9.58,9.25c-4.06,2.14-8.67,3.21-13.81,3.21c-5.15,0-9.76-1.07-13.86-3.21c-4.09-2.14-7.3-5.22-9.63-9.25
		c-2.32-4.03-3.49-8.74-3.49-14.14c0-5.39,1.16-10.11,3.49-14.14c2.33-4.03,5.53-7.11,9.63-9.25c4.09-2.14,8.71-3.21,13.86-3.21
		C280.49,54.7,285.09,55.77,289.15,57.91z M267.67,71.77c-2.08,2.2-3.12,5.38-3.12,9.53c0,4.15,1.04,7.32,3.12,9.49
		c2.08,2.17,4.63,3.25,7.67,3.25c3.04,0,5.58-1.08,7.63-3.25c2.05-2.17,3.07-5.33,3.07-9.49c0-4.15-1.02-7.33-3.07-9.53
		c-2.05-2.2-4.59-3.3-7.63-3.3C272.3,68.47,269.74,69.57,267.67,71.77z"/>
	<path class="st1" d="M350.76,60.23c4.53,3.69,7.38,8.76,8.56,15.21h-16.83c-0.5-2.23-1.52-3.97-3.07-5.21
		c-1.55-1.24-3.5-1.86-5.86-1.86c-2.79,0-5.08,1.1-6.88,3.3c-1.8,2.2-2.7,5.41-2.7,9.63c0,4.22,0.9,7.43,2.7,9.63
		c1.8,2.2,4.09,3.3,6.88,3.3c2.36,0,4.31-0.62,5.86-1.86c1.55-1.24,2.57-2.98,3.07-5.21h16.83c-1.18,6.45-4.03,11.52-8.56,15.21
		c-4.53,3.69-10.14,5.53-16.83,5.53c-5.08,0-9.59-1.07-13.53-3.21c-3.94-2.14-7.02-5.22-9.25-9.25c-2.23-4.03-3.35-8.74-3.35-14.14
		c0-5.46,1.1-10.18,3.3-14.18c2.2-4,5.29-7.07,9.25-9.21c3.97-2.14,8.49-3.21,13.58-3.21C340.63,54.7,346.24,56.55,350.76,60.23z"/>
	<path class="st1" d="M397.17,107.25L381.64,85.2v22.04h-15.9V38.43h15.9v37.76l15.53-20.83h18.69L394.94,81.3l21.39,25.95H397.17z"
		/>
	<path class="st1" d="M423.21,34.75c1.73-1.58,4.03-2.37,6.88-2.37c2.85,0,5.15,0.79,6.88,2.37c1.73,1.58,2.6,3.58,2.6,6
		c0,2.36-0.87,4.32-2.6,5.91c-1.74,1.58-4.03,2.37-6.88,2.37c-2.85,0-5.15-0.79-6.88-2.37c-1.74-1.58-2.6-3.55-2.6-5.91
		C420.6,38.33,421.47,36.33,423.21,34.75z M437.99,55.35v51.89h-15.9V55.35H437.99z"/>
	<path class="st1" d="M494.21,60.75c3.5,3.97,5.25,9.42,5.25,16.37v30.13h-15.9V78.97c0-3.47-0.92-6.18-2.74-8.14
		c-1.83-1.95-4.26-2.93-7.3-2.93c-3.22,0-5.78,1.02-7.67,3.07c-1.89,2.05-2.84,4.96-2.84,8.74v27.53h-15.9V55.35h15.9v9.49
		c1.49-3.1,3.7-5.55,6.65-7.35c2.94-1.8,6.4-2.7,10.37-2.7C485.98,54.79,490.71,56.78,494.21,60.75z"/>
	<path class="st1" d="M513.42,39.91c0,4.28-1.1,7.7-3.3,10.28c-2.2,2.57-5.41,3.86-9.63,3.86V48.1c3.22,0,4.84-2.08,4.84-6.23v-1.49
		h-5.86V28.94h12.18C512.83,32.47,513.42,36.13,513.42,39.91z"/>
	<path class="st1" d="M583.12,79.16c2.32,2.92,3.49,6.29,3.49,10.14c0,5.64-1.88,10.04-5.62,13.21c-3.75,3.16-9.13,4.74-16.14,4.74
		h-30.6V41.49h29.85c6.7,0,11.87,1.46,15.53,4.37c3.66,2.92,5.49,7.07,5.49,12.46c0,3.97-1.06,7.27-3.16,9.9
		c-2.11,2.64-4.87,4.36-8.28,5.16C577.65,74.32,580.79,76.25,583.12,79.16z M550.15,68.37h10.42c5.52,0,8.28-2.36,8.28-7.07
		c0-4.71-2.82-7.07-8.46-7.07h-10.23V68.37z M570.33,87.06c0-2.36-0.78-4.2-2.33-5.53c-1.55-1.33-3.75-2-6.6-2h-11.25v14.79h11.35
		C567.39,94.32,570.33,91.9,570.33,87.06z"/>
	<path class="st1" d="M610.88,38.43v68.82h-15.9V38.43H610.88z"/>
	<path class="st1" d="M658.08,57.91c4.06,2.14,7.25,5.22,9.58,9.25c2.33,4.03,3.49,8.74,3.49,14.14c0,5.39-1.16,10.11-3.49,14.14
		c-2.33,4.03-5.52,7.11-9.58,9.25c-4.06,2.14-8.67,3.21-13.81,3.21c-5.15,0-9.76-1.07-13.86-3.21c-4.09-2.14-7.3-5.22-9.63-9.25
		c-2.33-4.03-3.49-8.74-3.49-14.14c0-5.39,1.16-10.11,3.49-14.14c2.33-4.03,5.53-7.11,9.63-9.25c4.09-2.14,8.71-3.21,13.86-3.21
		C649.41,54.7,654.01,55.77,658.08,57.91z M636.59,71.77c-2.08,2.2-3.12,5.38-3.12,9.53c0,4.15,1.04,7.32,3.12,9.49
		c2.08,2.17,4.63,3.25,7.67,3.25c3.04,0,5.58-1.08,7.63-3.25c2.05-2.17,3.07-5.33,3.07-9.49c0-4.15-1.02-7.33-3.07-9.53
		c-2.05-2.2-4.59-3.3-7.63-3.3C641.23,68.47,638.67,69.57,636.59,71.77z"/>
	<path class="st1" d="M719.69,60.23c4.53,3.69,7.38,8.76,8.56,15.21h-16.83c-0.5-2.23-1.52-3.97-3.07-5.21
		c-1.55-1.24-3.5-1.86-5.86-1.86c-2.79,0-5.08,1.1-6.88,3.3c-1.8,2.2-2.7,5.41-2.7,9.63c0,4.22,0.9,7.43,2.7,9.63
		c1.8,2.2,4.09,3.3,6.88,3.3c2.36,0,4.31-0.62,5.86-1.86c1.55-1.24,2.57-2.98,3.07-5.21h16.83c-1.18,6.45-4.03,11.52-8.56,15.21
		c-4.53,3.69-10.14,5.53-16.83,5.53c-5.08,0-9.59-1.07-13.53-3.21c-3.94-2.14-7.02-5.22-9.25-9.25c-2.23-4.03-3.35-8.74-3.35-14.14
		c0-5.46,1.1-10.18,3.3-14.18c2.2-4,5.29-7.07,9.25-9.21s8.49-3.21,13.58-3.21C709.55,54.7,715.16,56.55,719.69,60.23z"/>
	<path class="st1" d="M767.95,107.25L752.42,85.2v22.04h-15.9V38.43h15.9v37.76l15.53-20.83h18.69L765.72,81.3l21.39,25.95H767.95z"
		/>
	<path class="st1" d="M823.8,59.63c3.94,3.29,6.4,7.63,7.39,13.02h-14.88c-0.43-2.11-1.41-3.77-2.93-4.98
		c-1.52-1.21-3.43-1.81-5.72-1.81c-1.8,0-3.16,0.39-4.09,1.16c-0.93,0.78-1.4,1.88-1.4,3.3c0,1.61,0.85,2.82,2.56,3.63
		c1.7,0.81,4.39,1.61,8.04,2.42c3.97,0.93,7.22,1.88,9.76,2.84c2.54,0.96,4.74,2.53,6.6,4.7c1.86,2.17,2.79,5.08,2.79,8.74
		c0,2.98-0.81,5.61-2.42,7.91c-1.61,2.29-3.94,4.09-6.97,5.39c-3.04,1.3-6.63,1.95-10.79,1.95c-7.01,0-12.62-1.55-16.83-4.65
		c-4.22-3.1-6.79-7.53-7.72-13.3h15.34c0.25,2.23,1.19,3.94,2.84,5.11c1.64,1.18,3.77,1.77,6.37,1.77c1.8,0,3.16-0.42,4.09-1.26
		c0.93-0.84,1.4-1.94,1.4-3.3c0-1.8-0.85-3.08-2.56-3.86c-1.71-0.77-4.48-1.6-8.32-2.46c-3.85-0.81-7.01-1.67-9.49-2.6
		c-2.48-0.93-4.62-2.43-6.42-4.51c-1.8-2.08-2.7-4.91-2.7-8.51c0-4.65,1.77-8.42,5.3-11.3c3.53-2.88,8.52-4.32,14.97-4.32
		C814.61,54.7,819.86,56.34,823.8,59.63z"/>
</g>
<g>
	<g>
		<path d="M34.29,296.41c0.68-0.68,1.23-2.05,1.23-3v-35.34c0-0.96,0.82-1.64,1.77-1.64h11.74c0.96,0,1.77-0.82,1.77-1.78v-13.51
			c0-0.91-0.74-1.57-1.65-1.62c-0.04-0.01-0.08-0.01-0.12-0.01h-18.7c-0.06,0-0.12,0-0.18,0.01c-0.93,0.04-2.17,0.44-2.82,1.08
			l-2.35,2.23l-0.07,0.06l-5.08,4.8c-0.68,0.55-1.23,1.92-1.23,2.87v40.67c0,0.95-0.55,2.31-1.23,3l-8.73,8.73
			c-0.68,0.68-0.68,1.77,0,2.46l8.73,8.87c0.68,0.54,1.23,1.91,1.23,2.86v40.39c0,0.96,0.55,2.32,1.23,3.01l5.08,4.9l2.42,2.33
			c0.69,0.68,2.05,1.23,3,1.23h18.7c0.96,0,1.77-0.82,1.77-1.78v-13.51c0-0.95-0.81-1.63-1.77-1.63H37.29
			c-0.95,0-1.77-0.82-1.77-1.78v-35.34c0-0.96-0.55-2.32-1.23-3l-6.55-6.55c-0.68-0.69-0.68-1.78,0-2.46L34.29,296.41z"/>
		<path d="M49.03,369.51h-18.7c-1.1,0-2.57-0.6-3.35-1.37l-7.5-7.23c-0.78-0.79-1.38-2.27-1.38-3.37v-40.39
			c0-0.84-0.51-2.04-1.04-2.47l-8.78-8.91c-0.88-0.89-0.88-2.28,0-3.16l8.73-8.73c0.58-0.58,1.08-1.82,1.08-2.65v-40.67
			c0-1.02,0.57-2.57,1.42-3.26l7.47-7.06c0.79-0.77,2.18-1.18,3.14-1.22c0.03-0.01,0.12-0.01,0.2-0.01h18.7c0.06,0,0.14,0,0.24,0.02
			c1.12,0.05,2.03,0.96,2.03,2.11v13.51c0,1.24-1.04,2.28-2.27,2.28H37.29c-0.62,0-1.27,0.43-1.27,1.14v35.34
			c0,1.09-0.62,2.59-1.38,3.35l-6.55,6.55c-0.49,0.49-0.49,1.26,0,1.76l6.55,6.55c0.77,0.77,1.38,2.24,1.38,3.35v35.34
			c0,0.68,0.59,1.28,1.27,1.28h11.74c1.27,0,2.27,0.94,2.27,2.13v13.51C51.3,368.46,50.26,369.51,49.03,369.51z M30.28,240.01
			c-0.02,0-0.04,0-0.06,0c-0.84,0.04-1.98,0.38-2.55,0.94l-7.51,7.1c-0.57,0.46-1.07,1.67-1.07,2.51v40.67c0,1.1-0.6,2.57-1.37,3.35
			l-8.73,8.73c-0.49,0.49-0.49,1.26,0,1.76l8.73,8.87c0.8,0.63,1.37,2.18,1.37,3.21v40.39c0,0.83,0.51,2.07,1.09,2.66l7.49,7.22
			c0.59,0.58,1.83,1.09,2.65,1.09h18.7c0.68,0,1.27-0.6,1.27-1.28v-13.51c0-0.64-0.55-1.13-1.27-1.13H37.29
			c-1.23,0-2.27-1.04-2.27-2.28v-35.34c0-0.83-0.51-2.07-1.08-2.65l-6.55-6.55c-0.88-0.9-0.88-2.29,0-3.17l6.55-6.55
			c0.58-0.58,1.08-1.81,1.08-2.65v-35.34c0-1.2,1-2.14,2.27-2.14h11.74c0.68,0,1.27-0.6,1.27-1.28v-13.51c0-0.61-0.5-1.08-1.18-1.12
			l-18.79-0.01C30.31,240.01,30.3,240.01,30.28,240.01z"/>
	</g>
</g>
<g>
	<g>
		<path d="M159.32,303.1l-8.73-8.87c-0.68-0.55-1.23-1.91-1.23-2.87v-40.39c0-0.96-0.55-2.32-1.23-3l-4.94-4.76l-0.07-0.07
			l-2.49-2.4c-0.64-0.65-1.88-1.16-2.81-1.22c-0.07-0.01-0.13-0.01-0.19-0.01h-18.7c-0.03,0-0.06,0-0.09,0.01
			c-0.92,0.04-1.68,0.84-1.68,1.76v13.51c0,0.96,0.81,1.64,1.77,1.64h11.74c0.95,0,1.77,0.82,1.77,1.77v35.35
			c0,0.95,0.55,2.32,1.23,3l6.55,6.55c0.68,0.68,0.68,1.77,0,2.45l-6.55,6.55c-0.68,0.69-1.23,2.05-1.23,3.01v35.34
			c0,0.95-0.82,1.64-1.77,1.64h-11.74c-0.96,0-1.77,0.82-1.77,1.77v13.51c0,0.96,0.81,1.64,1.77,1.64h18.7c0.95,0,2.32-0.41,3-1.09
			l2.49-2.36l5.01-4.74c0.68-0.55,1.23-1.91,1.23-2.87v-40.66c0-0.96,0.55-2.32,1.23-3l8.73-8.74
			C160,304.87,160,303.78,159.32,303.1z"/>
		<path d="M137.63,369.51h-18.7c-1.27,0-2.27-0.94-2.27-2.14v-13.51c0-1.23,1.04-2.27,2.27-2.27h11.74c0.71,0,1.27-0.5,1.27-1.14
			v-35.34c0-1.1,0.6-2.58,1.38-3.36l6.55-6.55c0.48-0.48,0.48-1.26,0-1.74l-6.55-6.55c-0.76-0.76-1.38-2.26-1.38-3.35V258.2
			c0-0.68-0.59-1.27-1.27-1.27h-11.74c-1.27,0-2.27-0.94-2.27-2.14v-13.51c0-1.17,0.93-2.17,2.09-2.25l0.18-0.01h18.7
			c0.08,0,0.16,0,0.26,0.01c1.05,0.07,2.4,0.65,3.1,1.36l7.49,7.22c0.78,0.78,1.38,2.25,1.38,3.36v40.39c0,0.84,0.51,2.05,1.04,2.48
			l8.77,8.91c0.42,0.42,0.66,0.98,0.66,1.58c0,0.6-0.23,1.16-0.66,1.58l-8.73,8.74c-0.58,0.58-1.08,1.81-1.08,2.65v40.66
			c0,1.02-0.57,2.57-1.42,3.26l-7.47,7.07C140.18,369.07,138.66,369.51,137.63,369.51z M118.93,352.59c-0.68,0-1.27,0.59-1.27,1.27
			v13.51c0,0.65,0.55,1.14,1.27,1.14h18.7c0.82,0,2.06-0.36,2.65-0.94l7.51-7.11c0.57-0.46,1.07-1.67,1.07-2.51v-40.66
			c0-1.11,0.6-2.58,1.38-3.35l8.73-8.74c0.23-0.23,0.36-0.54,0.36-0.87c0-0.33-0.13-0.64-0.36-0.87l0,0l-8.73-8.87
			c-0.8-0.65-1.37-2.2-1.37-3.22v-40.39c0-0.83-0.51-2.07-1.08-2.65l-7.49-7.22c-0.54-0.55-1.65-1.03-2.5-1.08
			c-0.08-0.01-0.12-0.01-0.16-0.01h-18.7c-0.72,0.04-1.27,0.61-1.27,1.27v13.51c0,0.65,0.55,1.14,1.27,1.14h11.74
			c1.23,0,2.27,1.04,2.27,2.27v35.35c0,0.83,0.51,2.07,1.08,2.65l6.55,6.55c0.87,0.87,0.87,2.29,0,3.16l-6.55,6.55
			c-0.58,0.58-1.08,1.83-1.08,2.66v35.34c0,1.2-1,2.14-2.27,2.14H118.93z"/>
	</g>
</g>
<g>
	<g>
		<path d="M116.82,289.7c-0.27-21.74-31.29-21.6-33.48-21.57c-2.19,0.02-33.21,0.64-32.94,22.38c0.25,20.64,14.19,40.52,24.17,50.29
			c3.37,3.3,6.93,4.94,8.67,5.58c0.69,0.26,1.45,0.25,2.13-0.03c1.71-0.68,5.23-2.41,8.53-5.79
			C103.62,330.56,117.07,310.34,116.82,289.7z"/>
	</g>
	<g>
		<path d="M84.26,347.07c-0.41,0-0.81-0.07-1.2-0.22c-1.46-0.54-5.26-2.19-8.84-5.69c-11.07-10.83-24.07-30.59-24.32-50.64
			c-0.06-5.29,1.69-9.79,5.21-13.38c8.92-9.1,26.28-9.5,28.23-9.51c1.95-0.03,19.31-0.06,28.45,8.82c3.61,3.5,5.47,7.96,5.53,13.25
			l0,0c0.25,20.05-12.28,40.12-23.07,51.22c-3.49,3.59-7.25,5.33-8.7,5.91C85.13,346.98,84.69,347.07,84.26,347.07z M83.86,268.63
			c-0.23,0-0.4,0-0.52,0c-1.91,0.01-18.89,0.4-27.53,9.21c-3.33,3.39-4.98,7.65-4.92,12.66c0.24,19.75,13.09,39.24,24.02,49.94
			c3.45,3.37,7.08,4.95,8.49,5.47c0.58,0.21,1.2,0.2,1.77-0.02c1.39-0.56,4.99-2.22,8.35-5.68c10.67-10.96,23.03-30.76,22.79-50.51
			v0c-0.06-5.01-1.82-9.23-5.23-12.54C102.78,269.1,87.31,268.63,83.86,268.63z"/>
	</g>
</g>
<g>
	<path class="st1" d="M225.47,338.33l-14.23-24.83h-3.63v24.83h-15.9v-65.75h27.16c5.21,0,9.61,0.9,13.21,2.7
		c3.59,1.8,6.29,4.26,8.09,7.39c1.8,3.13,2.7,6.71,2.7,10.74c0,4.77-1.32,8.83-3.95,12.18c-2.64,3.35-6.46,5.64-11.49,6.88
		l15.62,25.85H225.47z M207.62,302.62h9.86c3.16,0,5.49-0.7,6.98-2.09c1.49-1.4,2.23-3.46,2.23-6.18c0-2.6-0.76-4.65-2.28-6.14
		c-1.52-1.49-3.83-2.23-6.93-2.23h-9.86V302.62z"/>
	<path class="st1" d="M287.08,289c4.06,2.14,7.25,5.22,9.58,9.25c2.33,4.03,3.49,8.74,3.49,14.14c0,5.39-1.16,10.11-3.49,14.14
		c-2.33,4.03-5.52,7.11-9.58,9.25c-4.06,2.14-8.67,3.21-13.81,3.21c-5.15,0-9.76-1.07-13.86-3.21c-4.09-2.14-7.3-5.22-9.62-9.25
		c-2.33-4.03-3.49-8.74-3.49-14.14c0-5.39,1.16-10.11,3.49-14.14c2.33-4.03,5.53-7.11,9.62-9.25c4.09-2.14,8.71-3.21,13.86-3.21
		C278.42,285.79,283.02,286.86,287.08,289z M265.6,302.85c-2.08,2.2-3.12,5.38-3.12,9.53c0,4.15,1.04,7.32,3.12,9.49
		c2.08,2.17,4.63,3.25,7.67,3.25c3.04,0,5.58-1.08,7.63-3.25c2.05-2.17,3.07-5.33,3.07-9.49c0-4.15-1.02-7.33-3.07-9.53
		c-2.05-2.2-4.59-3.3-7.63-3.3C270.24,299.55,267.68,300.65,265.6,302.85z"/>
	<path class="st1" d="M348.7,291.32c4.53,3.69,7.38,8.76,8.56,15.21h-16.83c-0.5-2.23-1.52-3.97-3.07-5.21
		c-1.55-1.24-3.5-1.86-5.86-1.86c-2.79,0-5.08,1.1-6.88,3.3c-1.8,2.2-2.7,5.41-2.7,9.63c0,4.22,0.9,7.43,2.7,9.63
		c1.8,2.2,4.09,3.3,6.88,3.3c2.36,0,4.31-0.62,5.86-1.86c1.55-1.24,2.57-2.98,3.07-5.21h16.83c-1.18,6.45-4.03,11.52-8.56,15.21
		c-4.53,3.69-10.14,5.53-16.83,5.53c-5.08,0-9.59-1.07-13.53-3.21c-3.94-2.14-7.02-5.22-9.25-9.25c-2.23-4.03-3.35-8.74-3.35-14.14
		c0-5.46,1.1-10.18,3.3-14.18c2.2-4,5.29-7.07,9.25-9.21c3.97-2.14,8.49-3.21,13.58-3.21C338.56,285.79,344.17,287.63,348.7,291.32z
		"/>
	<path class="st1" d="M395.1,338.33l-15.53-22.04v22.04h-15.9v-68.82h15.9v37.76l15.53-20.83h18.69l-20.92,25.95l21.39,25.95H395.1z
		"/>
	<path class="st1" d="M421.14,265.84c1.73-1.58,4.03-2.37,6.88-2.37c2.85,0,5.15,0.79,6.88,2.37c1.74,1.58,2.6,3.58,2.6,6
		c0,2.36-0.87,4.32-2.6,5.91c-1.74,1.58-4.03,2.37-6.88,2.37c-2.85,0-5.15-0.79-6.88-2.37c-1.74-1.58-2.6-3.55-2.6-5.91
		C418.54,269.42,419.41,267.42,421.14,265.84z M435.93,286.44v51.89h-15.9v-51.89H435.93z"/>
	<path class="st1" d="M492.15,291.83c3.5,3.97,5.25,9.42,5.25,16.37v30.13h-15.9v-28.27c0-3.47-0.92-6.18-2.74-8.14
		c-1.83-1.95-4.26-2.93-7.3-2.93c-3.22,0-5.78,1.02-7.67,3.07c-1.89,2.05-2.84,4.96-2.84,8.74v27.53h-15.9v-51.89h15.9v9.49
		c1.49-3.1,3.7-5.55,6.65-7.35c2.94-1.8,6.4-2.7,10.37-2.7C483.92,285.88,488.64,287.87,492.15,291.83z"/>
	<path class="st1" d="M511.35,271c0,4.28-1.1,7.7-3.3,10.28c-2.2,2.57-5.41,3.86-9.62,3.86v-5.95c3.22,0,4.84-2.08,4.84-6.23v-1.49
		h-5.86v-11.44h12.18C510.76,263.56,511.35,267.22,511.35,271z"/>
	<path class="st1" d="M581.05,310.25c2.32,2.92,3.49,6.29,3.49,10.14c0,5.64-1.88,10.04-5.62,13.21c-3.75,3.16-9.13,4.74-16.14,4.74
		h-30.6v-65.75h29.85c6.7,0,11.87,1.46,15.53,4.37c3.66,2.92,5.49,7.07,5.49,12.46c0,3.97-1.06,7.27-3.16,9.9
		c-2.11,2.64-4.87,4.36-8.28,5.16C575.58,305.41,578.73,307.33,581.05,310.25z M548.08,299.46h10.42c5.52,0,8.28-2.36,8.28-7.07
		c0-4.71-2.82-7.07-8.46-7.07h-10.23V299.46z M568.27,318.15c0-2.36-0.78-4.2-2.33-5.53c-1.55-1.33-3.75-2-6.6-2h-11.25v14.79h11.35
		C565.32,325.41,568.27,322.99,568.27,318.15z"/>
	<path class="st1" d="M608.81,269.51v68.82h-15.9v-68.82H608.81z"/>
	<path class="st1" d="M656.01,289c4.06,2.14,7.25,5.22,9.58,9.25c2.33,4.03,3.49,8.74,3.49,14.14c0,5.39-1.16,10.11-3.49,14.14
		c-2.33,4.03-5.52,7.11-9.58,9.25c-4.06,2.14-8.67,3.21-13.81,3.21c-5.15,0-9.76-1.07-13.86-3.21c-4.09-2.14-7.3-5.22-9.63-9.25
		c-2.33-4.03-3.49-8.74-3.49-14.14c0-5.39,1.16-10.11,3.49-14.14c2.33-4.03,5.53-7.11,9.63-9.25c4.09-2.14,8.71-3.21,13.86-3.21
		C647.34,285.79,651.95,286.86,656.01,289z M634.53,302.85c-2.08,2.2-3.12,5.38-3.12,9.53c0,4.15,1.04,7.32,3.12,9.49
		c2.08,2.17,4.63,3.25,7.67,3.25c3.04,0,5.58-1.08,7.63-3.25c2.05-2.17,3.07-5.33,3.07-9.49c0-4.15-1.02-7.33-3.07-9.53
		c-2.05-2.2-4.59-3.3-7.63-3.3C639.16,299.55,636.6,300.65,634.53,302.85z"/>
	<path class="st1" d="M717.62,291.32c4.53,3.69,7.38,8.76,8.56,15.21h-16.83c-0.5-2.23-1.52-3.97-3.07-5.21
		c-1.55-1.24-3.5-1.86-5.86-1.86c-2.79,0-5.08,1.1-6.88,3.3c-1.8,2.2-2.7,5.41-2.7,9.63c0,4.22,0.9,7.43,2.7,9.63
		c1.8,2.2,4.09,3.3,6.88,3.3c2.36,0,4.31-0.62,5.86-1.86c1.55-1.24,2.57-2.98,3.07-5.21h16.83c-1.18,6.45-4.03,11.52-8.56,15.21
		c-4.53,3.69-10.14,5.53-16.83,5.53c-5.08,0-9.59-1.07-13.53-3.21c-3.94-2.14-7.02-5.22-9.25-9.25c-2.23-4.03-3.35-8.74-3.35-14.14
		c0-5.46,1.1-10.18,3.3-14.18c2.2-4,5.29-7.07,9.25-9.21s8.49-3.21,13.58-3.21C707.48,285.79,713.1,287.63,717.62,291.32z"/>
	<path class="st1" d="M765.89,338.33l-15.53-22.04v22.04h-15.9v-68.82h15.9v37.76l15.53-20.83h18.69l-20.92,25.95l21.39,25.95
		H765.89z"/>
	<path class="st1" d="M821.73,290.72c3.94,3.29,6.4,7.63,7.39,13.02h-14.88c-0.43-2.11-1.41-3.77-2.93-4.98
		c-1.52-1.21-3.43-1.81-5.72-1.81c-1.8,0-3.16,0.39-4.09,1.16c-0.93,0.78-1.4,1.88-1.4,3.3c0,1.61,0.85,2.82,2.56,3.63
		c1.7,0.81,4.39,1.61,8.04,2.42c3.97,0.93,7.22,1.88,9.76,2.84c2.54,0.96,4.74,2.53,6.6,4.7c1.86,2.17,2.79,5.08,2.79,8.74
		c0,2.98-0.81,5.61-2.42,7.91c-1.61,2.29-3.94,4.09-6.97,5.39c-3.04,1.3-6.63,1.95-10.79,1.95c-7.01,0-12.62-1.55-16.83-4.65
		c-4.22-3.1-6.79-7.53-7.72-13.3h15.34c0.25,2.23,1.19,3.94,2.84,5.11c1.64,1.18,3.77,1.77,6.37,1.77c1.8,0,3.16-0.42,4.09-1.26
		c0.93-0.84,1.4-1.94,1.4-3.3c0-1.8-0.85-3.08-2.56-3.86c-1.71-0.77-4.48-1.6-8.32-2.46c-3.85-0.81-7.01-1.67-9.49-2.6
		c-2.48-0.93-4.62-2.43-6.42-4.51c-1.8-2.08-2.7-4.91-2.7-8.51c0-4.65,1.77-8.42,5.3-11.3c3.53-2.88,8.52-4.32,14.97-4.32
		C812.54,285.79,817.8,287.43,821.73,290.72z"/>
</g>
<g>
	<g>
		<path class="st2" d="M28.95,539.07c0.68-0.68,1.23-2.05,1.23-3v-35.34c0-0.96,0.82-1.64,1.77-1.64h11.74
			c0.96,0,1.77-0.82,1.77-1.78V483.8c0-0.91-0.74-1.57-1.65-1.62c-0.04-0.01-0.08-0.01-0.12-0.01h-18.7c-0.06,0-0.12,0-0.18,0.01
			c-0.93,0.04-2.17,0.44-2.82,1.08l-2.35,2.23l-0.07,0.06l-5.08,4.8c-0.68,0.55-1.23,1.92-1.23,2.87v40.67c0,0.95-0.55,2.31-1.23,3
			l-8.73,8.73c-0.68,0.68-0.68,1.77,0,2.46l8.73,8.87c0.68,0.54,1.23,1.91,1.23,2.86v40.39c0,0.96,0.55,2.32,1.23,3.01l5.08,4.9
			l2.42,2.33c0.69,0.68,2.05,1.23,3,1.23h18.7c0.96,0,1.77-0.82,1.77-1.78v-13.51c0-0.95-0.81-1.63-1.77-1.63H31.95
			c-0.95,0-1.77-0.82-1.77-1.78v-35.34c0-0.96-0.55-2.32-1.23-3l-6.55-6.55c-0.68-0.69-0.68-1.78,0-2.46L28.95,539.07z"/>
	</g>
</g>
<g>
	<g>
		<path class="st2" d="M153.99,545.76l-8.73-8.87c-0.68-0.55-1.23-1.91-1.23-2.87v-40.39c0-0.96-0.55-2.32-1.23-3l-4.94-4.76
			l-0.07-0.07l-2.49-2.4c-0.64-0.65-1.88-1.16-2.81-1.22c-0.07-0.01-0.13-0.01-0.19-0.01h-18.7c-0.03,0-0.06,0-0.09,0.01
			c-0.92,0.04-1.68,0.84-1.68,1.76v13.51c0,0.96,0.81,1.64,1.77,1.64h11.74c0.95,0,1.77,0.82,1.77,1.77v35.35
			c0,0.95,0.55,2.32,1.23,3l6.55,6.55c0.68,0.68,0.68,1.77,0,2.45l-6.55,6.55c-0.68,0.69-1.23,2.05-1.23,3.01v35.34
			c0,0.95-0.82,1.64-1.77,1.64H113.6c-0.96,0-1.77,0.82-1.77,1.77v13.51c0,0.96,0.81,1.64,1.77,1.64h18.7c0.95,0,2.32-0.41,3-1.09
			l2.49-2.36l5.01-4.74c0.68-0.55,1.23-1.91,1.23-2.87v-40.66c0-0.96,0.55-2.32,1.23-3l8.73-8.74
			C154.67,547.53,154.67,546.44,153.99,545.76z"/>
	</g>
</g>
<g>
	<path class="st2" d="M111.48,532.37c-0.27-21.74-31.29-21.6-33.48-21.57c-2.19,0.02-33.21,0.64-32.94,22.38
		c0.25,20.64,14.19,40.52,24.17,50.29c3.37,3.3,6.93,4.94,8.67,5.58c0.69,0.26,1.45,0.25,2.13-0.03c1.71-0.68,5.23-2.41,8.53-5.79
		C98.29,573.23,111.74,553.01,111.48,532.37z"/>
</g>
<g>
	<path class="st2" d="M219.4,581l-13.3-24.27h-1.86V581h-18.32v-65.84h28.92c5.27,0,9.75,0.92,13.44,2.74
		c3.69,1.83,6.46,4.36,8.32,7.58c1.86,3.22,2.79,6.85,2.79,10.88c0,4.59-1.27,8.57-3.81,11.95c-2.54,3.38-6.2,5.75-10.97,7.11
		L239.58,581H219.4z M204.24,544.45h9.02c5.08,0,7.63-2.29,7.63-6.88c0-2.17-0.64-3.87-1.91-5.11c-1.27-1.24-3.18-1.86-5.72-1.86
		h-9.02V544.45z"/>
	<path class="st2" d="M283.43,531.38c4.12,2.14,7.36,5.24,9.72,9.3c2.36,4.06,3.53,8.79,3.53,14.18c0,5.46-1.18,10.2-3.53,14.23
		c-2.36,4.03-5.6,7.13-9.72,9.3c-4.12,2.17-8.79,3.25-14,3.25s-9.89-1.08-14.04-3.25c-4.15-2.17-7.41-5.27-9.76-9.3
		c-2.36-4.03-3.53-8.77-3.53-14.23c0-5.46,1.18-10.2,3.53-14.23c2.36-4.03,5.61-7.11,9.76-9.25c4.15-2.14,8.83-3.21,14.04-3.21
		S279.3,529.25,283.43,531.38z M263.11,546.78c-1.67,1.86-2.51,4.56-2.51,8.09c0,3.6,0.84,6.32,2.51,8.18
		c1.67,1.86,3.78,2.79,6.32,2.79c2.48,0,4.56-0.94,6.23-2.84c1.67-1.89,2.51-4.6,2.51-8.14c0-3.53-0.84-6.23-2.51-8.09
		c-1.67-1.86-3.75-2.79-6.23-2.79C266.89,543.99,264.78,544.92,263.11,546.78z"/>
	<path class="st2" d="M344.85,533.8c4.59,3.75,7.47,8.94,8.65,15.58h-19.34c-0.43-1.8-1.22-3.18-2.37-4.14
		c-1.15-0.96-2.62-1.44-4.42-1.44c-2.23,0-4.05,0.95-5.44,2.84c-1.4,1.89-2.09,4.64-2.09,8.23c0,3.66,0.7,6.42,2.09,8.28
		c1.39,1.86,3.21,2.79,5.44,2.79c1.8,0,3.27-0.48,4.42-1.44c1.15-0.96,1.94-2.34,2.37-4.14h19.34c-1.18,6.63-4.06,11.84-8.65,15.62
		c-4.59,3.78-10.26,5.67-17.02,5.67c-5.21,0-9.81-1.07-13.81-3.21c-4-2.14-7.11-5.24-9.35-9.3c-2.23-4.06-3.35-8.82-3.35-14.28
		c0-5.46,1.12-10.2,3.35-14.23c2.23-4.03,5.36-7.11,9.39-9.25c4.03-2.14,8.62-3.21,13.76-3.21
		C334.59,528.18,340.26,530.05,344.85,533.8z"/>
	<path class="st2" d="M391.54,581l-14.23-21.58V581h-18.32v-68.82h18.32v36.92l14.32-20.27h21.3l-20.27,26.13L413.49,581H391.54z"/>
	<path class="st2" d="M420.09,507.67c1.98-1.77,4.59-2.65,7.81-2.65s5.8,0.88,7.72,2.65c1.92,1.77,2.88,4.02,2.88,6.74
		c0,2.6-0.98,4.77-2.93,6.51c-1.95,1.74-4.51,2.6-7.67,2.6c-3.22,0-5.83-0.87-7.81-2.6c-1.99-1.73-2.98-3.91-2.98-6.51
		C417.11,511.68,418.1,509.44,420.09,507.67z M436.92,528.83V581H418.6v-52.17H436.92z"/>
	<path class="st2" d="M494.21,534.36c3.41,4,5.11,9.44,5.11,16.32V581h-18.13v-27.99c0-3.04-0.79-5.41-2.37-7.11
		c-1.58-1.7-3.71-2.56-6.37-2.56c-2.73,0-4.9,0.88-6.51,2.65c-1.61,1.77-2.42,4.2-2.42,7.3V581H445.2v-52.17h18.32v8.74
		c1.49-2.79,3.66-5.02,6.51-6.7c2.85-1.67,6.2-2.51,10.04-2.51C486.09,528.36,490.8,530.36,494.21,534.36z"/>
	<path class="st2" d="M514.67,512.83c0,4.53-1.19,8.2-3.58,11.02c-2.39,2.82-5.91,4.23-10.56,4.23v-6.6c3.35,0,5.02-2.2,5.02-6.6
		v-1.3h-6.32v-12.46h13.3C513.96,505.02,514.67,508.92,514.67,512.83z"/>
	<path class="st2" d="M584.93,552.91c2.26,2.92,3.39,6.29,3.39,10.14c0,5.71-1.89,10.12-5.67,13.25c-3.78,3.13-9.21,4.7-16.27,4.7
		h-32.55v-65.84h31.81c6.63,0,11.83,1.46,15.58,4.37c3.75,2.92,5.63,7.13,5.63,12.65c0,3.91-1.02,7.18-3.07,9.81
		c-2.05,2.64-4.74,4.36-8.09,5.16C579.58,548.08,582.66,550,584.93,552.91z M552.15,541.48h9.21c4.59,0,6.88-1.92,6.88-5.77
		c0-3.97-2.32-5.95-6.97-5.95h-9.11V541.48z M569.63,560.35c0-4.09-2.39-6.14-7.16-6.14h-10.32v12.09h10.32
		C567.24,566.31,569.63,564.32,569.63,560.35z"/>
	<path class="st2" d="M614.36,512.18V581h-18.32v-68.82H614.36z"/>
	<path class="st2" d="M661.28,531.38c4.12,2.14,7.36,5.24,9.72,9.3c2.36,4.06,3.53,8.79,3.53,14.18c0,5.46-1.18,10.2-3.53,14.23
		c-2.36,4.03-5.6,7.13-9.72,9.3c-4.12,2.17-8.79,3.25-14,3.25s-9.89-1.08-14.04-3.25c-4.15-2.17-7.41-5.27-9.76-9.3
		c-2.36-4.03-3.53-8.77-3.53-14.23c0-5.46,1.18-10.2,3.53-14.23c2.36-4.03,5.61-7.11,9.76-9.25c4.15-2.14,8.83-3.21,14.04-3.21
		S657.16,529.25,661.28,531.38z M640.96,546.78c-1.67,1.86-2.51,4.56-2.51,8.09c0,3.6,0.84,6.32,2.51,8.18
		c1.67,1.86,3.78,2.79,6.32,2.79c2.48,0,4.56-0.94,6.23-2.84c1.67-1.89,2.51-4.6,2.51-8.14c0-3.53-0.84-6.23-2.51-8.09
		c-1.67-1.86-3.75-2.79-6.23-2.79C644.74,543.99,642.63,544.92,640.96,546.78z"/>
	<path class="st2" d="M722.71,533.8c4.59,3.75,7.47,8.94,8.65,15.58h-19.34c-0.43-1.8-1.23-3.18-2.37-4.14
		c-1.15-0.96-2.62-1.44-4.42-1.44c-2.23,0-4.05,0.95-5.44,2.84c-1.4,1.89-2.09,4.64-2.09,8.23c0,3.66,0.7,6.42,2.09,8.28
		c1.39,1.86,3.21,2.79,5.44,2.79c1.8,0,3.27-0.48,4.42-1.44c1.15-0.96,1.94-2.34,2.37-4.14h19.34c-1.18,6.63-4.06,11.84-8.65,15.62
		c-4.59,3.78-10.26,5.67-17.02,5.67c-5.21,0-9.81-1.07-13.81-3.21c-4-2.14-7.11-5.24-9.35-9.3c-2.23-4.06-3.35-8.82-3.35-14.28
		c0-5.46,1.12-10.2,3.35-14.23c2.23-4.03,5.36-7.11,9.39-9.25c4.03-2.14,8.62-3.21,13.76-3.21
		C712.44,528.18,718.12,530.05,722.71,533.8z"/>
	<path class="st2" d="M771.25,581l-14.23-21.58V581H738.7v-68.82h18.32v36.92l14.32-20.27h21.3l-20.27,26.13L793.2,581H771.25z"/>
	<path class="st2" d="M830.86,533.2c4.09,3.35,6.66,7.78,7.72,13.3h-17.11c-0.43-1.86-1.32-3.25-2.65-4.19
		c-1.33-0.93-2.96-1.4-4.88-1.4c-1.36,0-2.4,0.29-3.12,0.88c-0.71,0.59-1.07,1.41-1.07,2.46c0,1.3,0.76,2.28,2.28,2.93
		c1.52,0.65,4.01,1.38,7.49,2.19c4.03,0.87,7.36,1.8,10,2.79c2.63,0.99,4.93,2.6,6.88,4.84s2.93,5.24,2.93,9.02
		c0,3.04-0.84,5.74-2.51,8.09c-1.67,2.36-4.11,4.2-7.3,5.53c-3.19,1.33-6.96,2-11.3,2c-7.32,0-13.14-1.58-17.48-4.74
		c-4.34-3.16-6.98-7.69-7.91-13.58h17.58c0.25,1.92,1.07,3.35,2.46,4.28c1.39,0.93,3.15,1.4,5.25,1.4c1.43,0,2.51-0.31,3.25-0.93
		c0.74-0.62,1.12-1.43,1.12-2.42c0-1.49-0.79-2.57-2.37-3.25c-1.58-0.68-4.11-1.36-7.58-2.05c-3.97-0.81-7.22-1.69-9.76-2.65
		c-2.54-0.96-4.76-2.51-6.65-4.65c-1.89-2.14-2.84-5.1-2.84-8.88c0-4.71,1.83-8.56,5.49-11.53c3.66-2.98,8.87-4.46,15.62-4.46
		C821.28,528.18,826.77,529.85,830.86,533.2z"/>
</g>
<rect class="st3" width="846.67" height="146.67"/>
</svg>
