<?xml version="1.0" encoding="utf-8"?>
<!-- Generator: Adobe Illustrator 25.1.0, SVG Export Plug-In . SVG Version: 6.00 Build 0)  -->
<svg version="1.1" id="Layer_1" xmlns="http://www.w3.org/2000/svg" xmlns:xlink="http://www.w3.org/1999/xlink" x="0px" y="0px"
	 viewBox="0 0 180 160" style="enable-background:new 0 0 150 150;" xml:space="preserve">
<style type="text/css">
	.st0{fill:#FA3250;}
	.st1{stroke:#000000;stroke-miterlimit:10;}
	.st2{fill:#FFFFFF;}
	.st3{fill:none;}
</style>
<g>
	<g>
		<path d="M36.35,65.32c0.68-0.68,1.23-2.05,1.23-3V26.98c0-0.96,0.82-1.64,1.77-1.64h11.74c0.96,0,1.77-0.82,1.77-1.78V10.05
			c0-0.91-0.74-1.57-1.65-1.62c-0.04-0.01-0.08-0.01-0.12-0.01h-18.7c-0.06,0-0.12,0-0.18,0.01c-0.93,0.04-2.17,0.44-2.82,1.08
			l-2.35,2.23l-0.07,0.06l-5.08,4.8c-0.68,0.55-1.23,1.92-1.23,2.87v40.67c0,0.95-0.55,2.31-1.23,3l-8.73,8.73
			c-0.68,0.68-0.68,1.77,0,2.46l8.73,8.87c0.68,0.54,1.23,1.91,1.23,2.86v40.39c0,0.96,0.55,2.32,1.23,3.01l5.08,4.9l2.42,2.33
			c0.69,0.68,2.05,1.23,3,1.23h18.7c0.96,0,1.77-0.82,1.77-1.78v-13.51c0-0.95-0.81-1.63-1.77-1.63H39.35
			c-0.95,0-1.77-0.82-1.77-1.78V83.88c0-0.96-0.55-2.32-1.23-3l-6.55-6.55c-0.68-0.69-0.68-1.78,0-2.46L36.35,65.32z"/>
	</g>
</g>
<g class="pick">
	<g>
		<path d="M161.39,72.01l-8.73-8.87c-0.68-0.55-1.23-1.91-1.23-2.87V19.88c0-0.96-0.55-2.32-1.23-3l-4.94-4.76l-0.07-0.07l-2.49-2.4
			c-0.64-0.65-1.88-1.16-2.81-1.22c-0.07-0.01-0.13-0.01-0.19-0.01H121c-0.03,0-0.06,0-0.09,0.01c-0.92,0.04-1.68,0.84-1.68,1.76
			V23.7c0,0.96,0.81,1.64,1.77,1.64h11.74c0.95,0,1.77,0.82,1.77,1.77v35.35c0,0.95,0.55,2.32,1.23,3l6.55,6.55
			c0.68,0.68,0.68,1.77,0,2.45l-6.55,6.55c-0.68,0.69-1.23,2.05-1.23,3.01v35.34c0,0.95-0.82,1.64-1.77,1.64H121
			c-0.96,0-1.77,0.82-1.77,1.77v13.51c0,0.96,0.81,1.64,1.77,1.64h18.7c0.95,0,2.32-0.41,3-1.09l2.49-2.36l5.01-4.74
			c0.68-0.55,1.23-1.91,1.23-2.87V86.2c0-0.96,0.55-2.32,1.23-3l8.73-8.74C162.07,73.78,162.07,72.69,161.39,72.01z"/>
	</g>
</g>
<g>
	<path class="st0" d="M118.88,58.61c-0.27-21.74-31.29-21.6-33.48-21.57c-2.19,0.02-33.21,0.64-32.94,22.38
		c0.25,20.64,14.19,40.52,24.17,50.29c3.37,3.3,6.93,4.94,8.67,5.58c0.69,0.26,1.45,0.25,2.13-0.03c1.71-0.68,5.23-2.41,8.53-5.79
		C105.69,99.47,119.13,79.26,118.88,58.61z"/>
</g>
</svg>