<?xml version="1.0" encoding="utf-8"?>
<!-- Generator: Adobe Illustrator 25.1.0, SVG Export Plug-In . SVG Version: 6.00 Build 0)  -->
<svg version="1.1" id="Layer_1" xmlns="http://www.w3.org/2000/svg" xmlns:xlink="http://www.w3.org/1999/xlink" x="0px" y="0px"
	 viewBox="0 0 318.6 449.4" style="enable-background:new 0 0 318.6 449.4;" xml:space="preserve">
<style type="text/css">
	.st0{fill:#989CE5;}
	.st1{fill:#7C80C4;}
	.st2{fill:#1A65A8;}
	.st3{fill:#15598A;}
	.st4{fill:#2D7BB2;}
	.st5{fill:#379ADA;}
	.st6{fill:#5B669A;}
	.st7{fill:#424C6D;}
	.st8{fill:#DB3462;}
	.st9{fill:#AC2153;}
	.st10{fill:#E8E5DE;}
	.st11{fill:#AC69BA;}
	.st12{fill:#804989;}
	.st13{fill:#E1DFD8;}
	.st14{fill:#FFFFF8;}
	.st15{fill:#73417C;}
	.st16{fill:#A17F84;}
	.st17{fill:#574E4D;}
	.st18{fill:#F0F5FA;}
	.st19{fill:#F9F9F9;}
	.st20{fill:#A5826C;}
	.st21{fill:#8B644E;}
	.st22{fill:#422744;}
	.st23{fill:#7C5A44;}
	.st24{fill:#F5DCC6;}
	.st25{fill:#F49934;}
	.st26{fill:#FFAC39;}
	.st27{fill:#FFC037;}
	.st28{fill:#DD9F70;}
	.st29{fill:#C69062;}
	.st30{fill:#E3A87B;}
	.st31{fill:#FFD433;}
</style>
<g>
	<path d="M65.7,91.7c-7,8.1-15.6,16.8-14.8,27.5c0.7,8.7,7.6,15.4,12.6,22.6c5,7.2,7.7,18.1,1.2,23.9c-14.1,1.5-17.9,20-18,34.1
		c-3.5,0.6-6.9,1.3-10.4,1.9c-7.2,4.2-7.9,16-1.3,21c6.1,4.6,14.7,2.9,22.3,3.4c9.8,0.6,19.3,5.5,25.5,13.2
		c-10.7,14.8-22,30.2-38.4,38.3c-6.6,3.2-13.8,5.1-20.2,8.8c-6.4,3.7-12.1,9.7-12.5,17.1c-0.4,7.3,6.7,14.9,13.7,12.9
		c-6.7,6.5-3.5,19.9,5.4,22.7c2.9,0.9,6.1,0.9,8.9,2.1c9.4,4.2,7.3,17.8,5.4,28c-3.5,18.6-0.9,38.4,7.5,55.4
		c4.6,9.4,15.9,19,24.3,12.8c5.5-4,9.5-14,15.4-10.6c1.2-9.8,3.9-19.4,8-28.4c14.6-5.8,26.4,12.5,40.2,20c15.1,8.1,33.7,2.5,49-5.2
		c3.9-2,8.1-4.1,12.3-3.3c3.4,0.6,6.2,3.1,8.9,5.3c5.7,4.7,12.2,9.1,19.5,10c7.4,0.9,15.7-2.6,18.2-9.6c-10.9,2.3-23.2,4.4-32.2-2.2
		c-13.2-9.7-7.8-33.3,7.1-40.1c7.3-3.3,15.7-3.6,23.1-6.5c12.7-5,21.4-17.5,24.9-30.8c3.5-13.2,2.6-27.2,1-40.8
		c-0.6-5.1-1.3-10.4,0.6-15.2c2.7-6.9,10-11,13.6-17.5c6-11.1-0.2-26.8,8-36.4c3.7-4.4,9.7-6.4,13.4-10.8c4.2-5.1,4.6-12.2,4.3-18.8
		c-0.7-19.9-5-39.7-12.7-58c-1.4-3.2-3-6.6-6-8.4c-3.3-1.9-7.5-1.4-11.3-2.3c-12.7-2.9-16.1-19.1-17-32.1c-0.2-3.7-0.4-7.6,1.4-10.9
		c1.8-3.1,5.1-5,8.2-6.9c17.7-11.1,30.7-29.2,35.7-49.5c-5.9-6-15.9-5-23.7-1.8c-7.8,3.2-15,8.3-23.3,9.2c-8.2,1-16.6-2.1-24.6,0.1
		c-6.3,1.7-13.3,6.6-18.7,2.8c-2.7-1.9-3.7-5.5-5.4-8.4c-6.5-11.4-22.7-12.7-35.3-9.1c-12.6,3.6-24.5,10.7-37.7,11
		c-16.6,0.4-34.1-9.9-49-2.5C92.5,52,80.2,74.9,65.7,91.7z"/>
	<path d="M128.4,85.2c-3.4-4-6.7-7.9-9.4-12c0.2,0.5,0.3,0.9,0.5,1.4C121.4,79.2,124.5,82.8,128.4,85.2z"/>
	<g>
		<g id="XMLID_2394_">
			<path id="XMLID_2401_" d="M160.3,127.8c4.6-3.2,13.4-16.6,17.4-23c6.2-10.2,10.6-17,8.8-23.2c0,0-11.7,5.6-24.2,6.6
				c-21.3,1.7-43.5-9.6-53.5-28.7c-3-5.7-5.6-13.5-2.2-19.6c1.3-2.2,5.1-4.6,7.6-3c3.7,2.4-0.4,7.9-3.6,8.3c0.8,1.6,1.7,3.1,3,4.2
				c4.9,4.3,12.7,0.1,15.7-4.5c4.7-7.4,1-16.4-4.6-22.1c-6.9-6.9-17.2-9.1-26.6-7C86,18.3,75.5,27.5,72.5,39.6
				c-2.8,11.2-1,23.2,3.8,33.6c7.5,16,20.9,29.7,36.1,38.1C120.3,115.7,152.4,130.9,160.3,127.8z"/>
			<g id="XMLID_2395_">
				<path id="XMLID_2397_" class="st0" d="M101,101.3c4.1,3.2,8.6,5.9,13.1,8.5c8,4.5,16.5,8.2,25.1,11.3c4,1.4,8,2.6,12.1,3.6
					c2.9,0.7,7.8,2.7,9.9-0.1c4-5.3,7.8-10.8,11.3-16.4c1.2-2,2.4-4,3.1-6.2c-4.8,0.4-9.2,1-14,0.7c-4.6-0.3-9.3-1-13.8-2.1
					C130.4,96.5,113.1,87,103,71.9c-6.4-9.5-12.8-26.6-5.9-38.4c7.1-12.3,21.8-9,26.3,1.5c0.8,1.9,1.3,3.8,0.7,5.8
					c-0.5,1.9-1.6,3.7-3.1,5c-1.5,1.3-3.6,2-5.5,1.7c0.7,1.2,2.4,1.5,3.8,1.4c3.5-0.3,6.7-2.4,8.6-5.3c4.6-7.3-0.4-16.7-6.5-21.4
					c-6.3-4.9-15-6.3-22.8-4.6c-15.7,3.4-26,17.1-25.9,31.7C72.7,72.2,88.7,91.9,101,101.3z M87,33.9c-5.3,16.7,5.3,43.9,32.5,64.4
					C102.2,91,76.3,55.8,87,33.9z M81.3,59.7c4.7,16.1,18.8,34.8,45.3,50.2C106.1,103.8,80.9,75.2,81.3,59.7z"/>
				<path id="XMLID_2396_" class="st1" d="M118.5,39.4c0.2,2.7-1.4,5.5-4.3,6.5c0.3,0.3,0.8,0.4,1.3,0.4c3.5,0.1,6.1-1.6,7.1-5
					c0.5-1.6,0.2-3.4-0.4-5c-1.3-3.2-4.2-6.1-7.4-7.4c-5.6-2.3-11.7,0.1-14.9,5.1c-6.6,10.2-2.1,26.1,4.3,35.7
					c5.5,8.3,13.1,15.1,21.8,19.9c7.4,4.1,15.6,6.7,23.8,8.4c3.8,0.8,20.6,2.4,27,1.4c2.3-2.4,5.8-8.6,6.7-13.7
					c-6.1,2.4-12.4,4-18.8,4.8c-9.6,1.2-18.7,0.2-27.8-3.4c-8.3-3.3-16-8.3-22.1-14.8c-2.3-2.5-4.5-5.2-6.3-8.1
					c-4.2-6.4-7.9-18.7-3.9-25.7c2.3-4,7.1-6.4,11.3-3.7C117.5,36.1,118.4,37.7,118.5,39.4z"/>
			</g>
		</g>
	</g>
	<g>
		<g id="XMLID_2149_">
			<path id="XMLID_2154_" d="M109.1,118.1c4.3-4.9,9.6-9.1,15.6-12.4c4.3-2.3,8.9-4.1,13.6-5.4c10.8-3.1,22.2-3.7,33.3-4.4
				c5.2-0.3,10.5-0.6,15.6-1.6c5.7-1.1,11.3-1.1,16.8-3.3c8.8-3.6,14.6-11.7,13.2-21.4c-1.3-8.8-7.7-16.2-14.4-21.6
				c-4.1-3.3-8.7-6.1-13.6-8.1c-4.9-1.9-10.2-3.1-15.5-3.2c-11-0.3-23.6,0.7-33.1,6.8c-7.8,5.1-12.2,15.6-5.5,23.5
				c5.1,6,14.2,10.2,23.7,11c4,0.3,7.7,0,11.2-1c1.3-0.4,2.6-0.8,3.7-1.4c6.3-3,9.8-7.6,8.9-12.2c-0.9-4.8-6.1-8.2-13.3-8.7
				c-3.2-0.2-6.6,0.3-9,1.3c1.7,0,3.3,0.6,4.7,1.7c3.2,2.4,4,6.9,1.8,10.3c-1.5,2.4-4.1,3.9-6.9,4.6c-6.5,1.5-13.4-1.5-15.7-8.1
				c-3.5-10,6.1-18.2,14.7-20.6c1.9-0.5,4-0.9,6.2-1.2c7.3-0.8,18.4,1.8,25.6,8.4c4.5,4.2,6.8,9.5,6.6,15.2
				C196.9,86,168.9,91.5,153.6,90c-17-1.7-38.2-14-36.4-33.6c0.6-7,4.1-13.4,8.9-18.5c3.6-3.7,8-7,13.4-9.7
				c19.4-9.9,42.8-11.2,63.4-4.4c4.1,1.4,8.1,3.1,12,5.2c10.9,5.9,19.9,15,24.5,26.7c3.8,9.6,5.3,21.3,1.2,31.1
				c-3.4,8-10.1,14.2-17.6,18.4c-6.5,3.7-13.7,6.1-21,7.4c-15.3,2.7-31,0.8-46.3,3.9c-6.8,1.4-13.8,3.4-19.7,7.2
				c-10,6.5-14.4,19.7-12.4,31.1l0.3,1.9c0.1,0.6-11.3,2-12.5,2c-4.6,0.2-8.9-0.7-13.1-2.2l-1.2-0.4l-0.1-1.3
				C95.6,140.9,100.4,128,109.1,118.1z"/>
			<g id="XMLID_2150_">
				<path id="XMLID_2151_" class="st2" d="M131.3,109.6c-22.9,13.5-27.3,32-24.9,47c1.5,0.2,2.9,0.3,4.3,0.3
					c-4.6-22.2,12-39.7,27.4-45.6c25.3-9.7,53.7-6.2,73.4-12.7c6.2-2.1,11.1-4.5,14.8-7.4c4.8-3.8,7.8-8.7,8.2-14.9
					c0.3-6.7-1-13.4-3.8-19.5C225.7,46.7,217,40.1,207,35.4c-2.8-1.3-6.1-3.3-9.1-3.9c14.7,3.3,28.8,12.4,35,26.6
					c2.7,6.2,3.8,13.1,3.2,19.9c-0.5,5.7-4.7,10.7-9.1,14.2c-3.9,3.1-8.9,5.7-15,7.7c-23.1,7.5-47.5,3.1-72.8,12.7
					c-15.7,6-32.3,23.8-26.9,44.2c1-0.1,2.1-0.2,3.1-0.3c-1.7-10.3,0.8-21.7,10.1-30.3c-8.3,11-10.1,21.4-8.5,30.1
					c1.5-0.3,3-0.6,4.6-1c-2.3-13.3,2.1-21,8.2-28.7c2.5-3.2,6-5.3,9.7-7c9.9-4.6,21.5-6.2,32.3-6.8c11.5-0.7,23.3-0.1,34.5-3
					c14.4-3.6,30.4-13.1,34-28.5c1.9-8,0.2-17.3-2.8-24.8c-8-20.3-27.8-30.3-48.4-33.9c-16.2-2.8-34,0-48.7,7.5
					c-4.8,2.5-9.2,5.5-12.8,9.3c-6.9,7.2-10.3,16.8-7.4,25.8c0.5,1.7,1.3,3.4,2.3,5c0.5,0.8,1,1.5,1.6,2.3
					C136.8,89.2,162,91.9,180.3,84c7.5-3.3,15-8.8,15.3-17.8c0.5-15.8-19.3-22.8-29.9-21.5C150.3,46.5,145.4,55.1,146,62
					c0.4,4.9,4.9,10.4,12.5,8.9c0.5-0.1,0.9-0.2,1.3-0.3c7.4-2.1,8-8.2,4.1-11.2c-4-3.1-9.5,0.1-9.1,3.6c0.1,1.3-1.4,1.2-1.3-0.3
					c0.2-8.3,9.7-10.4,16.2-10c17.1,1.3,21.4,17.2,5.1,24.8c-4.8,2.2-10.3,3-15.9,2.6c-9.8-0.7-19.6-5.1-25.1-11.7
					c-6.9-8.2-4.2-18.8,3.6-25c0.9-0.7,1.9-1.4,2.9-2c10.6-6.4,25.6-6.9,33.6-6.7c17.3,0.5,34.2,11,42.4,26.2
					c3,5.5,4.4,12.1,2.6,18.1c-1.6,5.4-5.7,9.8-10.6,12.6c-6,3.3-12.9,3.7-19.5,4.7c-19.6,2.9-39.7,1-58.4,9
					c-0.3,0.1-0.5,0.2-0.8,0.3c-2.6,1.2-5.3,2.6-7.9,4.3c-2.1,1.4-4.1,2.9-6.1,4.6c-1.7,1.5-3.4,3.1-5,4.9
					c-7.7,8.6-13,20.3-11.6,35.3c1.9,0.7,3.8,1.2,5.7,1.6C102.4,138.9,108.5,119.7,131.3,109.6z M223.5,66.9
					c-5-18.4-22.1-31.6-40.4-35.5c-12.6-2.7-30.5-0.6-44.2,7.7c-2.3,1.4-4.5,3-6.5,4.7c11.9-12.2,34.7-16.9,51.6-13.3
					c17.5,3.7,34.7,15.2,41.3,32.4c2.3,6,2.7,12.9,0.2,18.8c-2.5,5.9-8,10.7-14.4,11.4c3.1-0.4,7.3-4.7,9.2-7
					c2.1-2.6,3.4-5.3,3.9-8.2C224.9,74.4,224.5,70.7,223.5,66.9z"/>
			</g>
		</g>
	</g>
	<g>
		<g id="XMLID_2140_">
			<path id="XMLID_2148_" d="M305.4,325.3c1.2,13.3-5,27.5-15.8,36.2c-10.9,8.7-27.2,15.6-40.3,21.2c-7.4,3.1-17,6-22.9,11.7
				c-6.4,6.2-6.5,18.5,4.5,22.7c-1.6-4,0.3-9.9,1-11.1c5.3-8.6,17.7-11.4,26-5.6c4.3,3,7.1,7.9,8.1,14c3.1,19.7-19,30.5-35.6,30.2
				c-15.9-0.3-31.2-9.1-38.9-23.1c-11-19.9-3.2-42.9,11-58.8c2-2.2,4-4.2,6.2-6.2c7.9-6.9,17.4-10.9,26.6-15.8
				c12.3-6.6,24.1-14.3,34.6-23.5c2.6-2.3,4.8-5.4,6.2-8.6c3.5-7.9,0.4-17.3-6.6-22.1c-5.1-3.5-10.5-3.4-16.4-2.4
				c-1.9,0.3-4.1,0.5-5.9,1.2c3.8-7,10.4-12.1,18.4-13.4c22-3.5,34.1,21.9,38.1,39.4C304.7,316,305,320.7,305.4,325.3z"/>
			<g id="XMLID_2141_">
				<path id="XMLID_2147_" class="st3" d="M303.3,325.5c1.1,12.2-4.3,25.7-15,34.3c-18.1,14.5-52.6,24.3-59,30.4
					c9.1-12.1,28.3-16,45.7-27.9C287.2,354,299.8,342,303.3,325.5z"/>
				<path id="XMLID_2146_" class="st4" d="M259.7,369.3c-1.8,1-3.6,1.9-5.5,2.7c-5.7,2.6-11.5,5.2-16.8,8.5
					c-6.7,4.3-13.9,10.1-15.9,18.3c-1.8,7.4-1.6,17.4,10,20.6c3.3,6.2,9,8.1,15.6,5.3c5.7-2.4,7-10.2,2.3-12.6
					c-3-1.5-5.9,0.2-8.5,2.8c-0.6-3.2,1.1-6.6,6.6-6.8c4.3-0.2,10.4,5.8,7.3,13.2c-2.7,6.5-13,11-24.4,7.3
					c-12.6-4-19.9-13.4-18.6-26.7c0.9-8.8,7.1-16.2,13.4-21.9c7-6.5,15.1-11.7,23.5-16.3c10.7-5.9,20.5-13.4,29.1-22
					c7.4-7.3,15-14.4,18.8-24.3c1-2.5,3.2-8.1,2.1-10.8c0.3,0.8,0.6,1.6,0.9,2.4c4.1,12.7-0.3,25.5-8.4,35.6
					c-6.1,7.6-13.8,13.7-21.9,18.9C266.3,365.6,263,367.6,259.7,369.3z"/>
				<path id="XMLID_2144_" class="st3" d="M296.3,305.9c0.1,3.2-0.5,6.4-1.5,9.4c-1.8,5.1-4.9,9.8-8.3,14
					c-6.8,8.4-15.4,15.6-23.7,22.4c-4.5,3.7-9.4,7-14.5,9.8c-8.9,5-17.4,10.8-24.8,17.9c-6.2,6-12.8,13.8-13.7,22.8
					c-0.7,6.9,2.1,15.6,7.8,21.8c-9-6.1-11.4-14.4-11-22c0.8-18.8,17.4-31.2,31.7-40.8c17.1-11.5,37.6-23.4,46.6-42.8
					c2.1-4.5,3.4-9.3,3.6-14.5c0.3-7.7-3.5-14.8-8.9-20.3c-6.1-6.1-14.3-8.7-23.3-5.6c10.7-7.5,22.5-4.1,29.9,2.9
					c6.7,6.3,9.6,15.4,10,24.4C296.3,305.7,296.3,305.8,296.3,305.9z"/>
				<path id="XMLID_2142_" class="st5" d="M279.7,300.5c0.8,12.3-8.8,19.5-17.6,26.1c-8.6,6.5-18,11.8-27.5,16.8
					c-8.5,4.5-17.1,8.4-24.4,14.8c-15.9,14-27.5,36.7-19,57.7c0.2,0.5,0.4,0.9,0.6,1.4c9,20.1,32.5,30,53.2,22.7
					c14.2-5,20.4-14.8,18.8-25.3c-1.6-10.4-9.5-17.2-20.4-14.5c-11.1,2.7-13.5,12.9-10.4,18.4c2.7,4.7,8.6,7.1,13.2,4.8
					c5.5-2.8,4.7-7.7,2.1-8.7c-1.8-0.6-5.6,0.8-5.7,3.5c0,1.4-1.3,1.5-2.1,0.1c-2.7-4.5-2.1-9.9,5.3-11.9c8-2.1,14.8,7,10.8,14.9
					c-3,5.9-12.1,12.1-25.2,9.7c-5-0.9-9.9-2.8-14.1-5.8c-6.7-4.7-11.6-11.9-11.7-22c-0.1-11,6.6-21.6,16.1-31
					c6.8-6.7,14.4-11.5,22.1-17.1c11.1-8,22.8-16,32.2-26.1c6.5-7,10.4-15.4,10.8-25c0.2-6.6-2.1-12.7-6.5-17.6
					c-3.6-4-7.3-7.9-13-8.2c-3.1-0.2-6.1,0.4-9.1,1.1c-2,0.5-4,1.2-5.4,2.7c2.9-0.5,5.9-0.9,8.9-0.7c1.4,0.1,2.8,0.4,4.2,0.8
					C273.6,284.7,279.2,292.1,279.7,300.5z"/>
			</g>
		</g>
	</g>
	<g>
		<g id="XMLID_2124_">
			<path id="XMLID_2139_" d="M38.6,428c10.4,10.2,21.6,12.5,29.2,12.6c11.1,0.2,23.7-4.2,30.6-13.4c4.1-5.6,5.8-12.6,4.7-19.4
				c-1-6-4.2-11.1-9.1-14.5c-2.8-1.9-6.3-3.1-10-3.1c-7.2-0.1-15.1,3.9-16.7,13.3c-0.6,3.7,0.5,8.1,2.8,10.8c1.7,2.1,4,3.2,6.6,3.3
				l0.2,0c5.3,0,10.3-4.3,8.3-10c-0.9-2.5-3.2-4.4-5.8-4.6c3.1-1.3,7.2-0.4,9.1,2.5c0.3,0.4,0.5,0.9,0.7,1.4
				c2.5,6.1-0.1,13.6-5.9,16.9c-12.6,7.1-24.6-5-26.2-17.1c-3.4-27.7,23.5-41,46.7-47.2l1.6-0.4c0,0,0.2-1.6,0.2-1.6
				c1.3-12.4,3.1-24.8,3.9-37.2c0.6-9.2,0.5-18.4-0.3-27.6l-2.6,0.5c-13.2,2.5-50.7,12.7-49.5,27l0.1,0.7
				c-7.5,5.2-13.5,11.8-16,19.9l-1,3.3c-7.5,8.2-11.8,18.7-8.8,31l0.6,2.5c-0.6,1.4-1.2,2.7-1.6,4.1C23.5,403.2,30.5,420.1,38.6,428
				z"/>
			<g id="XMLID_2125_">
				<path id="XMLID_2138_" class="st0" d="M40.3,426.3c17.2,16.9,40.4,13.9,52.8,3.2c1.3-1.1,2.4-2.3,3.4-3.6
					c6.9-9.3,6.3-23.5-3.8-30.5c-7.5-5.2-20.9-3.1-22.9,8.6c-0.8,4.5,1.7,11.3,7.2,11.3c6.5,0,7.8-6.6,5.2-9.6
					c-1.5-1.6-4-2.2-5.8-0.5c-0.9,0.8-1.3-0.5-0.8-1.3c1.8-3,5.4-4.9,10.8-2.5c6.3,2.8,8.5,10.6,2.7,19.2
					c-9.1,13.5-24.6,14.7-37.1,1.1c-6.4-6.9-11.9-19.8-3.7-35.4c11.4-21.7,36.5-31.4,56-36.4c0.3-2.1,0.7-4.3,1-6.4
					c-16.3,3.3-41.1,11.3-52.4,25.9c9.8-17.3,37.2-25.2,52.8-28.8c0.1-1.3,0.3-2.6,0.4-3.9c0-0.5,0.1-0.9,0.1-1.4
					c-19.8,2.6-47.6,9.3-66.7,34.7c-3.1,4.2-5.4,8.4-6.6,12.3C26.3,402.2,32.3,418.5,40.3,426.3z"/>
				<path id="XMLID_2137_" class="st1" d="M33.7,374.6c1.1-1.9,2.7-3.5,3.8-5.8c10.8-22.6,47.6-31.9,68.7-36
					c0.1-1.8,0.3-3.6,0.4-5.4c-12.1,1.8-43,8.5-51.7,17.5c7.9-11.5,39.4-18.2,51.9-20.2c0.1-1.6,0.2-3.2,0.3-4.8
					c-7.4,1.1-27.6,4.8-42.8,10.8C45.8,338.2,28.7,354.1,33.7,374.6z"/>
				<path id="XMLID_2136_" class="st1" d="M53.4,420.9c7.8,8,16.8,10.4,24.2,7.6c-10,1.6-21.3-8.2-22.9-21.5
					c-3.4-27.7,21.4-42.6,48.5-49.8c0.2-1.8,0.4-3.6,0.7-5.4c-18.5,5.1-42.3,14.7-53.7,34.6C42.5,399.8,46.8,414.1,53.4,420.9z"/>
				<path id="XMLID_2135_" class="st6" d="M107.2,317.8c0-0.9,0.1-1.8,0.1-2.7c0-0.8,0.1-1.6,0.1-2.4c-9.4,1.7-40.2,9.4-47.4,14.7
					c5.1-8.2,36.9-15.1,47.4-17c0-1.3,0-2.5,0-3.8c-19.1,1.2-56.9,11.7-64,34.9C55.5,327.4,96.9,319.5,107.2,317.8z"/>
				<path id="XMLID_2127_" class="st7" d="M59.5,319.9c18.6-12.1,38.7-15,48-15.9c0-1.5-0.1-3-0.2-4.5c-11.1,1.8-34.9,8.7-37.4,12.5
					c3.3-6,25.8-11.2,37.3-13.6c-0.1-1-0.1-2-0.2-3C90.2,298.6,58.5,308.8,59.5,319.9z"/>
				<path id="XMLID_2126_" class="st1" d="M71.6,344.6"/>
			</g>
		</g>
		<path class="st7" d="M35.3,384.3c-5.9,17.3-0.1,37.9,14,49.5c-15-7.7-22.7-26.3-20-43c2.6-16.7,14.1-31.1,28.4-40.1
			c14.3-9.1,31.1-13.3,47.8-15.4c0.2,1.1,0.4,2.1,0.6,3.2c-14.3,3.3-28.8,7-41.7,14C51.5,359.5,40.1,370.4,35.3,384.3z"/>
	</g>
	<g>
		<g id="XMLID_2109_">
			<path id="XMLID_2120_" d="M172.7,86.1l-1.7-1l-1.1,1.7c-6.1,9.2-11,19.9-11.9,31l1.3,0.6c2,1,6,3.1,6.8,3.4
				c4.4,1.7,9.1,3.1,14.4,4.3c17.6,3.9,33.8,3.7,48.4-0.7c18.4-5.6,34.7-18,46-34.9l1.5-2.3c13.3-4,29.6-14.4,36.9-29.3
				c4-8.3,5.3-16.3,3.5-23c-2.8-10.8-15.5-20.4-26.9-18.7c-6.8,1-12.9,4.9-16.5,10.6c-0.3-0.4-0.7-0.8-1-1.2
				c-12.3-14.4-34.1-18.1-48.1-4c-4.2,4.2-7.3,9.5-9,15.3c-2.7,9.5-0.6,20.8,5.8,31c3.3,5.3,7.8,9.8,13.5,13.3
				c0.2,0.1,0.5,0.3,0.7,0.4C216.2,100.6,186.9,94.5,172.7,86.1z M282.3,41.6c2.3-3,4.5-4,6.4-2.9c2.7,1.4,1.6,6.3,0,9.3
				c-0.7,1.3-2.4,3.8-4.2,5.9c-0.6-3.9-1.5-7.6-2.9-11.3L282.3,41.6z M249.2,59.6c-1.3-0.8-3.1-2-3.7-3.5c-0.7-1.8,0.8-3.4,2.7-2.6
				c0.9,0.4,1.6,1.3,1.9,2.2c0.3,1.1,0.5,3.5,0.2,4.5C249.9,60,249.5,59.8,249.2,59.6z"/>
			<g id="XMLID_2110_">
				<path id="XMLID_2117_" class="st8" d="M163.6,102.8c5.9,3.8,12.7,6.7,19.3,9.2c-4.9-0.6-12.6-3-20-7.4c-0.6,1.6-1.1,3.3-1.5,5
					c4.2,2.6,8.6,4.8,12.8,6.6c-3.4-0.6-8.2-2.1-13.3-4.6c-0.3,1.6-0.6,3.3-0.7,4.9c3,1.5,6.1,3.1,6.7,3.3c4.6,1.8,9.3,3.2,14.1,4.2
					c15.6,3.5,31.9,4,47.3-0.7c18.5-5.6,34.1-17.9,44.8-34c-3.5,0.8-7.3,1.2-11.2,1.2c-10.8,15-37.3,27.7-59.4,24.2
					c25.2,1.2,47.9-12.3,56.6-24.3c-1.7-0.1-3.3-0.3-5-0.6c-11.3,11.9-30.2,19.8-51.2,19.1c25.1-1.6,39.9-10,48.5-19.7
					c-1.5-0.4-3-0.8-4.4-1.4c-7.5,6.9-16.9,11.9-26.6,14.6c-4.9,1.4-10.1,2.3-15.2,2.4c-7.1,0.1-14-1.6-20.7-3.7
					c-3.7-1.2-7.4-2.6-10.9-4.1c-0.6-0.3-3.5-1.4-6-2.5C166.1,97.3,164.7,100,163.6,102.8z M193.2,119.7c3.1,0.5,6.3,0.9,9.5,0.9
					c18.4,0.1,37.2-5.5,51.7-16.9c-3.4,3.7-7.8,6.6-12.2,8.9c-8.9,4.7-18.8,8.1-28.9,8.9c-21.4,1.7-29.2-2.9-32.1-4
					C185.2,118.2,189.2,119.1,193.2,119.7z"/>
				<path id="XMLID_2114_" class="st8" d="M217.3,38.5c-2.7,9.6,0.1,20.5,5.5,29.2c9.3,14.9,28.3,21.8,45.3,20.1
					c1.5-0.2,3.1-0.4,4.8-0.8c13-3.1,30.8-13.4,38.3-29c3.8-7.9,5-15.3,3.4-21.6c-1-3.8-3.1-7.3-6-10c-0.9-0.9-1.9-1.7-3.1-2.5
					c-4.5-3.1-10.3-5.4-15.4-4.7c-6.4,0.9-12.3,4.8-15.5,10.4c1.5,1.9,2.8,3.7,3.1,5.1c0.7-0.9,1.4-1.7,2.1-2.3
					c4.9-4.6,9.5-4.2,12.6-2.7c5.9,2.9,8.5,9.5,7.3,16.2c-2.6,13.9-18.6,23.2-29.1,25.3c-11,1.9-27-0.4-32.7-13
					c-3.4-7.6,2.4-13.9,9.3-13.7c2.8,0.1,5.8,1.2,8.4,3.8c5.6,5.5,6.7,11.7,3.9,21.1c1.2,0.2,3,0.2,5-0.1c2-9.9-1.3-18.3-8.5-26.2
					c6.6,4,12.1,14,10.7,25.9c1.5-0.3,3.1-0.6,4.8-1c0.7-7.4-2-19.7-9.3-29.1c4.6,2.8,10.8,13.9,10.9,28.7c1.2-0.4,2.5-0.8,3.7-1.3
					c0.1-11.4-4.4-26.6-13.2-36.2c6.6,3.8,14.4,16.2,15.2,35.3c1.4-0.7,2.7-1.5,3.9-2.3c0.2-8.9-1.7-17-5-23.9
					c-2-4.1-4.4-7.9-7.2-11.1c-0.7-0.9-1.5-1.7-2.4-2.5c-7-6.7-17.1-11.2-27-9.7C229.4,17.8,220.4,27.7,217.3,38.5z M231.4,65.7
					c13,14.8,33.7,18.9,51.5,11c11.7-5.2,25.3-17.9,25.5-35.5c2,16.2-12.4,31-24.9,36.9c-16.7,7.9-39,4.9-51.2-9.4
					c-1.5-1.7-2.6-3.7-3.5-5.8c-0.3-0.6-0.5-1.3-0.7-1.9C229.1,62.6,230.2,64.3,231.4,65.7z"/>
				<path id="XMLID_2113_" class="st9" d="M168.3,93.4c16.7,7.1,52.6,18.2,75.5-7.1c-1.8-0.9-3.9-2.1-6-3.3
					c-20.4,20.9-52.4,13-66.2,5C170.5,89.7,169.3,91.5,168.3,93.4z"/>
				<path id="XMLID_2112_" class="st9" d="M250.7,53.4c2.3,2.7,2.4,9.2,0.1,13.9c1.4,0.6,5.1,1.5,6.5,1.7c1.6-4.2,2.4-14.4-3-19.3
					c-7.3-6.6-16.2-1.2-15.4,5.3c0.6,5.7,5.2,9.4,9.8,11.1c0.5-0.6,1.3-3.3,1.3-3.8c-1.7-0.2-6.3-3.7-6.7-6
					C242.4,52,246.6,48.6,250.7,53.4z"/>
				<path id="XMLID_2111_" class="st9" d="M284.9,61.8c8.8-4.4,15.8-18.2,12.1-25.2c-3.7-7.1-11.7-6.9-16-2.9
					c-0.9,0.9-1.7,1.9-2.2,3c0.3,0.5,0.5,1,0.8,1.5c0.3,0.7,0.7,1.4,1,2c2.1-2.8,5.4-5.5,9.1-3.5c4,2.1,3,8.2,0.9,12.1
					c-1,1.8-3.3,5.3-5.8,7.7C284.9,58.3,285,60,284.9,61.8z"/>
			</g>
		</g>
	</g>
	<g>
		<g id="XMLID_1993_">
			<path id="XMLID_2106_" d="M7.2,308c2.1,2.3,5,4,8.1,4.7c2.6,0.6,5.4,0.6,8-0.4c2.9-1.1,5.5-5,5.4-8.1c-0.1-3.8-4.7-7.3-8.6-5.4
				c0.3-0.1,1.3,1.5,1.4,1.7c0.4,0.7,0.6,1.4,0.6,2.2c0.2,3.1-2.6,4.5-5.3,3.7c-5.6-1.5-6.9-8.1-3.2-12.3c4.1-4.7,14.1-8.1,25-5.5
				c1.5,0.4,3.1,0.8,4.6,1.4c5.5,2.1,9.9,6.5,12.1,12.1c2.1,5.3,2,11.1-0.2,16.6c-2.2-2.6-10.3-5.6-10.4-5.6
				c-0.9-0.3-1.8-0.5-2.7-0.8c-3.8-0.9-7.4-1.1-10.9-0.7c-6.3,0.8-11.7,4.4-14.1,9.4c-2.1,4.5-1.7,9.5,1.2,14.1
				c2.5,3.9,6.3,6.5,11.2,7.7c4.3,1,9.3,0.8,13.9-0.6c5-1.5,9.6-4.6,13.2-8.7c5,8,6.1,19.1,3,29.1c-3,9.5-10.6,17.8-20.2,22.4
				c-6.7,3.1-14.5,4.4-20.9,3.5c-0.8-0.1-1.6-0.3-2.3-0.4c-2.1-0.5-4.4-1.2-6-2.7c-1.5-1.5-2-4.3,0.3-5.4c1-0.5,2.3-0.3,3.1,0.5
				c0.8,0.8,1.1,2,0.7,3.1c1.7-0.4,3.2-1.6,4-3.2c1.8-3.3,0.2-6.7-3.1-8.1c-3.2-1.4-7.6-0.8-10.5,1.4c-5,3.7-6,9.6-2.5,14.6
				c5,7.3,14.7,9.1,23,8.4c6.2-0.5,12.5-2.3,18.8-5.3c11.1-5.2,19.4-14.8,23.3-26.8c4.1-12.8,2.3-27.4-4.7-37l-0.8-1.1
				c0.5-0.9,0.9-1.9,1.3-2.9c3-7.8,3.2-16.8,0-24.6c-3.6-9-11.6-15-20.7-17.8c-8.7-2.7-19.6-2.5-27.6,2.3
				c-5.7,3.4-9.3,8.3-10.1,13.8C3.7,301.2,4.8,305.3,7.2,308z M45.8,330.3c-4.2,2.7-11.2,5.4-16,2.7c-2.2-1.3-3.7-3.8-3.3-6.4
				c0.3-1.8,1.6-3.4,3.1-4.4c2.4-1.5,5.2-1.8,7.9-1.5c0.8,0.1,1.7,0.2,2.5,0.4c3.3,0.8,6.6,2.4,9.6,4.7l0.7,0.5
				C49.1,327.9,47.5,329.2,45.8,330.3z"/>
			<g id="XMLID_1994_">
				<path id="XMLID_2012_" class="st10" d="M61.5,363.2c-3.3,10.4-11.5,19-21.3,23.6c-6.6,3.1-14.8,4.7-22.1,3.7
					c-4.6-0.7-12.3-2.9-11.1-9c0.6-3.2,3.9-4.1,6.6-2.6c1,0.6,1.7,1.6,1.6,2.7c1.4-0.8,1.9-2.4,1.7-4.3c-0.2-1.5-1.4-2.6-2.7-3.1
					c-2.7-1.2-6.2-0.6-8.5,1.1c-4.1,3.1-5,7.7-2.1,11.9c1.3,1.9,3.2,3.5,5.2,4.7c4.4,2.6,11,3.2,15.9,2.8c6.3-0.5,12.4-2.4,18.1-5.1
					c10.7-5.1,18.6-14.4,22.2-25.6c4-12.3,2.2-26-4.5-35.2c-0.7,1.3-1.5,2.5-2.4,3.7C63.7,340.8,64.9,352.5,61.5,363.2z"/>
				<path id="XMLID_2011_" class="st10" d="M47.3,285c-9.9-5-23.7-4.9-31.9-0.1C4.6,291.4,4.5,302,8.7,306.6
					c4.2,4.6,11.2,5.8,15.5,3c3.3-2.1,5.3-8.8-1.4-9.8c2.6,3.4,0.7,7.5-3.3,8.3c-8.9,1.6-12.9-8.9-7.3-15.3
					c4.9-5.5,17.7-10.1,31.8-4.7c12.4,4.7,18.9,19.6,12.2,33.2c-2.3,4.6-5.5,8.2-9.3,10.6c-3.8,2.5-8.2,3.8-12.8,4
					c-3.9,0.2-7.2-2.1-8.8-5c-1.9-3.7-0.9-8.5,5.3-11.5c1.4-0.7,4-1.1,7.2-0.8c3.8,0.4,8.4,1.9,13.2,5.5c1-1.2,2.1-2.6,2.8-3.8
					c0.7-1.2-8.7-5.2-9.6-5.4c-4.1-1.3-8.5-1.9-12.8-1.4c-10.2,1.2-17.6,10.7-11.4,20.5c4.8,7.6,14.9,8.7,22.9,6.2
					c8.4-2.6,14.9-9.6,18-17.6C66,309.3,62.6,292.9,47.3,285z"/>
			</g>
		</g>
	</g>
	<g>
		<g id="XMLID_1982_">
			<path id="XMLID_1990_" d="M283.7,115.9c-0.8,0.1-1.6,0.3-2.3,0.5c-6.4-3.4-13.9-4.1-21-2.8c-12.3,2.2-26.1,16.8-17.7,29.7
				c2.1,3.1,5.2,5,9.1,5.3c1.3,0.1,2.7,0,3.9-0.7c0.8-0.5,1.5-1.3,2-2.1c0.9-1.5,1.2-3.4,0.9-5.1c-0.9,0.8-2.1,1.4-3.3,1.4
				c-2,0.1-4.1-1.8-4.8-3.6c-0.8-2.1-0.3-4.6,0.7-6.6c2.3-4.7,6.5-6.5,11.5-6.8c1.7-0.1,4.1,0.1,6.3,1.4l0.5,0.3
				c-0.5,1-0.9,2.1-1.2,3.2c-1.3,4.6-0.5,9.2,2.3,12.8c2.8,3.6,7.6,6.1,11.6,6c2.1-0.1,4.4-0.8,6.3-2.1l0,0.1c0.9,2.5,1.2,5.4,0.8,9
				l0,0.1c-5.6-2.9-12-4.7-19.2-4.6c-3.1,0-6.3,0.6-9.5,1.7c-10,3.4-17.7,10.7-20.4,19.5c-2.7,8.6-1.2,18.8,3.6,26
				c10.4,15.5,31.7,17.2,46.8,8.1c-6.2,30.6-21.5,56.5-45.9,76.1c-22.8,18.4-63,22.3-69.4,22.3c-37.7-0.2-66.7-15.3-80.5-24.3
				l-1-0.7l-1,0.6c-3.1,1.6-6,4.4-8.5,6.9c-6.6,6.8-9.4,15.2-11.3,24.2l1.2,0.7c27.5,16.6,60.6,26.6,90.8,27.5
				c36.3,1.1,65.4-6.5,88.9-23.1c34.9-24.6,60.2-63.7,64.4-106.6c1-10.3-1.2-20.8-5.6-30.1c0,0,0.9-2.5,0.9-2.5
				c0.3-0.8,0.5-1.5,0.8-2.3c3.9-12.8,4.9-28.7-1.6-40.4C308.2,126.6,299.6,114.5,283.7,115.9z M283.7,172.9c-0.8,2.4-3,5-4.6,6.9
				c-4.6,5.6-13.3,9.8-20.4,7c-4.6-1.8-9.2-6.8-6.9-12c3.7-8.3,14.7-9,22.2-6.7C279.6,169.9,283.6,173.2,283.7,172.9z"/>
			<g id="XMLID_1983_">
				<path id="XMLID_1989_" class="st11" d="M314.3,169.4c0.9-3.4,1.5-7.1,1.7-11c0.2-4.3-0.2-8.8-1.4-13.6c-0.6-2.4-1.5-4.8-2.6-7.3
					c-0.7-1.5-1.4-3-2.3-4.5c-3-5.3-8.6-11.1-15.4-13.7c-2-0.8-4.1-1.3-6.2-1.4c-1.4-0.1-2.8-0.1-4.1,0.1c-4.3,0.6-8.2,2.6-11,6.5
					c-1.2,1.7-2.2,3.8-2.9,6.2c-2.9,10.1,6.3,16.4,11.9,16.3c4.7-0.1,10-4.1,8.6-9.7c-0.3-1.1-0.8-1.9-1.5-2.5
					c-1.7-1.3-4.1-1.2-5.3-0.5c-1.5,0.9-1.9,3.6,0.2,4.8c1.1,0.6,1,1.6-0.4,1.4c-4.2-0.7-8-5.6-4.9-10.9c3.5-5.9,13.7-2.6,18.1,3
					c0.2,0.3,0.5,0.6,0.7,0.9c3.9,4.9,9.8,12.8,5.3,31.6c1.5,1.6,2.9,3.2,4.2,4.8c2-5.3,2.4-11.9,2.5-18.2
					c1.9,5.4,1.8,13.5-0.7,20.6c1.1,1.6,2.1,3.2,3,4.7C312.8,174.6,313.6,172.1,314.3,169.4z"/>
				<path id="XMLID_1988_" class="st12" d="M270.2,124.3c0.8-1.5,1.8-2.7,3.1-3.9c0.7-0.6,4.2-3.7,5.2-3.3
					c-1.3-0.5-8.3-3.2-17.8-1.5c-7.1,1.2-13.5,5.7-16.8,12.1c-3.6,7.2-1.5,18.2,8,19c2.4,0.2,5.2-1.1,5.4-3.4
					c-3.7,2.9-8.1-1.8-9-5.4c-0.9-3.7,0.7-7.8,3.2-10.5c2.5-2.7,7.3-3.8,10.9-4c2.6-0.1,5.2,0.3,7.4,1.6
					C270,124.7,270.1,124.5,270.2,124.3z"/>
				<path id="XMLID_1987_" class="st12" d="M291.5,135.6c1.9,4.2,0.9,7.9-1.1,10.7c0.9,2.4,1.4,5.4,0.9,9.9c1.5,0.8,3,1.7,4.3,2.7
					c1-3.9,1.4-8.2,1.6-12.3c1,3.4,1.2,8.4,0.1,13.5c1.2,0.9,2.4,1.9,3.5,3c3.5-14.6-0.4-22.9-4.1-27.6c-0.4-0.5-0.8-0.9-1.2-1.3
					c-4.8-5.2-14.3-6.5-14.8,0.6c2.9-3.3,7-3.1,9.3-1.1C290.6,134.2,291.1,134.9,291.5,135.6z"/>
				<path id="XMLID_1986_" class="st12" d="M285.2,174.7c1,0.8-5.6,7.7-6.2,8.3c-2.8,2.5-6.1,4.4-9.6,5.6
					c-6.9,2.3-14.8,0.6-18.4-6.3c-0.1-0.1-0.1-0.3,0-0.4c-0.7,2.1,0,4.4,0.7,6.5c0.4,1.3,2.2,3,3.2,3.9
					c11.5,11.2,33.6,1.5,37.3-10.2c-0.6-1-1.6-2.2-2.6-3.3c-2.4,4.6-6,8.1-9.4,10.1c3-3.6,6-7.5,7.9-11.6
					C287.1,176.3,286.1,175.5,285.2,174.7z"/>
				<path id="XMLID_1985_" class="st12" d="M292.6,207.1c-7,34.7-21,56.8-46.6,77.4c-22.6,18.2-62.5,22.8-70.6,22.7
					c-37.9-0.2-66.9-15.1-81.6-24.7c-2.3,1.3-4.4,2.9-6.3,4.7c-0.4,0.4-0.8,0.8-1.1,1.1c13.2,9.7,46.3,29.7,92.6,27.7
					c53.5-2.3,75.3-23.8,90.9-42.6c21.5-25.8,31.1-58.5,29-71.7C298.7,201.7,293.9,205.9,292.6,207.1z"/>
				<path id="XMLID_1984_" class="st11" d="M270.1,153.5c-3,0-6,0.6-8.9,1.6c-8.5,2.9-16.4,9.4-19.2,18.2c-2.5,8-1.2,17.5,3.4,24.3
					c5.3,7.9,15,12.9,24.6,13c1.7,0,3.4-0.1,5.1-0.4c8.4-1.3,18.2-5.6,22.9-13c-0.3-1.6-0.6-3.1-1-4.6c-3.6,4.5-8.1,7.6-11.8,8.9
					c4.1-3.3,8.3-7,11-11.3c-0.7-1.8-1.5-3.5-2.3-5.1c-8.6,14.4-28.3,20.7-40.5,8.6c-2.1-2-3.6-4.7-4.6-7.4
					c-2.2-6.6,1.3-16.2,7.7-19.2c5.5-2.6,12.2-2.5,18-0.8c8.7,2.5,15.4,8,19.9,15c3.7,5.8,5.9,12.7,6.6,20c2.8,30.5-18.7,63-38.5,84
					c-26.8,28.5-69.5,36.7-107,32.2c-25.5-3.1-50.3-12.2-71.4-26.9c-1.6,2.6-3.2,5.2-4.8,7.7c-0.5,0.9,26.7,12.9,29.3,13.9
					c10.4,3.8,21.1,6.6,31.9,8.5c21.5,3.6,43.2,3,64.6-1.2c6-1.1,11.9-2.6,17.7-4.3c18.4-5.3,34.5-17,47.2-31.1
					c12.2-13.5,23.1-29.2,30.4-45.9c4.9-11.1,7.9-23.1,7.1-35.2c-0.7-12.1-5.4-24.1-14.2-32.4c-8.8-8.3-21.8-12.4-33.4-9.1
					c13-4.8,28.5,0.4,37.8,10.7c9.3,10.3,12.9,24.9,11.9,38.7c-1.6,21.1-13,42.2-25,59.3c-9.7,13.8-21.5,26.4-35.1,36.2
					c-2.7,2-5.6,3.8-8.5,5.5c-17.2,9.8-38.4,12.3-57.8,13.9c-21.9,1.7-44.1-0.5-65.2-6.5c-6.9-2-13.7-4.3-20.3-7
					c-1.4-0.6-20.4-9.2-20.1-10.1c-1.1,2.8-1.9,5.8-2.5,8.7c27.3,16.4,60.1,26.3,89.9,27.2c31.6,0.9,62-4.6,87.7-22.7
					c35.6-25.1,56.1-60.6,63.1-98.1c2.4-12.6,0.4-25.9-5.5-37.5C305,169.2,290.1,153.2,270.1,153.5z"/>
			</g>
		</g>
	</g>
	<g>
		<g id="XMLID_1913_">
			<path id="XMLID_1981_" d="M229.1,248c-0.2-0.4,0-0.8,0.4-0.9l1.7-0.6c9.7-3.4,30.2-10.1,35.4-11.4c0,0,0,0,0,0c0.2-0.1,3-1,3-1
				c3.5,1.8,6.5,4.1,9.3,6.9l0.2,0.4c7.1,18,6.5,38.1,1.2,56.4c-2.7,9.4-6.8,18.7-11.5,27.3c-12.2,22-30,40.3-52.7,51.3
				c-4.1,2-8.2,3.7-12.5,5.2c-14.4,5.1-30,6.8-45.2,5.4c-8.1-0.7-16-2.5-23.8-4.8l-0.5-0.1l-0.4-0.3c-2-1.7-5.7-6-7.1-8.9
				c-0.1-0.1-0.1-0.3,0-0.4l0.7-3.7c0,0,0-0.1,0-0.1c1.1-2.7,5.1-12,9.3-21.9c4.7-11,9.5-22.3,10.9-25.8l1.1-2.5
				c0.1-0.2,0.3-0.2,0.4-0.1c0.6,0.5,2.1,1.8,2.1,1.8c8.4,7.3,20.8,7.9,31.3,6.4c15.3-2.2,29.5-12.2,37.9-25
				c4.3-6.6,8.2-13.4,10.6-20.9c1.7-5.2,2.6-10.7,2.3-16.1c-0.3-5-1.1-10.5-3.3-15.1L229.1,248z"/>
			<g id="XMLID_1914_">
				<path id="XMLID_1980_" class="st13" d="M147.1,377.2c1.6,1.8,4.1,4.7,6.4,7.1c-6.7-0.9-11.1-2-18.3-4.1
					c-1.7-1.5-5.5-5.8-6.6-8.3C134.5,374.8,144.2,377.1,147.1,377.2z"/>
				<path id="XMLID_1935_" class="st14" d="M149.6,321.9C149.6,321.9,149.6,321.9,149.6,321.9c2.1,1.8,4.4,3.3,6.8,4.4
					c0,0.1-0.1,0.3-0.1,0.4c-1.8,9.2-7.8,39.7-9.2,48.1c-2.9-0.5-13.5-2.4-17.8-5C131.4,364.5,147,328.5,149.6,321.9z"/>
				<path id="XMLID_1934_" class="st13" d="M156.8,384.7c-1.8-2-4.3-4.7-6.2-7c5.9,0.8,11.7,1.2,17.3,1.2c1.6,1.5,4.2,4,6.6,6.3
					C168.7,385.4,162.8,385.3,156.8,384.7z"/>
				<path id="XMLID_1933_" class="st14" d="M149.5,375.1c1.5-8.5,7.2-38.3,9.1-47.9c2.2,0.8,4.4,1.5,6.6,1.9
					c-0.6,9.9-2.8,26.8-3.2,33.7c0.9,0.1,2.5,0.3,4.3,0.4c-0.1,4.4-0.1,10.3,0,13.2C160.8,376.4,155.2,376,149.5,375.1z"/>
				<path id="XMLID_1932_" class="st13" d="M177.3,384.9c-2-1.9-4.5-4.3-6.4-6.1c7.5-0.3,14.7-1.3,21.6-3c1.5,1.3,3.7,3.3,5.8,5.2
					C191.6,383,184.7,384.4,177.3,384.9z"/>
				<path id="XMLID_1931_" class="st14" d="M168.7,376.3c0-2.9,0-8.6,0.1-13c2,0.1,3.8,0.1,4.6-0.1c1-4.4,1.8-23.5,1.5-33.4
					c1.7,0,3.3-0.2,4.9-0.4c2,9.6,3.8,25.4,4.6,32.1c0.9-0.1,2.3-0.3,3.9-0.5c1,4.2,2.3,9.4,3.1,12.1
					C184.3,374.9,176.7,376,168.7,376.3z"/>
				<path id="XMLID_1930_" class="st13" d="M195.1,375.2c7.4-2,14.3-4.7,20.8-8.1c1.6,1.2,3.6,2.7,5.4,4.1
					c-6.4,3.7-13.3,6.8-20.5,9.1C198.8,378.6,196.7,376.7,195.1,375.2z"/>
				<path id="XMLID_1929_" class="st14" d="M193.8,372.5c-0.7-2.7-2-7.7-3-11.9c1.9-0.3,3.7-0.7,4.5-1.1c-0.7-4.7-4-21.5-6.8-31.9
					c1.9-0.6,3.8-1.2,5.7-2c3.8,9.2,8.4,22.7,10.4,29.7c1.1-0.3,2.9-0.8,4.7-1.5c1.5,3.5,3.4,8.2,4.5,10.9
					C207.7,367.9,201,370.6,193.8,372.5z"/>
				<path id="XMLID_1928_" class="st13" d="M217.8,366c7.1-3.9,13.6-8.5,19.5-13.6c1.4,1,3.2,2.2,4.8,3.3
					c-5.9,5.4-12.2,10.2-19,14.3C221.4,368.8,219.5,367.3,217.8,366z"/>
				<path id="XMLID_1927_" class="st14" d="M235.2,350.6c-5.6,4.8-12,9.3-19.3,13.2c-1.1-2.6-3-7.2-4.5-10.6
					c1.7-0.7,3.2-1.4,3.9-1.9c-1.6-4.9-8.5-19.8-13-29.7c0.4-0.3,0.9-0.5,1.3-0.8c1.3-0.8,2.5-1.7,3.7-2.6
					c5.5,7.6,14.5,20.6,18,26.2c0.7-0.5,2-1.4,3.4-2.5C231,344.8,233.7,348.5,235.2,350.6z"/>
				<path id="XMLID_1926_" class="st13" d="M253.7,334.3c1.4,0.8,1.9,1.6,4.2,3.2c-3.7,5.6-8.6,12-14.3,16.9
					c-1.6-1.1-3.3-2.3-4.8-3.3C244.2,346.3,249.6,340,253.7,334.3z"/>
				<path id="XMLID_1925_" class="st14" d="M236.9,349c-1.5-2.1-4.1-5.6-6.4-8.6c1.6-1.3,3-2.5,3.6-3.3
					c-2.9-4.2-13.4-17.2-20.2-24.5c0.1,0,0.1-0.1,0.2-0.1c1.3-1.3,2.6-2.6,3.7-3.9c7.5,6.4,18.9,16.4,23.4,20.6
					c0.7-0.6,2-1.9,3.3-3.4c0.4,0.3,0.7,0.6,1.1,0.9c2.5,2.1,5,4.2,6.3,5.3C247.5,338.2,242.5,344,236.9,349z"/>
				<path id="XMLID_1924_" class="st14" d="M222.8,302.7c0.1-0.1,2.6-4.3,2.8-4.3c7.3,4.3,22.5,12.5,26.3,15.1
					c0.5-0.8,1.2-2.1,1.9-3.6c2.8,1.7,6.1,3.6,8.1,4.9c-1.6,3.3-3.3,6.5-5.2,9.6c-1.1,1.9-2.3,3.7-3.5,5.5c-1.3-1.1-3.7-3.1-6.1-5.1
					c-0.4-0.3-0.7-0.6-1.1-0.9c1.2-1.5,2.3-2.9,2.7-3.7C245.3,317.5,230.7,308.2,222.8,302.7z"/>
				<path id="XMLID_1923_" class="st14" d="M229.4,291.7c0.6-1.2,1.2-2.7,1.8-4.1c7,2.6,28.3,11,28.3,11l1.6-4.8
					c4,1.6,7.1,2.8,7.9,3.1c-0.1,0.4-0.3,0.9-0.4,1.3c-1.6,5-3.5,10-5.7,14.8c-2-1.2-5.2-3.2-7.9-4.8c0,0-0.1-0.1-0.1-0.1
					c0.8-1.6,1.5-3.2,1.7-4.1C254.4,302.8,234.5,294.3,229.4,291.7z"/>
				<path id="XMLID_1922_" class="st14" d="M231.9,248.6c9.4-3.3,30.3-10.1,35.3-11.4c2,4,3.4,9.3,4.4,15.2c-8.2,1-26.8,3.3-37,4.6
					C234.1,254,233.2,251.2,231.9,248.6z"/>
				<path id="XMLID_1921_" class="st14" d="M265.5,266.8c-4.6,0.1-21.4-0.6-30.1-0.9c0-2.2-0.1-4.4-0.4-6.6c9.8-1.2,27.8-3.4,37-4.5
					c0.8,5.9,1,12.2,0.8,18.3c-1.8-0.2-4.4-0.5-7.4-0.8C265.6,270,265.7,267.9,265.5,266.8z"/>
				<path id="XMLID_1920_" class="st14" d="M262.7,285.5c-4.4-0.6-19.8-4-28.6-6c0.3-1.6,0.6-3.3,0.8-5.1l29.5,5.2
					c0,0,0.4-2.3,0.7-5.1c2.9,0.3,5.5,0.6,7.6,0.8c-0.4,7.2-1.4,14-3,19.2c-0.7-0.3-4-1.3-8.2-2.7
					C262.1,289.4,262.7,286.9,262.7,285.5z"/>
				<path id="XMLID_1919_" class="st13" d="M272,297.3c1.8,0.6,3.7,1.2,5.5,1.8c-2,6.6-4.5,12.6-7,17.8c-1.7-0.8-3.3-1.5-5-2.3
					C268.3,308.7,270.4,302.9,272,297.3z"/>
				<path id="XMLID_1918_" class="st13" d="M275.7,275.1c2.1,0.1,4.2,0.3,6.3,0.4c-0.5,7.8-2,15.3-4.1,22.1
					c-1.8-0.6-3.7-1.2-5.5-1.9C274.4,288.4,275.3,281.4,275.7,275.1z"/>
				<path id="XMLID_1917_" class="st13" d="M274.4,254.3c2-0.5,3.9-1,5.8-1.6c1.6,7.2,2.1,14.3,1.8,21.2c-2.1-0.1-4.2-0.3-6.3-0.4
					C276,266.1,275.4,259.7,274.4,254.3z"/>
				<path id="XMLID_1916_" class="st13" d="M269.3,236.5L269.3,236.5c2.8,1.4,5.3,3.4,7.7,5.7c1.2,2.9,2.1,5.9,2.9,8.8
					c-1.8,0.6-3.7,1.1-5.7,1.6C272.2,242.5,269.3,236.5,269.3,236.5z"/>
				<path id="XMLID_1915_" class="st13" d="M255.3,332.1c3.7-5.4,6.8-10.8,9.4-16c1.7,0.8,3.3,1.5,5,2.3
					c-5.3,10.7-10.2,17.3-10.2,17.3S257.4,333.7,255.3,332.1z"/>
			</g>
		</g>
	</g>
	<g>
		<path d="M76.7,387.4c1.9,1.1,4.1,1.1,6,0.1c1.2-0.6,2.1-1.6,2.7-2.8c1.7-3.2,0.5-7.2-2.5-9c-1.9-1.1-4.1-1.1-6-0.1
			c-1.2,0.6-2.1,1.6-2.7,2.8C72.6,381.6,73.7,385.6,76.7,387.4z"/>
		<path class="st0" d="M84.3,379.6c1,2.4-0.2,5.3-2.7,6.4c-2.4,1.1-5.2,0.1-6.2-2.4c-1-2.4,0.2-5.3,2.7-6.4
			C80.5,376.1,83.3,377.1,84.3,379.6z"/>
	</g>
	<g>
		<path d="M15.4,415.9c-0.5-3.6-5-5.7-8.4-4.1c-3.8,2-4,6.8-1.2,8.9C9.3,423.3,16,420.8,15.4,415.9z"/>
		<path class="st8" d="M13.3,415.7c0.4,1.9-0.8,3.7-2.8,4.2c-2,0.5-3.9-0.7-4.3-2.5c-0.4-1.9,0.8-3.8,2.8-4.2
			C10.9,412.7,12.8,413.9,13.3,415.7z"/>
	</g>
	<g>
		<g id="XMLID_1762_">
			<path id="XMLID_1912_" d="M172.5,42.7c3.8,3.5,8.8,5.4,14,5.4c5.1,0,10-2.1,14-5.1c8.8-6.5,13.8-18.6,9.8-29.2
				c-0.4-1.1-0.9-2.2-1.5-3.2c-1.1-1.9-2.4-3.5-4-5c-2.8-2.6-6.3-4.4-10.1-5.2c-2.8-0.6-5.7-0.6-8.6,0c-6.8,1.3-13,5.3-16.5,11.3
				c-4.2,7.1-5.6,16.3-2.1,24C168.6,38.4,170.3,40.7,172.5,42.7z"/>
			<g id="XMLID_1763_">
				<path id="XMLID_1767_" class="st0" d="M206.5,31.9c4.9-7.8,3.8-18.2-3.2-24.6c-2.6-2.4-5.8-4-9-4.6c-6.5-1.3-13.6,0.7-18.6,5.8
					c-0.6,0.6-1.1,1.2-1.6,1.9c-6.5,8.3-4.4,18.8,2.9,25.6c5.7,5.3,13.7,6.5,20.4,3.7c2.6-1,5-2.7,7-4.8
					C205.2,33.8,205.9,32.9,206.5,31.9z M192.2,34.1c-0.3,1.6-2.2,2.1-4,1.2c-3-1.5-7.6-5.5-10.8-9.5c-1-1.3-1.7-3.7,2-4.3
					c2.3-0.4,5.2-0.5,8.1-0.5c2.7,0,3.2,1.3,3.7,3C192.1,26.7,192.6,31.9,192.2,34.1z M197.1,23.4c-3.5-2.6-7.6-6.7-9.7-8.5
					c-3.4-3,1.8-7.3,4.8-5.1c2.7,2,6.4,5.3,9.4,8.4C204.8,21.4,199.9,25.5,197.1,23.4z"/>
				<path id="XMLID_1766_" class="st15" d="M191.3,11.2c-2.5-1.9-4.2,1.2-1.4,3.7c1.7,1.5,4.8,4.4,7.7,6.5c2.4,1.7,4.6-0.2,2-2.9
					C197.1,15.9,193.6,12.8,191.3,11.2z"/>
				<path id="XMLID_1765_" class="st6" d="M198.5,41c-0.1,0.1-0.3,0.1-0.4,0.2c-7.4,3.1-16.2,1.9-22.5-3.9c-4.3-4-6.9-9.2-7.3-14.7
					c-0.2,1-0.4,2-0.5,3c-0.3,3.2,0.3,6.4,1.6,9.3c1.1,2.3,2.6,4.5,4.5,6.3C181,47.6,192.1,47.6,198.5,41z"/>
				<path id="XMLID_1764_" class="st15" d="M185.9,22.8c-2.2,0-4.3,0-6.1,0.2c-1.5,0.2-1.4,1.5-0.6,2.5c1.9,2,6.4,6.3,8.7,7.7
					c1.4,0.9,2.2,0.8,2.4-0.4c0.3-1.6-0.7-5.9-1.3-8C188.6,23.5,187.4,22.8,185.9,22.8z"/>
			</g>
		</g>
	</g>
	<g>
		<g id="XMLID_1488_">
			<path id="XMLID_1493_" d="M254.3,257.6c-1.3,22.5-22.3,39.6-43.2,43.7c-13.7,2.7-28.1,0.2-40.6-5.7c-9-4.2-17.9-10.7-25.7-18.7
				c-7.8-8-14.9-16.8-20.9-26.2c-0.2-0.3-0.3-0.5-0.5-0.8l-1-1.7c8.5-9.9,19.5-17,31.8-21.4l2.3-0.8l0.9,2.2
				c7.9,20.1,25.9,45,50.3,43.3c-5.6-3.3-9.6-9.2-10.4-15.5c-0.9-7.5,1.7-14.7,7.3-20.3c6.2-6.3,15.4-9.9,24.4-9.6
				c10.5,0.3,19.1,7.3,22.9,16.9C253.9,247.6,254.6,252.6,254.3,257.6z"/>
			<g id="XMLID_1489_">
				<path id="XMLID_1491_" class="st6" d="M246.1,236.9c4.5,5.8,6.4,13.2,5.8,20.5c-1.3,15-8.8,26.8-27.7,36.8
					c-16.2,8.6-36.5,6.9-52.6-0.7c-9.2-4.3-17.9-11-25-18.2c-7.7-7.9-14.6-16.6-20.6-25.8c-0.2-0.3-0.4-0.6-0.5-0.9
					c1.6-1.9,3.3-3.7,5.5-5.2c3.6,7.2,8.2,14,13.5,20.1c6.5,7.5,14.2,14,22.7,19.2c8.2,5,17.4,9.8,27.3,9.1c-1.4,0.1-3.3-0.7-4.6-1
					c-1.7-0.4-3.4-0.9-5-1.4c-9-2.8-17.6-8.3-24.9-14.2c-7.7-6.2-14.5-13.6-20-21.9c-2.4-3.7-4.6-7.5-6.5-11.5
					c1.7-1.2,3.4-2.5,5.1-3.8c2.1,3.6,5.9,8.6,6.4,9.4c3.2,4.8,6.6,9.5,10.3,13.9c4.3,5.1,9.1,9.8,14.5,13.8
					c13.7,10,33.7,13.8,50.2,9c13.2-3.9,23.7-14,24.2-27.7c0.2-7.5-4.6-15-10.8-18.9c-5.5-3.4-12.8-3.9-19.3-0.1
					c-5.6,3.3-10.4,10.1-9.4,17.1c0.6,3.6,3.1,6.6,5.9,9.1c2,1.8,5.1,2.4,7.7,2.6c2.3,0.1,4.1-0.4,5.9-1.2
					c-3.3,3.7-8.5,6.2-11.2,6.5c-6.7-2-12.3-8.4-13.1-15.4c-1.9-16.3,14.2-27.6,29.2-27.2C235.6,228.8,241.9,231.6,246.1,236.9z"/>
				<path id="XMLID_1490_" class="st0" d="M238.4,245.1c2.3,3.3,3.7,7.4,3.4,11.5c-0.9,12.8-9.9,21.7-22.2,25.3
					c-16.4,4.8-36.3,0.5-50-9.5c-3-2.2-5.8-4.7-8.4-7.4c-4.8-5-9.2-10.3-13.2-16c-2.7-3.8-5.7-8-8-12.3c1.5-1,3-2,4.6-2.9
					c0.4-0.2,0.8-0.4,1.2-0.6c3.1,6.1,6.4,12.1,10.4,17.7c5.7,7.9,12.9,14.7,21,20.1c2.4,1.6,4.8,3,7.5,4c2.1,0.8,4.7,0.9,6.8,1.7
					c-8.5-3.6-16.6-8.5-23.4-14.8c-8.6-8.1-15.4-18.7-20.5-29.6c2.4-1.2,4.9-2.2,7.4-3.1c3.6,9.3,8,17.7,14.4,25.3
					c10.7,12.7,28.1,23.4,45.2,18.3c9.7-2.9,17.9-11.9,16.4-20.2c-1-5.2-6.5-9-11.5-6.3c-3.7,2-5.9,6.9-1.9,10.6
					c2.7,2.5,7.4,0.5,6.6-3.5c-0.3-1.2-1.5-1.3-1.5-0.1c0,2-2.6,3-4,1.6c-1.6-1.6-1.4-4.5,1.6-6.3c3.8-2.4,7.9-0.2,9,3.8
					c1.4,4.9-3.5,10.6-8.3,12c-6.1,1.8-14.3-3.7-14.3-10.9c0-7.1,5.2-13.8,12-15.8C226.2,235.5,234.1,239,238.4,245.1z"/>
			</g>
		</g>
	</g>
	<g>
		<g id="XMLID_1459_">
			<path id="XMLID_1487_" d="M144.3,80.9c-7.7,1.6-15.1,4.2-22.2,7.7c-9.4,4.6-17.9,10.9-24.8,18.8c-10.6,12-17.7,27.4-19.2,43.3
				c-1.4,15.5,1.8,31.1,7.7,45.4c4.3,10.4,11.2,19.7,15.2,30.2c2.7,7.3,4.9,15.6,2.5,23.2c-2.3,7.4-8.1,14.1-16.3,14.4
				c6-4.2,6.6-13.3-2-19.2c-6.2-4.2-13.3-2.8-18.6,1c-5.8,4.2-8.3,11.2-7.5,18.2c1.9,15.6,16.9,26.3,31.7,27.4
				c17.4,1.2,32.7-8.3,42.2-22.4c9.1-13.6,12-29.9,8.4-45.7c-0.9-3.9-2.9-7.5-4.6-11.1c-6.3-13.7-14.4-27.4-15.4-42.8
				c-0.6-9.4,1.7-18.5,6.9-26.3c9.2-13.9,25.6-20.3,41.8-19.8c3.8,0.1,7.6,0.6,11.3,1.5c6.2,1.6,12,5.3,15.9,10.5
				c4.5,5.8,5,11.9,5.8,18.9c1.8,15.6,0,31.1,1,46.7c0.7,10.7,2,22,7.1,31.6c2.8,5.2,6.4,10,10.7,14c5.1,4.9,11.1,9,17.9,11.3
				c11.9,3.9,23.6,1.2,33.5-6.4c5.1-4,10.2-9.2,13.8-14.7c2.6-4,4.7-8.5,4.2-13.3c-1-10.5-15.7-20.8-25.8-15.3
				c-5.4,2.9-7,9.7-3.9,14.9c3.4,5.7,12.4,7.4,16.2,1.1c0.4,1.7-0.5,3.5-1.3,4.8c-6,9.3-21.2,5.5-26.5-3c-3.5-5.6-3.8-12.7-4.2-19
				c-0.4-6.6,0.1-13.3,0.9-19.9c2-17.8,4.8-34.5-1-52c-5.9-17.8-17.5-33.5-31-42C193.7,79.8,168.1,75.9,144.3,80.9z"/>
			<g id="XMLID_1478_">
				<path id="XMLID_1484_" class="st1" d="M167,80.9c-7.5-0.2-15,0.5-22.3,2c-10.9,2.3-21.5,6.7-30.8,12.9
					c-18.7,12.5-31.7,32.5-33.7,55.1c-1.6,17.3,2.8,35.2,10.4,50.8c3.2,6.6,7.1,12.8,10.3,19.4c3.2,6.6,5.6,13.7,5.6,21
					c0.1,7.3-2.5,14.9-8.1,19.7c-5.5,4.8-14.2,6.1-20.3,2.1c-2.3-1.5-4.3-4-4.1-6.8c0.2-2.8,3.4-5.2,5.8-3.8
					c-1.6-1.8-4.8-1.2-6.3,0.7c-1.4,1.9-1.4,4.7-0.5,6.9c2.2,6.1,9.4,9.5,15.9,8.6c6.4-0.9,12-5.2,15.8-10.4
					c8.3-11.4,7.3-25.4,2.8-38.1c-2.3-6.4-5.4-12.5-8.7-18.4c-3.6-6.4-6.3-13.3-8.4-20.4c-4.7-15.5-6.3-32.5,0.8-47.6
					c13.9-29.2,47.7-46,79.4-44.7c10.3,0.4,20.6,3.2,30,7.9c18.8,9.4,33.8,26.5,37.3,47.6c4,24.6-9.1,49.9-1.7,74.1
					c3.2,10.5,11.1,18,21.3,21.6c8.2,2.9,19,1.5,25.8-4.2c7.3-6.1,7.4-15.8,1.9-21.4c-3.1-3.2-7.2-5.8-11.9-6.4
					c-1.7-0.2-3.6-0.1-5.5,0.3c-6.1,1.3-8.3,9.3-3.4,13.9c4.2,4,9.6,3.1,11.7-1c1.4-2.7-0.5-5.5-3.6-5.1c-1.6,0.2-2-1.4-0.4-1.8
					c4.3-1.1,8.5,3.9,7.9,8.2c-1,6.5-6.2,13.4-18.7,11.6c-5.7-0.8-10.7-5.1-13.8-9.7c-3.7-5.5-4-11.4-4.2-17.9
					c-0.4-12.4,0.6-24.8,3-36.9c2.3-11.7,0.8-23.7-3-35c-5.2-15.6-15.9-31.9-30-40.8C199.6,86.2,183.3,81.3,167,80.9z M236.6,127.8
					c0.7,1.7,1.3,3.5,1.7,5.4c-0.4-2.4-2.2-4.5-3.3-6.5c-1.4-2.7-3.1-5.4-4.8-7.9c-6.7-10.2-16.3-18.6-27.1-24.1
					c-7.5-3.8-15.8-7.2-24.2-8.2c-7.1-0.9-14.2-0.5-21.3,0.5c-14.1,2.1-28.7,4.8-40.5,13.3c-6.5,4.7-12.2,10-17.1,16.4
					c-3.8,4.9-6.8,10.3-10.4,15.3c2.2-5.9,5.4-11.4,9.4-16.3c2.8-3.4,5.8-6.5,9-9.6c1.5-1.5,3.2-2.9,5-4.2c4.3-3,8.6-6,13.4-8.2
					c10.4-4.7,21.8-6.7,33-8.1c7.5-0.9,15-1.2,22.5,0.2c7.6,1.4,15.2,4.3,21.9,7.9c7.3,3.9,14.4,8.7,20.1,14.9
					c3.4,3.7,6.3,7.7,8.9,12C234,122.8,235.5,125.2,236.6,127.8z"/>
				<path id="XMLID_1483_" class="st0" d="M210.4,106.2c-12.1-8.9-26.9-13.5-41.8-14.2c-16-0.8-29.6,4.1-43.7,10.7
					c-14.4,6.7-26.3,18.8-32.5,33.5c-9.8,23.2-2.1,47.5,8.8,68.7c5.4,10.6,11.7,21.5,11.9,33.5c0.1,9.3-3.7,18.6-10.4,25
					c-4.9,4.8-11.8,8.1-18.6,7.1c-6.8-1-13-7.2-12.3-14c-1.8,2.2-2,5.5-0.9,8.1c1.1,2.6,3.3,4.7,5.7,6.2c9.3,5.6,22,2.7,29.6-5
					c7.6-7.7,10.5-19.1,9.8-29.9c-1-15.3-8-29.8-14.6-43.4c-2.5-5.1-5.8-10.1-7.2-15.6c-3.2-13.1-2.7-27.6,3.8-39.5
					c6.6-12.1,16.5-22.3,28.2-29.6c24.3-15.2,60.2-13.7,82.3,5.4c6.1,5.3,10.7,12.4,13.9,19.7c3.9,9,5.3,18.8,5.2,28.5
					c-0.1,9.7-2.8,18.8-3.9,28.3c-0.9,7.4-0.9,15.2-0.8,22.7c0.2,12.4,4,24.8,14.5,32.3c4,2.8,8,5.1,12,6.4
					c8.7,2.9,17.4,1.7,26.4-6.1c-1.7,1.5-7.8,1-10,0.9c-3.2-0.1-6.4-0.7-9.4-1.7c-5.8-1.9-10.9-5.5-14.9-10.2
					c-8.5-10-9.4-22.6-8.7-35.2c0.8-15.5,3.5-31,3.1-46.5C235.3,133.5,225,117.1,210.4,106.2z"/>
				<path id="XMLID_1479_" class="st1" d="M185.9,103.4c-5.2-1.6-10.6-2.7-16.1-3.5c-14.7-2.2-29.6,1.7-42.3,9.3
					c-6.9,4.1-12.2,9.5-17.9,15.1c-5.9,5.9-10.4,13.1-13.1,21c-4.6,13.5-3.3,27.5,2.7,40.3c6,12.8,13.6,25,17,38.9
					c1.8,7.4,2.4,16.7,0,25.6c-2.3,8.6-7.4,16.8-16.9,22.5c-9.5,5.7-19.5,3.5-26.1-3c-1.2-1.1-2.2-2.4-3.1-3.8
					c1.4,4.9,5.6,10.8,15.2,13.1c5.2,1.2,12.3,0.4,19-3.3c6.5-3.5,12.7-9.6,16.4-18.9c4.2-10.5,5-23.4-0.1-42.3
					c-3.9-14.2-11-22.3-14.8-34.6c-8.7-27.8,10.2-54.5,35.2-65.4c21.4-9.3,50.7-7.6,65.7,12.3c7.7,10.2,10.2,23.5,10.2,36.2
					c0.1,12.8-2,25.5-2.2,38.3c-0.2,12.8,1.6,26.1,8.7,36.7c-7.7-9.5-10.3-22.1-10.4-34.3c-0.2-12.2,1.8-24.3,2.2-36.4
					c0.4-12.2-1-24.8-7.2-35.3c-15.9-26.5-53.8-25.4-77.2-10.3c-10.3,6.6-16.6,16-21.7,26.9c-4.7,10-4.5,20.7-1.3,31
					c3.9,12.3,10.7,20.8,14.6,35c5.2,18.9,3.6,32.6-0.6,43c-3.7,9.1-10.1,15.3-16.9,19.1c-7.3,4-15.1,5.2-20.4,3.9
					c-8.4-2-16.6-10.6-16.4-18.5c0.1-5.7,5-12.1,9.8-10.7c5.6,1.6,4.6,7.4,2.5,4.4c-0.9-1.2-1.9-2.1-3.3-1.5
					c-1.1,0.5-2.2,3.4-1.5,4.8c1.8,4.2,7.9,5.9,11.7,2.4c4.6-4.3,1.8-11-3.2-14.7c-4.3-3.1-11.4-2.8-16.9,1.6c-0.7,0.6-1.4,1.3-2,2
					c-4.4,5.3-5.3,13.7-0.9,22c3.5,6.7,8.7,11,15.4,14.2c2,1,4.2,1.7,6.4,2.2c7.1,1.6,14.9,0.8,22-1.8c3.8-1.4,7.4-3.2,10.6-5.5
					c2.2-1.5,4.2-3.2,5.9-5.1c2.2-2.4,4.2-4.8,6-7.4c2.1-3,3.9-6.2,5.4-9.4c6.2-13.5,7.2-30.2,0.5-43.8c-7.3-15-16-29.1-17.1-46.3
					c-1.5-21.8,12.5-40.6,33.4-46.5c10.9-3.1,22.6-2.6,33.4,0.7c14.5,4.5,20,18.8,20.1,32.7c0.1,14.3,0.2,28.6,0.3,42.9
					c0.1,10.9,1.6,22.4,6.8,32.2c2.6,5,6,9.5,10.2,13.5c9.6,9.1,21.4,14.7,34.6,11.4c1.4-0.4,2.9-0.8,4.3-1.4
					c-4.6-0.2-9.2-1-13.4-2.5c-7.4-2.5-13.9-6.7-18.3-11.8c-8.2-9.6-10.4-21.2-9.6-33.5c0.5-7.2,0.6-14.5,1.4-21.7
					c1.6-15.6,5.1-31.4-0.2-46.6c-3.8-11-10.9-20.8-20.2-27.7C196.9,107.6,191.5,105.1,185.9,103.4z M209.8,173.6
					c-0.2-2.1-0.2-4.2-0.1-6.3c0.1-2.9,0.7-5.8,0.8-8.6c0-2.6-0.2-5.2-0.7-7.8c-1-5.1-2.9-10-5.4-14.6
					c-8.7-16.2-29.6-20.4-46.5-17.7c-15,2.4-30.2,11-37.9,24.5c-7.1,12.6-6.9,27.5-2.9,41.1c4.3,14.6,13.1,27.2,15.7,42.4
					c0.8,4.8,1.3,9.7,1,14.6c-0.3,4.7-1.3,10-4.3,13.7c0.7-0.9,1-2.6,1.3-3.7c0.4-1.3,0.8-2.6,1-3.9c0.6-2.6,0.7-5,0.7-7.5
					c0.2-9.9-1.9-19.8-5.7-28.9c-3.4-8.3-7.9-16.1-10.6-24.8c-2.3-7.6-3.8-15.7-3.2-23.7c0.9-13.4,7.3-25.4,18.1-33.5
					c11.6-8.6,25.5-13.1,40-12c7.4,0.6,15,2.2,21.5,5.9c6.8,3.9,11.1,9.4,14.4,16.4c3.3,7,5.1,14.3,4.4,22.2c-0.2,2-0.3,3.9-0.7,5.9
					C210.6,169.3,210.2,171.5,209.8,173.6z M219.3,142.5c2,6.4,3.2,13,3.2,19.7c0,3.7-0.3,7.5-0.8,11.1c-0.5,3.7-1.1,7.2-2,10.8
					c-0.2,0.6-0.3,1.3-0.7,1.8c0-3.3,0.6-6.3,1-9.5c1.4-11,1.7-22.2-1.7-32.9c-4-12.7-11.9-24.5-23.4-31.6
					c-26.1-16.2-61.2-5.6-81.1,15.7c-10.1,10.9-16,24.1-14,39.2c-0.2,0.3,0.3,1.9,0.4,2.3c1,5.9,2.8,11.6,4.9,17.1
					c1.1,2.8,2.2,5.5,3.5,8.2c1.2,2.7,2.1,5.4,3.3,8.1c0.2,0.5,0.5,1.1,0.5,1.7c-2.1-3.4-3.8-6.9-5.5-10.6
					c-4.6-10.4-8.6-21.4-8.6-32.9c0-16.7,9.6-30.9,22.3-41c20.9-16.7,52.9-24,76.3-7.9C207.6,119.2,215.4,130.2,219.3,142.5z"/>
			</g>
		</g>
		<g>
			<g id="XMLID_1401_">
				<path id="XMLID_1456_" d="M180,125c-3.3,0-6.8,0.4-10.3,1.1c-24.8,5-41.3,29-46.1,52.6c-3.8,18.7-0.1,38.7,11.1,54.3
					c6.9,9.6,16.3,17.8,27.5,21.9c7.2,2.7,15.1,4,22.6,1.9c6.3-1.7,12.6-5.3,15.7-11.2c3.6-7,2.8-17-4.3-21.5
					c-6.1-3.9-16.8-1.3-17.9,5.9c-0.7,4.8,1.4,7.1,4.8,8.9c-16.6,0-24.1-10.5-29.6-20c-5.5-9.5-8.9-20.3-9.3-31.2
					c-0.4-12.6,3.3-26.9,11.6-36.5c2.8-3.2,11-9.6,16.7-11.8c-13.8,11.7-3.1,25.5,3.2,28.7c16,8.1,37.6-3.6,34.4-21.7
					C207.9,132.5,193.1,125,180,125z"/>
				<path id="XMLID_1455_" class="st0" d="M157.3,250.6c7,3.8,15.1,5.7,23,4.7c7.4-0.9,15.9-4.3,18.7-11.8c1.3-3.4,1.7-7.4,0.6-10.9
					c-1.6-5.1-6.3-8.4-11.6-7.8c-3.5,0.4-7.8,2.3-8.4,6.2c-0.4,3.1,1.7,6.2,4.8,6.8c1.1,0.2,3.7-0.1,3.9-1.6c0.1-0.5-0.1-1-0.6-1.3
					c-0.3-0.2-0.7-0.3-1-0.4c-2.1-0.9-0.1-3.8,1.2-4.4c1.2-0.5,2.5-0.5,3.7,0c1.3,0.5,2.5,1.5,3.1,2.8c2.6,4.7,0,10.9-4.6,13.2
					c-7.3,3.6-17.5,1.9-24.7-1c-7.6-3.1-14.3-8.4-19.6-14.7c-8.2-9.8-13.5-22-14.7-34.7c-1.2-12.7,1.5-25.7,7.8-36.7
					c6.3-11.1,16-20.1,27.5-25.5c-13.5,6.1-24.1,18.2-29.2,32.1c-5.1,13.9-5,29.6-0.5,43.8c3.7,11.7,10.5,22.6,20.6,29.5
					c5.9,4,12.9,7.2,20,7.6c6.1,0.3,15.3-0.6,17-7.7c0.6-2.6-0.5-5.7-3-6.8c-1.6-0.7-3.9-0.2-4.4,1.4c1.3-0.3,2.6,0.9,2.8,2.2
					c0.2,1.3-0.6,2.7-1.7,3.5c-1.1,0.8-2.4,1.2-3.7,1.4c-5.9,1.1-12.1-0.2-17.2-3.5c-2.2-1.5-4.4-3.7-6.4-5.6
					c-2.1-2-4.1-4.2-5.8-6.6c-1.4-1.9-2.7-3.9-3.8-6c-12.1-21.2-13.6-49.8,3.1-69.1c2.8-3.3,6.1-6.2,9.7-8.5
					c4.2-2.7,9.9-5.1,14.8-6.1c1.8-0.4,3.6-0.6,5.3-0.4c6.5,0.7,12.4,3.6,13.3,10.5c0.8,5.7-2.9,11.3-8.5,13.2
					c-0.9,0.3-1.9,0.5-2.9,0.6c-5.7,0.5-11.1-3.4-9.6-9.3c1.1-4.4,6.3-7.7,10.5-4.7c3.2,2.3,1.8,7-2,6.9c-1.4,0-2.2-1.7-0.9-2
					c1.7-0.5,1.4-2.7,0.1-3.3c-1.7-0.8-4.2,1.6-4.7,3.6c-1.2,4.9,2.6,7.3,7,7.1c0.7,0,1.4-0.1,2.1-0.3c4.9-1.4,7.5-6.9,7-11.3
					c-0.7-6.4-10.6-10.9-17.6-7.9c-9.4,4.1-11.6,13-8.7,19.7c4.4,10,14.9,12.9,21.9,11.3c13.5-3,19.2-14.4,16.1-23.5
					c-4.8-14.2-18.5-21.1-37.6-17.3c-14.7,3-28.3,12.2-39.2,35c-10.4,21.9-8.5,48.8,5.6,68.5c4.1,5.8,9.3,10.8,14.9,15.1
					C153.3,248.3,155.3,249.5,157.3,250.6z"/>
			</g>
		</g>
	</g>
	<g>
		<g id="XMLID_1371_">
			<path id="XMLID_1399_" d="M115.1,136.3c2-3.8,3.5-7.8,4.4-12c4-18.5-4.2-38.7-20.2-49.1c-1.2-0.8-2.4-1.5-3.6-2.1
				c-16.2-8.6-36.4-6.7-50.8,4.6c-11.6,9.1-18.2,23.5-17.7,38.3c0.5,13.1,6.6,25.9,16.7,34.4c0.2,0.2,0.5,0.4,0.7,0.6
				c15.6,12.5,38.6,13.4,55.2,2.4C106.3,149,111.5,143.1,115.1,136.3z"/>
			<g id="XMLID_1372_">
				<path id="XMLID_1396_" class="st16" d="M90.7,110.6c-1.4-4-4.1-7.5-8.2-9.7c-2.5-1.3-5.3-2.1-8.1-2.2c-4.6-0.3-9.5,0.8-13.1,3.8
					c-6,5-7.9,14.4-5.6,21.6c3,9.4,16.5,14.5,25.2,10.7C90.3,130.8,93.8,119.5,90.7,110.6z M79.6,131.2c-10.6,4.6-23.5-4.3-21.5-16
					c0.6-3.7,2.5-7.2,5.4-9.6c6.4-5.3,17.1-4.6,22.2,2.1c0.8,1.1,1.6,2.2,2.1,3.4C91.3,118.6,87.1,128,79.6,131.2z"/>
				<path id="XMLID_1388_" class="st17" d="M85.9,113.9c-1-3.5-3.5-6.6-7.2-8.2c-3.5-1.6-7.8-1.6-11.3,0.1c-5.4,2.6-9,9.4-7.2,15.3
					c2.2,7.4,11.8,11.3,18.7,8.3C85.4,126.5,87.6,119.7,85.9,113.9z M76.8,123.9c-7.6,3.5-15.5-8.6-7.1-12.8
					c3.3-1.7,7.8-0.1,9.8,2.9c0.9,1.4,1.7,2.8,1.5,4.4C80.6,120.7,79,122.9,76.8,123.9z"/>
				<path id="XMLID_1373_" class="st16" d="M117.4,123.9c2.4-11.2,0.4-23.1-5.7-33c-4.1-6.7-10-12.1-17-15.8
					C73,63.5,46,71.8,34.4,93.5c-11.5,21.8-3.2,48.8,18.5,60.3c21.8,11.5,48.8,3.2,60.3-18.5C115.2,131.7,116.6,127.8,117.4,123.9z
					 M79,154.1c-4.7,0.9-9.5,0.8-14.2-0.2c-10.5-2.2-19.9-9.3-25.5-18.4c-5.8-9.3-7.3-20.5-4.4-31c2.3-8.2,7.2-15.5,13.9-20.8
					c-9.7,9.7-16.1,24.9-12.9,39.6c2.6,12.2,11.1,22.7,22.9,27.3c8.3,3.2,17.5,3.5,26.2,1.8C83.1,153.2,81.1,153.7,79,154.1z
					 M97.3,135.8c3.4-6.1,5.2-12.7,5.1-19.7c-0.1-6.5-4-13.5-8.3-18.3C83,85.5,64.3,83.3,51.8,95c-8.7,8.2-12,21.5-8,32.9
					c1,2.9,2.5,5.7,4.4,8.2c4.6,5.9,11.8,10,19.1,11.3c6.9,1.3,14.3,0.2,20.6-3c-5.2,2.6-9.7,4.7-15.7,4.8c-5.9,0-12.1-1.8-17.2-4.9
					c-2.9-1.8-5.6-3.7-7.5-6.5c-2.4-3.5-4.4-7.4-5.8-11.5c-5.1-15.1,4-33.3,18.7-38.7c2.1-0.8,4.5-1,6.7-1.4
					c1.8-0.3,3.7-0.4,5.5-0.4c5.6,0.1,11.1,1.8,15.7,5.2c9.5,7.1,16.5,18.2,14.8,30.5C102.5,126.6,100.7,131.8,97.3,135.8z
					 M49.4,111.2c-2.2,8.5,0.4,14.6,1.1,16.5c0.5,1.4,1.1,3.4,1.9,4.7c-4.3-5.2-6.1-12.4-4.9-19c1.8-10.1,8.4-19.8,19-21.8
					c1.1-0.2,2.2-0.3,3.4-0.4c8.9-0.6,16.8,3.8,22.6,10.5c1,1.1,3.9,3.6,3,5.3c0.4-0.6-2.6-3.8-3-4.3c-1-1.2-2.1-2.3-3.4-3.3
					c-2.7-2.1-5.7-3.6-8.8-5c-7.3-3.2-16-1.9-22.5,2.5C53.3,99.8,50.4,107.4,49.4,111.2z M52.6,119.2c-1.2-10.7,7-21.8,18-22.4
					C84,96,96.2,107.8,93.3,121.6c-1.3,6.3-5.7,12.2-11.7,14.7c-9.7,4-21.2-0.6-26.3-9.2C53.9,124.7,52.9,122,52.6,119.2z
					 M83.2,139.5c11.4-5.7,17.5-17.9,13.9-30.9c5.2,11.7-1.4,26.2-13.6,32.4c-9.2,4.7-24.8,1-29.3-6.5
					C61.9,142,74.6,143.8,83.2,139.5z M95.3,146c-1,1-2.2,2-3.5,2.5c4.7-4.1,8.4-9.1,11.2-14.6c1.3-2.5,2.4-5.1,3-7.9
					c1.8-7.3,1.7-15.3-1.7-22.2c-3.8-7.6-11.9-14.1-19-18.6c-1.1-0.7-2.7-2-4-2.2c1.7,0.2,3.3,0.9,4.8,1.6c8,3.5,15.5,10.1,19.5,18
					C112.8,117.1,106.1,135.3,95.3,146z M102.7,142.3c5.2-5.5,8.7-12.7,9.7-20.2c2-14.6-5.8-31.2-18.4-39c-6.5-4-14.7-5.7-22.2-5.8
					C65,77.2,58.2,78.7,52,81.6c8-5,17.8-6.8,27.1-5.3c8.2,1.3,15.9,5,22.2,10.4c5.7,4.8,9.5,12.6,11.8,19.6
					C117.4,118.7,113.1,134.3,102.7,142.3z"/>
			</g>
		</g>
	</g>
	<g>
		<g id="XMLID_729_">
			<path id="XMLID_1170_" d="M130.2,133c-0.5-0.1-0.9,0.4-0.6,0.9c2.5,4.1,5,9.4,6.8,13.7c2,4.8,3.7,9.7,5.2,14.7
				c2.7,8.7,4.6,17.6,5.5,26.6c0.8,8.2,0.6,16.4-0.4,24.5c-1,8.2-3.4,15.8-5.4,23.8c0-0.1,5-0.6,5.6-0.6c2.1,0.1,4.3,0.4,6.4,0.7
				c-3.8,7.3-8.5,14.1-14.1,19.8l-2.2,2.2l2.8,1.4c8.8,4.5,17,10.1,25.1,15.8c7.4,5.2,14.8,10.4,22,15.6c0.8,0.6,1.6,1.1,2.4,1.7
				c0.1,0.1,0.1,0.1,0.2,0.1c0.2,0,0.3-0.1,0.5-0.2c0.4-0.3,3.3-3.1,3.7-3c1.5-1.2,3-2.5,4.4-3.8c2.9-2.6,5.6-5.4,8.2-8.3
				c5.2-5.8,9.9-12,14.1-18.5c7.7-11.8,14-24.5,19.3-37.5c2.6-6.3,4.9-12.8,7-19.3l0.8-2.5c-3.5-0.6-6.9-1.3-10.4-2.1
				c0.4-0.9,0.6-3.1,1.1-9.2c0.7-9.4,0.7-18.8-0.1-28.2c-0.7-9.4-1.4-18.9-4.1-28c-5.7,1.8-11.5,2.3-17,4.7c0.3-0.1-2.8-6.9-3.1-7.7
				c-3.2,1.8-7.4,2.9-11,3.9c-4,1.1-7.9,1.6-10.9,1.9c-9.5,1.1-19.4,1.8-29,1.1C155.5,136.7,141.7,135.1,130.2,133z"/>
			<g id="XMLID_751_">
				<path id="XMLID_1169_" class="st18" d="M236.2,165.5c-0.2-2.2-0.3-4.4-0.5-6.7c-0.5-6.9-1.1-13.8-2.6-20.6
					c0-0.2-0.5-2.2-0.6-2.2c-2.7,0.4-8.8,1.6-14.5,4.1c4,7.7,10,24.5,12.5,44.7c0.5,4.2,0.8,8.3,0.9,12.5c1.3,0.2,2.5,0.4,3.6,0.5
					c0.5,0.1,1.6-17.8,1.7-19.5C236.8,174.1,236.5,169.8,236.2,165.5z"/>
				<path id="XMLID_1130_" class="st18" d="M224.4,163.7c-0.4-1.5-0.8-3-1.3-4.5c-2.9-8.9-7.1-17.4-10.2-26.2
					c0.2,0.6-8.4,3.3-9.2,3.5c-4.1,1.1-8.1,1.7-12.2,2.1c-9.4,1-18.9,1.4-28.4,1c-5.2-0.2-10.5-0.5-15.7-1.2c-2.3-0.3-4.7-0.7-7-1.2
					c-0.8-0.1-4.3-0.5-6-1c-0.3-0.1-0.6,0.2-0.5,0.6c8,16.3,13.9,33.8,15.6,51.9c0.7,7.8,0.6,16-0.3,23.7c-0.4,3.9-1,7.7-1.9,11.5
					c-0.2,1.1-2.2,10.3-3.1,10.4c2.7-0.1,6.3,0.3,10.2,0.8c2.8-5.7,5.1-11.7,6.8-17.7c-1.8,0.1-3.4,0.2-4.5,0.1
					c-0.3,0.1-0.3-0.6-0.1-0.8c1.4,0.1,3.1,0.1,4.8-0.1c0.1-0.5,0.3-1,0.4-1.5c-1.9,0.2-3.6,0.2-4.8,0.1c-0.3,0.1-0.3-0.6-0.1-0.8
					c1.5,0.1,3.2,0.1,5.1-0.1c0.1-0.6,0.3-1.2,0.4-1.7c-2.1,0.2-4,0.2-5.3,0.1c-0.3,0.1-0.3-0.7-0.1-0.8c1.6,0.1,3.5,0,5.6-0.1
					c0.1-0.6,0.3-1.1,0.4-1.7c-2.3,0.2-4.3,0.3-5.6,0.1c-0.3,0.1-0.3-0.6-0.1-0.8c1.7,0.1,3.7,0,5.9-0.1c0.1-0.6,0.2-1.2,0.4-1.7
					c-2.6,0.2-5,0.3-6.6,0.2c-0.3,0.1-0.4-0.8-0.2-1c2,0.1,4.4,0,6.9-0.2c0.4-2.3,0.8-4.5,1.1-6.7c-2.9,0.3-5.6,0.4-7.3,0.2
					c-0.3,0.1-0.3-0.7-0.2-0.9c2.1,0.1,4.8,0,7.6-0.3c0.1-0.5,0.1-1,0.2-1.5c-3.1,0.3-5.9,0.5-7.7,0.4c-0.3,0.1-0.4-0.7-0.2-0.9
					c2.2,0,5.1-0.2,8.1-0.4c0.1-0.6,0.1-1.2,0.2-1.8c-3.2,0.4-6,0.7-7.9,0.7c-0.3,0.1-0.4-0.7-0.3-0.9c2.3,0,5.2-0.3,8.2-0.7
					c0-0.6,0.1-1.1,0.1-1.7c-3.4,0.5-6.5,0.8-8.4,0.8c-0.3,0.1-0.5-0.7-0.3-0.9c2.4,0,5.6-0.3,8.8-0.8c0-0.6,0.1-1.2,0.1-1.8
					c-3.5,0.5-6.7,0.8-8.6,0.8c-0.3,0.1-0.4-0.7-0.3-0.9c2.5,0,5.7-0.4,8.9-0.8c0.1-2.9,0.1-5.6,0-8.2c-4.2,0.4-7.9,0.7-9.6,0.6
					c-0.3,0.1-0.5-0.7-0.3-0.9c2.1,0,5.7-0.3,9.8-0.7c0-0.4-0.1-0.9-0.1-1.3c-4.4,0.3-8.1,0.6-9.9,0.5c-0.3,0.1-0.5-0.6-0.3-0.8
					c2.3,0,6-0.2,10.1-0.6c-0.1-0.6-0.1-1.2-0.2-1.8c-4.4,0.4-8.1,0.7-9.9,0.6c-0.1,0-0.2,0-0.2-0.1c-0.1-0.2,0-0.5,0.1-0.6
					c2.3,0,5.9-0.3,9.9-0.6c-0.1-0.5-0.1-1-0.2-1.4c-4.6,0.5-8.5,0.8-10.3,0.8c-0.3,0.1-0.3-0.6-0.1-0.8c2.3-0.1,6.1-0.4,10.2-0.9
					c0-0.2,0-0.3-0.1-0.5c0.1,0.1,0.3,0.3,0.4,0.4c3.1-0.3,6.1-0.7,9.2-1c2.8-0.3,5.7-0.7,8.5-1c2.8-0.3,5.6-0.8,8.4-1.2
					c3-0.5,6-0.9,9-1.4c2.5-0.4,5-0.9,7.5-1.4c1.1-0.2,2.3-0.4,3.4-0.7l0.1,0.7c-1.2,0.3-2.5,0.5-3.8,0.8c-2.5,0.5-5.1,1-7.6,1.4
					c-3,0.5-6.1,0.9-9.2,1.4c-2.5,0.4-5,0.8-7.5,1.1c-2.7,0.4-5.3,0.7-8,1c-3,0.4-6.1,0.7-9.1,1.1c0.5,0.4,1.1,0.8,1.8,1.3
					c3.2-0.3,6.4-0.7,9.7-1c2.7-0.3,5.4-0.6,8.2-1c3.4-0.4,6.7-1,10.1-1.5c0.6-0.1,1.3-0.1,1.9-0.2c0.5-0.1,1-0.2,1.5-0.2
					c1.1-0.2,2.3-0.4,3.4-0.6c2.2-0.4,4.4-0.8,6.7-1.2c0.8-0.1,1.6-0.3,2.4-0.4l0,0.6c-1,0.2-1.9,0.4-2.9,0.6
					c-1.9,0.4-3.9,0.7-5.8,1c-2.3,0.4-4.5,0.8-6.8,1.2c-3.4,0.5-6.9,0.9-10.3,1.4c-2.4,0.4-4.8,0.6-7.3,0.9c-3.2,0.4-6.4,0.7-9.7,1
					c0.8,0.5,1.7,1.1,2.7,1.6c3.3-0.3,6.6-0.7,10-1.1c2.9-0.4,5.8-0.9,8.8-1.4c2.7-0.4,5.4-0.8,8.1-1.3c2-0.3,4-0.7,6-1
					c1.8-0.3,3.7-0.6,5.5-1c0.4-0.1,0.8-0.1,1.3-0.2l0,0.6c-0.4,0.1-0.8,0.2-1.2,0.2c-1.8,0.3-3.6,0.7-5.4,1c-2,0.4-4,0.7-6,1.1
					c-2.6,0.5-5.3,1-7.9,1.4c-2.7,0.5-5.5,0.9-8.2,1.2c-3.2,0.4-6.4,0.8-9.6,1.1c0.6,0.4,1.2,0.7,1.9,1.1c5.8-0.6,24.2-3.4,26.3-3.7
					l0.4,0.5c-1.9,0.4-20,3.2-25.4,3.8c2.7,1.4,5.7,2.9,8.8,4.3c2.9-0.5,24.5-3.3,26.1-3.6l0.1,0.6c-1.3,0.3-22.5,3-25,3.5
					c1,0.4,2,0.9,3.1,1.3c2.5-0.5,21.3-2.5,22.7-2.8l0.1,0.6c-1.2,0.3-19.5,2.3-21.6,2.7c6.2,2.4,12.3,4.6,18.7,6.3
					c5.3,1.4,17.3,4.3,20.5,4.8C229.1,185.8,227.2,174.5,224.4,163.7z M149.3,152.1c9,0.1,16.2-0.2,22.4-0.8
					c12.3-1.1,21-3.5,33.3-6.7l0.1,0.8c-7,2.3-13.2,3.9-19.1,5c-12.8,2.5-23.7,2.8-36.5,2.5C149.3,153.1,149.1,152.3,149.3,152.1z
					 M150,155.4c15.1,0,25.8-1.3,36.3-3.4c6.3-1.3,12.5-2.9,19.6-4.7l0.1,0.7c-13,3.7-24.4,6.1-35.6,7.3c-6.7,0.7-13.3,1-20.1,1
					C150,156.3,149.9,155.6,150,155.4z M150.8,157.9c6.5-0.1,13.1-0.5,19.8-1.2c12-1.3,24.1-3.6,36.1-6.8l0.1,0.8
					c-0.3,0.1-0.6,0.2-0.9,0.3c-20.3,5.8-39.6,7.3-54.8,7.7C150.8,158.9,150.7,158.1,150.8,157.9z M152.5,160.9
					c13.2-0.4,27-1.4,42.3-4.4l0.1,0.6c-14.5,3.2-30.1,4.3-42.1,4.6C152.5,161.8,152.3,161.1,152.5,160.9z M153.6,164.4
					c-0.3,0.1-0.5-0.7-0.3-0.8c13.2-0.5,26.8-1.9,39.1-3.9l0.2,0.6C179.2,162.7,162.3,163.9,153.6,164.4z M199,166.1
					c-0.7,0.1-3.5,0.6-5,0.9c-1.2,0.3-5.4,0.7-6.2,0.8c-1.9,0.2-27.9,3.7-32.8,3.6c-0.3,0.1-0.5-0.7-0.3-0.8
					c6.5-0.3,48.5-5.3,56-7.4l0.1,0.7C208.4,164.4,203.7,165.3,199,166.1z"/>
				<path id="XMLID_752_" class="st19" d="M244.6,202.6c-9.1-1.6-26.4-6.4-29.2-7.1c-4.6-1.1-9.1-2.3-13.6-3.6
					c-8.9-2.6-17.5-5.8-25.7-9.9c-0.8-0.4-7.3-3.1-7.4-4c1,25.5-7.4,59.8-27.9,80.6c7.6,3.9,21.1,13.2,31.6,20.4
					c5.7,3.9,11.2,8.5,17.2,11.9C222,266.6,239,220.3,244.6,202.6z M216,240.8c-0.1,0-0.1,0.1-0.2,0.2
					c-10.1-2.2-38.6-13.5-43.2-15.3c-0.4-0.1,0-1,0.2-1.1c6.1,2.5,33.8,13.6,43.5,15.6c0,0.2,0,0.3-0.1,0.5
					C216.2,240.7,216.1,240.8,216,240.8z M218.8,236c-7.5-2-40.5-14-45.3-16c-0.4-0.1,0-1,0.3-1.1c6.2,3.1,38.9,14.1,45.7,16.2
					C219.4,235.4,219.2,235.8,218.8,236z M177.1,205.4c-0.4-0.1,0-1.3,0.3-1.4c6.4,2.6,40.4,13.5,45.6,14.8l-0.3,0.8
					C217.5,218.6,182.4,207.5,177.1,205.4z M219.8,221.5l-0.3,0.8c-5.3-1-37.9-11.3-43.1-13.4c-0.4-0.1,0-1.1,0.3-1.2
					C183.3,210.9,214.5,220.2,219.8,221.5z M175.9,210.5c6.6,3.3,35.3,12.2,40.5,13.9l-0.3,0.8c-5.2-1.1-35.3-11.3-40.5-13.4
					C175.3,211.6,175.7,210.6,175.9,210.5z M178.9,197.5c6.7,2.6,45.3,14.9,50.6,16.5l-0.3,0.8c-11-2.4-45.3-14-50.6-16.1
					C178.2,198.7,178.6,197.6,178.9,197.5z M177.7,200.9c6.6,3.2,43.3,14,48.5,15.3l-0.3,0.8c-5.3-1-43.3-12.7-48.5-14.8
					C177,202.1,177.4,201,177.7,200.9z M173.1,221.1c6.3,2.9,36.3,14.1,44.7,16.5c0.1,0.4-0.1,0.7-0.4,0.9
					c-7.6-2.1-39.8-14.3-44.6-16.4C172.5,222.1,172.9,221.2,173.1,221.1z M171.4,227.2c6.2,2.5,34,14,43.8,16.1
					c0,0.2,0.1,0.5-0.1,0.7c0,0.1-0.1,0.1-0.2,0.1c-10-2.1-39-14-43.8-15.9C170.8,228.3,171.1,227.3,171.4,227.2z M170.4,230.2
					c6.1,2.5,34,13.8,43.8,16.3c0,0.3,0.1,0.6,0,0.8c0,0,0,0.1-0.1,0.1c-10.3-2.3-39.2-14.3-43.9-16.2
					C169.8,231.2,170.2,230.3,170.4,230.2z M168.9,236c8.8,3.5,26.5,12.3,34.6,15.7l-0.1,0.9c-8-3.5-29-13.3-34.8-15.6
					C168.2,237,168.6,236.1,168.9,236z M167.9,238.8c8.1,3.5,29.7,13.6,36.5,16.7l-0.1,0.8c-8-3.5-30.3-13.6-36.8-16.4
					C167.2,239.8,167.7,238.9,167.9,238.8z M166.9,241.4c8.2,4.4,30.8,13.9,39.3,17.3l-0.1,0.9c-8.1-3.2-32.2-13.2-39.5-17.2
					C166.2,242.4,166.7,241.5,166.9,241.4z M165.8,243.4c10.4,5.7,31.8,14.8,40.2,18.2l-0.1,0.9c-8.1-3-32.8-13.8-40.5-18
					C165.1,244.4,165.5,243.5,165.8,243.4z M165,245.6c10.4,5.7,34.4,17.2,42.8,20.6l-0.3,0.7c-8-3.3-30.7-13.5-42.5-20.2
					C164.5,246.7,164.7,245.7,165,245.6z M161.3,250.9c9.8,5,31.6,16.6,39.2,20.6l-0.4,0.8c-9.7-5.6-27.5-13.6-39.2-20.5
					C160.6,251.7,161.1,250.9,161.3,250.9z M159.8,253c8.1,5,29.1,15,36.7,19.5l-0.4,0.7c-9.7-5.6-25-12.4-36.7-19.2
					C159,253.8,159.5,253,159.8,253z M158.6,255.2c10.4,6.5,28.3,15,35.6,19.1l-0.6,0.5c-9.5-5.4-23.2-11.1-35.5-18.7
					C157.9,256,158.4,255.2,158.6,255.2z M188.5,278.2c-9.5-5.4-20.1-10.4-32.4-18c-0.4-0.1,0.1-0.9,0.4-0.9
					c10.4,6.5,25.2,14.3,32.6,18.3L188.5,278.2z M157.4,258.3c-0.4-0.1,0.1-0.9,0.4-0.9c10.5,6.5,27.3,14.6,34.7,18.6l-0.6,0.5
					C182.4,271.1,169.6,265.9,157.4,258.3z"/>
			</g>
		</g>
	</g>
	<g>
		<g id="XMLID_599_">
			<path id="XMLID_727_" d="M88.4,360.4c9.9,2.9,19.9-1.8,28.4-6.5c11.3-6.3,22-13.5,31.5-22.4c6.2-5.7,12.2-12,17.2-18.7
				c3.4-4.5-1.4-10.8-3.2-13.2c-11.5-15.2-17.4-22.3-27-34l-0.9-1c-5.5-6.6-11.4-13.7-17.1-20.5c-7.1-8.4-14.2-19.1-26-20.8
				c-10-1.4-18.1,4.4-25.8,10c-15.1,11.1-28,21.5-39.4,31.7c-0.5,0.4-2.8,2.9-2.9,3c-2.3,2.4-4.5,4.3-3.4,7.8
				c5.3,17.1,29.8,50.7,48.1,69.3c4.9,5,9.9,9.7,15.9,13.4C85.2,359.3,86.8,359.9,88.4,360.4z"/>
			<g id="XMLID_600_">
				<path id="XMLID_722_" class="st20" d="M132.7,265.9c-8.2-10-17.4-20.8-25.7-30.7c-3.4-4-5.7-5.6-10.3-2.1
					c-11.2,8.7-34.3,25.3-49.4,39c-5.6,5.1-6.1,6.8-2.5,12.9c13.5,22.4,47.1,57.9,64.1,69.3c16.5-5.7,40.3-23.8,54.7-42.8
					c2.3-3-1.2-7.9-3.2-10.5C148.7,285.4,142.9,278.4,132.7,265.9z M69.4,270c1.8-10.4,12.1-17.4,22.1-15.7
					c4.9,0.8,9.5,3.8,12.8,7.8c3.1,3.8,4.8,8.6,4.2,13.5c-1.3,10.4-13,18.3-23.1,16.6C75.3,290.4,67.4,281.3,69.4,270z M56.4,281.9
					c-1.1,0.6-3,1.5-5.3-2c-2-3-1.3-4.1,0.4-5.4c2-1.6,4.5-3,6.5-4.1c2-1.1,3.4-1.3,5.4,1.8c1.4,2.2,0.8,4-0.9,5.3
					C60.6,279,58.4,280.8,56.4,281.9z M142.8,308.5c0.4,4.7-0.7,9.5-3.5,13.9c-6.8,10.7-22.6,19.2-35.1,13.8
					c-12.5-5.4-16.9-20.9-11.7-32.8c5.2-11.8,19.5-20.4,32.3-16.7C135.1,289.6,142.1,298.7,142.8,308.5z"/>
				<path id="XMLID_719_" class="st21" d="M118.4,288.3c-9.1-0.2-18.3,5.3-22.6,13.3c-4.2,7.8-4,18.2,1.5,25.3
					c9.1,11.7,25.7,9.2,35.7-0.3c5.6-5.4,8.1-13.8,6.3-21.4c-1.8-7.6-7.9-14-15.4-16.2C122.1,288.6,120.3,288.3,118.4,288.3z
					 M133.8,301.5c1.2,2.2,2,4.6,2.3,7.1c1,10.1-8,17.8-16.7,20.8c-7.1,2.5-14.9,1.1-19.6-5.1c-4.5-5.9-4.9-14.2-1.7-20.6
					c3.6-7.2,12.4-12.3,20.4-11.8c3.1,0.2,6.2,1.2,9,2.8C130,296.4,132.3,298.8,133.8,301.5z"/>
				<path id="XMLID_707_" class="st22" d="M103.4,300.2c-3,3-5.1,6.9-5.5,11.3c-0.4,4.1,0.6,8.4,3.2,11.7c3.9,5,10.1,6.4,16.1,4.9
					c6.4-1.6,13.2-5.9,15.8-12.3c2.3-5.5,0.8-11.9-3.2-16.2c-4.6-4.9-10.9-6.3-17.2-4.6C109.1,295.9,105.9,297.8,103.4,300.2z
					 M128.4,306.6c1.4,4.4-1,9.6-4.2,12.6c-4.9,4.5-13.2,5.6-17.6-0.1c-4.5-5.9-2-14,4.3-17.4C116.6,298.6,126.2,299.7,128.4,306.6z
					"/>
				<path id="XMLID_706_" class="st20" d="M107.4,308.3c-1.5,3.2-1.6,7.1,0.5,9.8c2.2,2.8,5.5,3.7,8.9,2.9c0.9-0.2,1.8-0.5,2.6-1
					c2.9-1.4,5.4-3.8,6.6-6.9c1.6-4.3-0.7-9.9-5.4-11c-3.2-0.8-7,0.2-9.7,2C109.4,305.1,108.2,306.6,107.4,308.3z"/>
				<path id="XMLID_705_" class="st21" d="M78.4,345.6c4.1,4.3,8.7,9,13.7,13c0.9,0.2,1.9,0.4,3,0.4c-4.6-4.5-8.1-9.1-10-12.3
					c3.6,3.6,7.7,8.3,12.1,12.2c0.8-0.1,1.7-0.3,2.5-0.5c-3.7-3.6-6.5-7.2-7.6-9.6c2.8,2.8,6.2,6.3,9.3,9.1c1.4-0.3,3.8-1.5,4.1-1.9
					c-19.6-13.9-58.6-60.6-67.2-76.4c-1.9-2.1-13.3-4.9-16.4-4.6c5.1,16.4,28.9,49.4,47.5,68.4c8,8.2,15.1,13.8,19.4,14.4
					C83.9,353.3,79.8,348.7,78.4,345.6z"/>
				<path id="XMLID_628_" class="st21" d="M91.1,256c-9.2-1.6-18.5,4.8-20.1,14.3c-1.8,10.3,5.4,18.6,14.5,20.2
					c9.2,1.6,19.3-5.4,20.4-14.9c0.8-6.2-3-13.2-8-16.8C95.9,257.4,93.6,256.4,91.1,256z M101.2,268.5c0.1,0.4,0.2,0.8,0.3,1.2
					c1.1,4.7,0.2,10.1-3.3,13.7c-3.4,3.4-8.4,5.1-13.1,4.3c-7.7-1.3-12.3-7.8-10.9-16.2c1.3-7.7,8.6-12.8,16.2-11.5
					c0.2,0,0.4,0.1,0.6,0.1C95.6,261,99.7,264.2,101.2,268.5z"/>
				<path id="XMLID_613_" class="st22" d="M90.2,261.6c-6.7-1.1-13.1,3.4-14.2,10.1c-1.1,6.7,2.8,13.1,9.5,14.2
					c6.7,1.1,13.5-3.4,14.6-10.1C101.2,269.1,96.9,262.7,90.2,261.6z M93.6,274.5c-0.9,3-3.9,4.8-6.7,4.1c-2.8-0.7-4.3-3.7-3.5-6.6
					c0.9-3,3.9-4.8,6.7-4.1C93,268.5,94.5,271.5,93.6,274.5z"/>
				<path id="XMLID_612_" class="st20" d="M90.1,269.8c-1.6-0.7-3.6,0-4.4,1.7c-0.8,1.7-0.2,3.6,1.4,4.3c1.6,0.7,3.6,0,4.4-1.7
					C92.3,272.5,91.7,270.5,90.1,269.8z"/>
				<path id="XMLID_611_" class="st23" d="M22.4,272.1c3.1,0.9,7.4,2,11,2.9c5.3,1.4,7.8-0.2,11.8-3.8
					c13.8-12.5,42.1-34.3,54.2-42.1c-1.2-0.8-2.5-1.4-3.7-1.9c-3.6,2.4-7.1,5-10.5,7.5c2.2-2.3,5.4-5.2,9.1-8.1
					c-0.7-0.2-1.3-0.4-1.9-0.6c-4.6,3-9.1,6.3-13.5,9.5c2.7-2.8,6.7-6.3,11.5-9.9c-1.1-0.2-2.2-0.3-3.3-0.3
					c-4.9,3.2-9.8,6.7-14.5,10.2c2.7-2.8,6.7-6.4,11.6-9.9c-6.3,1-10.7,4.6-12.1,5.5c-1.9,1.3-3.7,2.6-5.5,3.9
					c-13.5,9.9-26.8,20.4-39.2,31.6C27.1,267,22.3,272,22.4,272.1z"/>
				<path id="XMLID_606_" class="st24" d="M58.2,271.7c-1.4,0.8-3.6,1.8-5,2.9c-1.2,0.9-1.6,1.6-0.3,3.6c1.6,2.4,3.2,1.4,4,1
					c1.4-0.8,3-1.7,4.2-2.8c0.9-0.8,1.5-2.2,0.5-3.7C60.3,270.6,59.6,271,58.2,271.7z"/>
			</g>
		</g>
	</g>
	<g>
		<g id="XMLID_497_">
			<path id="XMLID_592_" d="M216.2,106c-2.6,3.5-4.1,7.7-3,11.7l0,0.1c0.7,2.2,3.7,8.9,7.4,17.3c3,6.8,6.5,14.5,9,20.5
				c-0.2-0.5-3.5,0.1-3.9,0.2c-11.3,2.2-19.8,14.1-20.8,25.2c-0.2,2.2-0.1,4.4,0.7,6.4c2.1,5.3,8,5.6,12.7,4c5.1-1.8,9.5-5.3,13-9.3
				c4.7-5.4,8.8-12,9-19.3c0.2-7.5-4.2-14.7-7.4-21.2c-1.4-2.8-2.7-5.5-3.7-7.9l0.7-0.9c4.1-5.1,11.5-4.9,17.4-4.1
				c8.3,1.1,17.4,2.8,24.7-2.4c2.2-1.5,4.2-3.7,5.9-6.3l0.2-0.4l0.1-0.4c0.3-1.4,1-6.1,0.2-8.5l-0.6-1.6c0.1-4.1-0.6-7-2.4-9.7
				l-0.6-0.9c-0.3-0.4,0-2-0.1-2.5c-0.4-4-1.7-7.5-4.5-10.6c-0.4-0.4-0.8-0.8-1.3-0.9c-0.7,4.8-2.8,9.1-7.6,10.5
				c-4.3,1.2-9.1,0.9-13.5,0.8c-1.8,0-3.6-0.1-5.4-0.1c-6.5,0-13.2,0.6-18.9,3.9C220.9,101,218.2,103.3,216.2,106z"/>
			<g id="XMLID_584_">
				<path id="XMLID_591_" class="st25" d="M276.7,118.1c0.4-2,0.8-5.9,0.3-7.5c-9.8,13.4-25,6.8-37.1,6.5c-5.9-0.2-11.1,1.2-14.6,7
					c1,2.3,2,4.6,2.9,6.8c10.5-13.1,29.8,2.5,43.2-7C273.2,122.5,275,120.6,276.7,118.1z"/>
				<path id="XMLID_590_" class="st26" d="M230.4,106.9c-3.9,1.1-7.1,3.4-9,8.3c0.9,2,1.8,4.1,2.7,6.3c3.9-4.9,9.5-6.1,15.7-6
					c12.9,0.2,28.3,5.8,36.4-7.1c0.2-3.5-0.3-6.3-2.1-9C264.1,114.2,243.3,103.5,230.4,106.9z"/>
				<path id="XMLID_589_" class="st27" d="M217.7,106.4c0.6,1.5,1.4,3.5,2.4,5.7c2.6-3.7,6.1-5.6,10.1-6.5l0,0
					c14.2-3.2,34.5,6.1,42.9-8.1c0.2-3.5-0.6-6.8-2.5-9.4C264,106.8,232.5,86.4,217.7,106.4z"/>
				<path id="XMLID_588_" class="st27" d="M231.9,155.3c0.7,1.7,1.8,2.5,2,4.5c-4.2-5.1-14.7-1.6-21.8,7.7
					c-2.8,3.6-4.7,7.7-5.5,12.2c-0.5,3.2-0.4,7.4,2.5,9.6c4.1,3.2,13.6-0.6,20.5-8.5c4.2-4.9,8.6-11.5,8.8-18.1
					c0-1.2-0.1-2.4-0.4-3.6c-1.6-7-7.8-17.9-11.2-25.8c-4.2-9.8-8.8-20-10.4-24.4c-0.1,0.1-0.2,0.2-0.2,0.2c-1,1.1-2.1,3.3-1.2,7.2
					C216.3,120.5,226.5,142.2,231.9,155.3z"/>
			</g>
		</g>
	</g>
	<g>
		<g id="XMLID_468_">
			<path id="XMLID_495_" d="M159.4,447.8c0.6-0.5,1.2-1.1,1.7-1.7c4.7-5.3,12.9-15.7,18.5-23.1c0,0,2.2-2.9,2.2-2.9
				c3.1-3.5,7.3-8.3,4.7-13.3c-1-2-3.2-4.2-5-6c-0.5-0.5-1-1.1-1.5-1.5c-2.5-2.7-5.6-5.5-7.8-7.4c-2-1.8-10.1-8.2-15.5-12.5
				c-1.6-1.3-2.9-2.3-3.6-2.8l-1.7-4.9c-0.7-1.9-2.2-6.5-2.5-7.9c-0.6-2.9-1.4-9.2-2.5-16.4c-1.4-9.9-3-19.8-4.7-29.7
				c-0.6-3.7-1.3-7.5-2-11.2c-0.6-3-1.5-6.6-3.9-8.7c-1.1-0.9-2.4-1.4-3.8-1.3c-3.4,0.2-4.6,3.6-4.6,6.6c0,5.7,2.2,11.9,3.5,17.4
				c2.8,12.3,9.5,31.4,8.6,39.9c-4.9-11.6-11.9-31.1-17.1-48.9c-0.9-3-2.4-6.3-6-6.3c-7.4-0.1-5.3,9.3-3.7,13.6
				c2.9,8,6.2,15.8,9.7,23.5c2.2,4.8,4.5,9.5,6.7,14.3c0.7,1.5,1.4,2.9,2,4.2c-3.5-2.4-7.1-4.8-11-6.6c-1.8-0.8-4.5-2-6.5-0.9
				c-5.8,3.3-9.4,10.5-13.3,15.7c-4.1,5.5-8.1,11.1-12,16.8l-0.4,0.6l0,0.8c0.1,2,1.1,4.9,3.1,8.6l0,0c9.3,17,22.6,31.4,39.1,41.6
				c4.6,2.9,9.7,5.4,14.7,7.6c2.6,1.2,5.3,2.2,8,3.3c1.9,0.7,3.6,1.6,5.4,0.1C158.8,448.3,159.2,448,159.4,447.8z"/>
			<g id="XMLID_469_">
				<path id="XMLID_494_" class="st21" d="M115,355.6c-1,0.9-0.7,3.2,0.6,6.2c3.3,7.6,13.1,20.2,24.8,30.1
					c6.4,5.4,13.5,10.1,20.8,14c3.2,1.7,6.4,3.2,9.7,4.5c3,1.1,6.5,2.6,9.7,2.6c1.4,0,3-0.3,3.9-1.5c0.7-1,0.6-2.5,0-3.6
					c-1.3-2.4-4.2-5-6.1-7.1c-2.4-2.6-5.4-5.4-7.6-7.3c-2.7-2.4-18-14.4-19.5-15.6c1,8.4-4.6,8.4-6.8,7.8c-3.8-1-6.2-5.5-7.1-10
					c-0.3-1.4-0.4-2.7-0.3-4c-1-1.7-2.2-4-3.6-6.7C124,358.3,116.7,353.9,115,355.6z"/>
				<path id="XMLID_493_" class="st28" d="M179.8,419.1c1.2-1.3,2.3-2.6,3.3-3.9c-14.1-1.2-32.7-12.8-44.5-22.8
					c-11.5-9.7-21-22-24.6-30.3c-0.8-1.9-1.3-3.6-1.4-5.1c-0.9,1-2,2.5-3.5,4.4c1.1,6.3,9.9,19.8,21.7,31.2c1.7,1.6,3.4,3.2,5.2,4.7
					C147.9,407.3,166.4,417.2,179.8,419.1z"/>
				<path id="XMLID_492_" class="st29" d="M146.8,408.6c-3.1,10-6.8,22.6-8.7,29.5c0,0,0,0,0,0c0.5-0.4,1.3-1.1,2.2-1.9
					c5.1-4.3,15.2-13.1,22.6-19.2c-1.3-0.6-2.7-1.2-4.1-1.8c-4.7,3.7-9.3,7.6-11.1,9c0.6-3.2,1.6-8.4,2.7-13.4
					C149.2,410.1,148,409.3,146.8,408.6z"/>
				<path id="XMLID_491_" class="st29" d="M122.9,423c-0.4,1-0.7,1.9-1,2.7c4.6-3.7,17.7-13.7,23.6-18c-1-0.7-2-1.4-3-2.1
					c-4,2.9-8.6,6.3-10.5,7.9c0.7-3.6,2-9.1,3.2-14.1c-1.1-1-2.1-2-3.1-3C131.6,398,123.2,422.2,122.9,423z"/>
				<path id="XMLID_490_" class="st30" d="M139.7,369.8c-1.4,1.6-1.2,3.9-0.8,5.5c0.1,0.3,0.1,0.6,0.2,0.8c1.7,6.4,5.1,8.9,8.2,7.3
					c2.7-1.4,2.5-8.9-5-13.5c-6.1-13.4-15.2-35.5-21.7-58c-0.3-1-0.6-1.8-0.9-2.5c-1.1-2.2-2.3-2.5-4.1-2c-2.2,0.6-2.8,2.5-1.5,7
					c4.7,16.3,19.5,44.4,23.9,55.1C138.5,369.8,139.3,369.7,139.7,369.8z"/>
				<path id="XMLID_483_" class="st21" d="M124.3,430.6c4.4-3.2,9-6.7,11.6-8.5c-0.5,3-1.4,8.9-2.3,14.8c1,0.6,1.9,1.1,2.9,1.6
					c0.1-0.2,0.1-0.5,0.2-0.7c1.9-7.7,5-18.4,7.6-27.1c-6,4.4-17.3,13-23.2,17.6C122.2,429,123.2,429.8,124.3,430.6z"/>
				<path id="XMLID_482_" class="st29" d="M141.8,363.2c0.7,1.5,1.3,2.9,1.9,4.3c1.7,1.2,4.1,3.6,6,5.7c-0.5-1.4-2.5-7.2-2.9-9.2
					c-1.1-5.4-3.1-21.7-5.1-34.7c-1.4-8.7-3-17.6-5-25.5c-0.8-2.9-2.1-5.5-4.3-5.3c-0.8,0.1-1.5,0.4-2,1.3c-0.7,1.3-0.8,3.5,0.1,7.3
					c2.3,10.3,4.7,20.6,7,30.8c1,4.4,2.2,8.7,3.1,13.2c0.4,2.3,0.7,4.6,1,6.9C141.8,359.5,141.3,361.9,141.8,363.2z"/>
				<path id="XMLID_481_" class="st29" d="M132,435.8c0.9-4.4,1.7-8.6,2.2-11.1c-2.1,1.5-5.4,4-8.8,6.6
					C127.5,432.9,129.7,434.5,132,435.8z"/>
				<path id="XMLID_480_" class="st29" d="M108.1,365.5c-3.7,9-9.2,22.9-11.2,27.9c3.3-1.9,12.9-7.7,20.8-12.2
					c-0.8-1-1.5-1.9-2.2-2.8c-4.3,2.3-8.8,4.8-10.8,6c0.9-2.8,3.3-8.6,5.6-14C109.4,368.7,108.7,367.1,108.1,365.5z"/>
				<path id="XMLID_478_" class="st29" d="M129.5,394c-0.7-0.7-1.3-1.3-2-2c-1.3,0.7-9.9,5.8-13.5,8c1-2.5,5.9-12.6,6.9-15
					c-0.7-0.8-1.4-1.6-2.1-2.4c-1.5,2.7-11.3,22.1-13,25.2c0.3,0,23.5-11.9,24.8-12.6C130.3,394.8,129.9,394.4,129.5,394z"/>
				<path id="XMLID_477_" class="st21" d="M106.5,365.1c-5.1,6.6-11.6,15.6-15.9,22.1c0.1,1.9,1.4,5,3.4,8.9
					C96.8,389.2,103.4,372.6,106.5,365.1z"/>
				<path id="XMLID_476_" class="st21" d="M122.2,406.4l-6.1,17.4c1.3,1.1,2.6,2.3,4,3.4c0.5-1.4,1.1-3,1.7-4.6
					c0.1-0.4,8.5-24.6,8.9-25.9c-1.1,0.6-24.6,12.7-26.6,13.7c0.8,1.2,1.7,2.4,2.9,3.9L122.2,406.4z"/>
				<path id="XMLID_475_" class="st29" d="M115.1,422.9l5-14.2l-12.5,6.5C109.5,417.4,112.1,420.1,115.1,422.9z"/>
				<path id="XMLID_474_" class="st21" d="M116.6,383.5c-8.2,4.7-18.2,10.9-22.2,13.2c0.2,0.3,1,1.6,2.1,3.2c3.1-2.1,11-7.4,11-7.4
					l-7,13.2c0.9,1.3,1.9,2.5,2.6,3.4C107.7,400.4,115.4,385.9,116.6,383.5z"/>
				<path id="XMLID_473_" class="st29" d="M105,395.4c0,0-5.6,3.8-7.9,5.3c0.9,1.3,1.9,2.7,2.9,4.1L105,395.4z"/>
				<path id="XMLID_472_" class="st29" d="M165.4,417.9c0,0,8.8,3.1,12.5,3.7c-5.9,7.8-13.9,17.9-18.4,22.9L165.4,417.9z"/>
				<path id="XMLID_471_" class="st21" d="M155.8,430.6l-2.7,15.4c1.6,0.6,3.1,1.1,4.3,1.4c0.8-3.4,4.7-24.9,5.6-28.4
					c-6.5,5.3-15.4,12.8-21.4,17.9c-0.9,0.7-2.3,1.8-3,2.4c0.9,0.5,2.3,1.2,3.9,2L155.8,430.6z"/>
				<path id="XMLID_470_" class="st29" d="M153.3,434.7l-9.3,7.4c2.3,1.1,4.9,2.3,7.4,3.2L153.3,434.7z"/>
			</g>
		</g>
	</g>
	<g>
		<path d="M305.3,104.8c2.1,0.8,4.3,0.4,6.1-1c1.1-0.8,1.8-2,2.2-3.3c1.1-3.5-0.8-7.3-4.2-8.5c-2.1-0.7-4.3-0.4-6.1,1
			c-1.1,0.8-1.8,2-2.2,3.3C300,99.7,301.9,103.5,305.3,104.8z"/>
		<path class="st0" d="M311.4,95.5c1.4,2.3,0.8,5.4-1.5,6.9c-2.2,1.6-5.2,1-6.6-1.2c-1.4-2.3-0.8-5.4,1.5-6.9
			C307,92.7,310,93.3,311.4,95.5z"/>
	</g>
	<g>
		<g id="XMLID_465_">
			<polygon id="XMLID_467_" points="290.5,383.4 299.9,361.4 278.9,368.6 259.5,354.8 261.5,376.5 240.4,387.6 265.5,393.1 
				270.4,419.2 282.4,399 302.5,403.3 			"/>
			<polygon id="XMLID_466_" class="st27" points="297.7,399.9 287.8,383.6 296.7,364.1 278.6,371.2 262.3,359.6 263.9,377.9 
				245.1,387.1 267.5,391.1 271.3,414.3 281.2,396.3 			"/>
		</g>
	</g>
	<g>
		<g id="XMLID_435_">
			<polygon id="XMLID_464_" points="34,49.5 31.8,60.5 42.4,56 51.1,63.5 51.1,50.9 60.8,43.5 48.2,40.3 42.4,30.5 37.7,39.5 
				26.7,39.8 			"/>
			<polygon id="XMLID_453_" class="st31" points="34.4,57.6 42.8,53.2 48.9,58.4 48.8,49.6 56.9,44.3 46.7,42.3 42.9,34.7 
				39.1,41.9 30.4,41.5 36.6,48.9 			"/>
		</g>
	</g>
	<g>
		<g id="XMLID_200_">
			<path id="XMLID_405_" d="M27.9,229c1.5,1.2,3.2,2.2,4.9,3c7.4,3.2,16.5,2.3,23.6-2.5c0.3-0.2,0.6-0.4,0.9-0.6l1,0.6
				c14.7,8.1,33.5,11.7,49.6,5.3c5.4-2.2,10.3-5.5,14.4-9.6c12-12.2,16.3-30.9,10.2-47c-4.3-11.2-13.1-20.5-24.1-25.3
				c-1.1-0.5-2.2-0.9-3.4-1.3c0.6,0.2,2.8-1.1,3.4-1.3c1.3-0.5,2.5-1.1,3.8-1.7c2.5-1.2,5-2.6,7.4-4.2c4.5-3,8.6-7.1,10.5-12.3
				c2.3-6.3,0.6-14.1-6-16.9c-3.6-1.5-8-1.4-12.6,0.4l-0.1,0.1c-8,3.8-13.5,10-19.7,23.1c-0.8,1.7-2.1,5.3-3.1,7.8
				c0,0-21.2,7.9-28.3,12.9c-16,11.3-18.2,22.8-16.5,31.3c1.8,8.7,6.8,16.2,14.1,21.3c0.2,0.2-3.6,4.1-3.9,4.4
				c-2.4,2.4-5.6,4.9-9,5.7c-1.8,0.4-4.1,0.1-5.8-0.6c-3.5-1.4-6-4.3-5.7-8.1c0.1-2.2,1-4.5,2.8-5.8c0.4-0.3,0.9-0.5,1.5-0.5
				c0.5,0,1.1,0.4,1.1,0.9c-1,0.4-1.9,1.2-2.5,2.1c-2.7,3.7,1.2,8.4,5.2,8.4c3.9,0.1,6-3.2,6.7-6.7c0.5-2.5,0.5-5.2-0.4-7.6
				c-3.9-10.4-19-7.4-24.5-0.3C16.7,212.5,20.8,223.2,27.9,229z M115,125.2c1.3-0.8,2.6-1.2,3.7-0.6c3,1.6-0.4,5.8-1.8,7.2
				c-3.3,3.4-9.5,7.5-14,9.3c2.1-3.9,4.4-7.9,7.2-11.3C111,128.7,113,126.4,115,125.2z M78.2,197.4l0.1-0.1
				c5.8,1.9,14.1-1.8,16.2-6.1c1.5-3,1.5-5.4,0.3-8.4c-0.6-1.5-1.6-2.9-2.8-4c-0.3-0.3-4.3-2.8-4.5-2.3c0.5-1.2,1-2.4,1.5-3.6
				l0.2-0.5c0.8,0.2,1.5,0.4,2.2,0.7c7,3,11.2,12.8,9.2,20.1c-1.2,4.5-4.6,8.3-9.7,10.8c-4.4,2.2-10.8,2.6-16.7,1.1
				C75.5,202.8,76.8,200.2,78.2,197.4z M56.9,184.7c0.4-10.2,10.6-20.3,27.1-27c-0.1,0.3-0.8,1.6-0.9,1.8l-0.9,2.2
				c-2.1,0.6-4.1,1.4-6.2,2.6c-6,3.4-9.5,8.7-10,14.9c-0.4,4.4,0.9,8.7,3.4,12l-0.5,1c-1.4,3.1-3.4,6.5-4.8,9.1
				C59.2,197.4,56.6,191.4,56.9,184.7z"/>
			<g id="XMLID_201_">
				<path id="XMLID_404_" class="st8" d="M123.8,193.8c-2.2-1.4-4.9-0.7-6.2,1.6c-1.2,2.2-0.5,5.2,1.6,6.5c2.2,1.4,4.9,0.7,6.2-1.6
					C126.7,198.1,126,195.2,123.8,193.8z"/>
				<path id="XMLID_399_" class="st8" d="M116.2,208.5c-1.9-0.8-4.1,0.2-5,2.2c-0.9,2-0.1,4.3,1.8,5.1c1.9,0.8,4.1-0.2,5-2.2
					C118.9,211.6,118.1,209.3,116.2,208.5z"/>
				<path id="XMLID_398_" class="st8" d="M125.3,183.5c0.6-1.9-0.3-4-2.1-4.6c-1.8-0.6-3.8,0.5-4.4,2.4c-0.6,1.9,0.3,4,2.1,4.6
					C122.7,186.5,124.7,185.5,125.3,183.5z"/>
				<path id="XMLID_397_" class="st8" d="M104.2,219.7c-1.8-0.8-3.9,0.1-4.8,1.9c-0.9,1.8-0.2,3.9,1.6,4.7c1.8,0.8,3.9-0.1,4.8-1.9
					C106.7,222.6,106,220.5,104.2,219.7z"/>
				<path id="XMLID_396_" class="st8" d="M89.3,224.1c-1.8-0.8-3.9,0.1-4.8,1.9c-0.9,1.8-0.2,3.9,1.6,4.7c1.8,0.8,3.9-0.1,4.8-1.9
					C91.8,227,91.1,224.9,89.3,224.1z"/>
				<path id="XMLID_395_" class="st27" d="M95.7,213.5c4.4-2.3,8.1-5.8,10.8-9.9c5.6-8.6,6.6-20-0.1-28.9
					c-6.5-8.7-16.6-15.6-29.3-8.4c-11.9,6.8-10.5,20.2-3.9,25.6c1.1,0.9,2.4,1.7,3.7,2.4c4.7,2.3,10.4,2.2,15.2-3.4
					c2-2.3,1.8-10.4-5.2-12.1c3.2,4.7-0.2,11.8-5.8,10.3c-6.3-1.7-9-8.3-4.4-14.4c5.8-7.6,17.1-5.5,22.1,1.8
					c9.1,13.5,3.4,24.6-6.9,29.7c-4.9,2.4-11.9,2.9-18.4,1.3c-1.6,3-3.2,5.8-4.7,8.3C77.7,218.3,87.6,217.7,95.7,213.5z"/>
				<path id="XMLID_394_" class="st8" d="M117.1,166.5c-1.4-1.3-3.5-1.1-4.7,0.5c-1.2,1.5-1.1,3.8,0.3,5c1.4,1.3,3.5,1.1,4.7-0.4
					C118.6,170,118.5,167.7,117.1,166.5z"/>
				<path id="XMLID_393_" class="st27" d="M112.3,117.7c-7.5,3.6-12.9,10.1-18.9,22.7c-1.4,3-3.2,7.4-5.2,12.3c-1,2.4-2,5-3,7.6
					c2.1-0.1,4.3,0.2,6.4,0.8c1.1-2.7,2.2-5.2,3.3-7.6c2.1-4.8,3.8-8.8,4.8-10.9c4.5-8.6,9.1-16.3,14.2-19.1
					c6.9-3.8,11.2,2.7,4.5,9.7c-3.9,4-11.5,8.7-16.1,10.1c-0.5,1.3-2.8,6.4-3.2,7.9c11.4-3.9,24.5-9.4,29-20
					C131.2,120.5,123.3,113.3,112.3,117.7z"/>
				<path id="XMLID_392_" class="st8" d="M104.7,158.4c-1-0.8-2.6-0.6-3.4,0.5c-0.9,1.1-0.8,2.6,0.3,3.4c1,0.8,2.6,0.6,3.4-0.5
					C105.8,160.7,105.7,159.2,104.7,158.4z"/>
				<path id="XMLID_391_" class="st8" d="M74.3,224.5c-1-0.8-2.6-0.6-3.4,0.5c-0.9,1.1-0.8,2.6,0.3,3.4c1,0.8,2.6,0.6,3.4-0.5
					C75.4,226.9,75.3,225.3,74.3,224.5z"/>
				<path id="XMLID_390_" class="st27" d="M78.5,177c-1.8,3.5-0.6,6.9,2.3,9.2c1.8-4,3.9-8.9,6.1-14.1
					C83.6,171.7,80.4,173.1,78.5,177z"/>
				<path id="XMLID_389_" class="st27" d="M41.5,209.5c-1.6-1.2-4.3,0.2-4.8,2.2c-1.1,3.6,2.5,6.2,5.8,5.4c4.1-1,5.7-7,4.1-11.1
					c-3.6-9.1-16.5-7-21.5-0.5c-5.6,7.1-2.3,16.4,4.2,21.7c7.3,6,18.1,5.6,25.8,0.4c0.6-0.4,1.1-0.8,1.7-1.2c6.7-5.3,12-15,19.3-30
					c0,0-0.1,0-0.1-0.1c-1.8-0.9-3.9-2.2-5-3.1c-3.9,8.2-7.4,14.4-10.6,19c-9.2,13-16,13.3-21.3,11.5c-6.9-2.3-8.8-9.4-5.4-14.9
					c3-4.8,7.1-3.7,8.9-0.5C43.4,209.4,42.4,210.2,41.5,209.5z"/>
				<path id="XMLID_388_" class="st27" d="M87.6,148.6c-11.8,3.7-20.9,8-27.5,12.7c-12.9,9-16.8,19.5-14.6,29.8
					c1.8,8.7,6.7,15.3,13,19.7c1.5-2.4,3.1-5.1,4.9-8.2c-5-3.9-8.4-9.9-8.1-18.1c0.4-9.4,7.4-20.4,29.5-28.8c0.4-0.7,1-2.2,1.6-3.7
					C86.9,150.6,87.4,149.3,87.6,148.6z"/>
				<path id="XMLID_290_" class="st21" d="M131.8,203.8c5.8-22.3-8.5-45.2-30.4-51c-0.4,0.1-0.8,0.3-1.2,0.4
					c-1.2,0.4-2.4,0.8-3.5,1.1c-0.6,1.3-1.8,4.3-3.1,7.4c6.3,2.3,11.8,7.2,14.9,12c6.9,10.7,5.3,22.2-0.4,30.8
					c-1.1,1.7-2.4,3.3-3.8,4.8c-7.5,7.9-17,11.8-27.6,10.5c-5.4-0.7-9-2.3-9.1-2.2c-4.1,6-5.9,7.6-8.2,9.8
					c19.3,10.6,44.9,12.8,61.2-3.9c3.3-3.4,6.1-7.4,8.2-11.7C130.1,209.3,131.1,206.6,131.8,203.8z M101.8,163.6
					c-1.9-0.8-2.7-3-1.9-4.8c0.8-1.9,3-2.7,4.8-1.9c1.9,0.8,2.7,3,1.9,4.8C105.8,163.6,103.6,164.5,101.8,163.6z M71.3,229.5
					c-1.9-0.8-2.7-3-1.9-4.8c0.8-1.9,3-2.7,4.8-1.9c1.9,0.8,2.7,3,1.9,4.8C75.4,229.5,73.2,230.3,71.3,229.5z M112.9,173.7
					c-2.5-1.1-3.6-4-2.5-6.5c1.1-2.5,4-3.6,6.5-2.5c2.5,1.1,3.6,4,2.5,6.5C118.3,173.6,115.4,174.8,112.9,173.7z M117,181.4
					c0.5-2.9,3.1-4.8,5.8-4.3c2.7,0.5,4.4,3.2,3.9,6.1c-0.5,2.9-3.1,4.8-5.8,4.3C118.2,187,116.5,184.2,117,181.4z M100.6,227.6
					c-2.5-1.1-3.7-4.1-2.6-6.6c1.1-2.5,4.1-3.7,6.6-2.6c2.5,1.1,3.7,4,2.6,6.6C106.1,227.5,103.1,228.7,100.6,227.6z M85.8,231.8
					c-2.5-1.1-3.7-4.1-2.6-6.6c1.1-2.5,4.1-3.7,6.6-2.6c2.5,1.1,3.7,4,2.6,6.6C91.3,231.7,88.3,232.9,85.8,231.8z M112.6,217.3
					c-2.7-1.2-3.9-4.4-2.7-7.2c1.2-2.8,4.4-4.1,7.1-2.9c2.7,1.2,3.9,4.4,2.7,7.2C118.5,217.2,115.3,218.5,112.6,217.3z M126.8,201.2
					c-1.7,3-5.3,3.9-8.2,2.1c-2.9-1.8-3.9-5.7-2.2-8.7c1.7-3,5.3-3.9,8.2-2.1C127.5,194.3,128.4,198.2,126.8,201.2z"/>
			</g>
		</g>
	</g>
</g>
</svg>
