<?xml version="1.0" encoding="utf-8"?>
<!-- Generator: Adobe Illustrator 25.1.0, SVG Export Plug-In . SVG Version: 6.00 Build 0)  -->
<svg version="1.1" id="Layer_1" xmlns="http://www.w3.org/2000/svg" xmlns:xlink="http://www.w3.org/1999/xlink" x="0px" y="0px"
	 viewBox="0 0 400 400" style="enable-background:new 0 0 400 400;" xml:space="preserve">
<style type="text/css">
	.st0{fill:#383838;}
	.st1{fill:#FFFFFF;}
	.st2{fill:#FA3250;}
</style>
<rect class="st0" width="400" height="400"/>
<g>
	<g>
		<path class="st1" d="M89.54,182.16c1.52-1.52,2.74-4.57,2.74-6.69V96.69c0-2.14,1.83-3.66,3.95-3.66h26.17
			c2.14,0,3.95-1.83,3.95-3.97V58.94c0-2.03-1.65-3.5-3.68-3.61c-0.09-0.02-0.18-0.02-0.27-0.02H80.71c-0.13,0-0.27,0-0.4,0.02
			c-2.07,0.09-4.84,0.98-6.29,2.41l-5.24,4.97l-0.16,0.13L57.3,73.54c-1.52,1.23-2.74,4.28-2.74,6.4v90.67
			c0,2.12-1.23,5.15-2.74,6.69l-19.46,19.46c-1.52,1.52-1.52,3.95,0,5.48l19.46,19.78c1.52,1.2,2.74,4.26,2.74,6.38v90.05
			c0,2.14,1.23,5.17,2.74,6.71l11.33,10.92l5.4,5.19c1.54,1.52,4.57,2.74,6.69,2.74h41.69c2.14,0,3.95-1.83,3.95-3.97v-30.12
			c0-2.12-1.81-3.63-3.95-3.63H96.23c-2.12,0-3.95-1.83-3.95-3.97v-78.79c0-2.14-1.23-5.17-2.74-6.69l-14.6-14.6
			c-1.52-1.54-1.52-3.97,0-5.48L89.54,182.16z"/>
	</g>
</g>
<g>
	<g>
		<path class="st1" d="M368.32,197.08l-19.46-19.78c-1.52-1.23-2.74-4.26-2.74-6.4V80.86c0-2.14-1.23-5.17-2.74-6.69l-11.01-10.61
			l-0.16-0.16l-5.55-5.35c-1.43-1.45-4.19-2.59-6.26-2.72c-0.16-0.02-0.29-0.02-0.42-0.02h-41.69c-0.07,0-0.13,0-0.2,0.02
			c-2.05,0.09-3.75,1.87-3.75,3.92v30.12c0,2.14,1.81,3.66,3.95,3.66h26.17c2.12,0,3.95,1.83,3.95,3.95v78.81
			c0,2.12,1.23,5.17,2.74,6.69l14.6,14.6c1.52,1.52,1.52,3.95,0,5.46l-14.6,14.6c-1.52,1.54-2.74,4.57-2.74,6.71v78.79
			c0,2.12-1.83,3.66-3.95,3.66h-26.17c-2.14,0-3.95,1.83-3.95,3.95v30.12c0,2.14,1.81,3.66,3.95,3.66h41.69
			c2.12,0,5.17-0.91,6.69-2.43l5.55-5.26l11.17-10.57c1.52-1.23,2.74-4.26,2.74-6.4v-90.65c0-2.14,1.23-5.17,2.74-6.69l19.46-19.49
			C369.83,201.03,369.83,198.6,368.32,197.08z"/>
	</g>
</g>
<g>
	<path class="st2" d="M273.54,167.2c-0.6-48.47-69.76-48.16-74.64-48.09c-4.88,0.04-74.04,1.43-73.44,49.9
		c0.56,46.02,31.64,90.34,53.89,112.12c7.51,7.36,15.45,11.01,19.33,12.44c1.54,0.58,3.23,0.56,4.75-0.07
		c3.81-1.52,11.66-5.37,19.02-12.91C244.13,258.3,274.1,213.24,273.54,167.2z"/>
</g>
</svg>
