<svg id="Hero_svg__Layer_1" xmlns="http://www.w3.org/2000/svg" x="0" y="0" viewBox="0 0 318.6 449.4" xml:space="preserve"><style>.Hero_svg__st0{fill:#989ce5}.Hero_svg__st1{fill:#7c80c4}.Hero_svg__st3{fill:#15598a}.Hero_svg__st6{fill:#5b669a}.Hero_svg__st7{fill:#424c6d}.Hero_svg__st8{fill:#db3462}.Hero_svg__st9{fill:#ac2153}.Hero_svg__st10{fill:#e8e5de}.Hero_svg__st11{fill:#ac69ba}.Hero_svg__st12{fill:#804989}.Hero_svg__st13{fill:#e1dfd8}.Hero_svg__st14{fill:#fffff8}.Hero_svg__st15{fill:#73417c}.Hero_svg__st16{fill:#a17f84}.Hero_svg__st18{fill:#f0f5fa}.Hero_svg__st20{fill:#a5826c}.Hero_svg__st21{fill:#8b644e}.Hero_svg__st22{fill:#422744}.Hero_svg__st27{fill:#ffc037}.Hero_svg__st29{fill:#c69062}</style><path d="M65.7 91.7c-7 8.1-15.6 16.8-14.8 27.5.7 8.7 7.6 15.4 12.6 22.6 5 7.2 7.7 18.1 1.2 23.9-14.1 1.5-17.9 20-18 34.1-3.5.6-6.9 1.3-10.4 1.9-7.2 4.2-7.9 16-1.3 21 6.1 4.6 14.7 2.9 22.3 3.4 9.8.6 19.3 5.5 25.5 13.2-10.7 14.8-22 30.2-38.4 38.3-6.6 3.2-13.8 5.1-20.2 8.8-6.4 3.7-12.1 9.7-12.5 17.1-.4 7.3 6.7 14.9 13.7 12.9-6.7 6.5-3.5 19.9 5.4 22.7 2.9.9 6.1.9 8.9 2.1 9.4 4.2 7.3 17.8 5.4 28-3.5 18.6-.9 38.4 7.5 55.4 4.6 9.4 15.9 19 24.3 12.8 5.5-4 9.5-14 15.4-10.6 1.2-9.8 3.9-19.4 8-28.4 14.6-5.8 26.4 12.5 40.2 20 15.1 8.1 33.7 2.5 49-5.2 3.9-2 8.1-4.1 12.3-3.3 3.4.6 6.2 3.1 8.9 5.3 5.7 4.7 12.2 9.1 19.5 10 7.4.9 15.7-2.6 18.2-9.6-10.9 2.3-23.2 4.4-32.2-2.2-13.2-9.7-7.8-33.3 7.1-40.1 7.3-3.3 15.7-3.6 23.1-6.5 12.7-5 21.4-17.5 24.9-30.8 3.5-13.2 2.6-27.2 1-40.8-.6-5.1-1.3-10.4.6-15.2 2.7-6.9 10-11 13.6-17.5 6-11.1-.2-26.8 8-36.4 3.7-4.4 9.7-6.4 13.4-10.8 4.2-5.1 4.6-12.2 4.3-18.8-.7-19.9-5-39.7-12.7-58-1.4-3.2-3-6.6-6-8.4-3.3-1.9-7.5-1.4-11.3-2.3-12.7-2.9-16.1-19.1-17-32.1-.2-3.7-.4-7.6 1.4-10.9 1.8-3.1 5.1-5 8.2-6.9 17.7-11.1 30.7-29.2 35.7-49.5-5.9-6-15.9-5-23.7-1.8-7.8 3.2-15 8.3-23.3 9.2-8.2 1-16.6-2.1-24.6.1-6.3 1.7-13.3 6.6-18.7 2.8-2.7-1.9-3.7-5.5-5.4-8.4-6.5-11.4-22.7-12.7-35.3-9.1-12.6 3.6-24.5 10.7-37.7 11-16.6.4-34.1-9.9-49-2.5-.3 22.3-12.6 45.2-27.1 62z"></path><path d="M128.4 85.2c-3.4-4-6.7-7.9-9.4-12 .2.5.3.9.5 1.4 1.9 4.6 5 8.2 8.9 10.6z"></path><g id="Hero_svg__XMLID_2394_"><path id="Hero_svg__XMLID_2401_" d="M160.3 127.8c4.6-3.2 13.4-16.6 17.4-23 6.2-10.2 10.6-17 8.8-23.2 0 0-11.7 5.6-24.2 6.6-21.3 1.7-43.5-9.6-53.5-28.7-3-5.7-5.6-13.5-2.2-19.6 1.3-2.2 5.1-4.6 7.6-3 3.7 2.4-.4 7.9-3.6 8.3.8 1.6 1.7 3.1 3 4.2 4.9 4.3 12.7.1 15.7-4.5 4.7-7.4 1-16.4-4.6-22.1-6.9-6.9-17.2-9.1-26.6-7C86 18.3 75.5 27.5 72.5 39.6c-2.8 11.2-1 23.2 3.8 33.6 7.5 16 20.9 29.7 36.1 38.1 7.9 4.4 40 19.6 47.9 16.5z"></path><g id="Hero_svg__XMLID_2395_"><path id="Hero_svg__XMLID_2397_" class="Hero_svg__st0" d="M101 101.3c4.1 3.2 8.6 5.9 13.1 8.5 8 4.5 16.5 8.2 25.1 11.3 4 1.4 8 2.6 12.1 3.6 2.9.7 7.8 2.7 9.9-.1 4-5.3 7.8-10.8 11.3-16.4 1.2-2 2.4-4 3.1-6.2-4.8.4-9.2 1-14 .7-4.6-.3-9.3-1-13.8-2.1-17.4-4.1-34.7-13.6-44.8-28.7-6.4-9.5-12.8-26.6-5.9-38.4 7.1-12.3 21.8-9 26.3 1.5.8 1.9 1.3 3.8.7 5.8-.5 1.9-1.6 3.7-3.1 5-1.5 1.3-3.6 2-5.5 1.7.7 1.2 2.4 1.5 3.8 1.4 3.5-.3 6.7-2.4 8.6-5.3 4.6-7.3-.4-16.7-6.5-21.4-6.3-4.9-15-6.3-22.8-4.6-15.7 3.4-26 17.1-25.9 31.7 0 22.9 16 42.6 28.3 52zM87 33.9c-5.3 16.7 5.3 43.9 32.5 64.4C102.2 91 76.3 55.8 87 33.9zm-5.7 25.8c4.7 16.1 18.8 34.8 45.3 50.2-20.5-6.1-45.7-34.7-45.3-50.2z"></path><path id="Hero_svg__XMLID_2396_" class="Hero_svg__st1" d="M118.5 39.4c.2 2.7-1.4 5.5-4.3 6.5.3.3.8.4 1.3.4 3.5.1 6.1-1.6 7.1-5 .5-1.6.2-3.4-.4-5-1.3-3.2-4.2-6.1-7.4-7.4-5.6-2.3-11.7.1-14.9 5.1-6.6 10.2-2.1 26.1 4.3 35.7 5.5 8.3 13.1 15.1 21.8 19.9 7.4 4.1 15.6 6.7 23.8 8.4 3.8.8 20.6 2.4 27 1.4 2.3-2.4 5.8-8.6 6.7-13.7-6.1 2.4-12.4 4-18.8 4.8-9.6 1.2-18.7.2-27.8-3.4-8.3-3.3-16-8.3-22.1-14.8-2.3-2.5-4.5-5.2-6.3-8.1-4.2-6.4-7.9-18.7-3.9-25.7 2.3-4 7.1-6.4 11.3-3.7 1.6 1.3 2.5 2.9 2.6 4.6z"></path></g></g><g id="Hero_svg__XMLID_2149_"><path id="Hero_svg__XMLID_2154_" d="M109.1 118.1c4.3-4.9 9.6-9.1 15.6-12.4 4.3-2.3 8.9-4.1 13.6-5.4 10.8-3.1 22.2-3.7 33.3-4.4 5.2-.3 10.5-.6 15.6-1.6 5.7-1.1 11.3-1.1 16.8-3.3 8.8-3.6 14.6-11.7 13.2-21.4-1.3-8.8-7.7-16.2-14.4-21.6-4.1-3.3-8.7-6.1-13.6-8.1-4.9-1.9-10.2-3.1-15.5-3.2-11-.3-23.6.7-33.1 6.8-7.8 5.1-12.2 15.6-5.5 23.5 5.1 6 14.2 10.2 23.7 11 4 .3 7.7 0 11.2-1 1.3-.4 2.6-.8 3.7-1.4 6.3-3 9.8-7.6 8.9-12.2-.9-4.8-6.1-8.2-13.3-8.7-3.2-.2-6.6.3-9 1.3 1.7 0 3.3.6 4.7 1.7 3.2 2.4 4 6.9 1.8 10.3-1.5 2.4-4.1 3.9-6.9 4.6-6.5 1.5-13.4-1.5-15.7-8.1-3.5-10 6.1-18.2 14.7-20.6 1.9-.5 4-.9 6.2-1.2 7.3-.8 18.4 1.8 25.6 8.4 4.5 4.2 6.8 9.5 6.6 15.2-.4 19.7-28.4 25.2-43.7 23.7-17-1.7-38.2-14-36.4-33.6.6-7 4.1-13.4 8.9-18.5 3.6-3.7 8-7 13.4-9.7 19.4-9.9 42.8-11.2 63.4-4.4 4.1 1.4 8.1 3.1 12 5.2 10.9 5.9 19.9 15 24.5 26.7 3.8 9.6 5.3 21.3 1.2 31.1-3.4 8-10.1 14.2-17.6 18.4-6.5 3.7-13.7 6.1-21 7.4-15.3 2.7-31 .8-46.3 3.9-6.8 1.4-13.8 3.4-19.7 7.2-10 6.5-14.4 19.7-12.4 31.1l.3 1.9c.1.6-11.3 2-12.5 2-4.6.2-8.9-.7-13.1-2.2l-1.2-.4-.1-1.3c-1.4-13.9 3.4-26.8 12.1-36.7z"></path><g id="Hero_svg__XMLID_2150_"><path id="Hero_svg__XMLID_2151_" d="M131.3 109.6c-22.9 13.5-27.3 32-24.9 47 1.5.2 2.9.3 4.3.3-4.6-22.2 12-39.7 27.4-45.6 25.3-9.7 53.7-6.2 73.4-12.7 6.2-2.1 11.1-4.5 14.8-7.4 4.8-3.8 7.8-8.7 8.2-14.9.3-6.7-1-13.4-3.8-19.5-5-10.1-13.7-16.7-23.7-21.4-2.8-1.3-6.1-3.3-9.1-3.9 14.7 3.3 28.8 12.4 35 26.6 2.7 6.2 3.8 13.1 3.2 19.9-.5 5.7-4.7 10.7-9.1 14.2-3.9 3.1-8.9 5.7-15 7.7-23.1 7.5-47.5 3.1-72.8 12.7-15.7 6-32.3 23.8-26.9 44.2 1-.1 2.1-.2 3.1-.3-1.7-10.3.8-21.7 10.1-30.3-8.3 11-10.1 21.4-8.5 30.1 1.5-.3 3-.6 4.6-1-2.3-13.3 2.1-21 8.2-28.7 2.5-3.2 6-5.3 9.7-7 9.9-4.6 21.5-6.2 32.3-6.8 11.5-.7 23.3-.1 34.5-3 14.4-3.6 30.4-13.1 34-28.5 1.9-8 .2-17.3-2.8-24.8-8-20.3-27.8-30.3-48.4-33.9-16.2-2.8-34 0-48.7 7.5-4.8 2.5-9.2 5.5-12.8 9.3-6.9 7.2-10.3 16.8-7.4 25.8.5 1.7 1.3 3.4 2.3 5 .5.8 1 1.5 1.6 2.3C136.8 89.2 162 91.9 180.3 84c7.5-3.3 15-8.8 15.3-17.8.5-15.8-19.3-22.8-29.9-21.5-15.4 1.8-20.3 10.4-19.7 17.3.4 4.9 4.9 10.4 12.5 8.9.5-.1.9-.2 1.3-.3 7.4-2.1 8-8.2 4.1-11.2-4-3.1-9.5.1-9.1 3.6.1 1.3-1.4 1.2-1.3-.3.2-8.3 9.7-10.4 16.2-10 17.1 1.3 21.4 17.2 5.1 24.8-4.8 2.2-10.3 3-15.9 2.6-9.8-.7-19.6-5.1-25.1-11.7-6.9-8.2-4.2-18.8 3.6-25 .9-.7 1.9-1.4 2.9-2 10.6-6.4 25.6-6.9 33.6-6.7 17.3.5 34.2 11 42.4 26.2 3 5.5 4.4 12.1 2.6 18.1-1.6 5.4-5.7 9.8-10.6 12.6-6 3.3-12.9 3.7-19.5 4.7-19.6 2.9-39.7 1-58.4 9-.3.1-.5.2-.8.3-2.6 1.2-5.3 2.6-7.9 4.3-2.1 1.4-4.1 2.9-6.1 4.6-1.7 1.5-3.4 3.1-5 4.9-7.7 8.6-13 20.3-11.6 35.3 1.9.7 3.8 1.2 5.7 1.6-2.3-17.4 3.8-36.6 26.6-46.7zm92.2-42.7c-5-18.4-22.1-31.6-40.4-35.5-12.6-2.7-30.5-.6-44.2 7.7-2.3 1.4-4.5 3-6.5 4.7 11.9-12.2 34.7-16.9 51.6-13.3 17.5 3.7 34.7 15.2 41.3 32.4 2.3 6 2.7 12.9.2 18.8s-8 10.7-14.4 11.4c3.1-.4 7.3-4.7 9.2-7 2.1-2.6 3.4-5.3 3.9-8.2.7-3.5.3-7.2-.7-11z" fill="#1a65a8"></path></g></g><g id="Hero_svg__XMLID_2140_"><path id="Hero_svg__XMLID_2148_" d="M305.4 325.3c1.2 13.3-5 27.5-15.8 36.2-10.9 8.7-27.2 15.6-40.3 21.2-7.4 3.1-17 6-22.9 11.7-6.4 6.2-6.5 18.5 4.5 22.7-1.6-4 .3-9.9 1-11.1 5.3-8.6 17.7-11.4 26-5.6 4.3 3 7.1 7.9 8.1 14 3.1 19.7-19 30.5-35.6 30.2-15.9-.3-31.2-9.1-38.9-23.1-11-19.9-3.2-42.9 11-58.8 2-2.2 4-4.2 6.2-6.2 7.9-6.9 17.4-10.9 26.6-15.8 12.3-6.6 24.1-14.3 34.6-23.5 2.6-2.3 4.8-5.4 6.2-8.6 3.5-7.9.4-17.3-6.6-22.1-5.1-3.5-10.5-3.4-16.4-2.4-1.9.3-4.1.5-5.9 1.2 3.8-7 10.4-12.1 18.4-13.4 22-3.5 34.1 21.9 38.1 39.4 1 4.7 1.3 9.4 1.7 14z"></path><g id="Hero_svg__XMLID_2141_"><path id="Hero_svg__XMLID_2147_" class="Hero_svg__st3" d="M303.3 325.5c1.1 12.2-4.3 25.7-15 34.3-18.1 14.5-52.6 24.3-59 30.4 9.1-12.1 28.3-16 45.7-27.9 12.2-8.3 24.8-20.3 28.3-36.8z"></path><path id="Hero_svg__XMLID_2146_" d="M259.7 369.3c-1.8 1-3.6 1.9-5.5 2.7-5.7 2.6-11.5 5.2-16.8 8.5-6.7 4.3-13.9 10.1-15.9 18.3-1.8 7.4-1.6 17.4 10 20.6 3.3 6.2 9 8.1 15.6 5.3 5.7-2.4 7-10.2 2.3-12.6-3-1.5-5.9.2-8.5 2.8-.6-3.2 1.1-6.6 6.6-6.8 4.3-.2 10.4 5.8 7.3 13.2-2.7 6.5-13 11-24.4 7.3-12.6-4-19.9-13.4-18.6-26.7.9-8.8 7.1-16.2 13.4-21.9 7-6.5 15.1-11.7 23.5-16.3 10.7-5.9 20.5-13.4 29.1-22 7.4-7.3 15-14.4 18.8-24.3 1-2.5 3.2-8.1 2.1-10.8l.9 2.4c4.1 12.7-.3 25.5-8.4 35.6-6.1 7.6-13.8 13.7-21.9 18.9-3 2.1-6.3 4.1-9.6 5.8z" fill="#2d7bb2"></path><path id="Hero_svg__XMLID_2144_" class="Hero_svg__st3" d="M296.3 305.9c.1 3.2-.5 6.4-1.5 9.4-1.8 5.1-4.9 9.8-8.3 14-6.8 8.4-15.4 15.6-23.7 22.4-4.5 3.7-9.4 7-14.5 9.8-8.9 5-17.4 10.8-24.8 17.9-6.2 6-12.8 13.8-13.7 22.8-.7 6.9 2.1 15.6 7.8 21.8-9-6.1-11.4-14.4-11-22 .8-18.8 17.4-31.2 31.7-40.8 17.1-11.5 37.6-23.4 46.6-42.8 2.1-4.5 3.4-9.3 3.6-14.5.3-7.7-3.5-14.8-8.9-20.3-6.1-6.1-14.3-8.7-23.3-5.6 10.7-7.5 22.5-4.1 29.9 2.9 6.7 6.3 9.6 15.4 10 24.4.1.4.1.5.1.6z"></path><path id="Hero_svg__XMLID_2142_" d="M279.7 300.5c.8 12.3-8.8 19.5-17.6 26.1-8.6 6.5-18 11.8-27.5 16.8-8.5 4.5-17.1 8.4-24.4 14.8-15.9 14-27.5 36.7-19 57.7.2.5.4.9.6 1.4 9 20.1 32.5 30 53.2 22.7 14.2-5 20.4-14.8 18.8-25.3-1.6-10.4-9.5-17.2-20.4-14.5-11.1 2.7-13.5 12.9-10.4 18.4 2.7 4.7 8.6 7.1 13.2 4.8 5.5-2.8 4.7-7.7 2.1-8.7-1.8-.6-5.6.8-5.7 3.5 0 1.4-1.3 1.5-2.1.1-2.7-4.5-2.1-9.9 5.3-11.9 8-2.1 14.8 7 10.8 14.9-3 5.9-12.1 12.1-25.2 9.7-5-.9-9.9-2.8-14.1-5.8-6.7-4.7-11.6-11.9-11.7-22-.1-11 6.6-21.6 16.1-31 6.8-6.7 14.4-11.5 22.1-17.1 11.1-8 22.8-16 32.2-26.1 6.5-7 10.4-15.4 10.8-25 .2-6.6-2.1-12.7-6.5-17.6-3.6-4-7.3-7.9-13-8.2-3.1-.2-6.1.4-9.1 1.1-2 .5-4 1.2-5.4 2.7 2.9-.5 5.9-.9 8.9-.7 1.4.1 2.8.4 4.2.8 7.7 2.6 13.3 10 13.8 18.4z" fill="#379ada"></path></g></g><g id="Hero_svg__XMLID_2124_"><path id="Hero_svg__XMLID_2139_" d="M38.6 428c10.4 10.2 21.6 12.5 29.2 12.6 11.1.2 23.7-4.2 30.6-13.4 4.1-5.6 5.8-12.6 4.7-19.4-1-6-4.2-11.1-9.1-14.5-2.8-1.9-6.3-3.1-10-3.1-7.2-.1-15.1 3.9-16.7 13.3-.6 3.7.5 8.1 2.8 10.8 1.7 2.1 4 3.2 6.6 3.3h.2c5.3 0 10.3-4.3 8.3-10-.9-2.5-3.2-4.4-5.8-4.6 3.1-1.3 7.2-.4 9.1 2.5.3.4.5.9.7 1.4 2.5 6.1-.1 13.6-5.9 16.9-12.6 7.1-24.6-5-26.2-17.1-3.4-27.7 23.5-41 46.7-47.2l1.6-.4.2-1.6c1.3-12.4 3.1-24.8 3.9-37.2.6-9.2.5-18.4-.3-27.6l-2.6.5c-13.2 2.5-50.7 12.7-49.5 27l.1.7c-7.5 5.2-13.5 11.8-16 19.9l-1 3.3c-7.5 8.2-11.8 18.7-8.8 31l.6 2.5c-.6 1.4-1.2 2.7-1.6 4.1-6.9 21.5.1 38.4 8.2 46.3z"></path><g id="Hero_svg__XMLID_2125_"><path id="Hero_svg__XMLID_2138_" class="Hero_svg__st0" d="M40.3 426.3c17.2 16.9 40.4 13.9 52.8 3.2 1.3-1.1 2.4-2.3 3.4-3.6 6.9-9.3 6.3-23.5-3.8-30.5-7.5-5.2-20.9-3.1-22.9 8.6-.8 4.5 1.7 11.3 7.2 11.3 6.5 0 7.8-6.6 5.2-9.6-1.5-1.6-4-2.2-5.8-.5-.9.8-1.3-.5-.8-1.3 1.8-3 5.4-4.9 10.8-2.5 6.3 2.8 8.5 10.6 2.7 19.2-9.1 13.5-24.6 14.7-37.1 1.1-6.4-6.9-11.9-19.8-3.7-35.4 11.4-21.7 36.5-31.4 56-36.4.3-2.1.7-4.3 1-6.4-16.3 3.3-41.1 11.3-52.4 25.9 9.8-17.3 37.2-25.2 52.8-28.8.1-1.3.3-2.6.4-3.9 0-.5.1-.9.1-1.4-19.8 2.6-47.6 9.3-66.7 34.7-3.1 4.2-5.4 8.4-6.6 12.3-6.6 19.9-.6 36.2 7.4 44z"></path><path id="Hero_svg__XMLID_2137_" class="Hero_svg__st1" d="M33.7 374.6c1.1-1.9 2.7-3.5 3.8-5.8 10.8-22.6 47.6-31.9 68.7-36 .1-1.8.3-3.6.4-5.4-12.1 1.8-43 8.5-51.7 17.5 7.9-11.5 39.4-18.2 51.9-20.2l.3-4.8c-7.4 1.1-27.6 4.8-42.8 10.8-18.5 7.5-35.6 23.4-30.6 43.9z"></path><path id="Hero_svg__XMLID_2136_" class="Hero_svg__st1" d="M53.4 420.9c7.8 8 16.8 10.4 24.2 7.6-10 1.6-21.3-8.2-22.9-21.5-3.4-27.7 21.4-42.6 48.5-49.8.2-1.8.4-3.6.7-5.4-18.5 5.1-42.3 14.7-53.7 34.6-7.7 13.4-3.4 27.7 3.2 34.5z"></path><path id="Hero_svg__XMLID_2135_" class="Hero_svg__st6" d="M107.2 317.8c0-.9.1-1.8.1-2.7 0-.8.1-1.6.1-2.4-9.4 1.7-40.2 9.4-47.4 14.7 5.1-8.2 36.9-15.1 47.4-17v-3.8c-19.1 1.2-56.9 11.7-64 34.9 12.1-14.1 53.5-22 63.8-23.7z"></path><path id="Hero_svg__XMLID_2127_" class="Hero_svg__st7" d="M59.5 319.9c18.6-12.1 38.7-15 48-15.9 0-1.5-.1-3-.2-4.5-11.1 1.8-34.9 8.7-37.4 12.5 3.3-6 25.8-11.2 37.3-13.6-.1-1-.1-2-.2-3-16.8 3.2-48.5 13.4-47.5 24.5z"></path></g></g><path class="Hero_svg__st7" d="M35.3 384.3c-5.9 17.3-.1 37.9 14 49.5-15-7.7-22.7-26.3-20-43 2.6-16.7 14.1-31.1 28.4-40.1 14.3-9.1 31.1-13.3 47.8-15.4.2 1.1.4 2.1.6 3.2-14.3 3.3-28.8 7-41.7 14-12.9 7-24.3 17.9-29.1 31.8z"></path><g id="Hero_svg__XMLID_2109_"><path id="Hero_svg__XMLID_2120_" d="M172.7 86.1l-1.7-1-1.1 1.7c-6.1 9.2-11 19.9-11.9 31l1.3.6c2 1 6 3.1 6.8 3.4 4.4 1.7 9.1 3.1 14.4 4.3 17.6 3.9 33.8 3.7 48.4-.7 18.4-5.6 34.7-18 46-34.9l1.5-2.3c13.3-4 29.6-14.4 36.9-29.3 4-8.3 5.3-16.3 3.5-23-2.8-10.8-15.5-20.4-26.9-18.7-6.8 1-12.9 4.9-16.5 10.6-.3-.4-.7-.8-1-1.2-12.3-14.4-34.1-18.1-48.1-4-4.2 4.2-7.3 9.5-9 15.3-2.7 9.5-.6 20.8 5.8 31 3.3 5.3 7.8 9.8 13.5 13.3.2.1.5.3.7.4-19.1 18-48.4 11.9-62.6 3.5zm109.6-44.5c2.3-3 4.5-4 6.4-2.9 2.7 1.4 1.6 6.3 0 9.3-.7 1.3-2.4 3.8-4.2 5.9-.6-3.9-1.5-7.6-2.9-11.3l.7-1zm-33.1 18c-1.3-.8-3.1-2-3.7-3.5-.7-1.8.8-3.4 2.7-2.6.9.4 1.6 1.3 1.9 2.2.3 1.1.5 3.5.2 4.5-.4-.2-.8-.4-1.1-.6z"></path><g id="Hero_svg__XMLID_2110_"><path id="Hero_svg__XMLID_2117_" class="Hero_svg__st8" d="M163.6 102.8c5.9 3.8 12.7 6.7 19.3 9.2-4.9-.6-12.6-3-20-7.4-.6 1.6-1.1 3.3-1.5 5 4.2 2.6 8.6 4.8 12.8 6.6-3.4-.6-8.2-2.1-13.3-4.6-.3 1.6-.6 3.3-.7 4.9 3 1.5 6.1 3.1 6.7 3.3 4.6 1.8 9.3 3.2 14.1 4.2 15.6 3.5 31.9 4 47.3-.7 18.5-5.6 34.1-17.9 44.8-34-3.5.8-7.3 1.2-11.2 1.2-10.8 15-37.3 27.7-59.4 24.2 25.2 1.2 47.9-12.3 56.6-24.3-1.7-.1-3.3-.3-5-.6-11.3 11.9-30.2 19.8-51.2 19.1 25.1-1.6 39.9-10 48.5-19.7-1.5-.4-3-.8-4.4-1.4-7.5 6.9-16.9 11.9-26.6 14.6-4.9 1.4-10.1 2.3-15.2 2.4-7.1.1-14-1.6-20.7-3.7-3.7-1.2-7.4-2.6-10.9-4.1-.6-.3-3.5-1.4-6-2.5-1.5 2.8-2.9 5.5-4 8.3zm29.6 16.9c3.1.5 6.3.9 9.5.9 18.4.1 37.2-5.5 51.7-16.9-3.4 3.7-7.8 6.6-12.2 8.9-8.9 4.7-18.8 8.1-28.9 8.9-21.4 1.7-29.2-2.9-32.1-4 4 .7 8 1.6 12 2.2z"></path><path id="Hero_svg__XMLID_2114_" class="Hero_svg__st8" d="M217.3 38.5c-2.7 9.6.1 20.5 5.5 29.2 9.3 14.9 28.3 21.8 45.3 20.1 1.5-.2 3.1-.4 4.8-.8 13-3.1 30.8-13.4 38.3-29 3.8-7.9 5-15.3 3.4-21.6-1-3.8-3.1-7.3-6-10-.9-.9-1.9-1.7-3.1-2.5-4.5-3.1-10.3-5.4-15.4-4.7-6.4.9-12.3 4.8-15.5 10.4 1.5 1.9 2.8 3.7 3.1 5.1.7-.9 1.4-1.7 2.1-2.3 4.9-4.6 9.5-4.2 12.6-2.7 5.9 2.9 8.5 9.5 7.3 16.2-2.6 13.9-18.6 23.2-29.1 25.3-11 1.9-27-.4-32.7-13-3.4-7.6 2.4-13.9 9.3-13.7 2.8.1 5.8 1.2 8.4 3.8 5.6 5.5 6.7 11.7 3.9 21.1 1.2.2 3 .2 5-.1 2-9.9-1.3-18.3-8.5-26.2 6.6 4 12.1 14 10.7 25.9 1.5-.3 3.1-.6 4.8-1 .7-7.4-2-19.7-9.3-29.1 4.6 2.8 10.8 13.9 10.9 28.7 1.2-.4 2.5-.8 3.7-1.3.1-11.4-4.4-26.6-13.2-36.2 6.6 3.8 14.4 16.2 15.2 35.3 1.4-.7 2.7-1.5 3.9-2.3.2-8.9-1.7-17-5-23.9-2-4.1-4.4-7.9-7.2-11.1-.7-.9-1.5-1.7-2.4-2.5-7-6.7-17.1-11.2-27-9.7-11.7 1.9-20.7 11.8-23.8 22.6zm14.1 27.2c13 14.8 33.7 18.9 51.5 11 11.7-5.2 25.3-17.9 25.5-35.5 2 16.2-12.4 31-24.9 36.9-16.7 7.9-39 4.9-51.2-9.4-1.5-1.7-2.6-3.7-3.5-5.8-.3-.6-.5-1.3-.7-1.9 1 1.6 2.1 3.3 3.3 4.7z"></path><path id="Hero_svg__XMLID_2113_" class="Hero_svg__st9" d="M168.3 93.4c16.7 7.1 52.6 18.2 75.5-7.1-1.8-.9-3.9-2.1-6-3.3-20.4 20.9-52.4 13-66.2 5-1.1 1.7-2.3 3.5-3.3 5.4z"></path><path id="Hero_svg__XMLID_2112_" class="Hero_svg__st9" d="M250.7 53.4c2.3 2.7 2.4 9.2.1 13.9 1.4.6 5.1 1.5 6.5 1.7 1.6-4.2 2.4-14.4-3-19.3-7.3-6.6-16.2-1.2-15.4 5.3.6 5.7 5.2 9.4 9.8 11.1.5-.6 1.3-3.3 1.3-3.8-1.7-.2-6.3-3.7-6.7-6-.9-4.3 3.3-7.7 7.4-2.9z"></path><path id="Hero_svg__XMLID_2111_" class="Hero_svg__st9" d="M284.9 61.8c8.8-4.4 15.8-18.2 12.1-25.2-3.7-7.1-11.7-6.9-16-2.9-.9.9-1.7 1.9-2.2 3 .3.5.5 1 .8 1.5.3.7.7 1.4 1 2 2.1-2.8 5.4-5.5 9.1-3.5 4 2.1 3 8.2.9 12.1-1 1.8-3.3 5.3-5.8 7.7.1 1.8.2 3.5.1 5.3z"></path></g></g><g id="Hero_svg__XMLID_1993_"><path id="Hero_svg__XMLID_2106_" d="M7.2 308c2.1 2.3 5 4 8.1 4.7 2.6.6 5.4.6 8-.4 2.9-1.1 5.5-5 5.4-8.1-.1-3.8-4.7-7.3-8.6-5.4.3-.1 1.3 1.5 1.4 1.7.4.7.6 1.4.6 2.2.2 3.1-2.6 4.5-5.3 3.7-5.6-1.5-6.9-8.1-3.2-12.3 4.1-4.7 14.1-8.1 25-5.5 1.5.4 3.1.8 4.6 1.4 5.5 2.1 9.9 6.5 12.1 12.1 2.1 5.3 2 11.1-.2 16.6-2.2-2.6-10.3-5.6-10.4-5.6-.9-.3-1.8-.5-2.7-.8-3.8-.9-7.4-1.1-10.9-.7-6.3.8-11.7 4.4-14.1 9.4-2.1 4.5-1.7 9.5 1.2 14.1 2.5 3.9 6.3 6.5 11.2 7.7 4.3 1 9.3.8 13.9-.6 5-1.5 9.6-4.6 13.2-8.7 5 8 6.1 19.1 3 29.1-3 9.5-10.6 17.8-20.2 22.4-6.7 3.1-14.5 4.4-20.9 3.5-.8-.1-1.6-.3-2.3-.4-2.1-.5-4.4-1.2-6-2.7-1.5-1.5-2-4.3.3-5.4 1-.5 2.3-.3 3.1.5.8.8 1.1 2 .7 3.1 1.7-.4 3.2-1.6 4-3.2 1.8-3.3.2-6.7-3.1-8.1-3.2-1.4-7.6-.8-10.5 1.4-5 3.7-6 9.6-2.5 14.6 5 7.3 14.7 9.1 23 8.4 6.2-.5 12.5-2.3 18.8-5.3 11.1-5.2 19.4-14.8 23.3-26.8 4.1-12.8 2.3-27.4-4.7-37l-.8-1.1c.5-.9.9-1.9 1.3-2.9 3-7.8 3.2-16.8 0-24.6-3.6-9-11.6-15-20.7-17.8-8.7-2.7-19.6-2.5-27.6 2.3-5.7 3.4-9.3 8.3-10.1 13.8-.9 3.9.2 8 2.6 10.7zm38.6 22.3c-4.2 2.7-11.2 5.4-16 2.7-2.2-1.3-3.7-3.8-3.3-6.4.3-1.8 1.6-3.4 3.1-4.4 2.4-1.5 5.2-1.8 7.9-1.5.8.1 1.7.2 2.5.4 3.3.8 6.6 2.4 9.6 4.7l.7.5c-1.2 1.6-2.8 2.9-4.5 4z"></path><g id="Hero_svg__XMLID_1994_"><path id="Hero_svg__XMLID_2012_" class="Hero_svg__st10" d="M61.5 363.2c-3.3 10.4-11.5 19-21.3 23.6-6.6 3.1-14.8 4.7-22.1 3.7-4.6-.7-12.3-2.9-11.1-9 .6-3.2 3.9-4.1 6.6-2.6 1 .6 1.7 1.6 1.6 2.7 1.4-.8 1.9-2.4 1.7-4.3-.2-1.5-1.4-2.6-2.7-3.1-2.7-1.2-6.2-.6-8.5 1.1-4.1 3.1-5 7.7-2.1 11.9 1.3 1.9 3.2 3.5 5.2 4.7 4.4 2.6 11 3.2 15.9 2.8 6.3-.5 12.4-2.4 18.1-5.1 10.7-5.1 18.6-14.4 22.2-25.6 4-12.3 2.2-26-4.5-35.2-.7 1.3-1.5 2.5-2.4 3.7 5.6 8.3 6.8 20 3.4 30.7z"></path><path id="Hero_svg__XMLID_2011_" class="Hero_svg__st10" d="M47.3 285c-9.9-5-23.7-4.9-31.9-.1-10.8 6.5-10.9 17.1-6.7 21.7 4.2 4.6 11.2 5.8 15.5 3 3.3-2.1 5.3-8.8-1.4-9.8 2.6 3.4.7 7.5-3.3 8.3-8.9 1.6-12.9-8.9-7.3-15.3 4.9-5.5 17.7-10.1 31.8-4.7 12.4 4.7 18.9 19.6 12.2 33.2-2.3 4.6-5.5 8.2-9.3 10.6-3.8 2.5-8.2 3.8-12.8 4-3.9.2-7.2-2.1-8.8-5-1.9-3.7-.9-8.5 5.3-11.5 1.4-.7 4-1.1 7.2-.8 3.8.4 8.4 1.9 13.2 5.5 1-1.2 2.1-2.6 2.8-3.8.7-1.2-8.7-5.2-9.6-5.4-4.1-1.3-8.5-1.9-12.8-1.4-10.2 1.2-17.6 10.7-11.4 20.5 4.8 7.6 14.9 8.7 22.9 6.2 8.4-2.6 14.9-9.6 18-17.6 5.1-13.3 1.7-29.7-13.6-37.6z"></path></g></g><g id="Hero_svg__XMLID_1982_"><path id="Hero_svg__XMLID_1990_" d="M283.7 115.9c-.8.1-1.6.3-2.3.5-6.4-3.4-13.9-4.1-21-2.8-12.3 2.2-26.1 16.8-17.7 29.7 2.1 3.1 5.2 5 9.1 5.3 1.3.1 2.7 0 3.9-.7.8-.5 1.5-1.3 2-2.1.9-1.5 1.2-3.4.9-5.1-.9.8-2.1 1.4-3.3 1.4-2 .1-4.1-1.8-4.8-3.6-.8-2.1-.3-4.6.7-6.6 2.3-4.7 6.5-6.5 11.5-6.8 1.7-.1 4.1.1 6.3 1.4l.5.3c-.5 1-.9 2.1-1.2 3.2-1.3 4.6-.5 9.2 2.3 12.8 2.8 3.6 7.6 6.1 11.6 6 2.1-.1 4.4-.8 6.3-2.1v.1c.9 2.5 1.2 5.4.8 9v.1c-5.6-2.9-12-4.7-19.2-4.6-3.1 0-6.3.6-9.5 1.7-10 3.4-17.7 10.7-20.4 19.5-2.7 8.6-1.2 18.8 3.6 26 10.4 15.5 31.7 17.2 46.8 8.1-6.2 30.6-21.5 56.5-45.9 76.1-22.8 18.4-63 22.3-69.4 22.3-37.7-.2-66.7-15.3-80.5-24.3l-1-.7-1 .6c-3.1 1.6-6 4.4-8.5 6.9-6.6 6.8-9.4 15.2-11.3 24.2l1.2.7c27.5 16.6 60.6 26.6 90.8 27.5 36.3 1.1 65.4-6.5 88.9-23.1 34.9-24.6 60.2-63.7 64.4-106.6 1-10.3-1.2-20.8-5.6-30.1l.9-2.5c.3-.8.5-1.5.8-2.3 3.9-12.8 4.9-28.7-1.6-40.4-4.6-8.3-13.2-20.4-29.1-19zm0 57c-.8 2.4-3 5-4.6 6.9-4.6 5.6-13.3 9.8-20.4 7-4.6-1.8-9.2-6.8-6.9-12 3.7-8.3 14.7-9 22.2-6.7 5.6 1.8 9.6 5.1 9.7 4.8z"></path><g id="Hero_svg__XMLID_1983_"><path id="Hero_svg__XMLID_1989_" class="Hero_svg__st11" d="M314.3 169.4c.9-3.4 1.5-7.1 1.7-11 .2-4.3-.2-8.8-1.4-13.6-.6-2.4-1.5-4.8-2.6-7.3-.7-1.5-1.4-3-2.3-4.5-3-5.3-8.6-11.1-15.4-13.7-2-.8-4.1-1.3-6.2-1.4-1.4-.1-2.8-.1-4.1.1-4.3.6-8.2 2.6-11 6.5-1.2 1.7-2.2 3.8-2.9 6.2-2.9 10.1 6.3 16.4 11.9 16.3 4.7-.1 10-4.1 8.6-9.7-.3-1.1-.8-1.9-1.5-2.5-1.7-1.3-4.1-1.2-5.3-.5-1.5.9-1.9 3.6.2 4.8 1.1.6 1 1.6-.4 1.4-4.2-.7-8-5.6-4.9-10.9 3.5-5.9 13.7-2.6 18.1 3 .2.3.5.6.7.9 3.9 4.9 9.8 12.8 5.3 31.6 1.5 1.6 2.9 3.2 4.2 4.8 2-5.3 2.4-11.9 2.5-18.2 1.9 5.4 1.8 13.5-.7 20.6 1.1 1.6 2.1 3.2 3 4.7 1-2.4 1.8-4.9 2.5-7.6z"></path><path id="Hero_svg__XMLID_1988_" class="Hero_svg__st12" d="M270.2 124.3c.8-1.5 1.8-2.7 3.1-3.9.7-.6 4.2-3.7 5.2-3.3-1.3-.5-8.3-3.2-17.8-1.5-7.1 1.2-13.5 5.7-16.8 12.1-3.6 7.2-1.5 18.2 8 19 2.4.2 5.2-1.1 5.4-3.4-3.7 2.9-8.1-1.8-9-5.4-.9-3.7.7-7.8 3.2-10.5s7.3-3.8 10.9-4c2.6-.1 5.2.3 7.4 1.6.2-.3.3-.5.4-.7z"></path><path id="Hero_svg__XMLID_1987_" class="Hero_svg__st12" d="M291.5 135.6c1.9 4.2.9 7.9-1.1 10.7.9 2.4 1.4 5.4.9 9.9 1.5.8 3 1.7 4.3 2.7 1-3.9 1.4-8.2 1.6-12.3 1 3.4 1.2 8.4.1 13.5 1.2.9 2.4 1.9 3.5 3 3.5-14.6-.4-22.9-4.1-27.6-.4-.5-.8-.9-1.2-1.3-4.8-5.2-14.3-6.5-14.8.6 2.9-3.3 7-3.1 9.3-1.1.6.5 1.1 1.2 1.5 1.9z"></path><path id="Hero_svg__XMLID_1986_" class="Hero_svg__st12" d="M285.2 174.7c1 .8-5.6 7.7-6.2 8.3-2.8 2.5-6.1 4.4-9.6 5.6-6.9 2.3-14.8.6-18.4-6.3-.1-.1-.1-.3 0-.4-.7 2.1 0 4.4.7 6.5.4 1.3 2.2 3 3.2 3.9 11.5 11.2 33.6 1.5 37.3-10.2-.6-1-1.6-2.2-2.6-3.3-2.4 4.6-6 8.1-9.4 10.1 3-3.6 6-7.5 7.9-11.6-1-1-2-1.8-2.9-2.6z"></path><path id="Hero_svg__XMLID_1985_" class="Hero_svg__st12" d="M292.6 207.1c-7 34.7-21 56.8-46.6 77.4-22.6 18.2-62.5 22.8-70.6 22.7-37.9-.2-66.9-15.1-81.6-24.7-2.3 1.3-4.4 2.9-6.3 4.7l-1.1 1.1C99.6 298 132.7 318 179 316c53.5-2.3 75.3-23.8 90.9-42.6 21.5-25.8 31.1-58.5 29-71.7-.2 0-5 4.2-6.3 5.4z"></path><path id="Hero_svg__XMLID_1984_" class="Hero_svg__st11" d="M270.1 153.5c-3 0-6 .6-8.9 1.6-8.5 2.9-16.4 9.4-19.2 18.2-2.5 8-1.2 17.5 3.4 24.3 5.3 7.9 15 12.9 24.6 13 1.7 0 3.4-.1 5.1-.4 8.4-1.3 18.2-5.6 22.9-13-.3-1.6-.6-3.1-1-4.6-3.6 4.5-8.1 7.6-11.8 8.9 4.1-3.3 8.3-7 11-11.3-.7-1.8-1.5-3.5-2.3-5.1-8.6 14.4-28.3 20.7-40.5 8.6-2.1-2-3.6-4.7-4.6-7.4-2.2-6.6 1.3-16.2 7.7-19.2 5.5-2.6 12.2-2.5 18-.8 8.7 2.5 15.4 8 19.9 15 3.7 5.8 5.9 12.7 6.6 20 2.8 30.5-18.7 63-38.5 84-26.8 28.5-69.5 36.7-107 32.2-25.5-3.1-50.3-12.2-71.4-26.9-1.6 2.6-3.2 5.2-4.8 7.7-.5.9 26.7 12.9 29.3 13.9 10.4 3.8 21.1 6.6 31.9 8.5 21.5 3.6 43.2 3 64.6-1.2 6-1.1 11.9-2.6 17.7-4.3 18.4-5.3 34.5-17 47.2-31.1 12.2-13.5 23.1-29.2 30.4-45.9 4.9-11.1 7.9-23.1 7.1-35.2-.7-12.1-5.4-24.1-14.2-32.4-8.8-8.3-21.8-12.4-33.4-9.1 13-4.8 28.5.4 37.8 10.7 9.3 10.3 12.9 24.9 11.9 38.7-1.6 21.1-13 42.2-25 59.3-9.7 13.8-21.5 26.4-35.1 36.2-2.7 2-5.6 3.8-8.5 5.5-17.2 9.8-38.4 12.3-57.8 13.9-21.9 1.7-44.1-.5-65.2-6.5-6.9-2-13.7-4.3-20.3-7-1.4-.6-20.4-9.2-20.1-10.1-1.1 2.8-1.9 5.8-2.5 8.7 27.3 16.4 60.1 26.3 89.9 27.2 31.6.9 62-4.6 87.7-22.7 35.6-25.1 56.1-60.6 63.1-98.1 2.4-12.6.4-25.9-5.5-37.5-5.3-10.6-20.2-26.6-40.2-26.3z"></path></g></g><g id="Hero_svg__XMLID_1913_"><path id="Hero_svg__XMLID_1981_" d="M229.1 248c-.2-.4 0-.8.4-.9l1.7-.6c9.7-3.4 30.2-10.1 35.4-11.4.2-.1 3-1 3-1 3.5 1.8 6.5 4.1 9.3 6.9l.2.4c7.1 18 6.5 38.1 1.2 56.4-2.7 9.4-6.8 18.7-11.5 27.3-12.2 22-30 40.3-52.7 51.3-4.1 2-8.2 3.7-12.5 5.2-14.4 5.1-30 6.8-45.2 5.4-8.1-.7-16-2.5-23.8-4.8l-.5-.1-.4-.3c-2-1.7-5.7-6-7.1-8.9-.1-.1-.1-.3 0-.4l.7-3.7v-.1c1.1-2.7 5.1-12 9.3-21.9 4.7-11 9.5-22.3 10.9-25.8l1.1-2.5c.1-.2.3-.2.4-.1.6.5 2.1 1.8 2.1 1.8 8.4 7.3 20.8 7.9 31.3 6.4 15.3-2.2 29.5-12.2 37.9-25 4.3-6.6 8.2-13.4 10.6-20.9 1.7-5.2 2.6-10.7 2.3-16.1-.3-5-1.1-10.5-3.3-15.1l-.8-1.5z"></path><g id="Hero_svg__XMLID_1914_"><path id="Hero_svg__XMLID_1980_" class="Hero_svg__st13" d="M147.1 377.2c1.6 1.8 4.1 4.7 6.4 7.1-6.7-.9-11.1-2-18.3-4.1-1.7-1.5-5.5-5.8-6.6-8.3 5.9 2.9 15.6 5.2 18.5 5.3z"></path><path id="Hero_svg__XMLID_1935_" class="Hero_svg__st14" d="M149.6 321.9c2.1 1.8 4.4 3.3 6.8 4.4 0 .1-.1.3-.1.4-1.8 9.2-7.8 39.7-9.2 48.1-2.9-.5-13.5-2.4-17.8-5 2.1-5.3 17.7-41.3 20.3-47.9z"></path><path id="Hero_svg__XMLID_1934_" class="Hero_svg__st13" d="M156.8 384.7c-1.8-2-4.3-4.7-6.2-7 5.9.8 11.7 1.2 17.3 1.2 1.6 1.5 4.2 4 6.6 6.3-5.8.2-11.7.1-17.7-.5z"></path><path id="Hero_svg__XMLID_1933_" class="Hero_svg__st14" d="M149.5 375.1c1.5-8.5 7.2-38.3 9.1-47.9 2.2.8 4.4 1.5 6.6 1.9-.6 9.9-2.8 26.8-3.2 33.7.9.1 2.5.3 4.3.4-.1 4.4-.1 10.3 0 13.2-5.5 0-11.1-.4-16.8-1.3z"></path><path id="Hero_svg__XMLID_1932_" class="Hero_svg__st13" d="M177.3 384.9c-2-1.9-4.5-4.3-6.4-6.1 7.5-.3 14.7-1.3 21.6-3 1.5 1.3 3.7 3.3 5.8 5.2-6.7 2-13.6 3.4-21 3.9z"></path><path id="Hero_svg__XMLID_1931_" class="Hero_svg__st14" d="M168.7 376.3c0-2.9 0-8.6.1-13 2 .1 3.8.1 4.6-.1 1-4.4 1.8-23.5 1.5-33.4 1.7 0 3.3-.2 4.9-.4 2 9.6 3.8 25.4 4.6 32.1.9-.1 2.3-.3 3.9-.5 1 4.2 2.3 9.4 3.1 12.1-7.1 1.8-14.7 2.9-22.7 3.2z"></path><path id="Hero_svg__XMLID_1930_" class="Hero_svg__st13" d="M195.1 375.2c7.4-2 14.3-4.7 20.8-8.1 1.6 1.2 3.6 2.7 5.4 4.1-6.4 3.7-13.3 6.8-20.5 9.1-2-1.7-4.1-3.6-5.7-5.1z"></path><path id="Hero_svg__XMLID_1929_" class="Hero_svg__st14" d="M193.8 372.5c-.7-2.7-2-7.7-3-11.9 1.9-.3 3.7-.7 4.5-1.1-.7-4.7-4-21.5-6.8-31.9 1.9-.6 3.8-1.2 5.7-2 3.8 9.2 8.4 22.7 10.4 29.7 1.1-.3 2.9-.8 4.7-1.5 1.5 3.5 3.4 8.2 4.5 10.9-6.1 3.2-12.8 5.9-20 7.8z"></path><path id="Hero_svg__XMLID_1928_" class="Hero_svg__st13" d="M217.8 366c7.1-3.9 13.6-8.5 19.5-13.6 1.4 1 3.2 2.2 4.8 3.3-5.9 5.4-12.2 10.2-19 14.3-1.7-1.2-3.6-2.7-5.3-4z"></path><path id="Hero_svg__XMLID_1927_" class="Hero_svg__st14" d="M235.2 350.6c-5.6 4.8-12 9.3-19.3 13.2-1.1-2.6-3-7.2-4.5-10.6 1.7-.7 3.2-1.4 3.9-1.9-1.6-4.9-8.5-19.8-13-29.7.4-.3.9-.5 1.3-.8 1.3-.8 2.5-1.7 3.7-2.6 5.5 7.6 14.5 20.6 18 26.2.7-.5 2-1.4 3.4-2.5 2.3 2.9 5 6.6 6.5 8.7z"></path><path id="Hero_svg__XMLID_1926_" class="Hero_svg__st13" d="M253.7 334.3c1.4.8 1.9 1.6 4.2 3.2-3.7 5.6-8.6 12-14.3 16.9-1.6-1.1-3.3-2.3-4.8-3.3 5.4-4.8 10.8-11.1 14.9-16.8z"></path><path id="Hero_svg__XMLID_1925_" class="Hero_svg__st14" d="M236.9 349c-1.5-2.1-4.1-5.6-6.4-8.6 1.6-1.3 3-2.5 3.6-3.3-2.9-4.2-13.4-17.2-20.2-24.5.1 0 .1-.1.2-.1 1.3-1.3 2.6-2.6 3.7-3.9 7.5 6.4 18.9 16.4 23.4 20.6.7-.6 2-1.9 3.3-3.4.4.3.7.6 1.1.9 2.5 2.1 5 4.2 6.3 5.3-4.4 6.2-9.4 12-15 17z"></path><path id="Hero_svg__XMLID_1924_" class="Hero_svg__st14" d="M222.8 302.7c.1-.1 2.6-4.3 2.8-4.3 7.3 4.3 22.5 12.5 26.3 15.1.5-.8 1.2-2.1 1.9-3.6 2.8 1.7 6.1 3.6 8.1 4.9-1.6 3.3-3.3 6.5-5.2 9.6-1.1 1.9-2.3 3.7-3.5 5.5-1.3-1.1-3.7-3.1-6.1-5.1-.4-.3-.7-.6-1.1-.9 1.2-1.5 2.3-2.9 2.7-3.7-3.4-2.7-18-12-25.9-17.5z"></path><path id="Hero_svg__XMLID_1923_" class="Hero_svg__st14" d="M229.4 291.7c.6-1.2 1.2-2.7 1.8-4.1 7 2.6 28.3 11 28.3 11l1.6-4.8c4 1.6 7.1 2.8 7.9 3.1-.1.4-.3.9-.4 1.3-1.6 5-3.5 10-5.7 14.8-2-1.2-5.2-3.2-7.9-4.8l-.1-.1c.8-1.6 1.5-3.2 1.7-4.1-2.2-1.2-22.1-9.7-27.2-12.3z"></path><path id="Hero_svg__XMLID_1922_" class="Hero_svg__st14" d="M231.9 248.6c9.4-3.3 30.3-10.1 35.3-11.4 2 4 3.4 9.3 4.4 15.2-8.2 1-26.8 3.3-37 4.6-.5-3-1.4-5.8-2.7-8.4z"></path><path id="Hero_svg__XMLID_1921_" class="Hero_svg__st14" d="M265.5 266.8c-4.6.1-21.4-.6-30.1-.9 0-2.2-.1-4.4-.4-6.6 9.8-1.2 27.8-3.4 37-4.5.8 5.9 1 12.2.8 18.3-1.8-.2-4.4-.5-7.4-.8.2-2.3.3-4.4.1-5.5z"></path><path id="Hero_svg__XMLID_1920_" class="Hero_svg__st14" d="M262.7 285.5c-4.4-.6-19.8-4-28.6-6 .3-1.6.6-3.3.8-5.1l29.5 5.2s.4-2.3.7-5.1c2.9.3 5.5.6 7.6.8-.4 7.2-1.4 14-3 19.2-.7-.3-4-1.3-8.2-2.7.6-2.4 1.2-4.9 1.2-6.3z"></path><path id="Hero_svg__XMLID_1919_" class="Hero_svg__st13" d="M272 297.3c1.8.6 3.7 1.2 5.5 1.8-2 6.6-4.5 12.6-7 17.8-1.7-.8-3.3-1.5-5-2.3 2.8-5.9 4.9-11.7 6.5-17.3z"></path><path id="Hero_svg__XMLID_1918_" class="Hero_svg__st13" d="M275.7 275.1c2.1.1 4.2.3 6.3.4-.5 7.8-2 15.3-4.1 22.1-1.8-.6-3.7-1.2-5.5-1.9 2-7.3 2.9-14.3 3.3-20.6z"></path><path id="Hero_svg__XMLID_1917_" class="Hero_svg__st13" d="M274.4 254.3c2-.5 3.9-1 5.8-1.6 1.6 7.2 2.1 14.3 1.8 21.2-2.1-.1-4.2-.3-6.3-.4.3-7.4-.3-13.8-1.3-19.2z"></path><path id="Hero_svg__XMLID_1916_" class="Hero_svg__st13" d="M269.3 236.5c2.8 1.4 5.3 3.4 7.7 5.7 1.2 2.9 2.1 5.9 2.9 8.8-1.8.6-3.7 1.1-5.7 1.6-2-10.1-4.9-16.1-4.9-16.1z"></path><path id="Hero_svg__XMLID_1915_" class="Hero_svg__st13" d="M255.3 332.1c3.7-5.4 6.8-10.8 9.4-16 1.7.8 3.3 1.5 5 2.3-5.3 10.7-10.2 17.3-10.2 17.3s-2.1-2-4.2-3.6z"></path></g></g><path d="M76.7 387.4c1.9 1.1 4.1 1.1 6 .1 1.2-.6 2.1-1.6 2.7-2.8 1.7-3.2.5-7.2-2.5-9-1.9-1.1-4.1-1.1-6-.1-1.2.6-2.1 1.6-2.7 2.8-1.6 3.2-.5 7.2 2.5 9z"></path><path class="Hero_svg__st0" d="M84.3 379.6c1 2.4-.2 5.3-2.7 6.4-2.4 1.1-5.2.1-6.2-2.4-1-2.4.2-5.3 2.7-6.4 2.4-1.1 5.2-.1 6.2 2.4z"></path><path d="M15.4 415.9c-.5-3.6-5-5.7-8.4-4.1-3.8 2-4 6.8-1.2 8.9 3.5 2.6 10.2.1 9.6-4.8z"></path><path class="Hero_svg__st8" d="M13.3 415.7c.4 1.9-.8 3.7-2.8 4.2-2 .5-3.9-.7-4.3-2.5-.4-1.9.8-3.8 2.8-4.2 1.9-.5 3.8.7 4.3 2.5z"></path><g id="Hero_svg__XMLID_1762_"><path id="Hero_svg__XMLID_1912_" d="M172.5 42.7c3.8 3.5 8.8 5.4 14 5.4 5.1 0 10-2.1 14-5.1 8.8-6.5 13.8-18.6 9.8-29.2-.4-1.1-.9-2.2-1.5-3.2-1.1-1.9-2.4-3.5-4-5C202 3 198.5 1.2 194.7.4c-2.8-.6-5.7-.6-8.6 0-6.8 1.3-13 5.3-16.5 11.3-4.2 7.1-5.6 16.3-2.1 24 1.1 2.7 2.8 5 5 7z"></path><g id="Hero_svg__XMLID_1763_"><path id="Hero_svg__XMLID_1767_" class="Hero_svg__st0" d="M206.5 31.9c4.9-7.8 3.8-18.2-3.2-24.6-2.6-2.4-5.8-4-9-4.6-6.5-1.3-13.6.7-18.6 5.8-.6.6-1.1 1.2-1.6 1.9-6.5 8.3-4.4 18.8 2.9 25.6 5.7 5.3 13.7 6.5 20.4 3.7 2.6-1 5-2.7 7-4.8.8-1.1 1.5-2 2.1-3zm-14.3 2.2c-.3 1.6-2.2 2.1-4 1.2-3-1.5-7.6-5.5-10.8-9.5-1-1.3-1.7-3.7 2-4.3 2.3-.4 5.2-.5 8.1-.5 2.7 0 3.2 1.3 3.7 3 .9 2.7 1.4 7.9 1 10.1zm4.9-10.7c-3.5-2.6-7.6-6.7-9.7-8.5-3.4-3 1.8-7.3 4.8-5.1 2.7 2 6.4 5.3 9.4 8.4 3.2 3.2-1.7 7.3-4.5 5.2z"></path><path id="Hero_svg__XMLID_1766_" class="Hero_svg__st15" d="M191.3 11.2c-2.5-1.9-4.2 1.2-1.4 3.7 1.7 1.5 4.8 4.4 7.7 6.5 2.4 1.7 4.6-.2 2-2.9-2.5-2.6-6-5.7-8.3-7.3z"></path><path id="Hero_svg__XMLID_1765_" class="Hero_svg__st6" d="M198.5 41c-.1.1-.3.1-.4.2-7.4 3.1-16.2 1.9-22.5-3.9-4.3-4-6.9-9.2-7.3-14.7-.2 1-.4 2-.5 3-.3 3.2.3 6.4 1.6 9.3 1.1 2.3 2.6 4.5 4.5 6.3 7.1 6.4 18.2 6.4 24.6-.2z"></path><path id="Hero_svg__XMLID_1764_" class="Hero_svg__st15" d="M185.9 22.8c-2.2 0-4.3 0-6.1.2-1.5.2-1.4 1.5-.6 2.5 1.9 2 6.4 6.3 8.7 7.7 1.4.9 2.2.8 2.4-.4.3-1.6-.7-5.9-1.3-8-.4-1.3-1.6-2-3.1-2z"></path></g></g><g id="Hero_svg__XMLID_1488_"><path id="Hero_svg__XMLID_1493_" d="M254.3 257.6c-1.3 22.5-22.3 39.6-43.2 43.7-13.7 2.7-28.1.2-40.6-5.7-9-4.2-17.9-10.7-25.7-18.7-7.8-8-14.9-16.8-20.9-26.2-.2-.3-.3-.5-.5-.8l-1-1.7c8.5-9.9 19.5-17 31.8-21.4l2.3-.8.9 2.2c7.9 20.1 25.9 45 50.3 43.3-5.6-3.3-9.6-9.2-10.4-15.5-.9-7.5 1.7-14.7 7.3-20.3 6.2-6.3 15.4-9.9 24.4-9.6 10.5.3 19.1 7.3 22.9 16.9 2 4.6 2.7 9.6 2.4 14.6z"></path><g id="Hero_svg__XMLID_1489_"><path id="Hero_svg__XMLID_1491_" class="Hero_svg__st6" d="M246.1 236.9c4.5 5.8 6.4 13.2 5.8 20.5-1.3 15-8.8 26.8-27.7 36.8-16.2 8.6-36.5 6.9-52.6-.7-9.2-4.3-17.9-11-25-18.2-7.7-7.9-14.6-16.6-20.6-25.8-.2-.3-.4-.6-.5-.9 1.6-1.9 3.3-3.7 5.5-5.2 3.6 7.2 8.2 14 13.5 20.1 6.5 7.5 14.2 14 22.7 19.2 8.2 5 17.4 9.8 27.3 9.1-1.4.1-3.3-.7-4.6-1-1.7-.4-3.4-.9-5-1.4-9-2.8-17.6-8.3-24.9-14.2-7.7-6.2-14.5-13.6-20-21.9-2.4-3.7-4.6-7.5-6.5-11.5 1.7-1.2 3.4-2.5 5.1-3.8 2.1 3.6 5.9 8.6 6.4 9.4 3.2 4.8 6.6 9.5 10.3 13.9 4.3 5.1 9.1 9.8 14.5 13.8 13.7 10 33.7 13.8 50.2 9 13.2-3.9 23.7-14 24.2-27.7.2-7.5-4.6-15-10.8-18.9-5.5-3.4-12.8-3.9-19.3-.1-5.6 3.3-10.4 10.1-9.4 17.1.6 3.6 3.1 6.6 5.9 9.1 2 1.8 5.1 2.4 7.7 2.6 2.3.1 4.1-.4 5.9-1.2-3.3 3.7-8.5 6.2-11.2 6.5-6.7-2-12.3-8.4-13.1-15.4-1.9-16.3 14.2-27.6 29.2-27.2 6.5-.1 12.8 2.7 17 8z"></path><path id="Hero_svg__XMLID_1490_" class="Hero_svg__st0" d="M238.4 245.1c2.3 3.3 3.7 7.4 3.4 11.5-.9 12.8-9.9 21.7-22.2 25.3-16.4 4.8-36.3.5-50-9.5-3-2.2-5.8-4.7-8.4-7.4-4.8-5-9.2-10.3-13.2-16-2.7-3.8-5.7-8-8-12.3 1.5-1 3-2 4.6-2.9l1.2-.6c3.1 6.1 6.4 12.1 10.4 17.7 5.7 7.9 12.9 14.7 21 20.1 2.4 1.6 4.8 3 7.5 4 2.1.8 4.7.9 6.8 1.7-8.5-3.6-16.6-8.5-23.4-14.8-8.6-8.1-15.4-18.7-20.5-29.6 2.4-1.2 4.9-2.2 7.4-3.1 3.6 9.3 8 17.7 14.4 25.3 10.7 12.7 28.1 23.4 45.2 18.3 9.7-2.9 17.9-11.9 16.4-20.2-1-5.2-6.5-9-11.5-6.3-3.7 2-5.9 6.9-1.9 10.6 2.7 2.5 7.4.5 6.6-3.5-.3-1.2-1.5-1.3-1.5-.1 0 2-2.6 3-4 1.6-1.6-1.6-1.4-4.5 1.6-6.3 3.8-2.4 7.9-.2 9 3.8 1.4 4.9-3.5 10.6-8.3 12-6.1 1.8-14.3-3.7-14.3-10.9 0-7.1 5.2-13.8 12-15.8 7.5-2.2 15.4 1.3 19.7 7.4z"></path></g></g><g id="Hero_svg__XMLID_1459_"><path id="Hero_svg__XMLID_1487_" d="M144.3 80.9c-7.7 1.6-15.1 4.2-22.2 7.7-9.4 4.6-17.9 10.9-24.8 18.8-10.6 12-17.7 27.4-19.2 43.3-1.4 15.5 1.8 31.1 7.7 45.4 4.3 10.4 11.2 19.7 15.2 30.2 2.7 7.3 4.9 15.6 2.5 23.2-2.3 7.4-8.1 14.1-16.3 14.4 6-4.2 6.6-13.3-2-19.2-6.2-4.2-13.3-2.8-18.6 1-5.8 4.2-8.3 11.2-7.5 18.2 1.9 15.6 16.9 26.3 31.7 27.4 17.4 1.2 32.7-8.3 42.2-22.4 9.1-13.6 12-29.9 8.4-45.7-.9-3.9-2.9-7.5-4.6-11.1-6.3-13.7-14.4-27.4-15.4-42.8-.6-9.4 1.7-18.5 6.9-26.3 9.2-13.9 25.6-20.3 41.8-19.8 3.8.1 7.6.6 11.3 1.5 6.2 1.6 12 5.3 15.9 10.5 4.5 5.8 5 11.9 5.8 18.9 1.8 15.6 0 31.1 1 46.7.7 10.7 2 22 7.1 31.6 2.8 5.2 6.4 10 10.7 14 5.1 4.9 11.1 9 17.9 11.3 11.9 3.9 23.6 1.2 33.5-6.4 5.1-4 10.2-9.2 13.8-14.7 2.6-4 4.7-8.5 4.2-13.3-1-10.5-15.7-20.8-25.8-15.3-5.4 2.9-7 9.7-3.9 14.9 3.4 5.7 12.4 7.4 16.2 1.1.4 1.7-.5 3.5-1.3 4.8-6 9.3-21.2 5.5-26.5-3-3.5-5.6-3.8-12.7-4.2-19-.4-6.6.1-13.3.9-19.9 2-17.8 4.8-34.5-1-52-5.9-17.8-17.5-33.5-31-42-21-13.1-46.6-17-70.4-12z"></path><g id="Hero_svg__XMLID_1478_"><path id="Hero_svg__XMLID_1484_" class="Hero_svg__st1" d="M167 80.9c-7.5-.2-15 .5-22.3 2-10.9 2.3-21.5 6.7-30.8 12.9-18.7 12.5-31.7 32.5-33.7 55.1-1.6 17.3 2.8 35.2 10.4 50.8 3.2 6.6 7.1 12.8 10.3 19.4 3.2 6.6 5.6 13.7 5.6 21 .1 7.3-2.5 14.9-8.1 19.7-5.5 4.8-14.2 6.1-20.3 2.1-2.3-1.5-4.3-4-4.1-6.8.2-2.8 3.4-5.2 5.8-3.8-1.6-1.8-4.8-1.2-6.3.7-1.4 1.9-1.4 4.7-.5 6.9 2.2 6.1 9.4 9.5 15.9 8.6 6.4-.9 12-5.2 15.8-10.4 8.3-11.4 7.3-25.4 2.8-38.1-2.3-6.4-5.4-12.5-8.7-18.4-3.6-6.4-6.3-13.3-8.4-20.4-4.7-15.5-6.3-32.5.8-47.6 13.9-29.2 47.7-46 79.4-44.7 10.3.4 20.6 3.2 30 7.9 18.8 9.4 33.8 26.5 37.3 47.6 4 24.6-9.1 49.9-1.7 74.1 3.2 10.5 11.1 18 21.3 21.6 8.2 2.9 19 1.5 25.8-4.2 7.3-6.1 7.4-15.8 1.9-21.4-3.1-3.2-7.2-5.8-11.9-6.4-1.7-.2-3.6-.1-5.5.3-6.1 1.3-8.3 9.3-3.4 13.9 4.2 4 9.6 3.1 11.7-1 1.4-2.7-.5-5.5-3.6-5.1-1.6.2-2-1.4-.4-1.8 4.3-1.1 8.5 3.9 7.9 8.2-1 6.5-6.2 13.4-18.7 11.6-5.7-.8-10.7-5.1-13.8-9.7-3.7-5.5-4-11.4-4.2-17.9-.4-12.4.6-24.8 3-36.9 2.3-11.7.8-23.7-3-35-5.2-15.6-15.9-31.9-30-40.8-13.7-8.7-30-13.6-46.3-14zm69.6 46.9c.7 1.7 1.3 3.5 1.7 5.4-.4-2.4-2.2-4.5-3.3-6.5-1.4-2.7-3.1-5.4-4.8-7.9-6.7-10.2-16.3-18.6-27.1-24.1-7.5-3.8-15.8-7.2-24.2-8.2-7.1-.9-14.2-.5-21.3.5-14.1 2.1-28.7 4.8-40.5 13.3-6.5 4.7-12.2 10-17.1 16.4-3.8 4.9-6.8 10.3-10.4 15.3 2.2-5.9 5.4-11.4 9.4-16.3 2.8-3.4 5.8-6.5 9-9.6 1.5-1.5 3.2-2.9 5-4.2 4.3-3 8.6-6 13.4-8.2 10.4-4.7 21.8-6.7 33-8.1 7.5-.9 15-1.2 22.5.2 7.6 1.4 15.2 4.3 21.9 7.9 7.3 3.9 14.4 8.7 20.1 14.9 3.4 3.7 6.3 7.7 8.9 12 1.2 2.2 2.7 4.6 3.8 7.2z"></path><path id="Hero_svg__XMLID_1483_" class="Hero_svg__st0" d="M210.4 106.2c-12.1-8.9-26.9-13.5-41.8-14.2-16-.8-29.6 4.1-43.7 10.7-14.4 6.7-26.3 18.8-32.5 33.5-9.8 23.2-2.1 47.5 8.8 68.7 5.4 10.6 11.7 21.5 11.9 33.5.1 9.3-3.7 18.6-10.4 25-4.9 4.8-11.8 8.1-18.6 7.1-6.8-1-13-7.2-12.3-14-1.8 2.2-2 5.5-.9 8.1 1.1 2.6 3.3 4.7 5.7 6.2 9.3 5.6 22 2.7 29.6-5 7.6-7.7 10.5-19.1 9.8-29.9-1-15.3-8-29.8-14.6-43.4-2.5-5.1-5.8-10.1-7.2-15.6-3.2-13.1-2.7-27.6 3.8-39.5 6.6-12.1 16.5-22.3 28.2-29.6 24.3-15.2 60.2-13.7 82.3 5.4 6.1 5.3 10.7 12.4 13.9 19.7 3.9 9 5.3 18.8 5.2 28.5-.1 9.7-2.8 18.8-3.9 28.3-.9 7.4-.9 15.2-.8 22.7.2 12.4 4 24.8 14.5 32.3 4 2.8 8 5.1 12 6.4 8.7 2.9 17.4 1.7 26.4-6.1-1.7 1.5-7.8 1-10 .9-3.2-.1-6.4-.7-9.4-1.7-5.8-1.9-10.9-5.5-14.9-10.2-8.5-10-9.4-22.6-8.7-35.2.8-15.5 3.5-31 3.1-46.5-.6-18.8-10.9-35.2-25.5-46.1z"></path><path id="Hero_svg__XMLID_1479_" class="Hero_svg__st1" d="M185.9 103.4c-5.2-1.6-10.6-2.7-16.1-3.5-14.7-2.2-29.6 1.7-42.3 9.3-6.9 4.1-12.2 9.5-17.9 15.1-5.9 5.9-10.4 13.1-13.1 21-4.6 13.5-3.3 27.5 2.7 40.3 6 12.8 13.6 25 17 38.9 1.8 7.4 2.4 16.7 0 25.6-2.3 8.6-7.4 16.8-16.9 22.5-9.5 5.7-19.5 3.5-26.1-3-1.2-1.1-2.2-2.4-3.1-3.8 1.4 4.9 5.6 10.8 15.2 13.1 5.2 1.2 12.3.4 19-3.3 6.5-3.5 12.7-9.6 16.4-18.9 4.2-10.5 5-23.4-.1-42.3-3.9-14.2-11-22.3-14.8-34.6-8.7-27.8 10.2-54.5 35.2-65.4 21.4-9.3 50.7-7.6 65.7 12.3 7.7 10.2 10.2 23.5 10.2 36.2.1 12.8-2 25.5-2.2 38.3-.2 12.8 1.6 26.1 8.7 36.7-7.7-9.5-10.3-22.1-10.4-34.3-.2-12.2 1.8-24.3 2.2-36.4.4-12.2-1-24.8-7.2-35.3-15.9-26.5-53.8-25.4-77.2-10.3-10.3 6.6-16.6 16-21.7 26.9-4.7 10-4.5 20.7-1.3 31 3.9 12.3 10.7 20.8 14.6 35 5.2 18.9 3.6 32.6-.6 43-3.7 9.1-10.1 15.3-16.9 19.1-7.3 4-15.1 5.2-20.4 3.9-8.4-2-16.6-10.6-16.4-18.5.1-5.7 5-12.1 9.8-10.7 5.6 1.6 4.6 7.4 2.5 4.4-.9-1.2-1.9-2.1-3.3-1.5-1.1.5-2.2 3.4-1.5 4.8 1.8 4.2 7.9 5.9 11.7 2.4 4.6-4.3 1.8-11-3.2-14.7-4.3-3.1-11.4-2.8-16.9 1.6-.7.6-1.4 1.3-2 2-4.4 5.3-5.3 13.7-.9 22 3.5 6.7 8.7 11 15.4 14.2 2 1 4.2 1.7 6.4 2.2 7.1 1.6 14.9.8 22-1.8 3.8-1.4 7.4-3.2 10.6-5.5 2.2-1.5 4.2-3.2 5.9-5.1 2.2-2.4 4.2-4.8 6-7.4 2.1-3 3.9-6.2 5.4-9.4 6.2-13.5 7.2-30.2.5-43.8-7.3-15-16-29.1-17.1-46.3-1.5-21.8 12.5-40.6 33.4-46.5 10.9-3.1 22.6-2.6 33.4.7 14.5 4.5 20 18.8 20.1 32.7l.3 42.9c.1 10.9 1.6 22.4 6.8 32.2 2.6 5 6 9.5 10.2 13.5 9.6 9.1 21.4 14.7 34.6 11.4 1.4-.4 2.9-.8 4.3-1.4-4.6-.2-9.2-1-13.4-2.5-7.4-2.5-13.9-6.7-18.3-11.8-8.2-9.6-10.4-21.2-9.6-33.5.5-7.2.6-14.5 1.4-21.7 1.6-15.6 5.1-31.4-.2-46.6-3.8-11-10.9-20.8-20.2-27.7-5.3-3.5-10.7-6-16.3-7.7zm23.9 70.2c-.2-2.1-.2-4.2-.1-6.3.1-2.9.7-5.8.8-8.6 0-2.6-.2-5.2-.7-7.8-1-5.1-2.9-10-5.4-14.6-8.7-16.2-29.6-20.4-46.5-17.7-15 2.4-30.2 11-37.9 24.5-7.1 12.6-6.9 27.5-2.9 41.1 4.3 14.6 13.1 27.2 15.7 42.4.8 4.8 1.3 9.7 1 14.6-.3 4.7-1.3 10-4.3 13.7.7-.9 1-2.6 1.3-3.7.4-1.3.8-2.6 1-3.9.6-2.6.7-5 .7-7.5.2-9.9-1.9-19.8-5.7-28.9-3.4-8.3-7.9-16.1-10.6-24.8-2.3-7.6-3.8-15.7-3.2-23.7.9-13.4 7.3-25.4 18.1-33.5 11.6-8.6 25.5-13.1 40-12 7.4.6 15 2.2 21.5 5.9 6.8 3.9 11.1 9.4 14.4 16.4 3.3 7 5.1 14.3 4.4 22.2-.2 2-.3 3.9-.7 5.9-.1 2-.5 4.2-.9 6.3zm9.5-31.1c2 6.4 3.2 13 3.2 19.7 0 3.7-.3 7.5-.8 11.1-.5 3.7-1.1 7.2-2 10.8-.2.6-.3 1.3-.7 1.8 0-3.3.6-6.3 1-9.5 1.4-11 1.7-22.2-1.7-32.9-4-12.7-11.9-24.5-23.4-31.6-26.1-16.2-61.2-5.6-81.1 15.7-10.1 10.9-16 24.1-14 39.2-.2.3.3 1.9.4 2.3 1 5.9 2.8 11.6 4.9 17.1 1.1 2.8 2.2 5.5 3.5 8.2 1.2 2.7 2.1 5.4 3.3 8.1.2.5.5 1.1.5 1.7-2.1-3.4-3.8-6.9-5.5-10.6-4.6-10.4-8.6-21.4-8.6-32.9 0-16.7 9.6-30.9 22.3-41 20.9-16.7 52.9-24 76.3-7.9 10.7 7.4 18.5 18.4 22.4 30.7z"></path></g></g><g id="Hero_svg__XMLID_1401_"><path id="Hero_svg__XMLID_1456_" d="M180 125c-3.3 0-6.8.4-10.3 1.1-24.8 5-41.3 29-46.1 52.6-3.8 18.7-.1 38.7 11.1 54.3 6.9 9.6 16.3 17.8 27.5 21.9 7.2 2.7 15.1 4 22.6 1.9 6.3-1.7 12.6-5.3 15.7-11.2 3.6-7 2.8-17-4.3-21.5-6.1-3.9-16.8-1.3-17.9 5.9-.7 4.8 1.4 7.1 4.8 8.9-16.6 0-24.1-10.5-29.6-20s-8.9-20.3-9.3-31.2c-.4-12.6 3.3-26.9 11.6-36.5 2.8-3.2 11-9.6 16.7-11.8-13.8 11.7-3.1 25.5 3.2 28.7 16 8.1 37.6-3.6 34.4-21.7-2.2-13.9-17-21.4-30.1-21.4z"></path><path id="Hero_svg__XMLID_1455_" class="Hero_svg__st0" d="M157.3 250.6c7 3.8 15.1 5.7 23 4.7 7.4-.9 15.9-4.3 18.7-11.8 1.3-3.4 1.7-7.4.6-10.9-1.6-5.1-6.3-8.4-11.6-7.8-3.5.4-7.8 2.3-8.4 6.2-.4 3.1 1.7 6.2 4.8 6.8 1.1.2 3.7-.1 3.9-1.6.1-.5-.1-1-.6-1.3-.3-.2-.7-.3-1-.4-2.1-.9-.1-3.8 1.2-4.4 1.2-.5 2.5-.5 3.7 0 1.3.5 2.5 1.5 3.1 2.8 2.6 4.7 0 10.9-4.6 13.2-7.3 3.6-17.5 1.9-24.7-1-7.6-3.1-14.3-8.4-19.6-14.7-8.2-9.8-13.5-22-14.7-34.7-1.2-12.7 1.5-25.7 7.8-36.7 6.3-11.1 16-20.1 27.5-25.5-13.5 6.1-24.1 18.2-29.2 32.1-5.1 13.9-5 29.6-.5 43.8 3.7 11.7 10.5 22.6 20.6 29.5 5.9 4 12.9 7.2 20 7.6 6.1.3 15.3-.6 17-7.7.6-2.6-.5-5.7-3-6.8-1.6-.7-3.9-.2-4.4 1.4 1.3-.3 2.6.9 2.8 2.2.2 1.3-.6 2.7-1.7 3.5-1.1.8-2.4 1.2-3.7 1.4-5.9 1.1-12.1-.2-17.2-3.5-2.2-1.5-4.4-3.7-6.4-5.6-2.1-2-4.1-4.2-5.8-6.6-1.4-1.9-2.7-3.9-3.8-6-12.1-21.2-13.6-49.8 3.1-69.1 2.8-3.3 6.1-6.2 9.7-8.5 4.2-2.7 9.9-5.1 14.8-6.1 1.8-.4 3.6-.6 5.3-.4 6.5.7 12.4 3.6 13.3 10.5.8 5.7-2.9 11.3-8.5 13.2-.9.3-1.9.5-2.9.6-5.7.5-11.1-3.4-9.6-9.3 1.1-4.4 6.3-7.7 10.5-4.7 3.2 2.3 1.8 7-2 6.9-1.4 0-2.2-1.7-.9-2 1.7-.5 1.4-2.7.1-3.3-1.7-.8-4.2 1.6-4.7 3.6-1.2 4.9 2.6 7.3 7 7.1.7 0 1.4-.1 2.1-.3 4.9-1.4 7.5-6.9 7-11.3-.7-6.4-10.6-10.9-17.6-7.9-9.4 4.1-11.6 13-8.7 19.7 4.4 10 14.9 12.9 21.9 11.3 13.5-3 19.2-14.4 16.1-23.5-4.8-14.2-18.5-21.1-37.6-17.3-14.7 3-28.3 12.2-39.2 35-10.4 21.9-8.5 48.8 5.6 68.5 4.1 5.8 9.3 10.8 14.9 15.1 2.5 1.7 4.5 2.9 6.5 4z"></path></g><g id="Hero_svg__XMLID_1371_"><path id="Hero_svg__XMLID_1399_" d="M115.1 136.3c2-3.8 3.5-7.8 4.4-12 4-18.5-4.2-38.7-20.2-49.1-1.2-.8-2.4-1.5-3.6-2.1-16.2-8.6-36.4-6.7-50.8 4.6-11.6 9.1-18.2 23.5-17.7 38.3.5 13.1 6.6 25.9 16.7 34.4.2.2.5.4.7.6 15.6 12.5 38.6 13.4 55.2 2.4 6.5-4.4 11.7-10.3 15.3-17.1z"></path><g id="Hero_svg__XMLID_1372_"><path id="Hero_svg__XMLID_1396_" class="Hero_svg__st16" d="M90.7 110.6c-1.4-4-4.1-7.5-8.2-9.7-2.5-1.3-5.3-2.1-8.1-2.2-4.6-.3-9.5.8-13.1 3.8-6 5-7.9 14.4-5.6 21.6 3 9.4 16.5 14.5 25.2 10.7 9.4-4 12.9-15.3 9.8-24.2zm-11.1 20.6c-10.6 4.6-23.5-4.3-21.5-16 .6-3.7 2.5-7.2 5.4-9.6 6.4-5.3 17.1-4.6 22.2 2.1.8 1.1 1.6 2.2 2.1 3.4 3.5 7.5-.7 16.9-8.2 20.1z"></path><path id="Hero_svg__XMLID_1388_" d="M85.9 113.9c-1-3.5-3.5-6.6-7.2-8.2-3.5-1.6-7.8-1.6-11.3.1-5.4 2.6-9 9.4-7.2 15.3 2.2 7.4 11.8 11.3 18.7 8.3 6.5-2.9 8.7-9.7 7-15.5zm-9.1 10c-7.6 3.5-15.5-8.6-7.1-12.8 3.3-1.7 7.8-.1 9.8 2.9.9 1.4 1.7 2.8 1.5 4.4-.4 2.3-2 4.5-4.2 5.5z" fill="#574e4d"></path><path id="Hero_svg__XMLID_1373_" class="Hero_svg__st16" d="M117.4 123.9c2.4-11.2.4-23.1-5.7-33-4.1-6.7-10-12.1-17-15.8C73 63.5 46 71.8 34.4 93.5c-11.5 21.8-3.2 48.8 18.5 60.3 21.8 11.5 48.8 3.2 60.3-18.5 2-3.6 3.4-7.5 4.2-11.4zM79 154.1c-4.7.9-9.5.8-14.2-.2-10.5-2.2-19.9-9.3-25.5-18.4-5.8-9.3-7.3-20.5-4.4-31 2.3-8.2 7.2-15.5 13.9-20.8-9.7 9.7-16.1 24.9-12.9 39.6 2.6 12.2 11.1 22.7 22.9 27.3 8.3 3.2 17.5 3.5 26.2 1.8-1.9.8-3.9 1.3-6 1.7zm18.3-18.3c3.4-6.1 5.2-12.7 5.1-19.7-.1-6.5-4-13.5-8.3-18.3C83 85.5 64.3 83.3 51.8 95c-8.7 8.2-12 21.5-8 32.9 1 2.9 2.5 5.7 4.4 8.2 4.6 5.9 11.8 10 19.1 11.3 6.9 1.3 14.3.2 20.6-3-5.2 2.6-9.7 4.7-15.7 4.8-5.9 0-12.1-1.8-17.2-4.9-2.9-1.8-5.6-3.7-7.5-6.5-2.4-3.5-4.4-7.4-5.8-11.5-5.1-15.1 4-33.3 18.7-38.7 2.1-.8 4.5-1 6.7-1.4 1.8-.3 3.7-.4 5.5-.4 5.6.1 11.1 1.8 15.7 5.2 9.5 7.1 16.5 18.2 14.8 30.5-.6 5.1-2.4 10.3-5.8 14.3zm-47.9-24.6c-2.2 8.5.4 14.6 1.1 16.5.5 1.4 1.1 3.4 1.9 4.7-4.3-5.2-6.1-12.4-4.9-19 1.8-10.1 8.4-19.8 19-21.8 1.1-.2 2.2-.3 3.4-.4 8.9-.6 16.8 3.8 22.6 10.5 1 1.1 3.9 3.6 3 5.3.4-.6-2.6-3.8-3-4.3-1-1.2-2.1-2.3-3.4-3.3-2.7-2.1-5.7-3.6-8.8-5-7.3-3.2-16-1.9-22.5 2.5-4.5 2.9-7.4 10.5-8.4 14.3zm3.2 8c-1.2-10.7 7-21.8 18-22.4 13.4-.8 25.6 11 22.7 24.8-1.3 6.3-5.7 12.2-11.7 14.7-9.7 4-21.2-.6-26.3-9.2-1.4-2.4-2.4-5.1-2.7-7.9zm30.6 20.3c11.4-5.7 17.5-17.9 13.9-30.9 5.2 11.7-1.4 26.2-13.6 32.4-9.2 4.7-24.8 1-29.3-6.5 7.7 7.5 20.4 9.3 29 5zm12.1 6.5c-1 1-2.2 2-3.5 2.5 4.7-4.1 8.4-9.1 11.2-14.6 1.3-2.5 2.4-5.1 3-7.9 1.8-7.3 1.7-15.3-1.7-22.2-3.8-7.6-11.9-14.1-19-18.6-1.1-.7-2.7-2-4-2.2 1.7.2 3.3.9 4.8 1.6 8 3.5 15.5 10.1 19.5 18 7.2 14.5.5 32.7-10.3 43.4zm7.4-3.7c5.2-5.5 8.7-12.7 9.7-20.2 2-14.6-5.8-31.2-18.4-39-6.5-4-14.7-5.7-22.2-5.8-6.8-.1-13.6 1.4-19.8 4.3 8-5 17.8-6.8 27.1-5.3 8.2 1.3 15.9 5 22.2 10.4 5.7 4.8 9.5 12.6 11.8 19.6 4.3 12.4 0 28-10.4 36z"></path></g></g><g id="Hero_svg__XMLID_729_"><path id="Hero_svg__XMLID_1170_" d="M130.2 133c-.5-.1-.9.4-.6.9 2.5 4.1 5 9.4 6.8 13.7 2 4.8 3.7 9.7 5.2 14.7 2.7 8.7 4.6 17.6 5.5 26.6.8 8.2.6 16.4-.4 24.5-1 8.2-3.4 15.8-5.4 23.8 0-.1 5-.6 5.6-.6 2.1.1 4.3.4 6.4.7-3.8 7.3-8.5 14.1-14.1 19.8l-2.2 2.2 2.8 1.4c8.8 4.5 17 10.1 25.1 15.8 7.4 5.2 14.8 10.4 22 15.6.8.6 1.6 1.1 2.4 1.7.1.1.1.1.2.1.2 0 .3-.1.5-.2.4-.3 3.3-3.1 3.7-3 1.5-1.2 3-2.5 4.4-3.8 2.9-2.6 5.6-5.4 8.2-8.3 5.2-5.8 9.9-12 14.1-18.5 7.7-11.8 14-24.5 19.3-37.5 2.6-6.3 4.9-12.8 7-19.3l.8-2.5c-3.5-.6-6.9-1.3-10.4-2.1.4-.9.6-3.1 1.1-9.2.7-9.4.7-18.8-.1-28.2-.7-9.4-1.4-18.9-4.1-28-5.7 1.8-11.5 2.3-17 4.7.3-.1-2.8-6.9-3.1-7.7-3.2 1.8-7.4 2.9-11 3.9-4 1.1-7.9 1.6-10.9 1.9-9.5 1.1-19.4 1.8-29 1.1-7.5-.5-21.3-2.1-32.8-4.2z"></path><g id="Hero_svg__XMLID_751_"><path id="Hero_svg__XMLID_1169_" class="Hero_svg__st18" d="M236.2 165.5c-.2-2.2-.3-4.4-.5-6.7-.5-6.9-1.1-13.8-2.6-20.6 0-.2-.5-2.2-.6-2.2-2.7.4-8.8 1.6-14.5 4.1 4 7.7 10 24.5 12.5 44.7.5 4.2.8 8.3.9 12.5 1.3.2 2.5.4 3.6.5.5.1 1.6-17.8 1.7-19.5.1-4.2-.2-8.5-.5-12.8z"></path><path id="Hero_svg__XMLID_1130_" class="Hero_svg__st18" d="M224.4 163.7c-.4-1.5-.8-3-1.3-4.5-2.9-8.9-7.1-17.4-10.2-26.2.2.6-8.4 3.3-9.2 3.5-4.1 1.1-8.1 1.7-12.2 2.1-9.4 1-18.9 1.4-28.4 1-5.2-.2-10.5-.5-15.7-1.2-2.3-.3-4.7-.7-7-1.2-.8-.1-4.3-.5-6-1-.3-.1-.6.2-.5.6 8 16.3 13.9 33.8 15.6 51.9.7 7.8.6 16-.3 23.7-.4 3.9-1 7.7-1.9 11.5-.2 1.1-2.2 10.3-3.1 10.4 2.7-.1 6.3.3 10.2.8 2.8-5.7 5.1-11.7 6.8-17.7-1.8.1-3.4.2-4.5.1-.3.1-.3-.6-.1-.8 1.4.1 3.1.1 4.8-.1.1-.5.3-1 .4-1.5-1.9.2-3.6.2-4.8.1-.3.1-.3-.6-.1-.8 1.5.1 3.2.1 5.1-.1.1-.6.3-1.2.4-1.7-2.1.2-4 .2-5.3.1-.3.1-.3-.7-.1-.8 1.6.1 3.5 0 5.6-.1.1-.6.3-1.1.4-1.7-2.3.2-4.3.3-5.6.1-.3.1-.3-.6-.1-.8 1.7.1 3.7 0 5.9-.1.1-.6.2-1.2.4-1.7-2.6.2-5 .3-6.6.2-.3.1-.4-.8-.2-1 2 .1 4.4 0 6.9-.2.4-2.3.8-4.5 1.1-6.7-2.9.3-5.6.4-7.3.2-.3.1-.3-.7-.2-.9 2.1.1 4.8 0 7.6-.3.1-.5.1-1 .2-1.5-3.1.3-5.9.5-7.7.4-.3.1-.4-.7-.2-.9 2.2 0 5.1-.2 8.1-.4.1-.6.1-1.2.2-1.8-3.2.4-6 .7-7.9.7-.3.1-.4-.7-.3-.9 2.3 0 5.2-.3 8.2-.7 0-.6.1-1.1.1-1.7-3.4.5-6.5.8-8.4.8-.3.1-.5-.7-.3-.9 2.4 0 5.6-.3 8.8-.8 0-.6.1-1.2.1-1.8-3.5.5-6.7.8-8.6.8-.3.1-.4-.7-.3-.9 2.5 0 5.7-.4 8.9-.8.1-2.9.1-5.6 0-8.2-4.2.4-7.9.7-9.6.6-.3.1-.5-.7-.3-.9 2.1 0 5.7-.3 9.8-.7 0-.4-.1-.9-.1-1.3-4.4.3-8.1.6-9.9.5-.3.1-.5-.6-.3-.8 2.3 0 6-.2 10.1-.6-.1-.6-.1-1.2-.2-1.8-4.4.4-8.1.7-9.9.6-.1 0-.2 0-.2-.1-.1-.2 0-.5.1-.6 2.3 0 5.9-.3 9.9-.6-.1-.5-.1-1-.2-1.4-4.6.5-8.5.8-10.3.8-.3.1-.3-.6-.1-.8 2.3-.1 6.1-.4 10.2-.9 0-.2 0-.3-.1-.5l.4.4c3.1-.3 6.1-.7 9.2-1 2.8-.3 5.7-.7 8.5-1 2.8-.3 5.6-.8 8.4-1.2 3-.5 6-.9 9-1.4 2.5-.4 5-.9 7.5-1.4 1.1-.2 2.3-.4 3.4-.7l.1.7c-1.2.3-2.5.5-3.8.8-2.5.5-5.1 1-7.6 1.4-3 .5-6.1.9-9.2 1.4-2.5.4-5 .8-7.5 1.1-2.7.4-5.3.7-8 1-3 .4-6.1.7-9.1 1.1.5.4 1.1.8 1.8 1.3 3.2-.3 6.4-.7 9.7-1 2.7-.3 5.4-.6 8.2-1 3.4-.4 6.7-1 10.1-1.5.6-.1 1.3-.1 1.9-.2.5-.1 1-.2 1.5-.2 1.1-.2 2.3-.4 3.4-.6 2.2-.4 4.4-.8 6.7-1.2.8-.1 1.6-.3 2.4-.4v.6c-1 .2-1.9.4-2.9.6-1.9.4-3.9.7-5.8 1-2.3.4-4.5.8-6.8 1.2-3.4.5-6.9.9-10.3 1.4-2.4.4-4.8.6-7.3.9-3.2.4-6.4.7-9.7 1 .8.5 1.7 1.1 2.7 1.6 3.3-.3 6.6-.7 10-1.1 2.9-.4 5.8-.9 8.8-1.4 2.7-.4 5.4-.8 8.1-1.3 2-.3 4-.7 6-1 1.8-.3 3.7-.6 5.5-1 .4-.1.8-.1 1.3-.2v.6c-.4.1-.8.2-1.2.2-1.8.3-3.6.7-5.4 1-2 .4-4 .7-6 1.1-2.6.5-5.3 1-7.9 1.4-2.7.5-5.5.9-8.2 1.2-3.2.4-6.4.8-9.6 1.1.6.4 1.2.7 1.9 1.1 5.8-.6 24.2-3.4 26.3-3.7l.4.5c-1.9.4-20 3.2-25.4 3.8 2.7 1.4 5.7 2.9 8.8 4.3 2.9-.5 24.5-3.3 26.1-3.6l.1.6c-1.3.3-22.5 3-25 3.5 1 .4 2 .9 3.1 1.3 2.5-.5 21.3-2.5 22.7-2.8l.1.6c-1.2.3-19.5 2.3-21.6 2.7 6.2 2.4 12.3 4.6 18.7 6.3 5.3 1.4 17.3 4.3 20.5 4.8-.6-10.7-2.5-22-5.3-32.8zm-75.1-11.6c9 .1 16.2-.2 22.4-.8 12.3-1.1 21-3.5 33.3-6.7l.1.8c-7 2.3-13.2 3.9-19.1 5-12.8 2.5-23.7 2.8-36.5 2.5-.2.2-.4-.6-.2-.8zm.7 3.3c15.1 0 25.8-1.3 36.3-3.4 6.3-1.3 12.5-2.9 19.6-4.7l.1.7c-13 3.7-24.4 6.1-35.6 7.3-6.7.7-13.3 1-20.1 1-.3 0-.4-.7-.3-.9zm.8 2.5c6.5-.1 13.1-.5 19.8-1.2 12-1.3 24.1-3.6 36.1-6.8l.1.8-.9.3c-20.3 5.8-39.6 7.3-54.8 7.7-.3.2-.4-.6-.3-.8zm1.7 3c13.2-.4 27-1.4 42.3-4.4l.1.6c-14.5 3.2-30.1 4.3-42.1 4.6-.3.1-.5-.6-.3-.8zm1.1 3.5c-.3.1-.5-.7-.3-.8 13.2-.5 26.8-1.9 39.1-3.9l.2.6c-13.4 2.4-30.3 3.6-39 4.1zm45.4 1.7c-.7.1-3.5.6-5 .9-1.2.3-5.4.7-6.2.8-1.9.2-27.9 3.7-32.8 3.6-.3.1-.5-.7-.3-.8 6.5-.3 48.5-5.3 56-7.4l.1.7c-2.4.5-7.1 1.4-11.8 2.2z"></path><path id="Hero_svg__XMLID_752_" d="M244.6 202.6c-9.1-1.6-26.4-6.4-29.2-7.1-4.6-1.1-9.1-2.3-13.6-3.6-8.9-2.6-17.5-5.8-25.7-9.9-.8-.4-7.3-3.1-7.4-4 1 25.5-7.4 59.8-27.9 80.6 7.6 3.9 21.1 13.2 31.6 20.4 5.7 3.9 11.2 8.5 17.2 11.9 32.4-24.3 49.4-70.6 55-88.3zM216 240.8c-.1 0-.1.1-.2.2-10.1-2.2-38.6-13.5-43.2-15.3-.4-.1 0-1 .2-1.1 6.1 2.5 33.8 13.6 43.5 15.6 0 .2 0 .3-.1.5 0 0-.1.1-.2.1zm2.8-4.8c-7.5-2-40.5-14-45.3-16-.4-.1 0-1 .3-1.1 6.2 3.1 38.9 14.1 45.7 16.2-.1.3-.3.7-.7.9zm-41.7-30.6c-.4-.1 0-1.3.3-1.4 6.4 2.6 40.4 13.5 45.6 14.8l-.3.8c-5.2-1-40.3-12.1-45.6-14.2zm42.7 16.1l-.3.8c-5.3-1-37.9-11.3-43.1-13.4-.4-.1 0-1.1.3-1.2 6.6 3.2 37.8 12.5 43.1 13.8zm-43.9-11c6.6 3.3 35.3 12.2 40.5 13.9l-.3.8c-5.2-1.1-35.3-11.3-40.5-13.4-.3-.2.1-1.2.3-1.3zm3-13c6.7 2.6 45.3 14.9 50.6 16.5l-.3.8c-11-2.4-45.3-14-50.6-16.1-.4 0 0-1.1.3-1.2zm-1.2 3.4c6.6 3.2 43.3 14 48.5 15.3l-.3.8c-5.3-1-43.3-12.7-48.5-14.8-.4-.1 0-1.2.3-1.3zm-4.6 20.2c6.3 2.9 36.3 14.1 44.7 16.5.1.4-.1.7-.4.9-7.6-2.1-39.8-14.3-44.6-16.4-.3 0 .1-.9.3-1zm-1.7 6.1c6.2 2.5 34 14 43.8 16.1 0 .2.1.5-.1.7 0 .1-.1.1-.2.1-10-2.1-39-14-43.8-15.9-.3.1 0-.9.3-1zm-1 3c6.1 2.5 34 13.8 43.8 16.3 0 .3.1.6 0 .8 0 0 0 .1-.1.1-10.3-2.3-39.2-14.3-43.9-16.2-.4 0 0-.9.2-1zm-1.5 5.8c8.8 3.5 26.5 12.3 34.6 15.7l-.1.9c-8-3.5-29-13.3-34.8-15.6-.4 0 0-.9.3-1zm-1 2.8c8.1 3.5 29.7 13.6 36.5 16.7l-.1.8c-8-3.5-30.3-13.6-36.8-16.4-.3-.1.2-1 .4-1.1zm-1 2.6c8.2 4.4 30.8 13.9 39.3 17.3l-.1.9c-8.1-3.2-32.2-13.2-39.5-17.2-.4 0 .1-.9.3-1zm-1.1 2c10.4 5.7 31.8 14.8 40.2 18.2l-.1.9c-8.1-3-32.8-13.8-40.5-18-.3-.1.1-1 .4-1.1zm-.8 2.2c10.4 5.7 34.4 17.2 42.8 20.6l-.3.7c-8-3.3-30.7-13.5-42.5-20.2-.5 0-.3-1 0-1.1zm-3.7 5.3c9.8 5 31.6 16.6 39.2 20.6l-.4.8c-9.7-5.6-27.5-13.6-39.2-20.5-.3-.1.2-.9.4-.9zm-1.5 2.1c8.1 5 29.1 15 36.7 19.5l-.4.7c-9.7-5.6-25-12.4-36.7-19.2-.4-.2.1-1 .4-1zm-1.2 2.2c10.4 6.5 28.3 15 35.6 19.1l-.6.5c-9.5-5.4-23.2-11.1-35.5-18.7-.2-.1.3-.9.5-.9zm29.9 23c-9.5-5.4-20.1-10.4-32.4-18-.4-.1.1-.9.4-.9 10.4 6.5 25.2 14.3 32.6 18.3l-.6.6zm-31.1-19.9c-.4-.1.1-.9.4-.9 10.5 6.5 27.3 14.6 34.7 18.6l-.6.5c-9.5-5.4-22.3-10.6-34.5-18.2z" fill="#f9f9f9"></path></g></g><g id="Hero_svg__XMLID_599_"><path id="Hero_svg__XMLID_727_" d="M88.4 360.4c9.9 2.9 19.9-1.8 28.4-6.5 11.3-6.3 22-13.5 31.5-22.4 6.2-5.7 12.2-12 17.2-18.7 3.4-4.5-1.4-10.8-3.2-13.2-11.5-15.2-17.4-22.3-27-34l-.9-1c-5.5-6.6-11.4-13.7-17.1-20.5-7.1-8.4-14.2-19.1-26-20.8-10-1.4-18.1 4.4-25.8 10-15.1 11.1-28 21.5-39.4 31.7-.5.4-2.8 2.9-2.9 3-2.3 2.4-4.5 4.3-3.4 7.8 5.3 17.1 29.8 50.7 48.1 69.3 4.9 5 9.9 9.7 15.9 13.4 1.4.8 3 1.4 4.6 1.9z"></path><g id="Hero_svg__XMLID_600_"><path id="Hero_svg__XMLID_722_" class="Hero_svg__st20" d="M132.7 265.9c-8.2-10-17.4-20.8-25.7-30.7-3.4-4-5.7-5.6-10.3-2.1-11.2 8.7-34.3 25.3-49.4 39-5.6 5.1-6.1 6.8-2.5 12.9 13.5 22.4 47.1 57.9 64.1 69.3 16.5-5.7 40.3-23.8 54.7-42.8 2.3-3-1.2-7.9-3.2-10.5-11.7-15.6-17.5-22.6-27.7-35.1zM69.4 270c1.8-10.4 12.1-17.4 22.1-15.7 4.9.8 9.5 3.8 12.8 7.8 3.1 3.8 4.8 8.6 4.2 13.5-1.3 10.4-13 18.3-23.1 16.6-10.1-1.8-18-10.9-16-22.2zm-13 11.9c-1.1.6-3 1.5-5.3-2-2-3-1.3-4.1.4-5.4 2-1.6 4.5-3 6.5-4.1 2-1.1 3.4-1.3 5.4 1.8 1.4 2.2.8 4-.9 5.3-1.9 1.5-4.1 3.3-6.1 4.4zm86.4 26.6c.4 4.7-.7 9.5-3.5 13.9-6.8 10.7-22.6 19.2-35.1 13.8-12.5-5.4-16.9-20.9-11.7-32.8 5.2-11.8 19.5-20.4 32.3-16.7 10.3 2.9 17.3 12 18 21.8z"></path><path id="Hero_svg__XMLID_719_" class="Hero_svg__st21" d="M118.4 288.3c-9.1-.2-18.3 5.3-22.6 13.3-4.2 7.8-4 18.2 1.5 25.3 9.1 11.7 25.7 9.2 35.7-.3 5.6-5.4 8.1-13.8 6.3-21.4-1.8-7.6-7.9-14-15.4-16.2-1.8-.4-3.6-.7-5.5-.7zm15.4 13.2c1.2 2.2 2 4.6 2.3 7.1 1 10.1-8 17.8-16.7 20.8-7.1 2.5-14.9 1.1-19.6-5.1-4.5-5.9-4.9-14.2-1.7-20.6 3.6-7.2 12.4-12.3 20.4-11.8 3.1.2 6.2 1.2 9 2.8 2.5 1.7 4.8 4.1 6.3 6.8z"></path><path id="Hero_svg__XMLID_707_" class="Hero_svg__st22" d="M103.4 300.2c-3 3-5.1 6.9-5.5 11.3-.4 4.1.6 8.4 3.2 11.7 3.9 5 10.1 6.4 16.1 4.9 6.4-1.6 13.2-5.9 15.8-12.3 2.3-5.5.8-11.9-3.2-16.2-4.6-4.9-10.9-6.3-17.2-4.6-3.5.9-6.7 2.8-9.2 5.2zm25 6.4c1.4 4.4-1 9.6-4.2 12.6-4.9 4.5-13.2 5.6-17.6-.1-4.5-5.9-2-14 4.3-17.4 5.7-3.1 15.3-2 17.5 4.9z"></path><path id="Hero_svg__XMLID_706_" class="Hero_svg__st20" d="M107.4 308.3c-1.5 3.2-1.6 7.1.5 9.8 2.2 2.8 5.5 3.7 8.9 2.9.9-.2 1.8-.5 2.6-1 2.9-1.4 5.4-3.8 6.6-6.9 1.6-4.3-.7-9.9-5.4-11-3.2-.8-7 .2-9.7 2-1.5 1-2.7 2.5-3.5 4.2z"></path><path id="Hero_svg__XMLID_705_" class="Hero_svg__st21" d="M78.4 345.6c4.1 4.3 8.7 9 13.7 13 .9.2 1.9.4 3 .4-4.6-4.5-8.1-9.1-10-12.3 3.6 3.6 7.7 8.3 12.1 12.2.8-.1 1.7-.3 2.5-.5-3.7-3.6-6.5-7.2-7.6-9.6 2.8 2.8 6.2 6.3 9.3 9.1 1.4-.3 3.8-1.5 4.1-1.9-19.6-13.9-58.6-60.6-67.2-76.4-1.9-2.1-13.3-4.9-16.4-4.6 5.1 16.4 28.9 49.4 47.5 68.4 8 8.2 15.1 13.8 19.4 14.4-4.9-4.5-9-9.1-10.4-12.2z"></path><path id="Hero_svg__XMLID_628_" class="Hero_svg__st21" d="M91.1 256c-9.2-1.6-18.5 4.8-20.1 14.3-1.8 10.3 5.4 18.6 14.5 20.2 9.2 1.6 19.3-5.4 20.4-14.9.8-6.2-3-13.2-8-16.8-2-1.4-4.3-2.4-6.8-2.8zm10.1 12.5l.3 1.2c1.1 4.7.2 10.1-3.3 13.7-3.4 3.4-8.4 5.1-13.1 4.3-7.7-1.3-12.3-7.8-10.9-16.2 1.3-7.7 8.6-12.8 16.2-11.5.2 0 .4.1.6.1 4.6.9 8.7 4.1 10.2 8.4z"></path><path id="Hero_svg__XMLID_613_" class="Hero_svg__st22" d="M90.2 261.6c-6.7-1.1-13.1 3.4-14.2 10.1-1.1 6.7 2.8 13.1 9.5 14.2 6.7 1.1 13.5-3.4 14.6-10.1 1.1-6.7-3.2-13.1-9.9-14.2zm3.4 12.9c-.9 3-3.9 4.8-6.7 4.1-2.8-.7-4.3-3.7-3.5-6.6.9-3 3.9-4.8 6.7-4.1 2.9.6 4.4 3.6 3.5 6.6z"></path><path id="Hero_svg__XMLID_612_" class="Hero_svg__st20" d="M90.1 269.8c-1.6-.7-3.6 0-4.4 1.7-.8 1.7-.2 3.6 1.4 4.3 1.6.7 3.6 0 4.4-1.7.8-1.6.2-3.6-1.4-4.3z"></path><path id="Hero_svg__XMLID_611_" d="M22.4 272.1c3.1.9 7.4 2 11 2.9 5.3 1.4 7.8-.2 11.8-3.8 13.8-12.5 42.1-34.3 54.2-42.1-1.2-.8-2.5-1.4-3.7-1.9-3.6 2.4-7.1 5-10.5 7.5 2.2-2.3 5.4-5.2 9.1-8.1-.7-.2-1.3-.4-1.9-.6-4.6 3-9.1 6.3-13.5 9.5 2.7-2.8 6.7-6.3 11.5-9.9-1.1-.2-2.2-.3-3.3-.3-4.9 3.2-9.8 6.7-14.5 10.2 2.7-2.8 6.7-6.4 11.6-9.9-6.3 1-10.7 4.6-12.1 5.5-1.9 1.3-3.7 2.6-5.5 3.9-13.5 9.9-26.8 20.4-39.2 31.6-.3.4-5.1 5.4-5 5.5z" fill="#7c5a44"></path><path id="Hero_svg__XMLID_606_" d="M58.2 271.7c-1.4.8-3.6 1.8-5 2.9-1.2.9-1.6 1.6-.3 3.6 1.6 2.4 3.2 1.4 4 1 1.4-.8 3-1.7 4.2-2.8.9-.8 1.5-2.2.5-3.7-1.3-2.1-2-1.7-3.4-1z" fill="#f5dcc6"></path></g></g><g id="Hero_svg__XMLID_497_"><path id="Hero_svg__XMLID_592_" d="M216.2 106c-2.6 3.5-4.1 7.7-3 11.7v.1c.7 2.2 3.7 8.9 7.4 17.3 3 6.8 6.5 14.5 9 20.5-.2-.5-3.5.1-3.9.2-11.3 2.2-19.8 14.1-20.8 25.2-.2 2.2-.1 4.4.7 6.4 2.1 5.3 8 5.6 12.7 4 5.1-1.8 9.5-5.3 13-9.3 4.7-5.4 8.8-12 9-19.3.2-7.5-4.2-14.7-7.4-21.2-1.4-2.8-2.7-5.5-3.7-7.9l.7-.9c4.1-5.1 11.5-4.9 17.4-4.1 8.3 1.1 17.4 2.8 24.7-2.4 2.2-1.5 4.2-3.7 5.9-6.3l.2-.4.1-.4c.3-1.4 1-6.1.2-8.5l-.6-1.6c.1-4.1-.6-7-2.4-9.7l-.6-.9c-.3-.4 0-2-.1-2.5-.4-4-1.7-7.5-4.5-10.6-.4-.4-.8-.8-1.3-.9-.7 4.8-2.8 9.1-7.6 10.5-4.3 1.2-9.1.9-13.5.8-1.8 0-3.6-.1-5.4-.1-6.5 0-13.2.6-18.9 3.9-2.6 1.4-5.3 3.7-7.3 6.4z"></path><g id="Hero_svg__XMLID_584_"><path id="Hero_svg__XMLID_591_" d="M276.7 118.1c.4-2 .8-5.9.3-7.5-9.8 13.4-25 6.8-37.1 6.5-5.9-.2-11.1 1.2-14.6 7 1 2.3 2 4.6 2.9 6.8 10.5-13.1 29.8 2.5 43.2-7 1.8-1.4 3.6-3.3 5.3-5.8z" fill="#f49934"></path><path id="Hero_svg__XMLID_590_" d="M230.4 106.9c-3.9 1.1-7.1 3.4-9 8.3.9 2 1.8 4.1 2.7 6.3 3.9-4.9 9.5-6.1 15.7-6 12.9.2 28.3 5.8 36.4-7.1.2-3.5-.3-6.3-2.1-9-10 14.8-30.8 4.1-43.7 7.5z" fill="#ffac39"></path><path id="Hero_svg__XMLID_589_" class="Hero_svg__st27" d="M217.7 106.4c.6 1.5 1.4 3.5 2.4 5.7 2.6-3.7 6.1-5.6 10.1-6.5 14.2-3.2 34.5 6.1 42.9-8.1.2-3.5-.6-6.8-2.5-9.4-6.6 18.7-38.1-1.7-52.9 18.3z"></path><path id="Hero_svg__XMLID_588_" class="Hero_svg__st27" d="M231.9 155.3c.7 1.7 1.8 2.5 2 4.5-4.2-5.1-14.7-1.6-21.8 7.7-2.8 3.6-4.7 7.7-5.5 12.2-.5 3.2-.4 7.4 2.5 9.6 4.1 3.2 13.6-.6 20.5-8.5 4.2-4.9 8.6-11.5 8.8-18.1 0-1.2-.1-2.4-.4-3.6-1.6-7-7.8-17.9-11.2-25.8-4.2-9.8-8.8-20-10.4-24.4l-.2.2c-1 1.1-2.1 3.3-1.2 7.2 1.3 4.2 11.5 25.9 16.9 39z"></path></g></g><g id="Hero_svg__XMLID_468_"><path id="Hero_svg__XMLID_495_" d="M159.4 447.8c.6-.5 1.2-1.1 1.7-1.7 4.7-5.3 12.9-15.7 18.5-23.1l2.2-2.9c3.1-3.5 7.3-8.3 4.7-13.3-1-2-3.2-4.2-5-6-.5-.5-1-1.1-1.5-1.5-2.5-2.7-5.6-5.5-7.8-7.4-2-1.8-10.1-8.2-15.5-12.5-1.6-1.3-2.9-2.3-3.6-2.8l-1.7-4.9c-.7-1.9-2.2-6.5-2.5-7.9-.6-2.9-1.4-9.2-2.5-16.4-1.4-9.9-3-19.8-4.7-29.7-.6-3.7-1.3-7.5-2-11.2-.6-3-1.5-6.6-3.9-8.7-1.1-.9-2.4-1.4-3.8-1.3-3.4.2-4.6 3.6-4.6 6.6 0 5.7 2.2 11.9 3.5 17.4 2.8 12.3 9.5 31.4 8.6 39.9-4.9-11.6-11.9-31.1-17.1-48.9-.9-3-2.4-6.3-6-6.3-7.4-.1-5.3 9.3-3.7 13.6 2.9 8 6.2 15.8 9.7 23.5 2.2 4.8 4.5 9.5 6.7 14.3.7 1.5 1.4 2.9 2 4.2-3.5-2.4-7.1-4.8-11-6.6-1.8-.8-4.5-2-6.5-.9-5.8 3.3-9.4 10.5-13.3 15.7-4.1 5.5-8.1 11.1-12 16.8l-.4.6v.8c.1 2 1.1 4.9 3.1 8.6 9.3 17 22.6 31.4 39.1 41.6 4.6 2.9 9.7 5.4 14.7 7.6 2.6 1.2 5.3 2.2 8 3.3 1.9.7 3.6 1.6 5.4.1.6-.1 1-.4 1.2-.6z"></path><g id="Hero_svg__XMLID_469_"><path id="Hero_svg__XMLID_494_" class="Hero_svg__st21" d="M115 355.6c-1 .9-.7 3.2.6 6.2 3.3 7.6 13.1 20.2 24.8 30.1 6.4 5.4 13.5 10.1 20.8 14 3.2 1.7 6.4 3.2 9.7 4.5 3 1.1 6.5 2.6 9.7 2.6 1.4 0 3-.3 3.9-1.5.7-1 .6-2.5 0-3.6-1.3-2.4-4.2-5-6.1-7.1-2.4-2.6-5.4-5.4-7.6-7.3-2.7-2.4-18-14.4-19.5-15.6 1 8.4-4.6 8.4-6.8 7.8-3.8-1-6.2-5.5-7.1-10-.3-1.4-.4-2.7-.3-4-1-1.7-2.2-4-3.6-6.7-9.5-6.7-16.8-11.1-18.5-9.4z"></path><path id="Hero_svg__XMLID_493_" d="M179.8 419.1c1.2-1.3 2.3-2.6 3.3-3.9-14.1-1.2-32.7-12.8-44.5-22.8-11.5-9.7-21-22-24.6-30.3-.8-1.9-1.3-3.6-1.4-5.1-.9 1-2 2.5-3.5 4.4 1.1 6.3 9.9 19.8 21.7 31.2 1.7 1.6 3.4 3.2 5.2 4.7 11.9 10 30.4 19.9 43.8 21.8z" fill="#dd9f70"></path><path id="Hero_svg__XMLID_492_" class="Hero_svg__st29" d="M146.8 408.6c-3.1 10-6.8 22.6-8.7 29.5.5-.4 1.3-1.1 2.2-1.9 5.1-4.3 15.2-13.1 22.6-19.2-1.3-.6-2.7-1.2-4.1-1.8-4.7 3.7-9.3 7.6-11.1 9 .6-3.2 1.6-8.4 2.7-13.4-1.2-.7-2.4-1.5-3.6-2.2z"></path><path id="Hero_svg__XMLID_491_" class="Hero_svg__st29" d="M122.9 423c-.4 1-.7 1.9-1 2.7 4.6-3.7 17.7-13.7 23.6-18l-3-2.1c-4 2.9-8.6 6.3-10.5 7.9.7-3.6 2-9.1 3.2-14.1-1.1-1-2.1-2-3.1-3-.5 1.6-8.9 25.8-9.2 26.6z"></path><path id="Hero_svg__XMLID_490_" d="M139.7 369.8c-1.4 1.6-1.2 3.9-.8 5.5.1.3.1.6.2.8 1.7 6.4 5.1 8.9 8.2 7.3 2.7-1.4 2.5-8.9-5-13.5-6.1-13.4-15.2-35.5-21.7-58-.3-1-.6-1.8-.9-2.5-1.1-2.2-2.3-2.5-4.1-2-2.2.6-2.8 2.5-1.5 7 4.7 16.3 19.5 44.4 23.9 55.1.5.3 1.3.2 1.7.3z" fill="#e3a87b"></path><path id="Hero_svg__XMLID_483_" class="Hero_svg__st21" d="M124.3 430.6c4.4-3.2 9-6.7 11.6-8.5-.5 3-1.4 8.9-2.3 14.8 1 .6 1.9 1.1 2.9 1.6.1-.2.1-.5.2-.7 1.9-7.7 5-18.4 7.6-27.1-6 4.4-17.3 13-23.2 17.6 1.1.7 2.1 1.5 3.2 2.3z"></path><path id="Hero_svg__XMLID_482_" class="Hero_svg__st29" d="M141.8 363.2c.7 1.5 1.3 2.9 1.9 4.3 1.7 1.2 4.1 3.6 6 5.7-.5-1.4-2.5-7.2-2.9-9.2-1.1-5.4-3.1-21.7-5.1-34.7-1.4-8.7-3-17.6-5-25.5-.8-2.9-2.1-5.5-4.3-5.3-.8.1-1.5.4-2 1.3-.7 1.3-.8 3.5.1 7.3 2.3 10.3 4.7 20.6 7 30.8 1 4.4 2.2 8.7 3.1 13.2.4 2.3.7 4.6 1 6.9.2 1.5-.3 3.9.2 5.2z"></path><path id="Hero_svg__XMLID_481_" class="Hero_svg__st29" d="M132 435.8c.9-4.4 1.7-8.6 2.2-11.1-2.1 1.5-5.4 4-8.8 6.6 2.1 1.6 4.3 3.2 6.6 4.5z"></path><path id="Hero_svg__XMLID_480_" class="Hero_svg__st29" d="M108.1 365.5c-3.7 9-9.2 22.9-11.2 27.9 3.3-1.9 12.9-7.7 20.8-12.2-.8-1-1.5-1.9-2.2-2.8-4.3 2.3-8.8 4.8-10.8 6 .9-2.8 3.3-8.6 5.6-14-.9-1.7-1.6-3.3-2.2-4.9z"></path><path id="Hero_svg__XMLID_478_" class="Hero_svg__st29" d="M129.5 394l-2-2c-1.3.7-9.9 5.8-13.5 8 1-2.5 5.9-12.6 6.9-15l-2.1-2.4c-1.5 2.7-11.3 22.1-13 25.2.3 0 23.5-11.9 24.8-12.6-.3-.4-.7-.8-1.1-1.2z"></path><path id="Hero_svg__XMLID_477_" class="Hero_svg__st21" d="M106.5 365.1c-5.1 6.6-11.6 15.6-15.9 22.1.1 1.9 1.4 5 3.4 8.9 2.8-6.9 9.4-23.5 12.5-31z"></path><path id="Hero_svg__XMLID_476_" class="Hero_svg__st21" d="M122.2 406.4l-6.1 17.4c1.3 1.1 2.6 2.3 4 3.4.5-1.4 1.1-3 1.7-4.6.1-.4 8.5-24.6 8.9-25.9-1.1.6-24.6 12.7-26.6 13.7.8 1.2 1.7 2.4 2.9 3.9l15.2-7.9z"></path><path id="Hero_svg__XMLID_475_" class="Hero_svg__st29" d="M115.1 422.9l5-14.2-12.5 6.5c1.9 2.2 4.5 4.9 7.5 7.7z"></path><path id="Hero_svg__XMLID_474_" class="Hero_svg__st21" d="M116.6 383.5c-8.2 4.7-18.2 10.9-22.2 13.2.2.3 1 1.6 2.1 3.2 3.1-2.1 11-7.4 11-7.4l-7 13.2c.9 1.3 1.9 2.5 2.6 3.4 4.6-8.7 12.3-23.2 13.5-25.6z"></path><path id="Hero_svg__XMLID_473_" class="Hero_svg__st29" d="M105 395.4s-5.6 3.8-7.9 5.3c.9 1.3 1.9 2.7 2.9 4.1l5-9.4z"></path><path id="Hero_svg__XMLID_472_" class="Hero_svg__st29" d="M165.4 417.9s8.8 3.1 12.5 3.7c-5.9 7.8-13.9 17.9-18.4 22.9l5.9-26.6z"></path><path id="Hero_svg__XMLID_471_" class="Hero_svg__st21" d="M155.8 430.6l-2.7 15.4c1.6.6 3.1 1.1 4.3 1.4.8-3.4 4.7-24.9 5.6-28.4-6.5 5.3-15.4 12.8-21.4 17.9-.9.7-2.3 1.8-3 2.4.9.5 2.3 1.2 3.9 2l13.3-10.7z"></path><path id="Hero_svg__XMLID_470_" class="Hero_svg__st29" d="M153.3 434.7l-9.3 7.4c2.3 1.1 4.9 2.3 7.4 3.2l1.9-10.6z"></path></g></g><g><path d="M305.3 104.8c2.1.8 4.3.4 6.1-1 1.1-.8 1.8-2 2.2-3.3 1.1-3.5-.8-7.3-4.2-8.5-2.1-.7-4.3-.4-6.1 1-1.1.8-1.8 2-2.2 3.3-1.1 3.4.8 7.2 4.2 8.5z"></path><path class="Hero_svg__st0" d="M311.4 95.5c1.4 2.3.8 5.4-1.5 6.9-2.2 1.6-5.2 1-6.6-1.2-1.4-2.3-.8-5.4 1.5-6.9 2.2-1.6 5.2-1 6.6 1.2z"></path></g><g><g id="Hero_svg__XMLID_465_"><path id="Hero_svg__XMLID_467_" d="M290.5 383.4l9.4-22-21 7.2-19.4-13.8 2 21.7-21.1 11.1 25.1 5.5 4.9 26.1 12-20.2 20.1 4.3z"></path><path id="Hero_svg__XMLID_466_" class="Hero_svg__st27" d="M297.7 399.9l-9.9-16.3 8.9-19.5-18.1 7.1-16.3-11.6 1.6 18.3-18.8 9.2 22.4 4 3.8 23.2 9.9-18z"></path></g></g><g><g id="Hero_svg__XMLID_435_"><path id="Hero_svg__XMLID_464_" d="M34 49.5l-2.2 11L42.4 56l8.7 7.5V50.9l9.7-7.4-12.6-3.2-5.8-9.8-4.7 9-11 .3z"></path><path id="Hero_svg__XMLID_453_" fill="#ffd433" d="M34.4 57.6l8.4-4.4 6.1 5.2-.1-8.8 8.1-5.3-10.2-2-3.8-7.6-3.8 7.2-8.7-.4 6.2 7.4z"></path></g></g><g><g id="Hero_svg__XMLID_200_"><path id="Hero_svg__XMLID_405_" d="M27.9 229c1.5 1.2 3.2 2.2 4.9 3 7.4 3.2 16.5 2.3 23.6-2.5l.9-.6 1 .6c14.7 8.1 33.5 11.7 49.6 5.3 5.4-2.2 10.3-5.5 14.4-9.6 12-12.2 16.3-30.9 10.2-47-4.3-11.2-13.1-20.5-24.1-25.3-1.1-.5-2.2-.9-3.4-1.3.6.2 2.8-1.1 3.4-1.3 1.3-.5 2.5-1.1 3.8-1.7 2.5-1.2 5-2.6 7.4-4.2 4.5-3 8.6-7.1 10.5-12.3 2.3-6.3.6-14.1-6-16.9-3.6-1.5-8-1.4-12.6.4l-.1.1c-8 3.8-13.5 10-19.7 23.1-.8 1.7-2.1 5.3-3.1 7.8 0 0-21.2 7.9-28.3 12.9-16 11.3-18.2 22.8-16.5 31.3 1.8 8.7 6.8 16.2 14.1 21.3.2.2-3.6 4.1-3.9 4.4-2.4 2.4-5.6 4.9-9 5.7-1.8.4-4.1.1-5.8-.6-3.5-1.4-6-4.3-5.7-8.1.1-2.2 1-4.5 2.8-5.8.4-.3.9-.5 1.5-.5.5 0 1.1.4 1.1.9-1 .4-1.9 1.2-2.5 2.1-2.7 3.7 1.2 8.4 5.2 8.4 3.9.1 6-3.2 6.7-6.7.5-2.5.5-5.2-.4-7.6-3.9-10.4-19-7.4-24.5-.3-6.7 8.5-2.6 19.2 4.5 25zM115 125.2c1.3-.8 2.6-1.2 3.7-.6 3 1.6-.4 5.8-1.8 7.2-3.3 3.4-9.5 7.5-14 9.3 2.1-3.9 4.4-7.9 7.2-11.3.9-1.1 2.9-3.4 4.9-4.6zm-36.8 72.2l.1-.1c5.8 1.9 14.1-1.8 16.2-6.1 1.5-3 1.5-5.4.3-8.4-.6-1.5-1.6-2.9-2.8-4-.3-.3-4.3-2.8-4.5-2.3l1.5-3.6.2-.5c.8.2 1.5.4 2.2.7 7 3 11.2 12.8 9.2 20.1-1.2 4.5-4.6 8.3-9.7 10.8-4.4 2.2-10.8 2.6-16.7 1.1 1.3-2.3 2.6-4.9 4-7.7zm-21.3-12.7c.4-10.2 10.6-20.3 27.1-27-.1.3-.8 1.6-.9 1.8l-.9 2.2c-2.1.6-4.1 1.4-6.2 2.6-6 3.4-9.5 8.7-10 14.9-.4 4.4.9 8.7 3.4 12l-.5 1c-1.4 3.1-3.4 6.5-4.8 9.1-4.9-3.9-7.5-9.9-7.2-16.6z"></path><g id="Hero_svg__XMLID_201_"><path id="Hero_svg__XMLID_404_" class="Hero_svg__st8" d="M123.8 193.8c-2.2-1.4-4.9-.7-6.2 1.6-1.2 2.2-.5 5.2 1.6 6.5 2.2 1.4 4.9.7 6.2-1.6 1.3-2.2.6-5.1-1.6-6.5z"></path><path id="Hero_svg__XMLID_399_" class="Hero_svg__st8" d="M116.2 208.5c-1.9-.8-4.1.2-5 2.2-.9 2-.1 4.3 1.8 5.1 1.9.8 4.1-.2 5-2.2.9-2 .1-4.3-1.8-5.1z"></path><path id="Hero_svg__XMLID_398_" class="Hero_svg__st8" d="M125.3 183.5c.6-1.9-.3-4-2.1-4.6-1.8-.6-3.8.5-4.4 2.4-.6 1.9.3 4 2.1 4.6 1.8.6 3.8-.4 4.4-2.4z"></path><path id="Hero_svg__XMLID_397_" class="Hero_svg__st8" d="M104.2 219.7c-1.8-.8-3.9.1-4.8 1.9-.9 1.8-.2 3.9 1.6 4.7 1.8.8 3.9-.1 4.8-1.9.9-1.8.2-3.9-1.6-4.7z"></path><path id="Hero_svg__XMLID_396_" class="Hero_svg__st8" d="M89.3 224.1c-1.8-.8-3.9.1-4.8 1.9-.9 1.8-.2 3.9 1.6 4.7 1.8.8 3.9-.1 4.8-1.9.9-1.8.2-3.9-1.6-4.7z"></path><path id="Hero_svg__XMLID_395_" class="Hero_svg__st27" d="M95.7 213.5c4.4-2.3 8.1-5.8 10.8-9.9 5.6-8.6 6.6-20-.1-28.9-6.5-8.7-16.6-15.6-29.3-8.4-11.9 6.8-10.5 20.2-3.9 25.6 1.1.9 2.4 1.7 3.7 2.4 4.7 2.3 10.4 2.2 15.2-3.4 2-2.3 1.8-10.4-5.2-12.1 3.2 4.7-.2 11.8-5.8 10.3-6.3-1.7-9-8.3-4.4-14.4 5.8-7.6 17.1-5.5 22.1 1.8 9.1 13.5 3.4 24.6-6.9 29.7-4.9 2.4-11.9 2.9-18.4 1.3-1.6 3-3.2 5.8-4.7 8.3 8.9 2.5 18.8 1.9 26.9-2.3z"></path><path id="Hero_svg__XMLID_394_" class="Hero_svg__st8" d="M117.1 166.5c-1.4-1.3-3.5-1.1-4.7.5-1.2 1.5-1.1 3.8.3 5 1.4 1.3 3.5 1.1 4.7-.4 1.2-1.6 1.1-3.9-.3-5.1z"></path><path id="Hero_svg__XMLID_393_" class="Hero_svg__st27" d="M112.3 117.7c-7.5 3.6-12.9 10.1-18.9 22.7-1.4 3-3.2 7.4-5.2 12.3-1 2.4-2 5-3 7.6 2.1-.1 4.3.2 6.4.8 1.1-2.7 2.2-5.2 3.3-7.6 2.1-4.8 3.8-8.8 4.8-10.9 4.5-8.6 9.1-16.3 14.2-19.1 6.9-3.8 11.2 2.7 4.5 9.7-3.9 4-11.5 8.7-16.1 10.1-.5 1.3-2.8 6.4-3.2 7.9 11.4-3.9 24.5-9.4 29-20 3.1-10.7-4.8-17.9-15.8-13.5z"></path><path id="Hero_svg__XMLID_392_" class="Hero_svg__st8" d="M104.7 158.4c-1-.8-2.6-.6-3.4.5-.9 1.1-.8 2.6.3 3.4 1 .8 2.6.6 3.4-.5.8-1.1.7-2.6-.3-3.4z"></path><path id="Hero_svg__XMLID_391_" class="Hero_svg__st8" d="M74.3 224.5c-1-.8-2.6-.6-3.4.5-.9 1.1-.8 2.6.3 3.4 1 .8 2.6.6 3.4-.5.8-1 .7-2.6-.3-3.4z"></path><path id="Hero_svg__XMLID_390_" class="Hero_svg__st27" d="M78.5 177c-1.8 3.5-.6 6.9 2.3 9.2 1.8-4 3.9-8.9 6.1-14.1-3.3-.4-6.5 1-8.4 4.9z"></path><path id="Hero_svg__XMLID_389_" class="Hero_svg__st27" d="M41.5 209.5c-1.6-1.2-4.3.2-4.8 2.2-1.1 3.6 2.5 6.2 5.8 5.4 4.1-1 5.7-7 4.1-11.1-3.6-9.1-16.5-7-21.5-.5-5.6 7.1-2.3 16.4 4.2 21.7 7.3 6 18.1 5.6 25.8.4.6-.4 1.1-.8 1.7-1.2 6.7-5.3 12-15 19.3-30 0 0-.1 0-.1-.1-1.8-.9-3.9-2.2-5-3.1-3.9 8.2-7.4 14.4-10.6 19-9.2 13-16 13.3-21.3 11.5-6.9-2.3-8.8-9.4-5.4-14.9 3-4.8 7.1-3.7 8.9-.5.8 1.1-.2 1.9-1.1 1.2z"></path><path id="Hero_svg__XMLID_388_" class="Hero_svg__st27" d="M87.6 148.6c-11.8 3.7-20.9 8-27.5 12.7-12.9 9-16.8 19.5-14.6 29.8 1.8 8.7 6.7 15.3 13 19.7 1.5-2.4 3.1-5.1 4.9-8.2-5-3.9-8.4-9.9-8.1-18.1.4-9.4 7.4-20.4 29.5-28.8.4-.7 1-2.2 1.6-3.7.5-1.4 1-2.7 1.2-3.4z"></path><path id="Hero_svg__XMLID_290_" class="Hero_svg__st21" d="M131.8 203.8c5.8-22.3-8.5-45.2-30.4-51-.4.1-.8.3-1.2.4-1.2.4-2.4.8-3.5 1.1-.6 1.3-1.8 4.3-3.1 7.4 6.3 2.3 11.8 7.2 14.9 12 6.9 10.7 5.3 22.2-.4 30.8-1.1 1.7-2.4 3.3-3.8 4.8-7.5 7.9-17 11.8-27.6 10.5-5.4-.7-9-2.3-9.1-2.2-4.1 6-5.9 7.6-8.2 9.8 19.3 10.6 44.9 12.8 61.2-3.9 3.3-3.4 6.1-7.4 8.2-11.7 1.3-2.5 2.3-5.2 3-8zm-30-40.2c-1.9-.8-2.7-3-1.9-4.8.8-1.9 3-2.7 4.8-1.9 1.9.8 2.7 3 1.9 4.8-.8 1.9-3 2.8-4.8 1.9zm-30.5 65.9c-1.9-.8-2.7-3-1.9-4.8.8-1.9 3-2.7 4.8-1.9 1.9.8 2.7 3 1.9 4.8-.7 1.9-2.9 2.7-4.8 1.9zm41.6-55.8c-2.5-1.1-3.6-4-2.5-6.5s4-3.6 6.5-2.5 3.6 4 2.5 6.5c-1.1 2.4-4 3.6-6.5 2.5zm4.1 7.7c.5-2.9 3.1-4.8 5.8-4.3 2.7.5 4.4 3.2 3.9 6.1-.5 2.9-3.1 4.8-5.8 4.3-2.7-.5-4.4-3.3-3.9-6.1zm-16.4 46.2c-2.5-1.1-3.7-4.1-2.6-6.6s4.1-3.7 6.6-2.6 3.7 4 2.6 6.6c-1.1 2.5-4.1 3.7-6.6 2.6zm-14.8 4.2c-2.5-1.1-3.7-4.1-2.6-6.6s4.1-3.7 6.6-2.6 3.7 4 2.6 6.6c-1.1 2.5-4.1 3.7-6.6 2.6zm26.8-14.5c-2.7-1.2-3.9-4.4-2.7-7.2 1.2-2.8 4.4-4.1 7.1-2.9 2.7 1.2 3.9 4.4 2.7 7.2-1.2 2.8-4.4 4.1-7.1 2.9zm14.2-16.1c-1.7 3-5.3 3.9-8.2 2.1-2.9-1.8-3.9-5.7-2.2-8.7 1.7-3 5.3-3.9 8.2-2.1 2.9 1.8 3.8 5.7 2.2 8.7z"></path></g></g></g></svg>