<?xml version="1.0" encoding="utf-8"?>
<!-- Generator: Adobe Illustrator 25.1.0, SVG Export Plug-In . SVG Version: 6.00 Build 0)  -->
<svg version="1.1" id="Layer_1" xmlns="http://www.w3.org/2000/svg" xmlns:xlink="http://www.w3.org/1999/xlink" x="0px" y="0px"
	 viewBox="0 0 400 400" style="enable-background:new 0 0 400 400;" xml:space="preserve">
<style type="text/css">
	.st0{fill-rule:evenodd;clip-rule:evenodd;fill:none;}
	.st1{fill-rule:evenodd;clip-rule:evenodd;fill:#181616;}
</style>
<rect class="st0" width="400" height="400"/>
<path class="st1" d="M199.99,46.81c-86.73,0-157.06,70.32-157.06,157.08c0,69.39,45,128.26,107.42,149.04
	c7.85,1.44,10.72-3.41,10.72-7.57c0-3.73-0.14-13.61-0.21-26.71c-43.69,9.49-52.91-21.06-52.91-21.06
	c-7.14-18.15-17.44-22.98-17.44-22.98c-14.26-9.75,1.08-9.55,1.08-9.55c15.76,1.11,24.06,16.19,24.06,16.19
	c14.01,24,36.76,17.07,45.71,13.05c1.43-10.15,5.48-17.07,9.97-21c-34.88-3.96-71.55-17.44-71.55-77.63
	c0-17.15,6.12-31.17,16.17-42.15c-1.62-3.97-7.01-19.94,1.54-41.57c0,0,13.19-4.22,43.19,16.1c12.53-3.48,25.97-5.23,39.32-5.29
	c13.34,0.06,26.78,1.8,39.32,5.29c29.99-20.33,43.15-16.1,43.15-16.1c8.57,21.63,3.18,37.6,1.56,41.57
	c10.07,10.98,16.15,25,16.15,42.15c0,60.34-36.72,73.62-71.72,77.51c5.64,4.85,10.66,14.44,10.66,29.09c0,21-0.19,37.94-0.19,43.09
	c0,4.2,2.83,9.09,10.8,7.55c62.36-20.81,107.33-79.65,107.33-149.02C357.07,117.13,286.74,46.81,199.99,46.81z"/>
</svg>
